<svg xmlns="http://www.w3.org/2000/svg" xmlns:xlink="http://www.w3.org/1999/xlink" width="190" height="424" viewBox="0 0 190 424">
  <defs>
    <clipPath id="clip-path">
      <rect id="Rectángulo_423668" data-name="Rectángulo 423668" width="190" height="424" transform="translate(180 4411)" fill="#fff" stroke="#707070" stroke-width="1"/>
    </clipPath>
    <clipPath id="clip-path-2">
      <rect id="Rectángulo_423691" data-name="Rectángulo 423691" width="237.209" height="419.892" fill="none"/>
    </clipPath>
    <clipPath id="clip-path-4">
      <rect id="Rectángulo_423669" data-name="Rectángulo 423669" width="49" height="132.935" fill="none"/>
    </clipPath>
    <clipPath id="clip-path-5">
      <rect id="Rectángulo_423670" data-name="Rectángulo 423670" width="49" height="133.33" fill="none"/>
    </clipPath>
    <clipPath id="clip-path-6">
      <rect id="Rectángulo_423671" data-name="Rectángulo 423671" width="68.586" height="36.026" fill="none"/>
    </clipPath>
    <clipPath id="clip-path-7">
      <rect id="Rectángulo_423672" data-name="Rectángulo 423672" width="9.338" height="12.747" fill="none"/>
    </clipPath>
    <clipPath id="clip-path-9">
      <rect id="Rectángulo_423674" data-name="Rectángulo 423674" width="37.357" height="127.992" fill="none"/>
    </clipPath>
    <clipPath id="clip-path-10">
      <rect id="Rectángulo_423675" data-name="Rectángulo 423675" width="47.068" height="12.483" fill="none"/>
    </clipPath>
    <clipPath id="clip-path-11">
      <rect id="Rectángulo_423676" data-name="Rectángulo 423676" width="18.427" height="10.285" fill="none"/>
    </clipPath>
    <clipPath id="clip-path-12">
      <rect id="Rectángulo_423677" data-name="Rectángulo 423677" width="18.348" height="10.13" fill="none"/>
    </clipPath>
    <clipPath id="clip-path-13">
      <rect id="Rectángulo_423678" data-name="Rectángulo 423678" width="14.923" height="48.215" fill="none"/>
    </clipPath>
    <clipPath id="clip-path-15">
      <rect id="Rectángulo_423680" data-name="Rectángulo 423680" width="45.347" height="56.325" fill="none"/>
    </clipPath>
    <clipPath id="clip-path-17">
      <rect id="Rectángulo_423684" data-name="Rectángulo 423684" width="16.078" height="37.511" fill="none"/>
    </clipPath>
    <clipPath id="clip-path-19">
      <rect id="Rectángulo_423686" data-name="Rectángulo 423686" width="69.716" height="64.685" fill="none"/>
    </clipPath>
    <clipPath id="clip-path-20">
      <rect id="Rectángulo_423687" data-name="Rectángulo 423687" width="37.357" height="127.993" fill="none"/>
    </clipPath>
    <clipPath id="clip-path-21">
      <rect id="Rectángulo_423688" data-name="Rectángulo 423688" width="10.452" height="6.354" fill="none"/>
    </clipPath>
    <clipPath id="clip-path-22">
      <rect id="Rectángulo_423689" data-name="Rectángulo 423689" width="10.451" height="6.354" fill="none"/>
    </clipPath>
  </defs>
  <g id="Enmascarar_grupo_1098661" data-name="Enmascarar grupo 1098661" transform="translate(-180 -4411)" clip-path="url(#clip-path)">
    <g id="Grupo_1235276" data-name="Grupo 1235276" transform="translate(159.57 4415.108)">
      <g id="Grupo_1235275" data-name="Grupo 1235275" clip-path="url(#clip-path-2)">
        <g id="Grupo_1235274" data-name="Grupo 1235274" transform="translate(0 0)">
          <g id="Grupo_1235273" data-name="Grupo 1235273" clip-path="url(#clip-path-2)">
            <path id="Trazado_1253427" data-name="Trazado 1253427" d="M189.4,3126.24c0,5.153-42.4,9.33-94.7,9.33S0,3131.392,0,3126.24s42.4-9.33,94.7-9.33,94.7,4.177,94.7,9.33" transform="translate(21.031 -2715.677)" fill="#6c9d9a"/>
            <path id="Trazado_1253428" data-name="Trazado 1253428" d="M594.984,1735.133s-1.5,2.743.662,6.9c.647,1.242-1.5,2.237-1.619,3.873s1.57,3.373,1.453,5.213c-.41,6.5-.979,17.453-1.146,25.778-.132,6.572-.033,15.991.177,26.15.4,19.2,1.2,41.049,1.592,51.3.034.89-1.395,3.312-1.367,4.018.088,2.237,1.6,1.885,1.6,1.885H627.9s1.474-.3,1.756-2.919c.061-.568-1.185-2.418-1.113-3.084,1.878-17.353,7.347-66.605,9.354-70.673,2.3-4.67,6.415,31.852,8.815,69.944.047.747-1.544,3.313-1.5,4.061.092,1.5,1.818,1.175,1.9,2.671h31.211a1.717,1.717,0,0,0,1.559-1.844c.021-.945-1.45-3.024-1.418-4.384.383-16.512,1.479-61.357,2.468-79.1a228.265,228.265,0,0,0-.312-23.431c-.064-1.16,1.69-2.88,1.62-3.973-.064-1-1.933-2.912-1.476-3.724,3.66-6.5,1.478-9.065,1.478-9.065Z" transform="translate(-517.554 -1511.422)" fill="#1a2930"/>
            <path id="Trazado_1253429" data-name="Trazado 1253429" d="M648.755,389.393s-11.118-3.139-11.585,4.565,9.37,11.744,13.04,12-1.455-16.568-1.455-16.568" transform="translate(-555.134 -338.716)" fill="#f79c7c"/>
            <path id="Trazado_1253430" data-name="Trazado 1253430" d="M508.892,743.98s-26.961,5.043-38.179,12.755,8.451,31.436,11.218,51.181c2.136,15.242-1.4,51.882-2.1,61s83.006,12.4,95.626,4.688c0,0-2.558-52.4-1.444-62.646,1.169-10.75,21.093-38.892,14.205-51.506-3.023-5.537-35.059-14.44-43.738-16.074-11.046-2.08-35.584.607-35.584.607" transform="translate(-407.132 -646.993)" fill="#466e7f"/>
            <path id="Trazado_1253431" data-name="Trazado 1253431" d="M771.322,569.3s3.215,13.51-2.424,22.53,14.318,17.433,23.971,17.433,20.5-11.356,16.663-19.982C804.624,578.239,808.3,569.3,808.3,569.3Z" transform="translate(-669.06 -496.016)" fill="#f79c7c"/>
            <path id="Trazado_1253432" data-name="Trazado 1253432" d="M801.461,571.052s5.214,10.177,16.268,10.177c12.7,0,18.571-13.56,18.571-13.56a19.313,19.313,0,0,1,1.236-5.954c1.505-4.27-36.075,5.039-36.075,5.039Z" transform="translate(-698.291 -488.43)" fill="#b75a39"/>
            <path id="Trazado_1253433" data-name="Trazado 1253433" d="M685.387,1727.569l2.9,5.607s-6.349,5.611-43.91,5.431c-16.312-.078-33.542-1.282-43.465-5.649l2.724-6.461a587.445,587.445,0,0,0,81.75,1.073" transform="translate(-523.559 -1504.249)" fill="#090e10"/>
            <path id="Trazado_1253434" data-name="Trazado 1253434" d="M864.241,1745.6s-.776-10.205,1.412-10.654,14.553-.033,15.88-.068,1.452,9.955.955,10.722-11.289,1.093-18.247,0" transform="translate(-752.873 -1511.423)" fill="#6d91a9"/>
            <path id="Trazado_1253435" data-name="Trazado 1253435" d="M693.089,153.276s-.082,27.978,22.669,41.833c19.014,11.579,40.9-24.772,39.729-48.143-.665-13.3-15.424-21.033-31.2-21.033s-32.6,5.842-31.2,27.343" transform="translate(-603.798 -109.722)" fill="#f79c7c"/>
            <path id="Trazado_1253436" data-name="Trazado 1253436" d="M674.819,57.378s-4.75-39.273,34.42-37.772c1.558.06,3.361.161,4.771.337,32.4,4.043,26.492,37.436,26.492,37.436H674.819Z" transform="translate(-587.793 -17.046)" fill="#dd4b1d"/>
            <g id="Grupo_1235218" data-name="Grupo 1235218" transform="translate(71.477 99.193)" opacity="0.5">
              <g id="Grupo_1235217" data-name="Grupo 1235217">
                <g id="Grupo_1235216" data-name="Grupo 1235216" clip-path="url(#clip-path-4)">
                  <path id="Trazado_1253437" data-name="Trazado 1253437" d="M575.584,770.573s2.733,30.233,13.628,40.494,15.218,16.551,15.043,21.847-3.231,67.439-3.231,67.439-.5,3.258-7.413,3.15-35.874,1.572-36.536-14.978,1.506-56.223,1.506-56.223,3.749-16.311,3.128-23.883-8.3-29.5-6.032-31.6,19.907-6.246,19.907-6.246" transform="translate(-555.26 -770.573)" fill="#001c2f"/>
                </g>
              </g>
            </g>
            <g id="Grupo_1235221" data-name="Grupo 1235221" transform="translate(121.873 99.619)" opacity="0.5">
              <g id="Grupo_1235220" data-name="Grupo 1235220">
                <g id="Grupo_1235219" data-name="Grupo 1235219" clip-path="url(#clip-path-5)">
                  <path id="Trazado_1253438" data-name="Trazado 1253438" d="M975.385,773.875s-2.931,26.5-13.826,36.759-14.978,19.861-14.8,25.157,3.231,67.439,3.231,67.439.771,4.081,7.682,3.973,35.6.749,36.266-15.8-1.506-56.223-1.506-56.223-3.749-16.311-3.128-23.883,8.3-29.5,6.032-31.6-19.949-5.821-19.949-5.821" transform="translate(-946.751 -773.876)" fill="#001c2f"/>
                </g>
              </g>
            </g>
            <path id="Trazado_1253439" data-name="Trazado 1253439" d="M996.525,764.912a3.583,3.583,0,0,1,4.509-3.013,79.27,79.27,0,0,1,13.636,4.938c6.986,3.519-15.821,31.851-2.66,59.021a12.711,12.711,0,0,1,1.257,5.1c.14,4.041.562,12.282,1.826,23.82,1.844,16.827,5.6,35.053-5.146,37.857a160.926,160.926,0,0,1-30.986,4.235,5.646,5.646,0,0,1-5.813-5.281c-.877-13.693-3.129-50.469-3.049-65.652.1-18.246,21.466-20.432,26.426-61.027" transform="translate(-845.218 -663.709)" fill="#ee6835"/>
            <path id="Trazado_1253440" data-name="Trazado 1253440" d="M1305.633,858.618s9.545,7.251,11.648,23.377,6.894,38.561,6.193,53.284-.986,48.143-3.181,53.05-13.373,1.163-15.242-3.511-3.01-37.692-5.006-59.764c-2.425-26.817-7.872-29.227-7.872-35.771s6.215-36.274,13.46-30.665" transform="translate(-1125.834 -747.48)" fill="#466e7f"/>
            <path id="Trazado_1253441" data-name="Trazado 1253441" d="M688.083,313.318s1.162,3.681-1.993,9.64a20.78,20.78,0,0,0-1.96,9.783,31.638,31.638,0,0,1-5.546-19.423Z" transform="translate(-591.19 -272.986)" fill="#792c0f"/>
            <path id="Trazado_1253442" data-name="Trazado 1253442" d="M1112.949,389.393s11.118-3.139,11.585,4.565-9.37,11.744-13.04,12,1.455-16.568,1.455-16.568" transform="translate(-967.26 -338.716)" fill="#f79c7c"/>
            <path id="Trazado_1253443" data-name="Trazado 1253443" d="M1104.917,313.318s-1.162,3.681,1.993,9.64a20.779,20.779,0,0,1,1.96,9.783,31.639,31.639,0,0,0,5.546-19.423Z" transform="translate(-962.502 -272.986)" fill="#792c0f"/>
            <path id="Trazado_1253444" data-name="Trazado 1253444" d="M743.222,58.624s1.282-4.572,4.223-4.921,6.946,11.064,8.311,13.925-8.5-3.453-12.534-9" transform="translate(-647.549 -46.784)" fill="#f15a24"/>
            <path id="Trazado_1253445" data-name="Trazado 1253445" d="M705.108,20.6s-3.667,19.584-4.368,21.8-6.661,1.541-10.254,3.854-3.593,3.661-6.661,3.853-7.687,0-7.687,0V53.29h65.82l.133-3.273s-9.858.146-12.343-1.736c-6.485-4.913-10.517-3.385-12.094-5.491-.788-1.052-4.3-22.389-4.3-22.389Z" transform="translate(-589.101 -17.774)" fill="#a63816"/>
            <path id="Trazado_1253446" data-name="Trazado 1253446" d="M658.594,222.77h-.726a1.3,1.3,0,0,1-1.225-1.364v-4.595a1.3,1.3,0,0,1,1.2-1.364c1.25-.024,3.588-.039,7.524.038,6.633.13,5.755-5.922,21.363-6.081,16.3-.166,21.982,1.267,24.717,4.39,1.253,1.431,13.14,1.456,14.886,1.388,1.409-.055,1.447,4.182,1.216,6.384a1.279,1.279,0,0,1-1.217,1.2Z" transform="translate(-572.115 -182.438)" fill="#f15a24"/>
            <path id="Trazado_1253447" data-name="Trazado 1253447" d="M884.783,0h4.154A2.053,2.053,0,0,1,890.9,1.93l2.65,25.728H879.994l2.828-25.744A2.051,2.051,0,0,1,884.783,0" transform="translate(-766.714 -0.003)" fill="#f15a24"/>
            <g id="Grupo_1235224" data-name="Grupo 1235224" transform="translate(85.635 0)" opacity="0.54">
              <g id="Grupo_1235223" data-name="Grupo 1235223">
                <g id="Grupo_1235222" data-name="Grupo 1235222" clip-path="url(#clip-path-6)">
                  <path id="Trazado_1253448" data-name="Trazado 1253448" d="M665.712,35.172s8.912.086,13.235-.428,7.742,1.284,20.815,1.284,14.358-1.927,16.928-1.8,5.959.636,9.7.9a55.142,55.142,0,0,0,7.128,0s.7-1.924,0-2.052-10.56.239-14.957-1.541c-1.874-.759-7.6-3.34-10.4-3.34s-1.986,3.211-4.44,3.918-1.87-2.5-1.987-5.973c-.1-3-.653-20.326-.8-24.983a1.087,1.087,0,1,0-2.171-.016l-1.118,25.128s.584,6.056-1.519,6.239a4.247,4.247,0,0,1-4.674-2.386c-1.169-2.055-6.31-2.055-9.7,0s-5.233,2.826-8.81,2.954-6.323-.06-7.024.2-.993,1.987-.206,1.9" transform="translate(-665.242 -0.003)" fill="#f7931e"/>
                </g>
              </g>
            </g>
            <g id="Grupo_1235227" data-name="Grupo 1235227" transform="translate(97.494 7.467)" opacity="0.54">
              <g id="Grupo_1235226" data-name="Grupo 1235226">
                <g id="Grupo_1235225" data-name="Grupo 1235225" clip-path="url(#clip-path-7)">
                  <path id="Trazado_1253449" data-name="Trazado 1253449" d="M766.7,70.756s-3.942-11.423-6.724-12.572c-1.833-.757-3.277,1.06-2.3,3.23s9.021,9.342,9.021,9.342" transform="translate(-757.366 -58.009)" fill="#f7931e"/>
                </g>
              </g>
            </g>
            <path id="Trazado_1253450" data-name="Trazado 1253450" d="M1042.024,58.624s-1.282-4.572-4.223-4.921-6.945,11.064-8.311,13.925,8.5-3.453,12.535-9" transform="translate(-896.853 -46.784)" fill="#f15a24"/>
            <g id="Grupo_1235230" data-name="Grupo 1235230" transform="translate(134.012 7.467)" opacity="0.54">
              <g id="Grupo_1235229" data-name="Grupo 1235229">
                <g id="Grupo_1235228" data-name="Grupo 1235228" clip-path="url(#clip-path-7)">
                  <path id="Trazado_1253451" data-name="Trazado 1253451" d="M1041.048,70.756s3.942-11.423,6.724-12.572c1.833-.757,3.277,1.06,2.3,3.23s-9.021,9.342-9.021,9.342" transform="translate(-1041.048 -58.009)" fill="#f7931e"/>
                </g>
              </g>
            </g>
            <path id="Trazado_1253452" data-name="Trazado 1253452" d="M869.287,823.762l3.539,3.753,3.29-3.753c2.673-.584,6.377,9.959,6.377,9.959s-3.186-2.733-4.441-1.7a4.4,4.4,0,0,0-1.936,3.136c-.248,2.8.073,8.413,0,10.517s-7.5,2.659-7.5.38.741-11.582.083-12.661c-1.489-2.442-5.542.029-5.542.029s4.231-9.634,6.128-9.658" transform="translate(-752.047 -717.701)" fill="#35535f"/>
            <path id="Trazado_1253453" data-name="Trazado 1253453" d="M978.793,696.685s3.216-.5,4.267,1.43,4.371,7.712,4.371,7.712-2.4,9.9-15.984,17.615c-1.917,1.088-4.309-7.8-7.639-10.429,0,0,11.016-5.137,14.984-16.328" transform="translate(-839.74 -606.952)" fill="#99c6e4"/>
            <path id="Trazado_1253454" data-name="Trazado 1253454" d="M735.893,696.685s-3.216-.5-4.268,1.43-4.371,7.712-4.371,7.712,2.4,9.9,15.984,17.615c1.917,1.088,4.309-7.8,7.639-10.429,0,0-11.161-5.975-14.984-16.328" transform="translate(-633.636 -606.952)" fill="#99c6e4"/>
            <g id="Grupo_1235233" data-name="Grupo 1235233" transform="translate(128.981 100.085)" opacity="0.54">
              <g id="Grupo_1235232" data-name="Grupo 1235232">
                <g id="Grupo_1235231" data-name="Grupo 1235231" clip-path="url(#clip-path-9)">
                  <path id="Trazado_1253455" data-name="Trazado 1253455" d="M1028.537,778.543a94.272,94.272,0,0,1-16.255,40.675c-7.419,10.562-10.914,11.291-10.221,25.194s3.528,53.063,5.131,57.762c2.151,6.308,20.854,1.986,25.488.331s4.634-50.645,2.648-56.935-7.774-14.564-5.046-29.129,8.646-28.806,9.018-32.988-2.648-4.162-4.883-4.91-5.279-1.914-5.88,0" transform="translate(-1001.974 -777.5)" fill="#f7931e"/>
                </g>
              </g>
            </g>
            <path id="Trazado_1253456" data-name="Trazado 1253456" d="M684.708,33.424s3.976,6.681,14.015,8.3c1.165.188,1.685-.5.074-4.593a112.406,112.406,0,0,0-5.6-11.007,31.864,31.864,0,0,1,11.9-3.623s-2.218,18.6-4.077,21.073-7.82.957-11.544,3.685-10.937,1.906-10.937,1.906a32.627,32.627,0,0,1,6.172-15.744" transform="translate(-591.19 -19.608)" fill="#f15a24"/>
            <path id="Trazado_1253457" data-name="Trazado 1253457" d="M1000.881,33.424s-3.976,6.681-14.015,8.3c-1.165.188-1.685-.5-.074-4.593a112.4,112.4,0,0,1,5.6-11.007A31.864,31.864,0,0,0,980.5,22.5s2.218,18.6,4.077,21.073,7.82.957,11.544,3.685,10.937,1.906,10.937,1.906a32.628,32.628,0,0,0-6.172-15.744" transform="translate(-854.278 -19.608)" fill="#f15a24"/>
            <path id="Trazado_1253458" data-name="Trazado 1253458" d="M1015.708,1332.934s-17.492,5.653-43.034,5.653l.551,12.675s22.375,1.127,43.448-5.416Z" transform="translate(-847.464 -1161.349)" fill="#d8e8ee"/>
            <path id="Trazado_1253459" data-name="Trazado 1253459" d="M1026.192,1528.878s-18.636,5.653-44.177,5.653l.735,12.779s23.756,0,44.828-6.54Z" transform="translate(-855.602 -1332.07)" fill="#d8e8ee"/>
            <path id="Trazado_1253460" data-name="Trazado 1253460" d="M1358.773,1724.534s14.809-3.424,22.8,0c0,0,.286.6,0,5.653s-1.28,24.914-2.273,32.527-8.849,14.9-14.355,16.22-7.492-4.3-4.513-6.289,8.151-7.365,8.482-12-1.823-.952-2.525,2.234-5.876,6.827-6.536.869,1.539-6.951.248-10.551c-2.358-6.579.373-8.689.745-14.027s-2.071-14.637-2.071-14.637" transform="translate(-1183.861 -1501.213)" fill="#b34e28"/>
            <path id="Trazado_1253461" data-name="Trazado 1253461" d="M1354.951,1715.2s-.578.12-.909-1.369-.806-2.827,2.721-3.392a73.814,73.814,0,0,1,16.478-.083c4.055.662,4.634,1.608,4.882,2.294s.49,3.747-.872,3-11.461-2.475-22.3-.451" transform="translate(-1179.542 -1489.812)" fill="#c4beba"/>
            <path id="Trazado_1253462" data-name="Trazado 1253462" d="M682.322,370.709a41.414,41.414,0,0,0,16.287,16.5l-1.2,1.674S686.5,381.2,682.376,372.667Z" transform="translate(-594.488 -322.989)" fill="#fff"/>
            <path id="Trazado_1253463" data-name="Trazado 1253463" d="M1066.613,370.709a41.415,41.415,0,0,1-16.287,16.5l1.2,1.674s10.909-7.682,15.036-16.219Z" transform="translate(-915.12 -322.989)" fill="#fff"/>
            <path id="Trazado_1253464" data-name="Trazado 1253464" d="M676.568,355.536l5.92-2.9v2.269L677,356.628a.59.59,0,0,1-.436-1.092" transform="translate(-589.187 -307.244)" fill="#283e47"/>
            <path id="Trazado_1253465" data-name="Trazado 1253465" d="M1139.8,355.536l-5.92-2.9v2.269l5.484,1.722a.59.59,0,0,0,.436-1.092" transform="translate(-987.915 -307.244)" fill="#283e47"/>
            <path id="Trazado_1253466" data-name="Trazado 1253466" d="M678.442,313.318a30.241,30.241,0,0,1-6.889,6.589,14.6,14.6,0,0,1-.571-6.589Z" transform="translate(-584.503 -272.986)" fill="#6c9d9a"/>
            <path id="Trazado_1253467" data-name="Trazado 1253467" d="M1130.907,313.318a30.238,30.238,0,0,0,6.889,6.589,14.6,14.6,0,0,0,.571-6.589Z" transform="translate(-985.328 -272.986)" fill="#6c9d9a"/>
            <path id="Trazado_1253468" data-name="Trazado 1253468" d="M1011.788,380.354c0,1.868-.968,3.382-2.161,3.382s-2.162-1.514-2.162-3.382.968-3.382,2.162-3.382,2.161,1.514,2.161,3.382" transform="translate(-877.776 -328.446)" fill="#792c0f"/>
            <path id="Trazado_1253469" data-name="Trazado 1253469" d="M826.4,380.354c0,1.868-.968,3.382-2.161,3.382s-2.162-1.514-2.162-3.382.968-3.382,2.162-3.382,2.161,1.514,2.161,3.382" transform="translate(-716.249 -328.446)" fill="#792c0f"/>
            <path id="Trazado_1253470" data-name="Trazado 1253470" d="M993.3,327.6s-1.159,1.655,1.614,1.407a24.578,24.578,0,0,1,6.91.5c.91.248.608-1.407-1.392-1.9s-4.4-1.076-7.131,0" transform="translate(-865.229 -284.898)" fill="#792c0f"/>
            <path id="Trazado_1253471" data-name="Trazado 1253471" d="M802.977,327.6s1.159,1.655-1.614,1.407a24.578,24.578,0,0,0-6.91.5c-.91.248-.608-1.407,1.392-1.9s4.4-1.076,7.131,0" transform="translate(-691.759 -284.898)" fill="#792c0f"/>
            <g id="Grupo_1235236" data-name="Grupo 1235236" transform="translate(96.395 47.343)" opacity="0.5">
              <g id="Grupo_1235235" data-name="Grupo 1235235">
                <g id="Grupo_1235234" data-name="Grupo 1235234" clip-path="url(#clip-path-10)">
                  <path id="Trazado_1253472" data-name="Trazado 1253472" d="M748.831,367.842s-.443,11.7,7.721,12.352c8.231.655,11.051-3.43,13.427-4.465,2.736-1.192,5.232-1.705,8.513,2.054,2.756,3.157,11.881,2.851,14.428,0,3.848-4.3,2.862-10,2.862-10Z" transform="translate(-748.827 -367.783)" fill="#a9ddf3"/>
                </g>
              </g>
            </g>
            <g id="Grupo_1235239" data-name="Grupo 1235239" transform="translate(98.772 48.41)" opacity="0.5">
              <g id="Grupo_1235238" data-name="Grupo 1235238">
                <g id="Grupo_1235237" data-name="Grupo 1235237" clip-path="url(#clip-path-11)">
                  <path id="Trazado_1253473" data-name="Trazado 1253473" d="M785.719,376.074s-.939,9.348-10.367,10.235-7.98-10.235-7.98-10.235Z" transform="translate(-767.292 -376.073)" fill="#a9ddf3"/>
                </g>
              </g>
            </g>
            <g id="Grupo_1235242" data-name="Grupo 1235242" transform="translate(123.248 48.41)" opacity="0.5">
              <g id="Grupo_1235241" data-name="Grupo 1235241">
                <g id="Grupo_1235240" data-name="Grupo 1235240" clip-path="url(#clip-path-12)">
                  <path id="Trazado_1253474" data-name="Trazado 1253474" d="M957.429,376.074s-.214,9.191,9.213,10.077,9.134-10.077,9.134-10.077Z" transform="translate(-957.429 -376.073)" fill="#a9ddf3"/>
                </g>
              </g>
            </g>
            <path id="Trazado_1253475" data-name="Trazado 1253475" d="M884.5,422.4s3.166-3.78,6.612-3.8c4.127-.025,5.793,3.8,6.4,4.172a8.9,8.9,0,0,1-2.379-1.729,6.443,6.443,0,0,0-7.793-.357c-2.273,1.442-2.837,1.715-2.837,1.715" transform="translate(-770.638 -364.716)" fill="#6d91a9"/>
            <path id="Trazado_1253476" data-name="Trazado 1253476" d="M1001.813,368.1s.651,6.932-4.932,10.762c-4.5,3.089-13.241,1.4-14.633-.844,0,0,6.144,3.84,12.238.477,5.193-2.865,4.669-10.714,4.669-10.714Z" transform="translate(-855.805 -320.439)" fill="#6d91a9"/>
            <path id="Trazado_1253477" data-name="Trazado 1253477" d="M732.78,368.1s-.651,6.932,4.932,10.762c4.5,3.089,13.241,1.4,14.633-.844,0,0-6.144,3.84-12.238.477-5.193-2.865-4.669-10.714-4.669-10.714Z" transform="translate(-638.43 -320.439)" fill="#6d91a9"/>
            <path id="Trazado_1253478" data-name="Trazado 1253478" d="M717.505,352.638h52.707a1.076,1.076,0,0,1,1.076,1.076v.116a1.076,1.076,0,0,1-1.076,1.076H717.505a1.076,1.076,0,0,1-1.076-1.076v-.116a1.076,1.076,0,0,1,1.076-1.076" transform="translate(-624.205 -307.244)" fill="#35535f"/>
            <path id="Trazado_1253479" data-name="Trazado 1253479" d="M774.939,449.537s-.826-11.26,8.212-13.89c7.842-2.283,11.2-7.3,16.173-3.531,3.917,2.964,7.14,3,9.379,4.65s6.124,5.241,5.3,13.682c0,0-6.4,13.577-19.193,13.571s-19.866-14.482-19.866-14.482" transform="translate(-675.165 -375.307)" fill="#ccc"/>
            <path id="Trazado_1253480" data-name="Trazado 1253480" d="M926.87,961.9a1.469,1.469,0,1,1-1.469-1.469,1.469,1.469,0,0,1,1.469,1.469" transform="translate(-804.996 -836.797)" fill="#99c6e4"/>
            <path id="Trazado_1253481" data-name="Trazado 1253481" d="M927.7,917.446a1.324,1.324,0,1,1-1.324-1.324,1.324,1.324,0,0,1,1.324,1.324" transform="translate(-805.976 -798.192)" fill="#99c6e4"/>
            <path id="Trazado_1253482" data-name="Trazado 1253482" d="M927.7,876.3a1.324,1.324,0,1,1-1.324-1.324A1.324,1.324,0,0,1,927.7,876.3" transform="translate(-805.976 -762.345)" fill="#99c6e4"/>
            <path id="Trazado_1253483" data-name="Trazado 1253483" d="M1040.672,1343.809s.509,10.138.532,13.081a111.027,111.027,0,0,1-33.009,3.921L1007.3,1348s18-.336,33.371-4.2" transform="translate(-877.633 -1170.824)" fill="#fff"/>
            <path id="Trazado_1253484" data-name="Trazado 1253484" d="M1021.9,1546.335l1.2,12.7s20.441-1.194,30.115-3.955l.626-12.549a188.294,188.294,0,0,1-31.944,3.8" transform="translate(-890.352 -1343.966)" fill="#fff"/>
            <g id="Grupo_1235245" data-name="Grupo 1235245" transform="translate(178.033 225.688)" opacity="0.58">
              <g id="Grupo_1235244" data-name="Grupo 1235244">
                <g id="Grupo_1235243" data-name="Grupo 1235243" clip-path="url(#clip-path-13)">
                  <path id="Trazado_1253485" data-name="Trazado 1253485" d="M1384.7,1753.484s.662,12.049.166,13.208,2.979-1.49,4.469,0-1.917-.166-4.517,3.476-1.607,5.627-1.11,8.937-1.047,6.786-.606,9.1,3.751-1.821,5.241-6.62,3.856-.662,3.169,5.627-4.493,9.1-7.307,11.586,1.324,3.476,4.138,1.821,9.765-6.455,9.6-15.558-.331-11.751-.993-15.889,1-14.73,1-14.73-3.892-1.9-13.243-.96" transform="translate(-1383.024 -1753.221)" fill="#ee6835"/>
                </g>
              </g>
            </g>
            <path id="Trazado_1253486" data-name="Trazado 1253486" d="M1384.678,1715.464a64.611,64.611,0,0,1,14.893.2.639.639,0,0,1,.512.814l-.387,1.289a.637.637,0,0,1-.666.452,75.617,75.617,0,0,0-13.887-.031.637.637,0,0,1-.7-.495l-.323-1.461a.638.638,0,0,1,.56-.773" transform="translate(-1205.93 -1494.34)" fill="#dcd8d6"/>
            <path id="Trazado_1253487" data-name="Trazado 1253487" d="M1303.172,857.918s-5.744,16.793-6.349,24.937a96.6,96.6,0,0,0,.722,17.554s2.952-6.823,4.179-11.126,2.772,5.664,3.1,9.8a132.224,132.224,0,0,0,3.765,19.981c.338,1.2,5.172-1.113,8.482,2.2,0,0-6.786.4-8.276,3.015s1.324,28.762,1.49,34.224,2.648,4.3,6.786,5.131l4.138.828s4.6-37.179,2.715-43.995-4.25-38.172-8.674-49.351-12.082-13.2-12.082-13.2" transform="translate(-1129.748 -747.481)" fill="#458099"/>
            <path id="Trazado_1253488" data-name="Trazado 1253488" d="M1297.939,1175.509s2.524-6.7,3.792-8.435,2.547,19.637,2.869,22.663c0,0-2.976-16.782-3.71-18.939l-2.479,6.877Z" transform="translate(-1130.858 -1016.752)" fill="#35535f"/>
            <path id="Trazado_1253489" data-name="Trazado 1253489" d="M365.413,852.521s-9.545,7.251-11.648,23.376-6.894,38.561-6.193,53.284.986,48.143,3.181,53.05,13.373,1.163,15.242-3.511S369,941.028,371,918.956c2.425-26.817,7.873-29.227,7.873-35.771s-6.215-36.274-13.46-30.665" transform="translate(-302.769 -742.168)" fill="#466e7f"/>
            <path id="Trazado_1253490" data-name="Trazado 1253490" d="M369.437,1718.437s-14.809-3.424-22.8,0c0,0-.287.6,0,5.653s1.28,24.914,2.273,32.527,8.849,14.9,14.355,16.22,7.492-4.3,4.513-6.289-8.151-7.365-8.482-12,1.823-.952,2.525,2.234,5.876,6.827,6.537.869-1.539-6.951-.248-10.551c2.358-6.579-.372-8.689-.745-14.027s2.071-14.637,2.071-14.637" transform="translate(-301.906 -1495.901)" fill="#b34e28"/>
            <path id="Trazado_1253491" data-name="Trazado 1253491" d="M362.6,1709.1s.578.12.909-1.369.806-2.827-2.721-3.392a73.8,73.8,0,0,0-16.478-.084c-4.055.662-4.634,1.608-4.882,2.294s-.491,3.747.872,3,11.461-2.475,22.3-.451" transform="translate(-295.563 -1484.5)" fill="#c4beba"/>
            <g id="Grupo_1235248" data-name="Grupo 1235248" transform="translate(49.486 224.903)" opacity="0.58">
              <g id="Grupo_1235247" data-name="Grupo 1235247">
                <g id="Grupo_1235246" data-name="Grupo 1235246" clip-path="url(#clip-path-13)">
                  <path id="Trazado_1253492" data-name="Trazado 1253492" d="M397.665,1747.386s-.662,12.049-.166,13.208-2.979-1.49-4.469,0,1.917-.166,4.517,3.476,1.607,5.627,1.11,8.937,1.047,6.786.606,9.1-3.751-1.821-5.241-6.62-3.856-.662-3.169,5.627,4.493,9.1,7.307,11.585-1.324,3.476-4.138,1.821-9.765-6.455-9.6-15.557.331-11.751.993-15.889-1-14.73-1-14.73,3.892-1.9,13.244-.96" transform="translate(-384.421 -1747.124)" fill="#ee6835"/>
                </g>
              </g>
            </g>
            <path id="Trazado_1253493" data-name="Trazado 1253493" d="M390.352,1709.367a64.62,64.62,0,0,0-14.893.2.638.638,0,0,0-.511.814l.387,1.289a.637.637,0,0,0,.666.453,75.59,75.59,0,0,1,13.887-.031.637.637,0,0,0,.7-.495l.323-1.461a.638.638,0,0,0-.56-.773" transform="translate(-326.658 -1489.028)" fill="#dcd8d6"/>
            <path id="Trazado_1253494" data-name="Trazado 1253494" d="M392.6,851.82s5.744,16.793,6.349,24.937a96.606,96.606,0,0,1-.722,17.554s-2.952-6.823-4.179-11.126-2.772,5.664-3.1,9.8a132.251,132.251,0,0,1-3.765,19.981c-.338,1.2-5.172-1.113-8.482,2.2,0,0,6.786.4,8.275,3.015s-1.324,28.762-1.49,34.224-2.648,4.3-6.786,5.131l-4.138.828s-4.6-37.179-2.715-43.995,4.249-38.172,8.674-49.351,12.082-13.2,12.082-13.2" transform="translate(-323.581 -742.168)" fill="#458099"/>
            <path id="Trazado_1253495" data-name="Trazado 1253495" d="M540.517,1169.472s-2.688-6.757-3.956-8.495-2.546,19.637-2.868,22.663c0,0,3.412-16.127,3.71-18.94a28.25,28.25,0,0,1,2.387,7.662Z" transform="translate(-464.991 -1011.44)" fill="#35535f"/>
            <path id="Trazado_1253496" data-name="Trazado 1253496" d="M1016.691,2708.338s-3.166,22.622-2.056,37.021c0,0,17.984.715,16.422,21.569H980.821a48.128,48.128,0,0,1,.662-18.868c2.405-10.923-2.317-39.721-2.317-39.721s11.628-2.359,37.525,0" transform="translate(-853.12 -2358.787)" fill="#ee6835"/>
            <g id="Grupo_1235251" data-name="Grupo 1235251" transform="translate(129.565 348.535)" opacity="0.54">
              <g id="Grupo_1235250" data-name="Grupo 1235250">
                <g id="Grupo_1235249" data-name="Grupo 1235249" clip-path="url(#clip-path-15)">
                  <path id="Trazado_1253497" data-name="Trazado 1253497" d="M1006.5,2709.378s5.3,21.02,4.634,30.619-1.753,21.847-.166,23.171,40.878.339,40.878.339-.991-13.414-8.935-15.235a35.36,35.36,0,0,0-14.73-.166,7.847,7.847,0,0,1,5.958-3.145s2.519-25.769,3.641-33.032c.5-3.214-17.709-6.581-31.281-2.552" transform="translate(-1006.501 -2707.534)" fill="#f7931e"/>
                </g>
              </g>
            </g>
            <path id="Trazado_1253498" data-name="Trazado 1253498" d="M1129.929,3021.939s8.154-5.976,17-4.414,9.57,5.72,9.57,5.72-9.57-5.72-26.571-1.307" transform="translate(-984.476 -2628.859)" fill="#f9a94b"/>
            <path id="Trazado_1253499" data-name="Trazado 1253499" d="M1074.644,2754.482s10.947-1.029,15.557.993,0,2.482,0,16.881c0,8.467,0,12.276-2.978,12.938s-2.151-10.717-2.648-15.551-1.49-9.634-2.814-11.62,1.986-3.31-7.117-3.641" transform="translate(-936.307 -2399.676)" fill="#f9a94b"/>
            <rect id="Rectángulo_423681" data-name="Rectángulo 423681" width="50.941" height="3.474" transform="translate(127.082 406.404)" fill="#792c0f"/>
            <path id="Trazado_1253500" data-name="Trazado 1253500" d="M969.991,2706.789h0a1.35,1.35,0,0,1-1.615-1.134l-.352-2.51a1.348,1.348,0,0,1,.881-1.458c2.3-.819,8.233-.737,18.459-.737,10.409,0,17.339.425,19.743,1.415a1.349,1.349,0,0,1,.813,1.488l-.333,1.845a1.476,1.476,0,0,1-1.613,1.079c-4.955.041-21.844-2.107-35.874-.017-.037.006-.073.021-.11.029" transform="translate(-843.401 -2353.262)" fill="#fce1d7"/>
            <path id="Trazado_1253501" data-name="Trazado 1253501" d="M490.09,2705.8s3.166,22.622,2.056,37.021c0,0-17.984.715-16.422,21.569H525.96a48.13,48.13,0,0,0-.662-18.868c-2.4-10.923,2.317-39.721,2.317-39.721s-11.33-3.2-37.525,0" transform="translate(-414.401 -2356.249)" fill="#ee6835"/>
            <g id="Grupo_1235254" data-name="Grupo 1235254" transform="translate(64.348 348.535)" opacity="0.54">
              <g id="Grupo_1235253" data-name="Grupo 1235253">
                <g id="Grupo_1235252" data-name="Grupo 1235252" clip-path="url(#clip-path-15)">
                  <path id="Trazado_1253502" data-name="Trazado 1253502" d="M545.222,2709.378s-5.3,21.02-4.634,30.619,1.753,21.847.165,23.171-40.878.339-40.878.339.991-13.414,8.936-15.235a35.359,35.359,0,0,1,14.73-.166,7.847,7.847,0,0,0-5.958-3.145s-2.519-25.769-3.641-33.032c-.5-3.214,17.709-6.581,31.281-2.552" transform="translate(-499.875 -2707.534)" fill="#f7931e"/>
                </g>
              </g>
            </g>
            <path id="Trazado_1253503" data-name="Trazado 1253503" d="M548.877,3021.939s-8.154-5.976-17-4.414-9.57,5.72-9.57,5.72,9.57-5.72,26.571-1.307" transform="translate(-455.071 -2628.859)" fill="#f9a94b"/>
            <path id="Trazado_1253504" data-name="Trazado 1253504" d="M664.843,2741.945s-10.947-1.029-15.557.993,0,2.483,0,16.882c0,8.467,0,12.275,2.978,12.937s2.151-10.716,2.648-15.551,1.49-9.634,2.814-11.62-1.986-3.31,7.117-3.641" transform="translate(-563.92 -2388.753)" fill="#f9a94b"/>
            <rect id="Rectángulo_423683" data-name="Rectángulo 423683" width="50.941" height="3.474" transform="translate(61.236 406.404)" fill="#792c0f"/>
            <path id="Trazado_1253505" data-name="Trazado 1253505" d="M618.389,2701.764h0a1.35,1.35,0,0,0,1.615-1.133l.352-2.51a1.348,1.348,0,0,0-.881-1.458c-2.3-.818-8.844-1.481-19.071-1.481-10.409,0-16.727,1.17-19.131,2.159a1.348,1.348,0,0,0-.813,1.488l.333,1.844a1.35,1.35,0,0,0,1.613,1.079c4.914-1.055,22.839-2.894,35.874-.017.037.008.073.02.11.028" transform="translate(-505.719 -2348.237)" fill="#fce1d7"/>
            <path id="Trazado_1253506" data-name="Trazado 1253506" d="M633.751,1825.724s-1.649,30.188-1.407,42.9c.166,8.7,3.732,21.482,3.732,21.482-2.607-2.731-4.682-7.758-4.683-6.455-.014,17.574.951,47.124.951,50.149,0,2.251,5.485.82,11.089.5,6.455-.373,12.832,2.336,13.158-1.49,1.986-23.336,7.548-54.9,3.062-46.177-1.489,2.9-5.522,4.634-5.522,4.634s4.775-4.717,5.853-10.261c.5-2.562-.166-4.225,3.317-14.771,1.378-4.173,1.7-10.346.986-13.2-2.074-8.276-.331-6.9,1.655-1.986,1.271,3.145,5.5,7.779,10.634-.166s.7,2.689.869,6.331,1.386,17.585,3.6,23.212,2.234,7.448,6.206,10.31a12.435,12.435,0,0,1-5.751-2.11s.464,14.631,1.81,44.656c.155,3.453,8.948-.223,21.858,1.763,2.29.352,2.63-48.432.889-46.389a8.92,8.92,0,0,1-3.9,2.482s4.6-5.089,5.661-14.357,3.206-45.179,1.506-49.482c0,0-42,3.972-75.57-1.572" transform="translate(-550.115 -1590.703)" fill="#1f3a46"/>
            <g id="Grupo_1235257" data-name="Grupo 1235257" transform="translate(137.674 303.07)" opacity="0.38">
              <g id="Grupo_1235256" data-name="Grupo 1235256">
                <g id="Grupo_1235255" data-name="Grupo 1235255" clip-path="url(#clip-path-17)">
                  <path id="Trazado_1253507" data-name="Trazado 1253507" d="M1069.5,2354.511s2.069,22.321,2.438,33.56c.18,5.481,7.371,2.774,10.682,3.767s2.616-31.846,2.947-36.315-6.6,5.751-16.067-1.012" transform="translate(-1069.501 -2354.349)" fill="#2f5769"/>
                </g>
              </g>
            </g>
            <g id="Grupo_1235260" data-name="Grupo 1235260" transform="translate(87.938 303.07)" opacity="0.38">
              <g id="Grupo_1235259" data-name="Grupo 1235259">
                <g id="Grupo_1235258" data-name="Grupo 1235258" clip-path="url(#clip-path-17)">
                  <path id="Trazado_1253508" data-name="Trazado 1253508" d="M683.132,2354.511s1.036,22.321,1.405,33.56c.18,5.481,7.371,2.774,10.682,3.767s3.649-31.846,3.98-36.315-6.6,5.751-16.067-1.012" transform="translate(-683.132 -2354.349)" fill="#2f5769"/>
                </g>
              </g>
            </g>
            <g id="Grupo_1235263" data-name="Grupo 1235263" transform="translate(85.961 239.158)" opacity="0.38">
              <g id="Grupo_1235262" data-name="Grupo 1235262">
                <g id="Grupo_1235261" data-name="Grupo 1235261" clip-path="url(#clip-path-19)">
                  <path id="Trazado_1253509" data-name="Trazado 1253509" d="M669.837,1861.075s-3.22,24.578-1.61,34.762,3.1,10.681,1.941,14.323,2.152,9.321,3.807,11.612,10.1-.523,11.751-8.3-.331-7.779,0-12.082,5.793-25.931,6.289-32.826,3.476,3.532,7.944,6.511,10.4-6.307,13.572-8.441.993,12.082,0,18.537,1.489,13.075,2.648,15.227-.662,8.11,4.3,15.558,11.212,2.418,12.578-3.754-1.56-8.807,0-12.135,4.16-38.243,4.428-40.224-17.007-.171-36.371,0-28.136-1.981-29.295-1.981-1.986,3.215-1.986,3.215" transform="translate(-667.776 -1857.86)" fill="#2f5769"/>
                </g>
              </g>
            </g>
            <path id="Trazado_1253510" data-name="Trazado 1253510" d="M897.516,1541.024l-2.24-.078.725-12.4,2.24.078Z" transform="translate(-780.029 -1331.78)" fill="#001c2f"/>
            <path id="Trazado_1253511" data-name="Trazado 1253511" d="M799.85,441.456s-5.009,4.6-2.653,10.971,9.268,13.364,18.059,12.738a16.976,16.976,0,0,0,15.007-11.917c1.241-4.548.615-10.675-3.815-12.372s-6.876-3.117-8.65-4.593a6.423,6.423,0,0,0-7.613.26c-2.3,1.869-9.208,4.084-10.335,4.912" transform="translate(-694.026 -379.143)" fill="#e6e6e6"/>
            <path id="Trazado_1253512" data-name="Trazado 1253512" d="M906.991,1358.875l-2.24-.078.519-12.456,2.24.078Z" transform="translate(-788.284 -1173.031)" fill="#001c2f"/>
            <path id="Trazado_1253513" data-name="Trazado 1253513" d="M564.857,763.215a3.583,3.583,0,0,0-4.509-3.013,79.251,79.251,0,0,0-13.636,4.938c-6.986,3.519,15.821,31.851,2.659,59.021a12.71,12.71,0,0,0-1.257,5.1c-.14,4.041-.562,12.282-1.826,23.82-1.844,16.826-5.6,35.053,5.146,37.857a160.933,160.933,0,0,0,30.987,4.235,5.646,5.646,0,0,0,5.813-5.281c.877-13.693,3.129-50.469,3.05-65.652-.1-18.246-21.466-20.433-26.426-61.027" transform="translate(-474.081 -662.231)" fill="#ee6835"/>
            <g id="Grupo_1235266" data-name="Grupo 1235266" transform="translate(75.745 99.867)" opacity="0.54">
              <g id="Grupo_1235265" data-name="Grupo 1235265">
                <g id="Grupo_1235264" data-name="Grupo 1235264" clip-path="url(#clip-path-20)">
                  <path id="Trazado_1253514" data-name="Trazado 1253514" d="M599.207,776.847a94.271,94.271,0,0,0,16.255,40.675c7.419,10.562,10.914,11.291,10.221,25.194s-3.528,53.063-5.131,57.762c-2.152,6.308-20.854,1.986-25.488.331s-4.634-50.645-2.648-56.934,7.774-14.565,5.046-29.129-8.646-28.806-9.018-32.988,2.648-4.162,4.883-4.91,5.279-1.914,5.881,0" transform="translate(-588.413 -775.804)" fill="#f7931e"/>
                </g>
              </g>
            </g>
            <path id="Trazado_1253515" data-name="Trazado 1253515" d="M567.082,1331.237s17.493,5.653,43.034,5.653l-.551,12.675s-22.375,1.127-43.448-5.416Z" transform="translate(-493.243 -1159.87)" fill="#d8e8ee"/>
            <path id="Trazado_1253516" data-name="Trazado 1253516" d="M546.009,1527.181s18.635,5.654,44.177,5.654l-.735,12.779s-23.756,0-44.828-6.54Z" transform="translate(-474.515 -1330.591)" fill="#d8e8ee"/>
            <path id="Trazado_1253517" data-name="Trazado 1253517" d="M610.445,1342.112s-.509,10.138-.532,13.081a111.024,111.024,0,0,0,33.009,3.921l.894-12.807s-18-.336-33.371-4.2" transform="translate(-531.4 -1169.345)" fill="#fff"/>
            <path id="Trazado_1253518" data-name="Trazado 1253518" d="M642.482,1544.639l-1.2,12.7s-20.441-1.194-30.115-3.955l-.626-12.549a188.3,188.3,0,0,0,31.944,3.8" transform="translate(-531.945 -1342.488)" fill="#fff"/>
            <path id="Trazado_1253519" data-name="Trazado 1253519" d="M813.644,447.855s1.111,9.891,16.491,9c14.359-.827,15.072-8.973,13.977-10.586s-6.028-2.7-8.764-4.806c-2.93-2.256-6.079-4.378-9.567-1.765-3.355,2.513-11.876,3.872-12.137,8.153" transform="translate(-708.905 -382.051)" fill="#fff"/>
            <path id="Trazado_1253520" data-name="Trazado 1253520" d="M894.725,448.022a12.488,12.488,0,0,1,5.091-2.1c2.339-.158,4.415,2.1,4.415,2.1v.485a8.118,8.118,0,0,0-4.415-1.938c-2.295-.055-5.091,1.938-5.091,1.938Z" transform="translate(-779.549 -388.516)" fill="#999"/>
            <g id="Grupo_1235269" data-name="Grupo 1235269" transform="translate(102.54 2.973)" opacity="0.54">
              <g id="Grupo_1235268" data-name="Grupo 1235268">
                <g id="Grupo_1235267" data-name="Grupo 1235267" clip-path="url(#clip-path-21)">
                  <path id="Trazado_1253521" data-name="Trazado 1253521" d="M796.566,26.185a15.415,15.415,0,0,0,8.918,3.273s1.329-4.888,1.534-6.354a29.341,29.341,0,0,0-10.452,3.081" transform="translate(-796.566 -23.103)" fill="#f7931e"/>
                </g>
              </g>
            </g>
            <g id="Grupo_1235272" data-name="Grupo 1235272" transform="translate(126.624 2.973)" opacity="0.54">
              <g id="Grupo_1235271" data-name="Grupo 1235271">
                <g id="Grupo_1235270" data-name="Grupo 1235270" clip-path="url(#clip-path-22)">
                  <path id="Trazado_1253522" data-name="Trazado 1253522" d="M994.112,26.185a15.415,15.415,0,0,1-8.918,3.273s-1.329-4.888-1.534-6.354a29.341,29.341,0,0,1,10.452,3.081" transform="translate(-983.66 -23.103)" fill="#f7931e"/>
                </g>
              </g>
            </g>
            <path id="Trazado_1253523" data-name="Trazado 1253523" d="M733.513,814.642s2.952,23.668,11.822,32.439a160.725,160.725,0,0,1,14.534,16.385s8.631-14.984,14.427-19.2,11.167-24.84,11.167-24.84-7.032,8.266-11.167,9.6-4.342-1.17-6.224-1.324-4.434,1.711-4.1,7.459-.646,7.448-6.3,7.282-2.731-9.623-2.9-12.094-4.138-1.17-5.3,0-11.532-7.944-15.96-15.711" transform="translate(-639.09 -709.775)" fill="#458099"/>
            <path id="Trazado_1253524" data-name="Trazado 1253524" d="M985.43,699.031s-2.564,7.457-13.768,15.013c-2.171,1.464,2.266,1.538,3.388,4.517s4.8-.774,9.331-7.737,4.613-14.158,1.05-11.793" transform="translate(-846.068 -608.646)" fill="#c2ddef"/>
            <path id="Trazado_1253525" data-name="Trazado 1253525" d="M775.727,699.892a39.806,39.806,0,0,0,6.827,9.99,46.214,46.214,0,0,0,7.075,5.952,18.57,18.57,0,0,0-3.227,4.291c-1.846,3.1-6.94-4.291-10.695-11.435-4.385-8.343-.6-8.45.02-8.8" transform="translate(-674.032 -609.797)" fill="#c2ddef"/>
            <path id="Trazado_1253526" data-name="Trazado 1253526" d="M650.421,599.089a4.3,4.3,0,1,1-4.3-4.3,4.3,4.3,0,0,1,4.3,4.3" transform="translate(-559.196 -518.221)" fill="#fff"/>
            <path id="Trazado_1253527" data-name="Trazado 1253527" d="M535.378,229.044a4.3,4.3,0,1,1-4.3-4.3,4.3,4.3,0,0,1,4.3,4.3" transform="translate(-458.962 -195.811)" fill="#fff"/>
            <path id="Trazado_1253528" data-name="Trazado 1253528" d="M1226.938,347.846a4.3,4.3,0,1,1-4.3-4.3,4.3,4.3,0,0,1,4.3,4.3" transform="translate(-1061.499 -299.32)" fill="#fff"/>
            <path id="Trazado_1253529" data-name="Trazado 1253529" d="M1569.41,1349.636a4.3,4.3,0,1,1-4.3-4.3,4.3,4.3,0,0,1,4.3,4.3" transform="translate(-1359.884 -1172.152)" fill="#fff"/>
            <path id="Trazado_1253530" data-name="Trazado 1253530" d="M1324.392,2846.128a4.3,4.3,0,1,1-4.3-4.3,4.3,4.3,0,0,1,4.3,4.3" transform="translate(-1146.408 -2476.003)" fill="#fff"/>
            <path id="Trazado_1253531" data-name="Trazado 1253531" d="M220.535,1930.651a4.3,4.3,0,1,1-4.3-4.3,4.3,4.3,0,0,1,4.3,4.3" transform="translate(-184.648 -1678.374)" fill="#fff"/>
          </g>
        </g>
      </g>
    </g>
  </g>
</svg>
