<svg xmlns="http://www.w3.org/2000/svg" xmlns:xlink="http://www.w3.org/1999/xlink" width="106.16" height="106.16" viewBox="0 0 106.16 106.16">
  <defs>
    <filter id="Trazado_982547" x="0" y="0" width="106.16" height="106.16" filterUnits="userSpaceOnUse">
      <feOffset dy="3" input="SourceAlpha"/>
      <feGaussianBlur stdDeviation="3" result="blur"/>
      <feFlood flood-opacity="0.161"/>
      <feComposite operator="in" in2="blur"/>
      <feComposite in="SourceGraphic"/>
    </filter>
  </defs>
  <g id="Grupo_1236493" data-name="Grupo 1236493" transform="translate(-195 -7393.158)">
    <g id="Grupo_1234682" data-name="Grupo 1234682" transform="translate(4.5 2969.245)">
      <g id="Grupo_1232498" data-name="Grupo 1232498" transform="translate(-629.75 -2849.501)">
        <g id="Grupo_1230692" data-name="Grupo 1230692" transform="translate(-0.25 3811.95)">
          <g id="Grupo_1224852" data-name="Grupo 1224852" transform="translate(629.5 1738.464)">
            <g id="Grupo_1206130" data-name="Grupo 1206130" transform="translate(0 -59)">
              <g id="Grupo_1203672" data-name="Grupo 1203672" transform="translate(0.08 -4797.878)">
                <g id="Grupo_1203344" data-name="Grupo 1203344" transform="translate(-81.08 5174.875)">
                  <g id="Grupo_1177900" data-name="Grupo 1177900" transform="translate(281 1411.003)">
                    <g id="Grupo_1172010" data-name="Grupo 1172010" transform="translate(0)">
                      <g id="Grupo_1171046" data-name="Grupo 1171046">
                        <g id="Grupo_1148525" data-name="Grupo 1148525">
                          <g transform="matrix(1, 0, 0, 1, -9, -6)" filter="url(#Trazado_982547)">
                            <g id="Trazado_982547-2" data-name="Trazado 982547" transform="translate(9 6)" fill="#e5ebfb">
                              <path d="M 44.0802001953125 86.660400390625 C 38.33124923706055 86.660400390625 32.75506210327148 85.53479766845703 27.50652503967285 83.31484985351562 C 22.43628692626953 81.17032623291016 17.88242530822754 78.09992218017578 13.97144985198975 74.18894958496094 C 10.06047534942627 70.27797698974609 6.99007511138916 65.72411346435547 4.845550060272217 60.65387344360352 C 2.625600099563599 55.40533828735352 1.500000238418579 49.82915115356445 1.500000238418579 44.0802001953125 C 1.500000238418579 38.33124923706055 2.625600099563599 32.75506210327148 4.845550060272217 27.50652503967285 C 6.99007511138916 22.43628692626953 10.06047534942627 17.88242530822754 13.97144985198975 13.97144985198975 C 17.88242530822754 10.06047534942627 22.43628692626953 6.99007511138916 27.50652503967285 4.845550060272217 C 32.75506210327148 2.625600099563599 38.33124923706055 1.500000238418579 44.0802001953125 1.500000238418579 C 49.82915115356445 1.500000238418579 55.40533828735352 2.625600099563599 60.65387344360352 4.845550060272217 C 65.72411346435547 6.99007511138916 70.27797698974609 10.06047534942627 74.18894958496094 13.97144985198975 C 78.09992218017578 17.88242530822754 81.17032623291016 22.43628692626953 83.31484985351562 27.50652503967285 C 85.53479766845703 32.75506210327148 86.660400390625 38.33124923706055 86.660400390625 44.0802001953125 C 86.660400390625 49.82915115356445 85.53479766845703 55.40533828735352 83.31484985351562 60.65387344360352 C 81.17032623291016 65.72411346435547 78.09992218017578 70.27797698974609 74.18894958496094 74.18894958496094 C 70.27797698974609 78.09992218017578 65.72411346435547 81.17032623291016 60.65387344360352 83.31484985351562 C 55.40533828735352 85.53479766845703 49.82915115356445 86.660400390625 44.0802001953125 86.660400390625 Z" stroke="none"/>
                              <path d="M 44.0802001953125 3 C 38.53308486938477 3 33.15349960327148 4.085746765136719 28.09085845947266 6.227058410644531 C 23.19941711425781 8.29595947265625 18.80581665039062 11.25841522216797 15.03211212158203 15.03211212158203 C 11.25841522216797 18.80581665039062 8.29595947265625 23.19941711425781 6.227058410644531 28.09085845947266 C 4.085746765136719 33.15349960327148 3 38.53308486938477 3 44.0802001953125 C 3 49.62731552124023 4.085746765136719 55.00691604614258 6.227058410644531 60.06954193115234 C 8.29595947265625 64.96098327636719 11.25841522216797 69.35458374023438 15.03211212158203 73.12828826904297 C 18.80581665039062 76.90198516845703 23.19941711425781 79.86444091796875 28.09085845947266 81.93334197998047 C 33.15349960327148 84.07466125488281 38.53308486938477 85.160400390625 44.0802001953125 85.160400390625 C 49.62731552124023 85.160400390625 55.00691604614258 84.07466125488281 60.06954193115234 81.93334197998047 C 64.96099853515625 79.86444091796875 69.35458374023438 76.90198516845703 73.12828826904297 73.12828826904297 C 76.90198516845703 69.35458374023438 79.86444091796875 64.96099853515625 81.93334197998047 60.06954193115234 C 84.07466125488281 55.00691604614258 85.160400390625 49.62731552124023 85.160400390625 44.0802001953125 C 85.160400390625 38.53308486938477 84.07466125488281 33.15349960327148 81.93334197998047 28.09085845947266 C 79.86444091796875 23.19941711425781 76.90198516845703 18.80581665039062 73.12828826904297 15.03211212158203 C 69.35458374023438 11.25841522216797 64.96098327636719 8.29595947265625 60.06954193115234 6.227058410644531 C 55.00691604614258 4.085746765136719 49.62731552124023 3 44.0802001953125 3 M 44.0802001953125 0 C 68.42502593994141 0 88.160400390625 19.73538970947266 88.160400390625 44.0802001953125 C 88.160400390625 68.42502593994141 68.42502593994141 88.160400390625 44.0802001953125 88.160400390625 C 19.73538970947266 88.160400390625 0 68.42502593994141 0 44.0802001953125 C 0 19.73538970947266 19.73538970947266 0 44.0802001953125 0 Z" stroke="none" fill="#98b4f2"/>
                            </g>
                          </g>
                        </g>
                      </g>
                    </g>
                  </g>
                </g>
              </g>
            </g>
          </g>
        </g>
      </g>
    </g>
    <g id="bomb_9507420" transform="translate(206.774 7376.368)">
      <path id="Trazado_1254343" data-name="Trazado 1254343" d="M351.922,83.542,352,77.275,364.252,72l-2.411,7.27Z" transform="translate(-298.408 -31.419)" fill="#a0e5a5" stroke="#000" stroke-linecap="round" stroke-linejoin="round" stroke-miterlimit="10" stroke-width="1.5"/>
      <path id="Trazado_1254344" data-name="Trazado 1254344" d="M374.243,179.007l-4.59-4.257,9.918-4.27,6.924,3.251Z" transform="translate(-313.883 -117.366)" fill="#a0e5a5" stroke="#000" stroke-linecap="round" stroke-linejoin="round" stroke-miterlimit="10" stroke-width="1.5"/>
      <path id="Trazado_1254345" data-name="Trazado 1254345" d="M65.689,134.392l-12.253,5.275-4.109,7.295a13.378,13.378,0,0,0-9.66,9.715l-9.211,3.965a5.068,5.068,0,0,1-3.168.279l-2.127-.5L14.01,157.8l-.611-.144a4.405,4.405,0,0,1-3.042-2.554A4.513,4.513,0,0,1,10,153.323a4.084,4.084,0,0,1,.6-2.193l7.193-12.344a5.089,5.089,0,0,1,2.382-2.111l13.164-5.668a5.077,5.077,0,0,1,3.24-.261l14.6,3.661,12.253-5.276Z" transform="translate(0 -81.278)" fill="#a0e5a5"/>
      <path id="Trazado_1254346" data-name="Trazado 1254346" d="M14.01,157.8l-.611-.144a4.405,4.405,0,0,1-3.042-2.554A4.513,4.513,0,0,1,10,153.323a4.084,4.084,0,0,1,.6-2.193l7.193-12.344a5.089,5.089,0,0,1,2.382-2.111l13.164-5.668a5.077,5.077,0,0,1,3.24-.261l14.6,3.661,12.253-5.276,2.256,5.262-12.253,5.275-4.109,7.295a13.378,13.378,0,0,0-9.66,9.715l-9.211,3.965a5.068,5.068,0,0,1-3.168.279l-2.127-.5" transform="translate(0 -81.278)" fill="none" stroke="#000" stroke-linecap="round" stroke-linejoin="round" stroke-miterlimit="10" stroke-width="1.5"/>
      <line id="Línea_846" data-name="Línea 846" transform="translate(19.592 77.829)" fill="none" stroke="#000" stroke-linecap="round" stroke-linejoin="round" stroke-miterlimit="10" stroke-width="1.5"/>
      <circle id="Elipse_14739" data-name="Elipse 14739" cx="13.053" cy="13.053" r="13.053" transform="translate(39.835 65.835)" fill="#ff7d97" stroke="#000" stroke-linecap="round" stroke-linejoin="round" stroke-miterlimit="10" stroke-width="1.5"/>
      <path id="Trazado_1254347" data-name="Trazado 1254347" d="M302.829,325.23l-3.6-3.6,3.6-3.6-3.6-3.6-3.6,3.6-3.6-3.6-3.6,3.6,3.6,3.6-3.6,3.6,3.6,3.6,3.6-3.6,3.6,3.6Z" transform="translate(-242.997 -242.997)" fill="#fff" stroke="#000" stroke-linecap="round" stroke-linejoin="round" stroke-miterlimit="10" stroke-width="1.5"/>
      <line id="Línea_847" data-name="Línea 847" x1="3.054" y2="5.218" transform="translate(18.845 61.134)" fill="none" stroke="#000" stroke-linecap="round" stroke-linejoin="round" stroke-miterlimit="10" stroke-width="1.5"/>
      <line id="Línea_848" data-name="Línea 848" y1="7.459" transform="translate(21.188 40.973)" fill="none" stroke="#000" stroke-linecap="round" stroke-linejoin="round" stroke-miterlimit="10" stroke-width="1.5" stroke-dasharray="405 45 0 45 1000"/>
      <line id="Línea_849" data-name="Línea 849" y1="6.216" transform="translate(43.564 36)" fill="none" stroke="#000" stroke-linecap="round" stroke-linejoin="round" stroke-miterlimit="10" stroke-width="1.5" stroke-dasharray="405 45 0 45 1000"/>
      <line id="Línea_850" data-name="Línea 850" y1="6.216" transform="translate(32.376 36)" fill="none" stroke="#000" stroke-linecap="round" stroke-linejoin="round" stroke-miterlimit="10" stroke-width="1.5" stroke-dasharray="405 45 0 45 1000"/>
    </g>
  </g>
</svg>
