<svg xmlns="http://www.w3.org/2000/svg" xmlns:xlink="http://www.w3.org/1999/xlink" width="400" height="290" viewBox="0 0 400 290">
  <defs>
    <clipPath id="clip-path">
      <rect id="Rectángulo_424087" data-name="Rectángulo 424087" width="400" height="290" transform="translate(180 9001)" fill="#fff" stroke="#707070" stroke-width="1"/>
    </clipPath>
  </defs>
  <g id="Grupo_1236710" data-name="Grupo 1236710" transform="translate(-180 -9001)">
    <rect id="Rectángulo_424101" data-name="Rectángulo 424101" width="372" height="145" rx="14" transform="translate(195 9076)" fill="#e4ebfb"/>
    <g id="Enmascarar_grupo_1098665" data-name="Enmascarar grupo 1098665" clip-path="url(#clip-path)">
      <g id="Grupo_1236709" data-name="Grupo 1236709" transform="translate(2146.013 -196.007)">
        <g id="OBJECTS" transform="translate(-1940.516 9219.506)">
          <ellipse id="Elipse_14748" data-name="Elipse 14748" cx="161.369" cy="19.2" rx="161.369" ry="19.2" transform="translate(15.849 218.519)" fill="#7a1e1e" opacity="0.15"/>
          <g id="Grupo_1236705" data-name="Grupo 1236705" transform="translate(21.868 9.986)">
            <g id="Grupo_1236562" data-name="Grupo 1236562" transform="translate(0 163.785)">
              <path id="Trazado_1254411" data-name="Trazado 1254411" d="M54.655,349.03c-5.6-1.447,7.795-15.223,15.15-10.243S59.912,350.388,54.655,349.03Z" transform="translate(-45.724 -329.557)" fill="#ad2525"/>
              <path id="Trazado_1254412" data-name="Trazado 1254412" d="M76.484,344.328s-2.425-10,4.869-16.531,18.221-1.314,17.389,8.308S76.484,344.328,76.484,344.328Z" transform="translate(-55.913 -323.824)" fill="#ad2525"/>
              <path id="Trazado_1254413" data-name="Trazado 1254413" d="M74.806,351.175s-2.425-10,4.869-16.532,18.221-1.314,17.389,8.309S74.806,351.175,74.806,351.175Z" transform="translate(-55.162 -326.888)" fill="#92263d" opacity="0.15"/>
              <path id="Trazado_1254414" data-name="Trazado 1254414" d="M46.331,368.737s-9.52-5.494-5.963-11.791,16.109-11.467,21.758.474S46.331,368.737,46.331,368.737Z" transform="translate(-39.572 -335.162)" fill="#c13030"/>
              <path id="Trazado_1254415" data-name="Trazado 1254415" d="M50.133,346.582s8.8-4.162,8.717-7.585-5.4-8.981-9.1-10.3.581-5.274,2.3-5.7c1.311-.327,5.993,2.22,9.264,5.815a11.458,11.458,0,0,1,2.844,6.266h0s6.934-1.094,9.546.363S59.174,352.688,50.133,346.582Z" transform="translate(-43.468 -322.961)" fill="#9ab300"/>
              <g id="Grupo_1236561" data-name="Grupo 1236561" transform="translate(5.027)" opacity="0.25">
                <path id="Trazado_1254416" data-name="Trazado 1254416" d="M71.065,340.2c.519-.859.636-1.494.2-1.735-2.612-1.456-8.288-1.641-8.288-1.641s-4.556-8.643-13.365-10.8a1.554,1.554,0,0,0-.947.159,6.784,6.784,0,0,1,3.551-3.188c1.311-.327,5.992,2.22,9.263,5.816a11.453,11.453,0,0,1,2.844,6.266s6.934-1.094,9.546.363C74.727,335.909,73.461,337.92,71.065,340.2Z" transform="translate(-48.669 -322.96)" fill="#6b874b"/>
              </g>
              <path id="Trazado_1254417" data-name="Trazado 1254417" d="M85.586,346.292s-.757-8.1,10.058-12.065,15.322,10.44,17.761,26.975-8.2,26.566-17.12,15.021S85.586,346.292,85.586,346.292Z" transform="translate(-60.153 -327.704)" fill="#d83b36"/>
              <path id="Trazado_1254418" data-name="Trazado 1254418" d="M113.406,361.2a26.056,26.056,0,0,1-1.11,13.177,29.588,29.588,0,0,0-.066-8.656c-2.439-16.535-6.946-30.938-17.761-26.975-5.148,1.887-7.658,4.706-8.892,7.148.012-1.663.67-8.225,10.068-11.668C106.46,330.265,110.967,344.667,113.406,361.2Z" transform="translate(-60.154 -327.704)" fill="#c13030"/>
              <path id="Trazado_1254419" data-name="Trazado 1254419" d="M111.092,392.354c-3.488,4.039-8.832,4.14-13.677-2.128-5.121-6.626-7.885-15.5-9.313-21.863a19.226,19.226,0,0,1,5.252-2.837C104.137,361.575,108.648,375.881,111.092,392.354Z" transform="translate(-61.284 -341.707)" fill="#fdfdff" opacity="0.1"/>
              <path id="Trazado_1254420" data-name="Trazado 1254420" d="M66,352.888c-5.3.472-26.819,3.459-22.3,17.085s18.555,26.215,27.268,25.938,15.528-6.193,10.558-20.761S73.007,352.263,66,352.888Z" transform="translate(-41.142 -336.335)" fill="#d83b36"/>
              <path id="Trazado_1254421" data-name="Trazado 1254421" d="M63.658,374.157c7.011-.625,10.561,7.693,15.531,22.262a32.486,32.486,0,0,1,1.435,5.75,13.412,13.412,0,0,1-8.934,3.258c-8.551.272-22.217-11.849-27-25.179C50.3,375.789,60.279,374.459,63.658,374.157Z" transform="translate(-41.862 -345.85)" fill="#fdfdff" opacity="0.1"/>
            </g>
            <g id="Grupo_1236698" data-name="Grupo 1236698" transform="translate(7.417)">
              <g id="Grupo_1236697" data-name="Grupo 1236697" transform="translate(0)">
                <g id="Grupo_1236564" data-name="Grupo 1236564" transform="translate(79.363 79.671)">
                  <g id="Grupo_1236563" data-name="Grupo 1236563">
                    <path id="Trazado_1254422" data-name="Trazado 1254422" d="M230.277,181.619,214.3,187.886l-8.1,3.174a7.674,7.674,0,0,1-9.324-5.462c-.077-.281-.133-.573-.182-.858a7.67,7.67,0,0,1,5.276-8.426l22.343-5.563,1.719,3.132,3.362,6.124Z" transform="translate(-196.608 -170.751)" fill="#fcfcfc"/>
                  </g>
                </g>
                <g id="Grupo_1236610" data-name="Grupo 1236610" transform="translate(91.101)">
                  <g id="Grupo_1236582" data-name="Grupo 1236582" opacity="0.8">
                    <g id="Grupo_1236579" data-name="Grupo 1236579">
                      <g id="Grupo_1236566" data-name="Grupo 1236566">
                        <g id="Grupo_1236565" data-name="Grupo 1236565">
                          <path id="Trazado_1254423" data-name="Trazado 1254423" d="M339.569,220.208,228.136,201.789a12.291,12.291,0,0,1-10.122-14.131L242.94,36.868a12.291,12.291,0,0,1,14.131-10.122L368.5,45.166A12.291,12.291,0,0,1,378.625,59.3L353.7,210.087A12.291,12.291,0,0,1,339.569,220.208Z" transform="translate(-217.848 -26.58)" fill="#f8922e"/>
                          <path id="Trazado_1254424" data-name="Trazado 1254424" d="M344.351,218.707,238.8,201.26a7.787,7.787,0,0,1-6.413-8.954L256.25,47.946a7.787,7.787,0,0,1,8.953-6.413L370.753,58.98a7.787,7.787,0,0,1,6.413,8.954L353.3,212.294A7.788,7.788,0,0,1,344.351,218.707Z" transform="translate(-224.305 -33.222)" fill="#fffdc5"/>
                        </g>
                        <path id="Trazado_1254425" data-name="Trazado 1254425" d="M388.087,51.876l-44.4-7.339a3.685,3.685,0,0,1-3.034-4.236l1.295-7.833a3.685,3.685,0,0,1,4.236-3.034l44.4,7.339a3.685,3.685,0,0,1,3.034,4.236l-1.295,7.833A3.686,3.686,0,0,1,388.087,51.876Z" transform="translate(-272.767 -27.834)" fill="#6b1717"/>
                      </g>
                      <g id="Grupo_1236567" data-name="Grupo 1236567" transform="translate(35.358 54.296)" opacity="0.6">
                        <path id="Trazado_1254426" data-name="Trazado 1254426" d="M301.625,147.939l-19.794-3.272,3.279-19.834,19.794,3.272Zm-17.015-5.263,15.024,2.483,2.49-15.064L287.1,127.612Z" transform="translate(-281.831 -124.833)" fill="#6b1717"/>
                      </g>
                      <g id="Grupo_1236568" data-name="Grupo 1236568" transform="translate(40.213 58.254)">
                        <path id="Trazado_1254427" data-name="Trazado 1254427" d="M295.373,143.811l-4.594-7.929a1.209,1.209,0,1,1,2.092-1.212l3.412,5.889,15.395-8.417a1.209,1.209,0,0,1,1.159,2.121Z" transform="translate(-290.616 -131.994)" fill="#c64040"/>
                      </g>
                      <g id="Grupo_1236569" data-name="Grupo 1236569" transform="translate(68.343 63.91)" opacity="0.3">
                        <rect id="Rectángulo_424090" data-name="Rectángulo 424090" width="2.417" height="63.973" transform="matrix(0.163, -0.987, 0.987, 0.163, 0, 2.385)" fill="#6b1717"/>
                      </g>
                      <g id="Grupo_1236570" data-name="Grupo 1236570" transform="translate(66.766 73.449)" opacity="0.3">
                        <rect id="Rectángulo_424091" data-name="Rectángulo 424091" width="2.417" height="43.992" transform="matrix(0.163, -0.987, 0.987, 0.163, 0, 2.385)" fill="#6b1717"/>
                      </g>
                      <g id="Grupo_1236571" data-name="Grupo 1236571" transform="translate(30.816 81.775)" opacity="0.6">
                        <path id="Trazado_1254428" data-name="Trazado 1254428" d="M293.406,197.663l-19.794-3.272,3.279-19.834,19.794,3.272ZM276.391,192.4l15.024,2.483,2.49-15.064-15.024-2.483Z" transform="translate(-273.612 -174.557)" fill="#6b1717"/>
                      </g>
                      <g id="Grupo_1236572" data-name="Grupo 1236572" transform="translate(35.67 85.731)">
                        <path id="Trazado_1254429" data-name="Trazado 1254429" d="M287.153,193.535l-4.594-7.929a1.209,1.209,0,1,1,2.092-1.212l3.412,5.889,15.395-8.417a1.209,1.209,0,1,1,1.159,2.121Z" transform="translate(-282.396 -181.717)" fill="#c64040"/>
                      </g>
                      <g id="Grupo_1236573" data-name="Grupo 1236573" transform="translate(63.801 91.389)" opacity="0.3">
                        <rect id="Rectángulo_424092" data-name="Rectángulo 424092" width="2.417" height="63.973" transform="matrix(0.163, -0.987, 0.987, 0.163, 0, 2.385)" fill="#6b1717"/>
                      </g>
                      <g id="Grupo_1236574" data-name="Grupo 1236574" transform="translate(62.223 100.928)" opacity="0.3">
                        <rect id="Rectángulo_424093" data-name="Rectángulo 424093" width="2.417" height="43.992" transform="matrix(0.163, -0.987, 0.987, 0.163, 0, 2.385)" fill="#6b1717"/>
                      </g>
                      <g id="Grupo_1236575" data-name="Grupo 1236575" transform="translate(26.318 108.985)" opacity="0.6">
                        <path id="Trazado_1254430" data-name="Trazado 1254430" d="M285.267,246.9l-19.794-3.272,3.279-19.834,19.794,3.272Zm-17.015-5.263,15.024,2.483,2.49-15.064-15.024-2.483Z" transform="translate(-265.473 -223.795)" fill="#6b1717"/>
                      </g>
                      <g id="Grupo_1236576" data-name="Grupo 1236576" transform="translate(31.173 112.941)">
                        <path id="Trazado_1254431" data-name="Trazado 1254431" d="M279.015,242.772l-4.594-7.93a1.209,1.209,0,0,1,2.092-1.211l3.412,5.889,15.395-8.417a1.209,1.209,0,0,1,1.159,2.121Z" transform="translate(-274.258 -230.954)" fill="#c64040"/>
                      </g>
                      <g id="Grupo_1236577" data-name="Grupo 1236577" transform="translate(59.302 118.599)" opacity="0.3">
                        <rect id="Rectángulo_424094" data-name="Rectángulo 424094" width="2.417" height="63.973" transform="matrix(0.163, -0.987, 0.987, 0.163, 0, 2.385)" fill="#6b1717"/>
                      </g>
                      <g id="Grupo_1236578" data-name="Grupo 1236578" transform="translate(57.725 128.138)" opacity="0.3">
                        <rect id="Rectángulo_424095" data-name="Rectángulo 424095" width="2.417" height="43.992" transform="matrix(0.163, -0.987, 0.987, 0.163, 0, 2.385)" fill="#6b1717"/>
                      </g>
                    </g>
                    <g id="Grupo_1236580" data-name="Grupo 1236580" transform="translate(41.219 30.517)" opacity="0.3">
                      <rect id="Rectángulo_424096" data-name="Rectángulo 424096" width="2.417" height="96.965" transform="matrix(0.163, -0.987, 0.987, 0.163, 0, 2.385)" fill="#6b1717"/>
                    </g>
                    <g id="Grupo_1236581" data-name="Grupo 1236581" transform="translate(42.601 39.197)" opacity="0.3">
                      <rect id="Rectángulo_424097" data-name="Rectángulo 424097" width="2.417" height="91.406" transform="matrix(0.163, -0.987, 0.987, 0.163, 0, 2.385)" fill="#6b1717"/>
                    </g>
                  </g>
                  <g id="Grupo_1236609" data-name="Grupo 1236609" transform="translate(9.036 90.901)">
                    <g id="Grupo_1236589" data-name="Grupo 1236589" transform="translate(3.845 17.353)">
                      <g id="Grupo_1236584" data-name="Grupo 1236584" transform="translate(0 46.711)">
                        <g id="Grupo_1236583" data-name="Grupo 1236583">
                          <path id="Trazado_1254432" data-name="Trazado 1254432" d="M405.1,336.276c-3.083,16.606-6.973,39-32.791,54.969-10.65,6.59-30.716,12.055-52.244,11.5-13.722-.353-33.753-3.819-49.422-12.648q-2.094-1.173-4.074-2.485c-.332-.2-.654-.409-.976-.618-23.548-15.337-24.412-50.716-24.412-50.716Z" transform="translate(-241.164 -320.097)" fill="#fcfcfc"/>
                          <path id="Trazado_1254433" data-name="Trazado 1254433" d="M241.165,323.177c-.632,5.093,32.269,18.247,80.369,17.4s83.581-12.424,83.554-17.4c-.048-9.118-34.89-16.453-82.285-16.171C277.945,307.274,242.185,314.945,241.165,323.177Z" transform="translate(-241.156 -306.999)" fill="#e5e4e3"/>
                          <path id="Trazado_1254434" data-name="Trazado 1254434" d="M404.229,324.692c0,.542-.588,1.19-1.722,1.892-.145.088-.3.181-.46.276-3.1,1.761-9.4,3.862-18.142,5.821l-.191.043c-.344.078-.695.152-1.045.227-.166.039-.333.075-.5.11-.4.088-.794.17-1.2.259-.574.12-1.165.234-1.757.358q-3.417.675-7.227,1.318c-1.226.2-2.487.393-3.784.588h-.007c-.138.025-.273.05-.418.064-1.612.244-3.259.478-4.956.7-.025,0-.057.007-.081.007-.744.106-1.492.2-2.253.294h0l-1.042.128c-.141.018-.284.032-.425.05-.942.113-1.9.223-2.866.322q-1.365.149-2.76.291c-1.02.1-2.055.2-3.093.3-.946.081-1.892.163-2.855.244-.259.014-.524.039-.79.057-.581.046-1.173.1-1.771.135-.751.056-1.516.11-2.282.163l-.467.032c-.219.014-.443.028-.663.039-.071,0-.142.01-.213.014l-1.261.075c-.719.043-1.446.081-2.172.117q-1.254.069-2.526.124c-.22.01-.443.018-.666.028-.567.028-1.133.053-1.7.071l-1.233.043c-.871.032-1.757.06-2.643.081-.174.007-.344.011-.517.014q-1.413.032-2.841.06c-.141,0-.283,0-.425.007h-.251l-.227,0-.517.007-.822.01c-.159,0-.322,0-.482,0-.6,0-1.183.007-1.775.007-.857,0-1.711-.007-2.557-.014l-.861-.01c-.716-.007-1.417-.014-2.122-.028-.081,0-.166,0-.248,0h-.007q-.441-.016-.871-.021l-.737-.022c-1.059-.032-2.112-.064-3.146-.1h-.007c-.659-.032-1.307-.06-1.956-.088l-.269-.01c-.407-.018-.811-.039-1.215-.06-.181-.007-.361-.018-.539-.028-.227-.011-.454-.025-.68-.039-1.456-.081-2.887-.181-4.29-.284-.4-.025-.794-.057-1.19-.088-.815-.064-1.615-.131-2.416-.2-.517-.05-1.034-.1-1.545-.145-1.949-.188-3.847-.39-5.7-.616-.588-.064-1.173-.138-1.746-.216h-.014q-4.5-.574-8.563-1.279l-.557-.1c-5.41-.939-10.2-2-14.3-3.114-.695-.184-1.357-.372-2.012-.567h-.007a71.691,71.691,0,0,1-8.949-3.16,26.654,26.654,0,0,1-3.015-1.545A8.829,8.829,0,0,1,249.924,326c0-.007-.011-.007-.011-.007a1.67,1.67,0,0,1-.613-1.3c.195-1.357,1.708-2.7,4.34-3.975a.023.023,0,0,0,.018-.01,45.479,45.479,0,0,1,7.592-2.7.022.022,0,0,0,.014-.007c2.072-.567,4.382-1.116,6.9-1.633,1.626-.34,3.348-.663,5.151-.971,4.687-.8,9.937-1.516,15.645-2.108q1.052-.112,2.122-.213c.45-.046.9-.088,1.357-.131l1.07-.1c.858-.071,1.722-.153,2.6-.216h.007c.447-.043.882-.075,1.325-.106.01-.007.01,0,.01,0l.96-.075c.1-.007.209-.014.312-.025l2.2-.16c.216-.018.435-.025.655-.039h.021c.2-.018.372-.025.567-.043h.007c.5-.032,1-.064,1.488-.088h.011a1.134,1.134,0,0,1,.153-.007c.234-.018.46-.032.695-.043.6-.039,1.2-.071,1.8-.1,1.746-.1,3.525-.177,5.328-.251l.581-.025c.864-.032,1.732-.064,2.6-.088.138-.007.284-.007.429-.014.354-.01.726-.025,1.091-.035q3.321-.1,6.731-.138c1.112-.018,2.232-.025,3.358-.032.354,0,.712-.007,1.059,0,1.243-.007,2.48-.007,3.7,0,1.357.01,2.707.018,4.042.043.156,0,.312,0,.464.007q3.082.037,6.058.12c1.091.035,2.175.067,3.242.106.617.018,1.222.039,1.821.064,0,0,.007,0,.014.01.092,0,.17,0,.251.007.719.032,1.424.057,2.125.088.8.039,1.6.081,2.388.12q2.875.154,5.63.344l1.5.106q.914.064,1.818.135c1.049.088,2.094.177,3.118.266l1.722.159s0,0,0,0c1.1.106,2.182.213,3.249.326.248.028.492.053.737.081q3.539.388,6.773.839c.071.007.138.025.2.025.726.1,1.438.209,2.133.322,1.506.23,2.958.471,4.347.723,10.019,1.8,16.991,4.124,19.882,6.731l.007.007A3.714,3.714,0,0,1,404.229,324.692Z" transform="translate(-244.796 -308.948)" fill="#bfbebe"/>
                        </g>
                      </g>
                      <g id="Grupo_1236588" data-name="Grupo 1236588" transform="translate(83.264)">
                        <g id="Grupo_1236585" data-name="Grupo 1236585">
                          <path id="Trazado_1254435" data-name="Trazado 1254435" d="M466.8,278.269c-.016.477-.049.954-.073,1.439-.049.833-.121,1.673-.21,2.522-.04.437-.1.873-.154,1.31-.121.905-.259,1.819-.412,2.733-.049.275-.089.55-.138.824-3.3,1.876-10.227,4.139-19.879,6.2-.4.089-.792.17-1.2.259-.574.121-1.164.234-1.754.356q-3.419.679-7.227,1.318c-1.229.2-2.49.4-3.783.59h-.008c-.138.024-.275.049-.42.065q-2.413.364-4.956.7c-.024,0-.056.008-.081.008-1.083.154-2.175.283-3.3.421-1.083.129-2.175.259-3.29.372-1.908.21-3.864.4-5.853.59-1.188-1.116-2.272-2.239-3.242-3.339-.291-.323-.566-.639-.824-.962-.711-.849-1.342-1.682-1.9-2.482a20.238,20.238,0,0,1-1.673-2.9v-.008c-.016-.033-.033-.073-.049-.1l-1.463-3.282v-.008l-.493-1.107-5.384-12.134-4.414-9.952s.008,0,0-.008l-.889-2-.768-1.722a13.407,13.407,0,0,1-1.107-6.225,2.413,2.413,0,0,1,.024-.339,16.3,16.3,0,0,1,.687-3.694,1.274,1.274,0,0,1,.073-.234.087.087,0,0,1,.016-.056c.056-.178.113-.364.178-.55.081-.234.17-.477.259-.711s.186-.477.291-.711.21-.477.323-.72.227-.477.348-.711a2.078,2.078,0,0,1,.178-.356c.065-.121.129-.234.194-.356.291-.533.615-1.059.946-1.593.033-.049.065-.105.105-.162.21-.323.428-.655.655-.978.178-.25.364-.5.55-.752.162-.218.323-.428.493-.639.655-.833,1.366-1.649,2.118-2.457.259-.259.509-.517.768-.776s.517-.51.784-.76c.105-.105.21-.21.315-.307.162-.154.323-.3.493-.445s.339-.3.509-.444q.558-.5,1.14-.946a.171.171,0,0,1,.089-.065.867.867,0,0,1,.194-.162,5.578,5.578,0,0,1,.566-.437.6.6,0,0,1,.145-.113.193.193,0,0,1,.073-.049c.154-.129.307-.243.469-.364.234-.178.469-.348.711-.51.154-.113.307-.218.469-.323.186-.138.38-.267.574-.388.4-.267.8-.526,1.212-.784a2.829,2.829,0,0,1,.259-.162c.267-.17.534-.332.809-.485a1.087,1.087,0,0,1,.186-.1c.243-.145.493-.283.744-.421s.5-.275.76-.412c.364-.194.736-.388,1.107-.582.348-.186.7-.356,1.059-.526.4-.194.817-.388,1.237-.574,16.112-7.162,32.846-4.7,37.365,5.473l13.412,30.2c.17.38.332.792.477,1.221s.291.9.421,1.383.259.994.364,1.52c.056.267.105.542.162.816.1.55.194,1.123.267,1.714.033.218.056.445.081.671s.056.461.081.7.049.469.065.7c.073.865.129,1.762.17,2.676C466.885,275.14,466.876,276.684,466.8,278.269Z" transform="translate(-391.83 -222.474)" fill="#d83b36"/>
                          <path id="Trazado_1254436" data-name="Trazado 1254436" d="M426.5,303.352c-1.083.154-2.174.283-3.3.421-1.083.129-2.175.259-3.29.372-1.908.21-3.864.4-5.853.59-1.188-1.116-2.272-2.239-3.242-3.339-.291-.323-.566-.639-.825-.962-.711-.849-1.342-1.682-1.9-2.482a20.232,20.232,0,0,1-1.673-2.9v-.008c-.016-.033-.033-.073-.049-.105l-1.463-3.282v-.008l-.493-1.107L399.034,278.4l-4.414-9.951s.008,0,0-.008l-.889-2-.768-1.722a13.408,13.408,0,0,1-1.107-6.225,2.421,2.421,0,0,1,.024-.339.263.263,0,0,1,.008-.113c.008-.178.024-.364.049-.542s.04-.364.073-.55c.008-.081.024-.162.033-.243.105-.622.243-1.253.412-1.884.04-.1.065-.21.1-.307a2.094,2.094,0,0,1,.105-.348c.056-.178.113-.364.178-.55.081-.234.17-.477.259-.711s.186-.477.291-.711.21-.477.323-.72.227-.477.348-.711a2.074,2.074,0,0,1,.178-.356c.065-.121.129-.234.194-.356.154-.283.315-.558.477-.841.154-.25.307-.5.469-.752a.858.858,0,0,0,.049-.089c.226-.348.469-.7.711-1.051.178-.25.364-.5.55-.752.162-.218.323-.428.493-.639.655-.833,1.366-1.649,2.118-2.458.259-.259.509-.517.768-.776s.517-.509.784-.76c.784-.736,1.617-1.455,2.49-2.167a.083.083,0,0,1,.056-.04c.323-.25.647-.5.978-.76q.946-.7,1.94-1.383a31.193,31.193,0,0,0-5.133,7.09,20.346,20.346,0,0,0-2.11,6.241,13.842,13.842,0,0,0,.93,7.89l3.242,7.292v.008l1.172,2.644,1.18,2.66v.008l1.083,2.433,2.126,4.778.711,1.6.687,1.56,1.472,3.315,1.738,3.913a16.891,16.891,0,0,0,1.051,1.965,27.833,27.833,0,0,0,2.054,2.911,52.331,52.331,0,0,0,7.737,7.688C424.976,302.188,425.728,302.778,426.5,303.352Z" transform="translate(-391.83 -229.238)" fill="#b72727"/>
                          <path id="Trazado_1254437" data-name="Trazado 1254437" d="M480.238,286.269c1.636-9.505.95-19.139-1.214-24.013l-13.412-30.207c-4.519-10.179-21.248-12.63-37.365-5.475-1.568.7-3.05,1.474-4.484,2.291a13.11,13.11,0,0,0,1.036,3.864l13.41,30.207C442.471,272.533,464.253,290.271,480.238,286.269Z" transform="translate(-406.115 -222.473)" fill="#f3e7d1" opacity="0.15"/>
                          <path id="Trazado_1254438" data-name="Trazado 1254438" d="M430.326,263.436c-16.117,7.156-32.846,4.7-37.365-5.475s4.882-24.232,21-31.388,32.846-4.7,37.366,5.475S446.443,256.28,430.326,263.436Z" transform="translate(-391.827 -222.473)" fill="#b72727"/>
                          <path id="Trazado_1254439" data-name="Trazado 1254439" d="M396.806,258.836c-4.011-9.034,4.9-21.787,19.861-28.43s30.4-4.7,34.409,4.336-4.9,21.787-19.861,28.43S400.816,267.869,396.806,258.836Z" transform="translate(-393.625 -224.257)" fill="#eee1cc"/>
                          <path id="Trazado_1254440" data-name="Trazado 1254440" d="M400.671,259.761c-3.45-7.77,5.124-19.436,18.723-25.473s28-4.573,31.451,3.2-5.124,19.436-18.723,25.473S404.121,267.532,400.671,259.761Z" transform="translate(-395.442 -226.092)" fill="#ff8a8a"/>
                          <path id="Trazado_1254441" data-name="Trazado 1254441" d="M443.1,262.513c-1.909.847-3.964.388-4.592-1.026s.411-3.247,2.319-4.094,3.964-.388,4.592,1.026S445.01,261.666,443.1,262.513Z" transform="translate(-412.63 -237.905)" fill="#f3e7d1"/>
                        </g>
                        <g id="Grupo_1236587" data-name="Grupo 1236587" transform="translate(37.347 68.866)">
                          <g id="Grupo_1236586" data-name="Grupo 1236586" opacity="0.5">
                            <path id="Trazado_1254442" data-name="Trazado 1254442" d="M462.311,352.081a.358.358,0,1,0-.357-.359A.358.358,0,0,0,462.311,352.081Z" transform="translate(-460.548 -349.003)" fill="#e9bb34"/>
                            <path id="Trazado_1254443" data-name="Trazado 1254443" d="M462.409,347.806a.358.358,0,1,0-.357-.359A.358.358,0,0,0,462.409,347.806Z" transform="translate(-460.592 -347.09)" fill="#e9bb34"/>
                            <path id="Trazado_1254444" data-name="Trazado 1254444" d="M459.767,350.52a.358.358,0,1,0-.357-.359A.358.358,0,0,0,459.767,350.52Z" transform="translate(-459.41 -348.304)" fill="#e9bb34"/>
                          </g>
                        </g>
                      </g>
                    </g>
                    <g id="Grupo_1236590" data-name="Grupo 1236590" transform="translate(8.965 58.918)">
                      <path id="Trazado_1254445" data-name="Trazado 1254445" d="M310.626,318.118v.145l-.113,1.86-.2,3.4-.04.711v.008l-.154,2.5q0,.448-.024.9a14.254,14.254,0,0,1-.291,2.231c-.1.453-.21.9-.348,1.334q-.182.582-.412,1.14c-.04.105-.081.21-.129.315-.59-.024-1.172-.056-1.755-.089-1.689-.089-3.347-.2-4.972-.323-.4-.024-.792-.056-1.188-.089-.817-.065-1.617-.129-2.417-.2l-1.544-.145q-2.923-.278-5.7-.615-.885-.1-1.746-.218h-.016q-4.5-.57-8.561-1.277l-.558-.1c-5.408-.938-10.2-2-14.293-3.112-.7-.186-1.358-.372-2.013-.566h-.008a71.951,71.951,0,0,1-8.949-3.161,26.99,26.99,0,0,1-3.016-1.544,8.824,8.824,0,0,1-1.746-1.326.008.008,0,0,0-.008-.008c.04-.105.081-.218.129-.323.065-.178.129-.348.21-.517s.154-.348.234-.517.17-.339.259-.5.186-.332.291-.493.2-.323.315-.485a11.03,11.03,0,0,1,2.288-2.442.024.024,0,0,0,.016-.008c.049-.04.1-.089.162-.129.162-.121.339-.243.517-.364s.356-.227.542-.339c.17-.105.348-.2.534-.3a.939.939,0,0,1,.129-.065c.138-.073.275-.138.412-.2.259-.121.526-.234.8-.332.2-.081.412-.154.622-.226.226-.073.461-.145.7-.21.21-.056.421-.113.631-.154a1.349,1.349,0,0,1,.17-.04,4.8,4.8,0,0,1,.509-.1,3.3,3.3,0,0,1,.493-.081c.2-.04.412-.065.622-.089.243-.033.493-.057.744-.073a.024.024,0,0,0,.016-.008c.283-.016.566-.033.865-.04a14.079,14.079,0,0,0,6.039-1.593c7.041-3.614,11.35-12.086,20.437-12.539a22.965,22.965,0,0,1,5.021.307c.7.129,1.382.283,2.054.469h.008a19.928,19.928,0,0,1,4.964,2.134,6.407,6.407,0,0,1,.582.364,18.542,18.542,0,0,1,3.646,3.056c.049.049.089.1.129.145a18.652,18.652,0,0,1,1.326,1.641c.194.267.372.533.542.809.17.25.323.5.469.768a15.868,15.868,0,0,1,.994,1.965,17.832,17.832,0,0,1,.776,2.086c.1.3.186.606.259.913a4.516,4.516,0,0,1,.138.566,21.942,21.942,0,0,1,.542,3.589c.024.315.04.639.049.962C310.618,317.7,310.626,317.9,310.626,318.118Z" transform="translate(-250.422 -297.688)" fill="#d1c4b0"/>
                      <path id="Trazado_1254446" data-name="Trazado 1254446" d="M310.634,318.118v.145a15.594,15.594,0,0,1-.113,1.86,14.63,14.63,0,0,1-1.107,4.066c-.145.316-.291.631-.453.938s-.323.606-.509.9a17.4,17.4,0,0,1-1.811,2.45,20.2,20.2,0,0,1-1.617,1.609,23.126,23.126,0,0,1-2.829,2.159c-.4-.024-.792-.056-1.188-.089-.817-.065-1.617-.129-2.417-.2l-1.544-.145q-2.923-.279-5.7-.615-.885-.1-1.746-.218h-.016q-4.5-.57-8.561-1.277l-.558-.1c-5.408-.938-10.2-2-14.293-3.112-.7-.186-1.358-.372-2.013-.566h-.008a71.953,71.953,0,0,1-8.949-3.161,27,27,0,0,1-3.016-1.544,8.824,8.824,0,0,1-1.746-1.326,2.4,2.4,0,0,1,.121-.332c.065-.178.129-.348.21-.517s.154-.348.234-.517.17-.339.259-.5.186-.332.291-.493.2-.323.315-.485a11.028,11.028,0,0,1,2.288-2.441.024.024,0,0,0,.016-.008c.049-.04.105-.089.162-.129.162-.121.339-.243.517-.364s.356-.227.542-.339c.17-.1.348-.2.534-.3a.945.945,0,0,1,.129-.065c.138-.073.275-.138.412-.2.259-.121.526-.234.8-.332.2-.081.412-.154.622-.226.226-.073.461-.145.7-.21.21-.056.421-.113.631-.154a1.35,1.35,0,0,1,.17-.04,4.783,4.783,0,0,1,.51-.1,3.3,3.3,0,0,1,.493-.081c.2-.04.412-.065.622-.089.243-.033.493-.057.744-.073.291-.024.582-.04.881-.049a14.078,14.078,0,0,0,6.039-1.593c7.041-3.614,11.35-12.086,20.437-12.539a22.962,22.962,0,0,1,5.021.307c.7.129,1.382.283,2.053.469h.008a19.928,19.928,0,0,1,4.964,2.134,6.4,6.4,0,0,1,.582.364,18.542,18.542,0,0,1,3.646,3.056c.049.049.089.1.129.145a18.661,18.661,0,0,1,1.326,1.641c.194.267.372.533.542.809.17.25.323.5.469.768a15.863,15.863,0,0,1,.994,1.965,17.838,17.838,0,0,1,.776,2.086c.1.3.186.606.259.913a4.516,4.516,0,0,1,.138.566,21.942,21.942,0,0,1,.542,3.589c.024.315.04.639.049.962C310.625,317.7,310.634,317.9,310.634,318.118Z" transform="translate(-250.429 -297.688)" fill="#eee1cc"/>
                      <path id="Trazado_1254447" data-name="Trazado 1254447" d="M309.986,319.9c0,.218-.008.428-.016.639-.008.234-.024.469-.049.7a10.153,10.153,0,0,1-.218,1.39,12.354,12.354,0,0,1-1.342,3.557,14.859,14.859,0,0,1-1.754,2.49c-.1.1-.194.2-.291.3a.247.247,0,0,1-.065.065c-.113.129-.234.25-.348.372s-.243.25-.372.38h-.008A23.139,23.139,0,0,1,300,333.623l-1.544-.145q-2.923-.279-5.7-.615-.885-.1-1.746-.218H291q-4.5-.57-8.561-1.277l-.558-.1c-5.409-.938-10.2-2-14.293-3.112-.7-.186-1.358-.372-2.013-.566h-.008a71.956,71.956,0,0,1-8.949-3.161,27.021,27.021,0,0,1-3.016-1.544,9.8,9.8,0,0,1,1.738-3.484c.129-.162.267-.323.4-.477s.283-.3.428-.437.307-.283.461-.412.323-.259.493-.38a12.344,12.344,0,0,1,7.009-2.118c4.608-.154,8.044-2.15,11.116-4.624,1.156-.913,2.256-1.908,3.347-2.894,3.638-3.274,7.074-6.362,12.045-6.613a21.339,21.339,0,0,1,2.28.016c.38.024.76.056,1.14.105h.008c.243.024.477.056.719.1a18.276,18.276,0,0,1,5.344,1.649,4.271,4.271,0,0,1,.428.218c.218.105.428.218.639.339a17.133,17.133,0,0,1,3.638,2.765l.1.1c.1.1.21.21.307.323.17.178.332.364.493.55.008.016.024.024.033.04a15.857,15.857,0,0,1,1.754,2.506,17.79,17.79,0,0,1,1.924,4.923c.049.218.1.428.138.647.073.364.138.736.186,1.107v.016c.081.558.138,1.116.17,1.7v.008C309.969,319,309.986,319.442,309.986,319.9Z" transform="translate(-251.843 -299.36)" fill="#c64040"/>
                      <path id="Trazado_1254448" data-name="Trazado 1254448" d="M256.549,337.336c.016.089.04.178.065.267a27.007,27.007,0,0,1-3.016-1.544,9.8,9.8,0,0,1,1.738-3.484c.129-.162.267-.323.4-.477s.283-.3.428-.437.307-.283.461-.412.323-.259.493-.38A11.671,11.671,0,0,0,256.549,337.336Z" transform="translate(-251.843 -312.533)" fill="#a3463a" opacity="0.59"/>
                      <path id="Trazado_1254449" data-name="Trazado 1254449" d="M340.25,345.557c-.065.121-.129.243-.194.356a14.617,14.617,0,0,1-1.762,2.5c-.089.105-.178.2-.275.307a.247.247,0,0,1-.065.065c-.113.129-.234.25-.348.372s-.243.25-.372.38h-.008a23.14,23.14,0,0,1-5.522,3.832l-1.544-.145q-2.923-.279-5.7-.615a39.451,39.451,0,0,0,7.591-2.086,28.882,28.882,0,0,0,5.529-2.854,19.579,19.579,0,0,0,2.377-1.851C340.056,345.734,340.153,345.645,340.25,345.557Z" transform="translate(-283.546 -319.104)" fill="#a3463a" opacity="0.59"/>
                      <path id="Trazado_1254450" data-name="Trazado 1254450" d="M326.211,321.153c-.177,2.958-3.671,5.155-7.8,4.908s-7.34-2.845-7.163-5.8,3.671-5.155,7.8-4.908S326.388,318.2,326.211,321.153Z" transform="translate(-277.63 -305.582)" fill="#fdfdff"/>
                      <path id="Trazado_1254451" data-name="Trazado 1254451" d="M325.1,322.237c-.107,1.795-2.228,3.129-4.737,2.979s-4.455-1.726-4.348-3.522,2.228-3.129,4.736-2.979S325.2,320.442,325.1,322.237Z" transform="translate(-279.764 -307.09)" fill="#ededef"/>
                      <path id="Trazado_1254452" data-name="Trazado 1254452" d="M317.368,323.222c.107-1.8,2.228-3.129,4.736-2.979a5.748,5.748,0,0,1,2.786.879,4.72,4.72,0,0,0-4.142-2.407c-2.508-.15-4.629,1.184-4.736,2.979a3.033,3.033,0,0,0,1.562,2.643A2.44,2.44,0,0,1,317.368,323.222Z" transform="translate(-279.764 -307.09)" fill="#d0ceb3" opacity="0.5"/>
                      <path id="Trazado_1254453" data-name="Trazado 1254453" d="M272,345.8c-.7-.186-1.358-.372-2.013-.566,0,0-.008-.008-.008,0q-.558-.388-1.14-.752c-1.787-1.188-3.614-2.32-5.368-3.622a21.458,21.458,0,0,1,3.016,1.261,29.811,29.811,0,0,1,2.829,1.625,22.226,22.226,0,0,1,2.611,1.989C271.953,345.76,271.976,345.776,272,345.8Z" transform="translate(-256.26 -317.003)" fill="#a3463a" opacity="0.59"/>
                      <path id="Trazado_1254454" data-name="Trazado 1254454" d="M291.859,344.514l-.558-.1c-.922-.776-1.86-1.528-2.8-2.288l-4.649-3.711c-3.1-2.482-6.2-4.964-9.192-7.607a101.879,101.879,0,0,1,9.733,6.92c1.552,1.253,3.08,2.53,4.551,3.881A37.844,37.844,0,0,1,291.859,344.514Z" transform="translate(-261.267 -312.507)" fill="#a3463a" opacity="0.59"/>
                      <path id="Trazado_1254455" data-name="Trazado 1254455" d="M293.362,326.863a107.111,107.111,0,0,1,9.515,7.292c1.516,1.3,3.014,2.627,4.454,4.017a47.873,47.873,0,0,1,4.11,4.378c-1.506-1.318-3.05-2.578-4.566-3.871l-4.564-3.859C299.286,332.223,296.259,329.629,293.362,326.863Z" transform="translate(-269.633 -310.741)" fill="#a3463a" opacity="0.59"/>
                      <path id="Trazado_1254456" data-name="Trazado 1254456" d="M330.919,340.157a9.481,9.481,0,0,1,1.587.938,16.62,16.62,0,0,1,1.42,1.133,15.511,15.511,0,0,1,1.278,1.293,7.89,7.89,0,0,1,1.074,1.5,16.67,16.67,0,0,1-2.936-2.147A14.442,14.442,0,0,1,330.919,340.157Z" transform="translate(-286.435 -316.688)" fill="#a3463a" opacity="0.59"/>
                      <path id="Trazado_1254457" data-name="Trazado 1254457" d="M340.619,332.74a9.505,9.505,0,0,1,1.587.938,16.63,16.63,0,0,1,1.42,1.133A15.527,15.527,0,0,1,344.9,336.1a7.91,7.91,0,0,1,1.074,1.5,16.667,16.667,0,0,1-2.936-2.147A14.423,14.423,0,0,1,340.619,332.74Z" transform="translate(-290.775 -313.37)" fill="#a3463a" opacity="0.59"/>
                      <path id="Trazado_1254458" data-name="Trazado 1254458" d="M326.086,307.747a21.883,21.883,0,0,1,3.1,1.488,30.836,30.836,0,0,1,2.887,1.858,25.1,25.1,0,0,1,2.64,2.21,13.535,13.535,0,0,1,2.184,2.667c-.87-.754-1.744-1.458-2.631-2.153s-1.8-1.357-2.708-2.02l-2.741-1.993C327.9,309.14,326.985,308.465,326.086,307.747Z" transform="translate(-284.273 -302.188)" fill="#a3463a" opacity="0.59"/>
                    </g>
                    <g id="Grupo_1236592" data-name="Grupo 1236592" transform="translate(94.207 54.068)">
                      <g id="Grupo_1236591" data-name="Grupo 1236591" transform="translate(0.132 6.953)">
                        <path id="Trazado_1254459" data-name="Trazado 1254459" d="M436.341,337.075c-.071.191-.153.393-.248.6-1.729.489-3.564,1.038-5.311,1.622l-.524.181c-.411.141-.815.287-1.212.432a20.557,20.557,0,0,0-6.04,3.061c-1.02.1-2.055.2-3.093.3-.946.081-1.892.163-2.855.244-.259.014-.524.039-.79.057-.581.046-1.173.1-1.771.135-.751.056-1.516.11-2.282.163l-.467.032c-.219.014-.443.028-.663.039-.071,0-.142.011-.213.014l-1.261.075c-1.548.088-3.114.174-4.7.241a16.514,16.514,0,0,0,2.455-2.246c4.042-4.41,5.658-10.866,8.134-15.684.227-.443.457-.868.7-1.279l5.2-1.332s-.379.663-.9,1.665c-.043.085-.088.17-.131.259-.092.177-.188.361-.284.553a.245.245,0,0,0-.021.046l0,0c-.021.043-.043.081-.064.124-.057.117-.113.238-.174.358-.11.223-.223.457-.333.695,0,0,0,0,0,0-.28.6-.563,1.229-.826,1.86-.053.135-.106.266-.16.4,0,0,0,.007,0,.007-.046.113-.088.227-.131.337-.057.153-.113.3-.166.45-.064.173-.12.344-.177.514-.085.251-.16.5-.223.737a.014.014,0,0,1,0,.007c-.043.159-.081.312-.113.46a.013.013,0,0,1,0,.011c-.244,1.07-.241,1.924.2,2.3a.624.624,0,0,0,.177.11.122.122,0,0,0,.053.025l.046.021c.917.308,1.966-1,2.93-2.781a51.811,51.811,0,0,0,3.086-7.646l1.715.673,1.931.758s-.219.308-.577.829c-.043.057-.081.117-.128.181-.262.376-.581.843-.939,1.374h0c-.273.411-.574.861-.889,1.339-.655,1-1.371,2.119-2.037,3.224-1.881,3.121-3.408,6.172-2.37,6.455,1.144.312,5.3-1.456,8.992-3.2,3.33-1.577,6.281-3.139,6.281-3.139S437.517,333.993,436.341,337.075Z" transform="translate(-404.912 -311.44)" fill="#90b74c"/>
                        <path id="Trazado_1254460" data-name="Trazado 1254460" d="M436.341,337.075c-.071.191-.153.393-.248.6-1.729.489-3.564,1.038-5.311,1.622l-.524.181c-.411.141-.815.287-1.212.432a20.557,20.557,0,0,0-6.04,3.061c-1.02.1-2.055.2-3.093.3-.946.081-1.892.163-2.855.244-.259.014-.524.039-.79.057-.581.046-1.173.1-1.771.135-.751.056-1.516.11-2.282.163l-.467.032c-.219.014-.443.028-.663.039-.071,0-.142.011-.213.014l-1.261.075c-1.548.088-3.114.174-4.7.241a16.514,16.514,0,0,0,2.455-2.246c4.042-4.41,5.658-10.866,8.134-15.684.227-.443.457-.868.7-1.279l5.2-1.332s-.379.663-.9,1.665c-.043.085-.088.17-.131.259-.092.177-.188.361-.284.553a.245.245,0,0,0-.021.046l0,0c-.021.043-.043.081-.064.124-.057.117-.113.238-.174.358-.11.223-.223.457-.333.695,0,0,0,0,0,0-.28.6-.563,1.229-.826,1.86-.053.135-.106.266-.16.4,0,0,0,.007,0,.007-.046.113-.088.227-.131.337-.057.153-.113.3-.166.45-.064.173-.12.344-.177.514-.085.251-.16.5-.223.737a.014.014,0,0,1,0,.007c-.043.159-.081.312-.113.46a.013.013,0,0,1,0,.011c-.244,1.07-.241,1.924.2,2.3a.624.624,0,0,0,.177.11.122.122,0,0,0,.053.025l.046.021c.917.308,1.966-1,2.93-2.781a51.811,51.811,0,0,0,3.086-7.646l1.715.673,1.931.758s-.219.308-.577.829c-.043.057-.081.117-.128.181-.262.376-.581.843-.939,1.374h0c-.273.411-.574.861-.889,1.339-.655,1-1.371,2.119-2.037,3.224-1.881,3.121-3.408,6.172-2.37,6.455,1.144.312,5.3-1.456,8.992-3.2,3.33-1.577,6.281-3.139,6.281-3.139S437.517,333.993,436.341,337.075Z" transform="translate(-404.912 -311.44)" fill="#c1cb01"/>
                        <path id="Trazado_1254461" data-name="Trazado 1254461" d="M427.818,325.668s-.219.308-.578.829c-.043.057-.081.117-.128.181-.262.376-.581.843-.939,1.374h0c-.3.255-.613.528-.917.822a35.917,35.917,0,0,0-3.142,3.543c-3.217,4.035-6.285,8.761-8.637,9.622a6.97,6.97,0,0,0-2.6,1.913l-1.261.075c-1.548.088-3.114.173-4.7.241a16.506,16.506,0,0,0,2.455-2.246c4.042-4.41,5.658-10.866,8.134-15.684.227-.443.457-.868.7-1.279l5.2-1.332s-.379.663-.9,1.665c-.043.085-.088.17-.131.259-.092.177-.188.361-.283.553a.24.24,0,0,0-.021.046l0,0c-.021.043-.043.081-.064.124-.057.117-.113.238-.174.358-.11.223-.223.457-.333.695,0,0,0,0,0,0-.28.6-.563,1.229-.826,1.86-.053.135-.106.266-.16.4,0,0,0,.007,0,.007-.046.113-.088.227-.131.337-.057.153-.113.3-.166.45-.064.174-.12.344-.177.514-.081.251-.156.5-.223.737a.014.014,0,0,1,0,.007c-.039.159-.078.312-.113.46a.013.013,0,0,1,0,.01c-.238,1.059-.234,1.9.191,2.285,0,.007,0,.01,0,.014.01.1.075.138.177.11h.007l.046.025.046.021c.917.308,1.966-1,2.93-2.781a51.814,51.814,0,0,0,3.086-7.645l1.715.673Z" transform="translate(-404.913 -311.44)" fill="#fff" opacity="0.15"/>
                        <path id="Trazado_1254462" data-name="Trazado 1254462" d="M472.728,346.439l-.191.043c-.344.078-.695.153-1.045.227-.166.039-.333.075-.5.11-.4.088-.794.17-1.2.259-.574.12-1.165.234-1.757.358q-3.417.675-7.227,1.318c-1.226.2-2.487.393-3.784.588h-.007c-.138.025-.273.05-.418.064-1.612.244-3.259.478-4.956.7-.025,0-.057.007-.081.007-.744.106-1.492.2-2.253.294h0l-1.042.128c-.141.018-.284.032-.425.05a3.812,3.812,0,0,1,.978-.889,3.938,3.938,0,0,1,.695-.347,3.836,3.836,0,0,1-.046-1.644,3.267,3.267,0,0,1,.166-.6,0,0,0,0,1,0,0c.032-.088.064-.174.1-.262s.078-.17.124-.255.092-.166.145-.248.106-.163.166-.241a3.873,3.873,0,0,1,5.381-.8c.014.01.032.021.046.032a3.829,3.829,0,0,1,1.2,1.552c.23.032.464.071.7.113a5.222,5.222,0,0,1,6.232-4.109,4.925,4.925,0,0,1,7.45,3,2.509,2.509,0,0,1,.322.053,2.161,2.161,0,0,1,.248.06,1.689,1.689,0,0,1,.173.053A3.257,3.257,0,0,1,472.728,346.439Z" transform="translate(-424.114 -319.663)" fill="#90b74c"/>
                        <path id="Trazado_1254463" data-name="Trazado 1254463" d="M472.728,346.439l-.191.043c-.344.078-.695.153-1.045.227-.166.039-.333.075-.5.11-.4.088-.794.17-1.2.259-.574.12-1.165.234-1.757.358q-3.417.675-7.227,1.318c-1.226.2-2.487.393-3.784.588h-.007c-.138.025-.273.05-.418.064-1.612.244-3.259.478-4.956.7-.025,0-.057.007-.081.007-.744.106-1.492.2-2.253.294h0l-1.042.128c-.141.018-.284.032-.425.05a3.812,3.812,0,0,1,.978-.889,3.938,3.938,0,0,1,.695-.347,3.836,3.836,0,0,1-.046-1.644,3.267,3.267,0,0,1,.166-.6,0,0,0,0,1,0,0c.032-.088.064-.174.1-.262s.078-.17.124-.255.092-.166.145-.248.106-.163.166-.241a3.873,3.873,0,0,1,5.381-.8c.014.01.032.021.046.032a3.829,3.829,0,0,1,1.2,1.552c.23.032.464.071.7.113a5.222,5.222,0,0,1,6.232-4.109,4.925,4.925,0,0,1,7.45,3,2.509,2.509,0,0,1,.322.053,2.161,2.161,0,0,1,.248.06,1.689,1.689,0,0,1,.173.053A3.257,3.257,0,0,1,472.728,346.439Z" transform="translate(-424.114 -319.663)" fill="#9ab300"/>
                        <path id="Trazado_1254464" data-name="Trazado 1254464" d="M473.813,346.382c-.028.032-.057.067-.088.1-.344.078-.695.152-1.045.227-.166.039-.333.075-.5.11-.4.088-.794.17-1.2.259-.574.121-1.165.234-1.757.358q-3.417.675-7.227,1.318c-1.226.2-2.487.393-3.784.588H458.2c-.138.025-.273.05-.418.064-1.612.244-3.259.478-4.956.7-.025,0-.057.007-.081.007-.744.106-1.491.2-2.253.294h0v0a4.867,4.867,0,0,1,.971-2.519,1.119,1.119,0,0,1,.081-.1c-.064-.039-.128-.071-.188-.113s-.124-.1-.181-.153a2.825,2.825,0,0,1-.358-.414,0,0,0,0,1,0,0c.032-.088.064-.174.1-.262s.078-.17.124-.255.092-.166.145-.248.106-.163.166-.241a3.873,3.873,0,0,1,5.381-.8c.014.01.032.021.046.032a3.829,3.829,0,0,1,1.2,1.552c.23.032.464.071.7.113a5.222,5.222,0,0,1,6.232-4.109,4.925,4.925,0,0,1,7.45,3,2.519,2.519,0,0,1,.322.053,2.14,2.14,0,0,1,.248.06,1.684,1.684,0,0,1,.174.053A3.529,3.529,0,0,1,473.813,346.382Z" transform="translate(-425.301 -319.663)" fill="#90b74c" opacity="0.25"/>
                        <path id="Trazado_1254465" data-name="Trazado 1254465" d="M470.827,318.456a3.641,3.641,0,0,1-1.849,1.29,4.294,4.294,0,0,1-.3,4.7,4.236,4.236,0,0,1-1.12,1.02,4.215,4.215,0,0,1,.942,2.3,3.76,3.76,0,0,1,0,.773c-.166.039-.333.075-.5.11-.4.088-.794.17-1.2.259-.574.121-1.165.234-1.757.358q-3.417.675-7.227,1.318c-1.226.2-2.487.393-3.784.588h-.007c-.138.025-.273.05-.418.064-1.612.244-3.259.478-4.956.7-.025,0-.057.007-.081.007-.744.106-1.491.2-2.253.294h0v0a4.5,4.5,0,0,1-.489-.708,4.8,4.8,0,0,1-.563-1.559,4.9,4.9,0,0,1,.911-3.84c.025-.035.053-.064.078-.1-.057-.032-.113-.064-.17-.1a.027.027,0,0,1-.014-.007,2.725,2.725,0,0,1-1.063-1.849,4.861,4.861,0,0,1-.829-.411c-.166-.1-.333-.206-.492-.322-.092-.067-.177-.138-.262-.213a5.206,5.206,0,0,1-.432-.407c-.05-.053-.1-.106-.141-.159a3.588,3.588,0,0,1-.3-.369c-.021-.028-.043-.06-.064-.088-.05-.067-.1-.135-.138-.206s-.1-.156-.145-.238a.321.321,0,0,1-.028-.05.024.024,0,0,1-.007-.014c-.043-.071-.078-.142-.113-.216a5.419,5.419,0,0,1-.464-1.328c-.028-.131-.05-.259-.067-.39,0-.032-.007-.064-.011-.092a.943.943,0,0,1-.01-.1.066.066,0,0,1,0-.022c-.018-.173-.025-.347-.028-.517a5.544,5.544,0,0,1,1.12-3.376c.021-.028.046-.053.067-.082,0,0,0,0-.007,0a3.713,3.713,0,0,1-.545-.5c-.057-.06-.11-.128-.159-.191s-.092-.124-.135-.184a2.047,2.047,0,0,1-.12-.188l-.085-.149a2.431,2.431,0,0,1-.149-.308,1.464,1.464,0,0,1-.064-.159c-.021-.053-.039-.106-.057-.163s-.035-.106-.05-.163c-.032-.11-.056-.219-.078-.333-.011-.053-.018-.11-.025-.166a3.714,3.714,0,0,1,.022-1.155,3.269,3.269,0,0,1,.106-.443,3.477,3.477,0,0,1,.131-.369,3.922,3.922,0,0,1,.464-.807,3.742,3.742,0,0,1,2.757-1.477c-.022-.131-.039-.266-.05-.4,0-.085-.01-.17-.01-.255a.727.727,0,0,1,0-.085,3.342,3.342,0,0,1,.01-.372c0-.053.007-.1.011-.156s.007-.081.014-.124c.007-.064.018-.128.028-.191.01-.085.028-.174.046-.259s.046-.2.075-.3a4.757,4.757,0,0,1,.28-.741,1.281,1.281,0,0,1,.075-.149,1.086,1.086,0,0,1,.075-.142c.025-.05.053-.1.081-.141a4.486,4.486,0,0,1,.294-.439c.06-.081.124-.159.188-.234s.131-.149.2-.219.138-.138.209-.206a4.945,4.945,0,0,1,2.221-1.173c.088-.021.181-.039.273-.053s.181-.028.273-.039a4.714,4.714,0,0,1,.773-.028c.075,0,.149.007.219.014.117.007.23.021.347.039a1.4,1.4,0,0,1,.17.032h.007c.039.007.081.014.12.025l.053.011.075.021a1.894,1.894,0,0,1,.2.053,4.729,4.729,0,0,1,.925.379c.1.053.2.11.3.173a3.721,3.721,0,0,1,.432-.751,3.336,3.336,0,0,1,.223-.269c.078-.085.16-.166.241-.241a3.721,3.721,0,0,1,5.566.539,4.072,4.072,0,0,1,7.153,3.415,4.17,4.17,0,0,1,2.367,6.15,3.665,3.665,0,0,1,2.719,5.864Z" transform="translate(-421.118 -301.493)" fill="#c1cb01"/>
                        <path id="Trazado_1254466" data-name="Trazado 1254466" d="M452.557,303.073a3.737,3.737,0,0,0-.431.751,4.919,4.919,0,0,0-7.475,4.96,3.758,3.758,0,0,0-2.011,6.762l0,0c-.022.028-.046.052-.067.081a5.555,5.555,0,0,0,1.1,7.779,5.462,5.462,0,0,0,1.005.585,3.7,3.7,0,0,0,1.714-2.368,4.475,4.475,0,0,0,6.589-4.783,3.414,3.414,0,0,0,1.383-1.074,3.455,3.455,0,0,0-.635-4.8,3.347,3.347,0,0,0,.3-5.555,3.255,3.255,0,0,0-.367-.222c.031-.039.065-.074.1-.114a5.112,5.112,0,0,0,1.02-3.4A3.741,3.741,0,0,0,452.557,303.073Z" transform="translate(-421.118 -301.573)" fill="#9ab300"/>
                      </g>
                      <path id="Trazado_1254467" data-name="Trazado 1254467" d="M426.241,291.162a4.04,4.04,0,0,0-1.175-1.427,4.088,4.088,0,0,0-5.724.806,4.039,4.039,0,0,0-.554,1.055,3.134,3.134,0,0,0-4.67,3.652,5.508,5.508,0,0,0-.717-.653,5.45,5.45,0,1,0-5.028,9.512,3.862,3.862,0,0,0,5.691,4.467,4.551,4.551,0,0,0,5.7,3.189,3.767,3.767,0,1,0,7.12,2.356,4.475,4.475,0,0,0,6.589-4.783,3.419,3.419,0,0,0,1.383-1.074,3.455,3.455,0,0,0-.635-4.8,3.347,3.347,0,0,0,.3-5.555,3.259,3.259,0,0,0-.367-.222c.031-.039.065-.074.1-.114a5.131,5.131,0,0,0-8.01-6.409Z" transform="translate(-404.673 -288.912)" fill="#c1cb01"/>
                      <path id="Trazado_1254468" data-name="Trazado 1254468" d="M426.765,290.635a5.116,5.116,0,0,0-.524.526,4.04,4.04,0,0,0-1.175-1.427,4.088,4.088,0,0,0-5.724.806,4.039,4.039,0,0,0-.554,1.055,3.134,3.134,0,0,0-4.67,3.652,5.51,5.51,0,0,0-.717-.653,5.45,5.45,0,1,0-5.028,9.512,3.862,3.862,0,0,0,5.691,4.467,4.572,4.572,0,0,0,1.652,2.459c.114.086.233.16.352.233a4.736,4.736,0,0,0,.492-1.262,5.548,5.548,0,0,0,8.169-5.931,4.24,4.24,0,0,0,1.715-1.332,4.283,4.283,0,0,0-.787-5.951,4.135,4.135,0,0,0,1.107-6.156Z" transform="translate(-404.673 -288.912)" fill="#fff" opacity="0.25"/>
                    </g>
                    <g id="Grupo_1236605" data-name="Grupo 1236605">
                      <g id="Grupo_1236604" data-name="Grupo 1236604">
                        <g id="Grupo_1236599" data-name="Grupo 1236599" transform="translate(0 33.273)">
                          <path id="Trazado_1254469" data-name="Trazado 1254469" d="M279.856,265.681s-9.761,9.595-16.147,4.739-14.476.974-14.287-4.919-16.246-1.617-15.069-10.049S273.984,251.842,279.856,265.681Z" transform="translate(-234.24 -251.28)" fill="#9ab300"/>
                          <g id="Grupo_1236594" data-name="Grupo 1236594" transform="translate(0 1.673)">
                            <g id="Grupo_1236593" data-name="Grupo 1236593">
                              <path id="Trazado_1254470" data-name="Trazado 1254470" d="M236.235,254.307a3.521,3.521,0,0,0-1.976,2.5c-1.178,8.432,15.258,4.156,15.068,10.049s7.9.064,14.288,4.919c5.551,4.22,13.647-2.473,15.672-4.3C266.635,259.3,241.571,261.96,236.235,254.307Z" transform="translate(-234.199 -254.307)" fill="#c1cb01"/>
                            </g>
                          </g>
                          <g id="Grupo_1236595" data-name="Grupo 1236595" transform="translate(12.729 3.006)">
                            <path id="Trazado_1254471" data-name="Trazado 1254471" d="M294.558,272.059a.769.769,0,0,1-.4-.106c-.22-.129-22.153-12.926-36.2-13.692a.771.771,0,1,1,.085-1.54c14.422.786,35.986,13.367,36.9,13.9a.771.771,0,0,1-.385,1.436Z" transform="translate(-257.233 -256.721)" fill="#89a03a"/>
                          </g>
                          <g id="Grupo_1236598" data-name="Grupo 1236598" transform="translate(12.729 3.006)">
                            <g id="Grupo_1236597" data-name="Grupo 1236597">
                              <g id="Grupo_1236596" data-name="Grupo 1236596">
                                <path id="Trazado_1254472" data-name="Trazado 1254472" d="M294.558,272.059a.769.769,0,0,1-.4-.106c-.22-.129-22.153-12.926-36.2-13.692a.771.771,0,1,1,.085-1.54c14.422.786,35.986,13.367,36.9,13.9a.771.771,0,0,1-.385,1.436Z" transform="translate(-257.233 -256.721)" fill="#c1cb01"/>
                              </g>
                            </g>
                          </g>
                        </g>
                        <g id="Grupo_1236603" data-name="Grupo 1236603" transform="translate(36.02)">
                          <path id="Trazado_1254473" data-name="Trazado 1254473" d="M310.426,237.39s10.548-8.721,6.376-15.573,2.459-14.3-3.423-14.718.064-16.327-8.445-16.023S297.265,230.124,310.426,237.39Z" transform="translate(-299.379 -191.071)" fill="#c1cb01"/>
                          <path id="Trazado_1254474" data-name="Trazado 1254474" d="M313.775,193.063c-3.658,9.052-1.851,32.109,6.629,40.574,2.309-3.108,4.256-7.283,2.036-10.93-4.173-6.852,2.459-14.3-3.423-14.718C314.134,207.641,317.4,196.619,313.775,193.063Z" transform="translate(-305.017 -191.962)" fill="#89a03a" opacity="0.5"/>
                          <g id="Grupo_1236600" data-name="Grupo 1236600" transform="translate(2.975 12.56)">
                            <path id="Trazado_1254475" data-name="Trazado 1254475" d="M315.535,253.117a.771.771,0,0,1-.707-.451c-.439-.962-10.733-23.706-10.03-38.133a.771.771,0,0,1,1.541.075c-.686,14.057,9.786,37.186,9.892,37.418a.77.77,0,0,1-.382,1.021A.753.753,0,0,1,315.535,253.117Z" transform="translate(-304.764 -213.799)" fill="#89a03a"/>
                          </g>
                          <g id="Grupo_1236602" data-name="Grupo 1236602" transform="translate(3.027 12.56)">
                            <g id="Grupo_1236601" data-name="Grupo 1236601">
                              <path id="Trazado_1254476" data-name="Trazado 1254476" d="M315.629,253.117a.771.771,0,0,1-.707-.451c-.439-.962-10.733-23.705-10.03-38.133a.771.771,0,0,1,1.541.075c-.686,14.056,9.786,37.186,9.892,37.418a.773.773,0,0,1-.7,1.091Z" transform="translate(-304.858 -213.799)" fill="#9ab300"/>
                            </g>
                          </g>
                        </g>
                      </g>
                      <path id="Trazado_1254477" data-name="Trazado 1254477" d="M325.658,282.6l-2.021,1.823-1.2-1.328a.724.724,0,0,1,.052-1.023l.946-.853a.724.724,0,0,1,1.023.053Z" transform="translate(-273.593 -231.319)" fill="#9ab300"/>
                      <path id="Trazado_1254478" data-name="Trazado 1254478" d="M327.894,284.638l-2.606,2.351-1.545-1.713a.934.934,0,0,1,.068-1.319l1.22-1.1a.933.933,0,0,1,1.318.068Z" transform="translate(-274.152 -232.027)" fill="#9ab300"/>
                      <path id="Trazado_1254479" data-name="Trazado 1254479" d="M368.859,324.384q-1.254.069-2.526.124c-.22.01-.443.018-.666.028-.567.028-1.133.053-1.7.071l-1.233.043c-.871.032-1.757.06-2.643.081-.174.007-.344.011-.517.014q-1.413.032-2.841.06c-.142,0-.284,0-.425.007h-.251l-.227,0-.517.007-.822.01c-.159,0-.322,0-.482,0-.6,0-1.183.007-1.775.007-.857,0-1.711-.007-2.558-.014l-.861-.01c-.716-.007-1.417-.014-2.122-.028a156.837,156.837,0,0,1-14.338-10.9c-6.851-5.888-10.579-10.77-12.343-14.826a13.833,13.833,0,0,1-1.279-6.936c.01-.11.022-.219.039-.326a.682.682,0,0,1,.014-.124c.018-.124.035-.248.057-.369q.042-.271.106-.532c.032-.153.071-.3.11-.454s.078-.276.12-.411c.018-.06.035-.12.057-.181.078-.234.159-.464.248-.687a.011.011,0,0,0,0-.007c.057-.138.113-.273.173-.407.131-.3.276-.592.425-.871.12-.219.244-.435.372-.641.071-.12.145-.237.219-.354l.23-.337v0a18.79,18.79,0,0,1,1.368-1.75c.365-.418.726-.8,1.07-1.158l.276-.248c.39-.3.811-.627,1.261-.946,5.095-3.6,14.082-7.054,28.023,13.033q.627.9,1.24,1.814A171.751,171.751,0,0,1,368.859,324.384Z" transform="translate(-271.993 -230.66)" fill="#fd7d02"/>
                      <path id="Trazado_1254480" data-name="Trazado 1254480" d="M344.953,324.357c3.1,2.21,6.15,4.226,9.052,6.037-.6,0-1.183.007-1.775.007-.857,0-1.711-.007-2.557-.014l-.861-.011c-.716-.007-1.417-.014-2.122-.028a156.847,156.847,0,0,1-14.338-10.9c-6.851-5.888-10.579-10.77-12.343-14.826a13.832,13.832,0,0,1-1.279-6.936c.01-.11.022-.219.039-.326a.682.682,0,0,1,.014-.124c.018-.124.035-.248.057-.369.028-.181.064-.358.106-.532.032-.153.071-.3.11-.454s.078-.276.12-.411c.018-.06.035-.12.057-.181.078-.234.159-.464.248-.687a.011.011,0,0,0,0-.007c.057-.138.113-.273.174-.407.131-.3.276-.592.425-.871.12-.219.244-.435.372-.641.071-.12.145-.237.219-.354s.153-.227.23-.34c-.826,2.739-.726,6.164,1.52,10.458a1.478,1.478,0,0,0,.071.131c.291.556.62,1.123.992,1.708a53.741,53.741,0,0,0,10.614,11.6c.28.241.56.479.839.716.028.025.06.05.088.075,3.174,2.682,6.395,5.162,9.565,7.433C344.715,324.187,344.832,324.272,344.953,324.357Z" transform="translate(-271.992 -236.216)" fill="#dd782c" opacity="0.5"/>
                      <path id="Trazado_1254481" data-name="Trazado 1254481" d="M324.687,301.1a38.892,38.892,0,0,1,15.148-13.661c-1.4.988-2.739,2.045-4.062,3.115s-2.605,2.185-3.863,3.327-2.5,2.3-3.708,3.5S325.814,299.8,324.687,301.1Z" transform="translate(-274.682 -234.184)" fill="#b75b00"/>
                      <path id="Trazado_1254482" data-name="Trazado 1254482" d="M337.624,308.027a33.582,33.582,0,0,1,3.72-4.258,33.222,33.222,0,0,1,4.619-3.262,33.159,33.159,0,0,1-4.058,3.883A33.531,33.531,0,0,1,337.624,308.027Z" transform="translate(-280.469 -240.031)" fill="#b75b00"/>
                      <path id="Trazado_1254483" data-name="Trazado 1254483" d="M360.325,306.876a5.36,5.36,0,0,1,1.662-1.686,5.086,5.086,0,0,1,2.2-.872,7.177,7.177,0,0,1-1.74,1.568A6.833,6.833,0,0,1,360.325,306.876Z" transform="translate(-290.625 -241.736)" fill="#b75b00"/>
                      <path id="Trazado_1254484" data-name="Trazado 1254484" d="M339.911,326.139a5.13,5.13,0,0,1,1.094-2.1,5.3,5.3,0,0,1,1.849-1.48,6.773,6.773,0,0,1-1.2,2.014A7.287,7.287,0,0,1,339.911,326.139Z" transform="translate(-281.493 -249.895)" fill="#b75b00"/>
                      <path id="Trazado_1254485" data-name="Trazado 1254485" d="M347.523,326.42a24.266,24.266,0,0,1,3.054-4.149c1.175-1.254,2.388-2.477,3.609-3.692,1.333-1.089,2.675-2.171,4.043-3.21a24.219,24.219,0,0,1,4.442-2.609c-1.4.994-2.751,2.028-4.048,3.131-1.272,1.134-2.571,2.226-3.877,3.311-1.214,1.187-2.434,2.366-3.693,3.515C349.821,323.89,348.655,325.129,347.523,326.42Z" transform="translate(-284.898 -245.512)" fill="#b75b00"/>
                      <path id="Trazado_1254486" data-name="Trazado 1254486" d="M360.46,333.348a33.586,33.586,0,0,1,3.72-4.258,33.217,33.217,0,0,1,4.619-3.262,33.2,33.2,0,0,1-4.058,3.883A33.606,33.606,0,0,1,360.46,333.348Z" transform="translate(-290.686 -251.359)" fill="#b75b00"/>
                      <path id="Trazado_1254487" data-name="Trazado 1254487" d="M362.747,343.3a24.246,24.246,0,0,1,3.054-4.15c1.175-1.254,2.388-2.477,3.609-3.692,1.333-1.089,2.675-2.171,4.043-3.21a24.191,24.191,0,0,1,4.442-2.609c-1.4.994-2.752,2.028-4.048,3.131-1.272,1.134-2.571,2.226-3.877,3.311-1.214,1.187-2.434,2.366-3.693,3.515C365.045,340.77,363.878,342.009,362.747,343.3Z" transform="translate(-291.709 -253.064)" fill="#b75b00"/>
                      <path id="Trazado_1254488" data-name="Trazado 1254488" d="M392.8,351.151a33.465,33.465,0,0,1-4.056,3.883c-.634.613-1.272,1.219-1.938,1.8-.141,0-.283,0-.425.007h-.251l-.227,0c.723-.843,1.495-1.647,2.282-2.434A33.107,33.107,0,0,1,392.8,351.151Z" transform="translate(-302.068 -262.688)" fill="#b75b00"/>
                    </g>
                    <g id="Grupo_1236608" data-name="Grupo 1236608" transform="translate(64.939 68.648)">
                      <path id="Trazado_1254489" data-name="Trazado 1254489" d="M388.467,333.676v4.992c0,.482-.018.957-.053,1.428l-.467.032c-.219.014-.443.028-.663.039-.489.032-.981.06-1.474.088q-2.647.154-5.364.269c-.567.028-1.133.053-1.7.071l-1.233.043c-.871.032-1.757.06-2.643.081-.174.007-.344.01-.517.014-1.084.025-2.168.05-3.267.067h-.251l-.744.01-.822.011c-.755.007-1.506.01-2.257.01-.857,0-1.711-.007-2.558-.014l-.861-.01c-.8-.007-1.584-.018-2.37-.032h-.007q-.441-.016-.871-.021l-.737-.022c-1.059-.032-2.112-.064-3.146-.1h-.007c-.659-.032-1.308-.06-1.956-.088l-.269-.011c-.407-.018-.811-.039-1.215-.06-.181-.007-.361-.018-.539-.028-.227-.011-.454-.025-.68-.039-.053-.57-.081-1.151-.081-1.736v-4.992a18.378,18.378,0,1,1,36.756,0Z" transform="translate(-351.711 -315.295)" fill="#44623a"/>
                      <g id="Grupo_1236607" data-name="Grupo 1236607">
                        <path id="Trazado_1254490" data-name="Trazado 1254490" d="M388.467,333.676v4.992c0,.482-.018.957-.053,1.428l-.467.032c-.219.014-.443.028-.663.039-.489.032-.981.06-1.474.088q-2.647.154-5.364.269c-.567.028-1.133.053-1.7.071l-1.233.043c-.871.032-1.757.06-2.643.081-.174.007-.344.01-.517.014-1.084.025-2.168.05-3.267.067h-.251l-.744.01-.822.011c-.755.007-1.506.01-2.257.01-.857,0-1.711-.007-2.558-.014l-.861-.01c-.8-.007-1.584-.018-2.37-.032h-.007q-.441-.016-.871-.021l-.737-.022c-1.059-.032-2.112-.064-3.146-.1h-.007c-.659-.032-1.308-.06-1.956-.088l-.269-.011c-.407-.018-.811-.039-1.215-.06-.181-.007-.361-.018-.539-.028-.227-.011-.454-.025-.68-.039-.053-.57-.081-1.151-.081-1.736v-4.992a18.378,18.378,0,1,1,36.756,0Z" transform="translate(-351.711 -315.295)" fill="#627f1b"/>
                        <path id="Trazado_1254491" data-name="Trazado 1254491" d="M388.467,333.675a18.283,18.283,0,0,1-1.183,6.49c-.489.032-.981.06-1.474.088q-2.647.154-5.364.269c-.567.028-1.133.053-1.7.071l-1.233.043c-.871.032-1.757.06-2.643.081-.173.007-.344.01-.517.014-1.084.025-2.168.05-3.267.067h-.251l-.744.01-.822.01c-.755.007-1.506.01-2.257.01-.857,0-1.711-.007-2.557-.014l-.861-.01c-.8-.007-1.584-.018-2.37-.032h-.007q-.441-.016-.871-.021l-.737-.022c-1.059-.032-2.112-.064-3.146-.1h-.007c-.659-.032-1.307-.06-1.956-.088l-.269-.011c-.407-.018-.811-.039-1.215-.06a18.379,18.379,0,1,1,35.455-6.794Z" transform="translate(-351.711 -315.295)" fill="#7e9929"/>
                        <path id="Trazado_1254492" data-name="Trazado 1254492" d="M388.215,334.759a16.968,16.968,0,0,1-1.321,6.579q-2.647.154-5.364.269c-.567.028-1.133.053-1.7.071l-1.233.043c-.871.032-1.757.06-2.643.081-.174.007-.344.01-.517.014-1.084.025-2.168.05-3.267.067h-.251l-.744.01-.822.01c-.755.007-1.506.011-2.257.011-.857,0-1.711-.007-2.557-.014l-.861-.011c-.8-.007-1.584-.018-2.37-.032H362.3q-.441-.016-.871-.021l-.737-.022c-1.059-.032-2.112-.064-3.146-.1h-.007c-.659-.032-1.308-.06-1.956-.088a17.04,17.04,0,1,1,32.635-6.865Z" transform="translate(-352.795 -316.379)" fill="#c1cb01"/>
                        <g id="Grupo_1236606" data-name="Grupo 1236606" transform="translate(4.568 4.567)">
                          <path id="Trazado_1254493" data-name="Trazado 1254493" d="M386.025,327.124a5.664,5.664,0,0,1-1.671,3.564,5.664,5.664,0,0,1-1.671-3.564c0-1.968.748-3.564,1.671-3.564S386.025,325.156,386.025,327.124Z" transform="translate(-370.136 -323.56)" fill="#e9f6c2"/>
                          <path id="Trazado_1254494" data-name="Trazado 1254494" d="M397.742,334.89a5.664,5.664,0,0,1-3.7,1.339,5.665,5.665,0,0,1,1.339-3.7c1.392-1.392,3.049-1.991,3.7-1.339S399.134,333.5,397.742,334.89Z" transform="translate(-375.216 -326.855)" fill="#e9f6c2"/>
                          <path id="Trazado_1254495" data-name="Trazado 1254495" d="M400.625,349.609a5.664,5.664,0,0,1-3.564-1.671,5.664,5.664,0,0,1,3.564-1.671c1.968,0,3.564.748,3.564,1.671S402.593,349.609,400.625,349.609Z" transform="translate(-376.568 -333.719)" fill="#e9f6c2"/>
                          <path id="Trazado_1254496" data-name="Trazado 1254496" d="M397.212,359.532l-1.233.043c-.871.032-1.757.06-2.643.081a6.566,6.566,0,0,1-.34-2.03,5.666,5.666,0,0,1,3.7,1.339C396.883,359.149,397.053,359.341,397.212,359.532Z" transform="translate(-374.749 -338.8)" fill="#e9f6c2"/>
                          <path id="Trazado_1254497" data-name="Trazado 1254497" d="M384.3,361.1l-.822.011a4.844,4.844,0,0,1,.414-.464A4.843,4.843,0,0,1,384.3,361.1Z" transform="translate(-370.491 -340.151)" fill="#e9f6c2"/>
                          <path id="Trazado_1254498" data-name="Trazado 1254498" d="M371.437,359.288l-.861-.01c-.8-.007-1.584-.018-2.37-.032H368.2q-.441-.016-.872-.021a6.878,6.878,0,0,1,1.031-1.3,5.666,5.666,0,0,1,3.7-1.339A6.381,6.381,0,0,1,371.437,359.288Z" transform="translate(-363.265 -338.333)" fill="#e9f6c2"/>
                          <path id="Trazado_1254499" data-name="Trazado 1254499" d="M363.541,344.789a5.664,5.664,0,0,1,3.564,1.671,5.666,5.666,0,0,1-3.564,1.671c-1.968,0-3.564-.748-3.564-1.671S361.572,344.789,363.541,344.789Z" transform="translate(-359.977 -333.057)" fill="#e9f6c2"/>
                          <path id="Trazado_1254500" data-name="Trazado 1254500" d="M371.307,331.483a5.665,5.665,0,0,1,1.339,3.7,5.665,5.665,0,0,1-3.7-1.339c-1.392-1.392-1.991-3.049-1.339-3.7S369.915,330.091,371.307,331.483Z" transform="translate(-363.272 -326.387)" fill="#e9f6c2"/>
                        </g>
                      </g>
                    </g>
                  </g>
                </g>
                <g id="Grupo_1236611" data-name="Grupo 1236611" transform="translate(81.601 14.899)" opacity="0.25">
                  <circle id="Elipse_14749" data-name="Elipse 14749" cx="37.204" cy="37.204" r="37.204" transform="translate(0 33.372) rotate(-26.647)" fill="#fcfcfc"/>
                </g>
                <g id="Grupo_1236696" data-name="Grupo 1236696" transform="translate(0 1.621)">
                  <g id="Grupo_1236655" data-name="Grupo 1236655" transform="translate(0 50.375)">
                    <g id="Grupo_1236621" data-name="Grupo 1236621" transform="translate(41.726 46.502)">
                      <g id="Grupo_1236618" data-name="Grupo 1236618" transform="translate(39.457 95.078)">
                        <g id="Grupo_1236612" data-name="Grupo 1236612">
                          <path id="Trazado_1254501" data-name="Trazado 1254501" d="M210.871,407.081,199.9,379.193l10.364-2.324,7.876,24.564Z" transform="translate(-199.901 -376.869)" fill="#ffb089"/>
                        </g>
                        <g id="Grupo_1236617" data-name="Grupo 1236617" transform="translate(9.071 19.962)">
                          <g id="Grupo_1236616" data-name="Grupo 1236616">
                            <g id="Grupo_1236615" data-name="Grupo 1236615">
                              <g id="Grupo_1236613" data-name="Grupo 1236613">
                                <path id="Trazado_1254502" data-name="Trazado 1254502" d="M216.316,418.79s7.773.333,8.051-5.8l22.234,1.876-28.825,13.859Z" transform="translate(-216.316 -412.991)" fill="#4c0a0a"/>
                              </g>
                              <g id="Grupo_1236614" data-name="Grupo 1236614" transform="translate(1.452 1.866)">
                                <rect id="Rectángulo_424098" data-name="Rectángulo 424098" width="31.984" height="2.938" transform="translate(0 13.859) rotate(-25.678)" fill="#fff"/>
                              </g>
                            </g>
                          </g>
                        </g>
                      </g>
                      <g id="Grupo_1236620" data-name="Grupo 1236620">
                        <g id="Grupo_1236619" data-name="Grupo 1236619">
                          <path id="Trazado_1254503" data-name="Trazado 1254503" d="M151.1,204.818l10.66,38.873,26.512,69.5-18.163,7.788L128.5,217.991Z" transform="translate(-128.501 -204.818)" fill="#9ab300"/>
                        </g>
                      </g>
                    </g>
                    <g id="Grupo_1236634" data-name="Grupo 1236634" transform="translate(0 55.972)">
                      <g id="Grupo_1236628" data-name="Grupo 1236628" transform="translate(0 79.6)">
                        <g id="Grupo_1236622" data-name="Grupo 1236622" transform="translate(6.213)">
                          <path id="Trazado_1254504" data-name="Trazado 1254504" d="M64.238,390.85,80.984,366l7.792,7.218L73.013,393.633Z" transform="translate(-64.238 -365.996)" fill="#ffb089"/>
                        </g>
                        <g id="Grupo_1236627" data-name="Grupo 1236627" transform="translate(0 20.764)">
                          <g id="Grupo_1236626" data-name="Grupo 1236626">
                            <g id="Grupo_1236625" data-name="Grupo 1236625">
                              <g id="Grupo_1236623" data-name="Grupo 1236623" transform="translate(1.448)">
                                <path id="Trazado_1254505" data-name="Trazado 1254505" d="M62.97,403.57s4.135,6.59,9.342,3.342l11.067,19.375L55.615,410.408Z" transform="translate(-55.615 -403.57)" fill="#4c0a0a"/>
                              </g>
                              <g id="Grupo_1236624" data-name="Grupo 1236624" transform="translate(0 6.843)">
                                <rect id="Rectángulo_424099" data-name="Rectángulo 424099" width="2.938" height="31.984" transform="translate(0 2.55) rotate(-60.233)" fill="#fff"/>
                              </g>
                            </g>
                          </g>
                        </g>
                      </g>
                      <g id="Grupo_1236633" data-name="Grupo 1236633" transform="translate(7.707)">
                        <g id="Grupo_1236631" data-name="Grupo 1236631">
                          <g id="Grupo_1236630" data-name="Grupo 1236630">
                            <g id="Grupo_1236629" data-name="Grupo 1236629">
                              <path id="Trazado_1254506" data-name="Trazado 1254506" d="M123.808,221.955l-12.6,51.5c-1.452,6.476-3.817,10.615-7.024,16.426L83.844,324.094l-16.9-10.365L88.1,276.092l7.411-41.258Z" transform="translate(-66.94 -221.955)" fill="#9ab300"/>
                            </g>
                          </g>
                        </g>
                        <g id="Grupo_1236632" data-name="Grupo 1236632" transform="translate(47.519 16.894)">
                          <path id="Trazado_1254507" data-name="Trazado 1254507" d="M153.1,273.336a.17.17,0,0,1-.164-.21l4.157-16.995a.167.167,0,0,1,.059-.091l4.319-3.477a.169.169,0,1,1,.212.264l-4.274,3.441-4.143,16.939A.171.171,0,0,1,153.1,273.336Z" transform="translate(-152.928 -252.525)" fill="#4c0a0a"/>
                        </g>
                      </g>
                    </g>
                    <g id="Grupo_1236637" data-name="Grupo 1236637" transform="translate(56.003 5.816)">
                      <g id="Grupo_1236636" data-name="Grupo 1236636">
                        <g id="Grupo_1236635" data-name="Grupo 1236635">
                          <path id="Trazado_1254508" data-name="Trazado 1254508" d="M154.335,135.142a115.748,115.748,0,0,0,26.019,36.466,7.829,7.829,0,0,0,10.513.132h0c3.021-2.643,1.555-7.135-.739-10.428l-20.6-30.118Z" transform="translate(-154.335 -131.194)" fill="#fff"/>
                        </g>
                      </g>
                    </g>
                    <g id="Grupo_1236640" data-name="Grupo 1236640" transform="translate(45.03 0.563)">
                      <g id="Grupo_1236639" data-name="Grupo 1236639">
                        <g id="Grupo_1236638" data-name="Grupo 1236638">
                          <path id="Trazado_1254509" data-name="Trazado 1254509" d="M154.9,126.071s6.9,29.657.065,49.66-20.483-3.073-20.483-3.073l10.831-50.97Z" transform="translate(-134.48 -121.689)" fill="#fcc438"/>
                        </g>
                      </g>
                    </g>
                    <g id="Grupo_1236643" data-name="Grupo 1236643" transform="translate(15.37)">
                      <g id="Grupo_1236641" data-name="Grupo 1236641">
                        <path id="Trazado_1254510" data-name="Trazado 1254510" d="M121.3,121.233s-9.2-2.664-16.192,3.6l-1.644,11.857-.327,27.394L80.807,219.069H96.589a12.879,12.879,0,0,0,12.128-8.5C114.768,193.779,126.6,155.072,121.3,121.233Z" transform="translate(-80.807 -120.67)" fill="#fff"/>
                      </g>
                      <g id="Grupo_1236642" data-name="Grupo 1236642" transform="translate(32.624 0.493)">
                        <path id="Trazado_1254511" data-name="Trazado 1254511" d="M146.075,153.009a.306.306,0,0,1-.291-.211l-5.927-18.147a.307.307,0,0,1,.085-.321l4.564-4.178-4.3-4.355a.306.306,0,0,1,.072-.485l6.851-3.713a.306.306,0,1,1,.292.538l-6.493,3.519,4.239,4.291a.3.3,0,0,1,.088.223.307.307,0,0,1-.1.218l-4.653,4.26,5.867,17.96a.307.307,0,0,1-.2.387A.29.29,0,0,1,146.075,153.009Z" transform="translate(-139.842 -121.562)" fill="#4c0a0a" opacity="0.25"/>
                      </g>
                    </g>
                    <g id="Grupo_1236654" data-name="Grupo 1236654" transform="translate(6.888 0.83)">
                      <g id="Grupo_1236646" data-name="Grupo 1236646" transform="translate(13.824 72.279)">
                        <g id="Grupo_1236645" data-name="Grupo 1236645">
                          <g id="Grupo_1236644" data-name="Grupo 1236644">
                            <path id="Trazado_1254512" data-name="Trazado 1254512" d="M99.729,267.164a12.476,12.476,0,0,1-8.117-2.954l-1.026-.855a.306.306,0,0,1,.392-.471l1.028.857a12.456,12.456,0,0,0,17.108-1.3l8.822-9.376a.307.307,0,1,1,.447.42l-8.823,9.376A13.521,13.521,0,0,1,99.729,267.164Z" transform="translate(-90.476 -252.965)" fill="#4c0a0a" opacity="0.25"/>
                          </g>
                        </g>
                      </g>
                      <g id="Grupo_1236653" data-name="Grupo 1236653">
                        <g id="Grupo_1236649" data-name="Grupo 1236649">
                          <g id="Grupo_1236647" data-name="Grupo 1236647">
                            <path id="Trazado_1254513" data-name="Trazado 1254513" d="M104,122.172A115.748,115.748,0,0,0,67.55,148.211a7.829,7.829,0,0,0-.127,10.513h0c2.644,3.02,7.137,1.551,10.428-.745l28.388-19.805Z" transform="translate(-65.46 -122.172)" fill="#fff"/>
                          </g>
                          <g id="Grupo_1236648" data-name="Grupo 1236648" transform="translate(28.296 18.396)">
                            <path id="Trazado_1254514" data-name="Trazado 1254514" d="M116.97,162.312a.306.306,0,0,1-.182-.552l8.4-6.237a.306.306,0,0,1,.365.492l-8.4,6.237A.3.3,0,0,1,116.97,162.312Z" transform="translate(-116.663 -155.462)" fill="#4c0a0a" opacity="0.25"/>
                          </g>
                        </g>
                        <g id="Grupo_1236652" data-name="Grupo 1236652" transform="translate(14.207 27.181)">
                          <g id="Grupo_1236651" data-name="Grupo 1236651">
                            <g id="Grupo_1236650" data-name="Grupo 1236650">
                              <path id="Trazado_1254515" data-name="Trazado 1254515" d="M96.671,175.967a.3.3,0,0,1-.187-.064l-5.2-4a.306.306,0,1,1,.374-.485l5.2,4a.306.306,0,0,1-.187.549Z" transform="translate(-91.169 -171.359)" fill="#4c0a0a" opacity="0.25"/>
                            </g>
                          </g>
                        </g>
                      </g>
                    </g>
                  </g>
                  <g id="Grupo_1236656" data-name="Grupo 1236656" transform="translate(64.512 51.79)">
                    <path id="Trazado_1254516" data-name="Trazado 1254516" d="M170.848,123.23s6.723,1.173,8.341,6.759-4.544,51.259-4.544,51.259L186.981,217.8s-8.941,2.9-11.736-4.578-5.512-37.412-5.512-37.412Z" transform="translate(-169.733 -123.23)" fill="#fff"/>
                  </g>
                  <g id="Grupo_1236658" data-name="Grupo 1236658" transform="translate(65.259 52.12)">
                    <path id="Trazado_1254517" data-name="Trazado 1254517" d="M171.949,124.023c0,.064,6.764,3.8,6.764,3.8l-4.331,4.737-3.03-7.852Z" transform="translate(-171.205 -123.915)" fill="#fff"/>
                    <g id="Grupo_1236657" data-name="Grupo 1236657">
                      <path id="Trazado_1254518" data-name="Trazado 1254518" d="M172.589,155.275a.307.307,0,0,0,.291-.211l5.927-18.147a.307.307,0,0,0-.085-.321l-4.563-4.178,4.3-4.354a.306.306,0,0,0-.072-.485l-6.851-3.713a.306.306,0,0,0-.292.539l6.493,3.519-4.239,4.291a.3.3,0,0,0-.088.223.307.307,0,0,0,.1.218l4.652,4.26-5.867,17.96a.306.306,0,0,0,.292.4Z" transform="translate(-171.086 -123.828)" fill="#4c0a0a" opacity="0.25"/>
                    </g>
                  </g>
                  <g id="Grupo_1236666" data-name="Grupo 1236666" transform="translate(16.596 23.63)">
                    <g id="Grupo_1236664" data-name="Grupo 1236664" transform="translate(39.501)">
                      <g id="Grupo_1236663" data-name="Grupo 1236663" transform="translate(0)">
                        <g id="Grupo_1236660" data-name="Grupo 1236660" transform="translate(35.867)">
                          <g id="Grupo_1236659" data-name="Grupo 1236659">
                            <path id="Trazado_1254519" data-name="Trazado 1254519" d="M226.305,89.523a39.578,39.578,0,1,1,18.1,59.132h0a39.63,39.63,0,0,1-18.1-59.132Zm61.473,41.956a34.839,34.839,0,1,0-41.629,12.775h0A34.9,34.9,0,0,0,287.778,131.479Z" transform="translate(-219.41 -72.273)" fill="#af4a4a"/>
                          </g>
                        </g>
                        <g id="Grupo_1236662" data-name="Grupo 1236662" transform="translate(0 50.902)">
                          <g id="Grupo_1236661" data-name="Grupo 1236661" transform="translate(0 0)">
                            <rect id="Rectángulo_424100" data-name="Rectángulo 424100" width="45.138" height="6.115" transform="translate(0 17.915) rotate(-23.384)" fill="#af4a4a"/>
                          </g>
                        </g>
                      </g>
                    </g>
                    <g id="Grupo_1236665" data-name="Grupo 1236665" transform="translate(0 56.571)">
                      <path id="Trazado_1254520" data-name="Trazado 1254520" d="M83.42,207.123h0a4.793,4.793,0,0,1,2.5-6.3l60.54-26.179,3.8,8.8L89.721,209.62A4.793,4.793,0,0,1,83.42,207.123Z" transform="translate(-83.025 -174.643)" fill="#6b1717"/>
                    </g>
                  </g>
                  <g id="Grupo_1236667" data-name="Grupo 1236667" transform="translate(30.626 91.756)">
                    <path id="Trazado_1254521" data-name="Trazado 1254521" d="M110.141,195.552l6.276,2.327,2.847-.1a1.147,1.147,0,0,1,.414,2.23l-1.17.4,6.242,3.488a2.283,2.283,0,0,1,.5,3.649h0a8.578,8.578,0,0,1-10.606,1.074,32.281,32.281,0,0,1-6.229-5.291Z" transform="translate(-108.415 -195.552)" fill="#ffb089"/>
                  </g>
                  <g id="Grupo_1236668" data-name="Grupo 1236668" transform="translate(6.889 75.24)">
                    <path id="Trazado_1254522" data-name="Trazado 1254522" d="M77.743,167.209l17.492,14.972-5.389,11.163L68.188,179.2a7.668,7.668,0,0,1-.96-10.761h0A7.669,7.669,0,0,1,77.743,167.209Z" transform="translate(-65.46 -165.666)" fill="#fcfcfc"/>
                  </g>
                  <g id="Grupo_1236695" data-name="Grupo 1236695" transform="translate(42.406)">
                    <g id="Grupo_1236694" data-name="Grupo 1236694">
                      <path id="Trazado_1254523" data-name="Trazado 1254523" d="M163.667,126.071s.565,1.484-2.011,6.122c-2.664,4.8-7.577-10.5-7.577-10.5Z" transform="translate(-140.624 -70.751)" fill="#ffb089"/>
                      <g id="Grupo_1236693" data-name="Grupo 1236693">
                        <g id="Grupo_1236670" data-name="Grupo 1236670" transform="translate(13.457 31.526)">
                          <g id="Grupo_1236669" data-name="Grupo 1236669">
                            <path id="Trazado_1254524" data-name="Trazado 1254524" d="M165.379,94.7l-.405,3.709-.645,5.888-.661,6.054-9.586-4.382,4.958-19.41Z" transform="translate(-154.082 -86.562)" fill="#ffb089"/>
                          </g>
                        </g>
                        <g id="Grupo_1236671" data-name="Grupo 1236671" transform="translate(17.832 39.494)" opacity="0.25">
                          <path id="Trazado_1254525" data-name="Trazado 1254525" d="M168.516,104.863l-.645,5.888L162,100.98Z" transform="translate(-161.999 -100.98)" fill="#4c0a0a"/>
                        </g>
                        <g id="Grupo_1236692" data-name="Grupo 1236692">
                          <g id="Grupo_1236672" data-name="Grupo 1236672">
                            <path id="Trazado_1254526" data-name="Trazado 1254526" d="M151.224,41.663A10.789,10.789,0,1,1,141.88,29.6,10.788,10.788,0,0,1,151.224,41.663Z" transform="translate(-129.731 -29.513)" fill="#4c0a0a"/>
                          </g>
                          <g id="Grupo_1236673" data-name="Grupo 1236673" transform="translate(31.232 15.122)">
                            <path id="Trazado_1254527" data-name="Trazado 1254527" d="M186.247,58.056s5.516-3.646,8.588,1.893-3.708,15.213-3.708,15.213Z" transform="translate(-186.247 -56.878)" fill="#6b1717"/>
                          </g>
                          <g id="Grupo_1236674" data-name="Grupo 1236674" transform="translate(7.434 11.949)">
                            <path id="Trazado_1254528" data-name="Trazado 1254528" d="M154.746,77.483h0l5.378-26-2.168-.256A13.222,13.222,0,0,0,143.29,62.693h0A13.228,13.228,0,0,0,154.746,77.483Z" transform="translate(-143.184 -51.136)" fill="#6b1717"/>
                          </g>
                          <g id="Grupo_1236675" data-name="Grupo 1236675" transform="translate(31.5 29.976)">
                            <path id="Trazado_1254529" data-name="Trazado 1254529" d="M186.789,88.374a3.956,3.956,0,1,0,3.239-4.561A3.957,3.957,0,0,0,186.789,88.374Z" transform="translate(-186.733 -83.757)" fill="#edb198"/>
                          </g>
                          <g id="Grupo_1236677" data-name="Grupo 1236677" transform="translate(14.662 15.389)">
                            <g id="Grupo_1236676" data-name="Grupo 1236676">
                              <path id="Trazado_1254530" data-name="Trazado 1254530" d="M178.558,79.382c-.057.128-.115.256-.173.377a12.97,12.97,0,0,1-3.276,4.351c-2.572,2.15-6.072,3.007-10.422,1.593,0,0-8.042-1.856-8.407-12.393-.582-16.782,14.012-19.777,21.581-11.535a5.759,5.759,0,0,1,1.452,3.519C179.582,69.017,180.183,75.5,178.558,79.382Z" transform="translate(-156.262 -57.36)" fill="#ffb089"/>
                            </g>
                          </g>
                          <g id="Grupo_1236680" data-name="Grupo 1236680" transform="translate(24.092 23.215)">
                            <g id="Grupo_1236678" data-name="Grupo 1236678" transform="translate(10.92 1.953)">
                              <path id="Trazado_1254531" data-name="Trazado 1254531" d="M193.173,75.614s-.463.964.765,1.33a9.236,9.236,0,0,1,2.031.737.683.683,0,0,0,.868-.144h0a.673.673,0,0,0,.1-.731,3.116,3.116,0,0,0-1.91-1.62C193.572,74.732,193.173,75.614,193.173,75.614Z" transform="translate(-193.087 -75.056)" fill="#4c0a0a"/>
                            </g>
                            <g id="Grupo_1236679" data-name="Grupo 1236679">
                              <path id="Trazado_1254532" data-name="Trazado 1254532" d="M179.32,72.5s.255,1.064-1.385,1.035a19.572,19.572,0,0,0-3.494.385,1.008,1.008,0,0,1-1.026-.4h0a.552.552,0,0,1,.119-.728,6.728,6.728,0,0,1,3.636-1.265C179.115,71.535,179.32,72.5,179.32,72.5Z" transform="translate(-173.327 -71.522)" fill="#4c0a0a"/>
                            </g>
                          </g>
                          <g id="Grupo_1236681" data-name="Grupo 1236681" transform="translate(10.579 13.994)">
                            <path id="Trazado_1254533" data-name="Trazado 1254533" d="M159.093,61.294s-2.877,2.3-3.2,11.807l-7.02-6.626s2.284-14.928,15.772-10.969Z" transform="translate(-148.874 -54.837)" fill="#6b1717"/>
                          </g>
                          <g id="Grupo_1236685" data-name="Grupo 1236685" transform="translate(9.257 28.096)">
                            <g id="Grupo_1236683" data-name="Grupo 1236683">
                              <g id="Grupo_1236682" data-name="Grupo 1236682">
                                <path id="Trazado_1254534" data-name="Trazado 1254534" d="M146.544,85.368a4.3,4.3,0,1,0,3.517-4.953A4.295,4.295,0,0,0,146.544,85.368Z" transform="translate(-146.483 -80.355)" fill="#ffb089"/>
                              </g>
                            </g>
                            <g id="Grupo_1236684" data-name="Grupo 1236684" transform="translate(2.338 2.586)">
                              <path id="Trazado_1254535" data-name="Trazado 1254535" d="M154.54,88.492a.194.194,0,0,1-.193-.173,3.206,3.206,0,0,0-1.135-2.306,3.32,3.32,0,0,0-2.273-.567.195.195,0,0,1-.06-.385,3.654,3.654,0,0,1,2.57.642,3.578,3.578,0,0,1,1.285,2.571.2.2,0,0,1-.172.216Z" transform="translate(-150.714 -85.034)" fill="#4c0a0a"/>
                            </g>
                          </g>
                          <g id="Grupo_1236686" data-name="Grupo 1236686" transform="translate(10.79 12.347)">
                            <path id="Trazado_1254536" data-name="Trazado 1254536" d="M172.037,57.11a23.831,23.831,0,0,1-18.718,9.724l-4.062-7.28,13.978-7.7,7.249,1.352A2.456,2.456,0,0,1,172.037,57.11Z" transform="translate(-149.257 -51.856)" fill="#6b1717"/>
                          </g>
                          <g id="Grupo_1236688" data-name="Grupo 1236688" transform="translate(25.303 33.405)">
                            <path id="Trazado_1254537" data-name="Trazado 1254537" d="M177.251,94.989c2.205,1.393,4.682.372,4.644-.743-.009-.252-.341-.43-.869-.7l-.122-.063a11.718,11.718,0,0,1-1.739-1.066,7.884,7.884,0,0,1-.854-.75c-.24-.246-.445-.48-.633-.692a2.523,2.523,0,0,0-1.4-1.006C175.214,89.778,175.044,93.591,177.251,94.989Z" transform="translate(-175.519 -89.962)" fill="#911313"/>
                            <g id="Grupo_1236687" data-name="Grupo 1236687" transform="translate(0.001 0.387)">
                              <path id="Trazado_1254538" data-name="Trazado 1254538" d="M177.549,92.675a7.829,7.829,0,0,1,.952,3.169,4.393,4.393,0,0,1-1.249-.545,4.215,4.215,0,0,1-1.526-4.636C176.487,90.87,177.183,92,177.549,92.675Z" transform="translate(-175.521 -90.662)" fill="#d83b36"/>
                            </g>
                            <path id="Trazado_1254539" data-name="Trazado 1254539" d="M179.373,91.8A2.219,2.219,0,0,0,180.3,94.1a2.248,2.248,0,0,0,2.419.265l-.122-.063a11.719,11.719,0,0,1-1.739-1.066,7.89,7.89,0,0,1-.854-.75C179.766,92.242,179.561,92.009,179.373,91.8Z" transform="translate(-177.214 -90.783)" fill="#fff"/>
                          </g>
                          <g id="Grupo_1236689" data-name="Grupo 1236689" transform="translate(31.356 31.45)" opacity="0.35">
                            <path id="Trazado_1254540" data-name="Trazado 1254540" d="M186.527,88.744a.856.856,0,0,0,.107.833.786.786,0,0,0,.33.155,4.72,4.72,0,0,0,1.131.167.667.667,0,0,0,.841-.73c.038-.732,0-2.769-1.11-2.744C186.972,86.444,186.671,88.125,186.527,88.744Z" transform="translate(-186.473 -86.425)" fill="#d83b36"/>
                          </g>
                          <path id="Trazado_1254541" data-name="Trazado 1254541" d="M181.536,84.644c-.322.366-2.875-1.877-2.553-2.243s1.155-.161,1.86.458S181.859,84.277,181.536,84.644Z" transform="translate(-151.753 -53.093)" fill="#4c0a0a"/>
                          <path id="Trazado_1254542" data-name="Trazado 1254542" d="M192.752,87.382c.143.4,2.953-.592,2.81-1s-.888-.508-1.664-.233S192.609,86.979,192.752,87.382Z" transform="translate(-157.915 -54.785)" fill="#4c0a0a"/>
                          <g id="Grupo_1236690" data-name="Grupo 1236690" transform="translate(16.944 31.636)" opacity="0.25">
                            <path id="Trazado_1254543" data-name="Trazado 1254543" d="M166.969,90.05a3.289,3.289,0,1,1-3.289-3.289A3.288,3.288,0,0,1,166.969,90.05Z" transform="translate(-160.392 -86.761)" fill="#d83b36"/>
                          </g>
                          <g id="Grupo_1236691" data-name="Grupo 1236691" transform="translate(32.875 37.231)" opacity="0.25">
                            <path id="Trazado_1254544" data-name="Trazado 1254544" d="M193.3,97.065c-.057.128-.115.256-.173.377a12.97,12.97,0,0,1-3.276,4.351,2.969,2.969,0,0,1-.633-1.856,3.052,3.052,0,0,1,4.082-2.873Z" transform="translate(-189.22 -96.886)" fill="#d83b36"/>
                          </g>
                        </g>
                      </g>
                    </g>
                  </g>
                </g>
              </g>
            </g>
            <g id="Grupo_1236701" data-name="Grupo 1236701" transform="translate(190.275 192.138)">
              <path id="Trazado_1254545" data-name="Trazado 1254545" d="M446.345,396.745s.4-6.529-3.669-7.217-12.7,7.967-19.28,14.221-23.842.793-28.624-13.108-6.082-17.9-9.17-15.881-4.328,36.906,17.318,44.348,40.813,2.209,49.74-18.115C454.166,396.828,446.345,396.745,446.345,396.745Z" transform="translate(-383.889 -374.268)" fill="#d83b36"/>
              <g id="Grupo_1236700" data-name="Grupo 1236700" transform="translate(4.636 15.642)">
                <g id="Grupo_1236699" data-name="Grupo 1236699">
                  <path id="Trazado_1254546" data-name="Trazado 1254546" d="M404.255,433.593a23.807,23.807,0,0,1-11.977-9.37c2.931,5.994,7.5,11.155,14.4,13.527,21.647,7.442,40.814,2.209,49.739-18.115.759-2.1-.849-3.159-2.633-3.7C444.766,435.874,425.733,440.977,404.255,433.593Z" transform="translate(-392.278 -408.552)" fill="#d83b36" opacity="0.5"/>
                  <path id="Trazado_1254547" data-name="Trazado 1254547" d="M492.392,405.25a16.228,16.228,0,0,1,1.934.173,4.694,4.694,0,0,0-2.107-2.85A13.046,13.046,0,0,1,492.392,405.25Z" transform="translate(-436.99 -402.573)" fill="#d83b36"/>
                </g>
              </g>
              <path id="Trazado_1254548" data-name="Trazado 1254548" d="M492.025,395.52c.7-1.708,2.755-2.732,4.114-1.063,1.718-.949,8.668-3.341,6.946-15.937-.3-1.876,2.017-1.233,2.592,3.686s-3.086,13.408-7.182,16.048c.159.647,1.425,3.656-.577,4.306S490.344,399.623,492.025,395.52Z" transform="translate(-432.127 -375.736)" fill="#96c43d"/>
              <path id="Trazado_1254549" data-name="Trazado 1254549" d="M503.089,378.525c1.722,12.6-5.228,14.988-6.946,15.937-1.359-1.669-3.414-.645-4.114,1.063a4.033,4.033,0,0,0,.045,3.186c1.442,1.376,3.385,2.147,4.4,1.816,2-.649.735-3.659.577-4.306,5.172-2.073,7.757-11.129,7.182-16.048a11.831,11.831,0,0,0-.572-2.586C503.25,377.455,502.972,377.8,503.089,378.525Z" transform="translate(-432.132 -375.741)" fill="#b9dd62" opacity="0.5"/>
            </g>
            <g id="Grupo_1236704" data-name="Grupo 1236704" transform="translate(156.959 198.983)">
              <path id="Trazado_1254550" data-name="Trazado 1254550" d="M326.741,390.287c2.9,1.064,6.1.077,6.929.7s9.044-9.72,24.021-.457,16.978,19.885,11.408,32.165c-.4,1.138.416,3.284-1.89,4.779s-12.005,4.121-15.9,3.305c-7.57-1.587-24.921-6.72-25.255-22.43.034-2.668,1.558-8.595-1.355-13.359S325.45,389.814,326.741,390.287Z" transform="translate(-323.601 -386.654)" fill="#fcc438"/>
              <g id="Grupo_1236702" data-name="Grupo 1236702" transform="translate(2.514 17.516)" opacity="0.5">
                <path id="Trazado_1254551" data-name="Trazado 1254551" d="M369.867,431.3c-3.16,5.971-13.9,8.9-17.79,8.084-6.374-1.336-19.681-5.188-23.927-15.75,1.107,14.842,17.805,19.775,25.194,21.324,3.895.816,13.594-1.81,15.9-3.3s1.495-3.64,1.89-4.779c3.013-6.644,3.8-12.8,1.529-18.523A27.006,27.006,0,0,1,369.867,431.3Z" transform="translate(-328.15 -418.351)" fill="#d3a124"/>
              </g>
              <path id="Trazado_1254552" data-name="Trazado 1254552" d="M361.327,393c-1.117-.833-2.324-1.656-3.637-2.468-14.978-9.262-23.19,1.078-24.021.458s-4.031.366-6.929-.7c-1.29-.474-4.955-.063-2.042,4.7a21.239,21.239,0,0,1,2.961,11.151,6.473,6.473,0,0,0,.618,2.863c2.322,4.622,9.27,4.92,12.515,5.6,3.895.816,13.239-.078,17.79-8.084C360.736,401.768,361.751,397.267,361.327,393Z" transform="translate(-323.601 -386.654)" fill="#fff" opacity="0.1"/>
              <g id="Grupo_1236703" data-name="Grupo 1236703" transform="translate(38.819 27.85)" opacity="0.5">
                <path id="Trazado_1254553" data-name="Trazado 1254553" d="M395.925,442.331a.426.426,0,1,0-.183-.574A.426.426,0,0,0,395.925,442.331Z" transform="translate(-394.673 -439.053)" fill="#e9bb34"/>
                <path id="Trazado_1254554" data-name="Trazado 1254554" d="M398.35,437.856a.426.426,0,1,0-.183-.574A.426.426,0,0,0,398.35,437.856Z" transform="translate(-395.758 -437.051)" fill="#e9bb34"/>
                <path id="Trazado_1254555" data-name="Trazado 1254555" d="M394.078,439.3a.426.426,0,1,0-.183-.574A.426.426,0,0,0,394.078,439.3Z" transform="translate(-393.847 -437.695)" fill="#e9bb34"/>
              </g>
            </g>
          </g>
          <g id="Grupo_1236706" data-name="Grupo 1236706" transform="translate(192.389 123.183)">
            <path id="Trazado_1254556" data-name="Trazado 1254556" d="M359.118,231.418l2.614,8.362,8.362,2.614-8.362,2.614-2.614,8.362-2.614-8.362-8.362-2.614,8.362-2.614Z" transform="translate(-348.142 -231.418)" fill="#fec110"/>
            <path id="Trazado_1254557" data-name="Trazado 1254557" d="M507.175,260.856l2.614,8.362,8.362,2.614-8.362,2.614-2.614,8.362-2.615-8.362-8.362-2.614,8.362-2.614Z" transform="translate(-414.38 -244.588)" fill="#fec110"/>
          </g>
          <g id="Grupo_1236708" data-name="Grupo 1236708" transform="translate(285.978 185.841)">
            <path id="Trazado_1254558" data-name="Trazado 1254558" d="M543.735,367.359c-3.123-4.172,14.054-6.314,16.42,1.33S546.666,371.274,543.735,367.359Z" transform="translate(-529.066 -353.207)" fill="#ad2525"/>
            <path id="Trazado_1254559" data-name="Trazado 1254559" d="M557.8,376.381s3.928-8.4,12.733-8.881,13.55,9.338,7.547,15.634S557.8,376.381,557.8,376.381Z" transform="translate(-535.527 -354.95)" fill="#ad2525"/>
            <path id="Trazado_1254560" data-name="Trazado 1254560" d="M552.762,380.251s3.929-8.4,12.733-8.881,13.55,9.338,7.547,15.634S552.762,380.251,552.762,380.251Z" transform="translate(-533.274 -356.681)" fill="#92263d" opacity="0.15"/>
            <path id="Trazado_1254561" data-name="Trazado 1254561" d="M526.044,376.116s-3.6-9.224,2.448-11.648,17.783,1.01,15.031,12.586S526.044,376.116,526.044,376.116Z" transform="translate(-520.845 -353.272)" fill="#c13030"/>
            <path id="Trazado_1254562" data-name="Trazado 1254562" d="M536.928,360.6s8.53,2.028,10.4-.423,1.259-9.356-.6-12.373,3.379-3.38,4.829-2.714c1.106.508,2.963,4.935,3.238,9.306a10.316,10.316,0,0,1-1.53,6.006h0s5.491,3.136,6.507,5.631S539.846,369.978,536.928,360.6Z" transform="translate(-526.19 -344.803)" fill="#9ab300"/>
            <g id="Grupo_1236707" data-name="Grupo 1236707" transform="translate(21.078 0.001)" opacity="0.25">
              <path id="Trazado_1254563" data-name="Trazado 1254563" d="M563.489,367.8c.849-.311,1.288-.693,1.121-1.1-1.016-2.495-4.9-5.821-4.9-5.821s1.664-8.642-3.312-15.122a1.4,1.4,0,0,0-.755-.422,6.107,6.107,0,0,1,4.292-.242c1.106.508,2.963,4.935,3.237,9.306a10.317,10.317,0,0,1-1.529,6.006s5.491,3.136,6.507,5.631C568.478,366.845,566.455,367.546,563.489,367.8Z" transform="translate(-555.639 -344.805)" fill="#6b874b"/>
            </g>
            <path id="Trazado_1254564" data-name="Trazado 1254564" d="M558.376,383.028s4.031-6.122,13.866-2.818,4.892,15.968-2.7,28.967-20.724,14.061-20.495.92S558.376,383.028,558.376,383.028Z" transform="translate(-531.609 -360.206)" fill="#d83b36"/>
            <path id="Trazado_1254565" data-name="Trazado 1254565" d="M577.273,409.177a23.468,23.468,0,0,1-8.2,8.639,26.654,26.654,0,0,0,4.828-6.124c7.6-13,12.539-25.662,2.7-28.967-4.682-1.573-8.034-1-10.276.018.944-1.162,5.1-5.4,13.65-2.533C589.812,383.515,584.869,396.179,577.273,409.177Z" transform="translate(-539.343 -360.205)" fill="#c13030"/>
            <path id="Trazado_1254566" data-name="Trazado 1254566" d="M557.459,427.593c-4.727.875-8.541-2.063-8.417-9.2.131-7.542,3.185-15.337,5.764-20.615a17.292,17.292,0,0,1,5.29.963C569.9,402.037,565.018,414.635,557.459,427.593Z" transform="translate(-531.609 -368.503)" fill="#fdfdff" opacity="0.1"/>
            <path id="Trazado_1254567" data-name="Trazado 1254567" d="M545,377.738c-3.989-2.651-20.8-12.672-25.3-.544s-1.718,28.88,4.563,33.592,14.4,4.391,19.115-8.65S550.285,381.247,545,377.738Z" transform="translate(-517.497 -356.671)" fill="#d83b36"/>
            <path id="Trazado_1254568" data-name="Trazado 1254568" d="M536.239,389.58c5.281,3.508,3.092,11.356-1.618,24.4a29.293,29.293,0,0,1-2.229,4.851,12.08,12.08,0,0,1-8.116-2.741c-6.165-4.625-8.947-20.842-4.8-32.907C525.929,383.205,533.693,387.889,536.239,389.58Z" transform="translate(-517.501 -361.973)" fill="#fdfdff" opacity="0.1"/>
          </g>
        </g>
      </g>
    </g>
  </g>
</svg>
