<svg xmlns="http://www.w3.org/2000/svg" xmlns:xlink="http://www.w3.org/1999/xlink" width="113" height="113" viewBox="0 0 113 113">
  <defs>
    <filter id="Trazado_982547" x="0" y="0.001" width="113" height="113" filterUnits="userSpaceOnUse">
      <feOffset dy="3" input="SourceAlpha"/>
      <feGaussianBlur stdDeviation="3" result="blur"/>
      <feFlood flood-opacity="0.161"/>
      <feComposite operator="in" in2="blur"/>
      <feComposite in="SourceGraphic"/>
    </filter>
  </defs>
  <g id="Grupo_1236749" data-name="Grupo 1236749" transform="translate(-901 -9938.78)">
    <g id="Grupo_1234690" data-name="Grupo 1234690" transform="translate(0 -44.352)">
      <g id="Grupo_1231168" data-name="Grupo 1231168" transform="translate(0 4365)">
        <g id="Grupo_1230688" data-name="Grupo 1230688" transform="translate(0 -2146.377)">
          <g id="Grupo_1229016" data-name="Grupo 1229016" transform="translate(0.575 2131.042)">
            <g id="Grupo_1227504" data-name="Grupo 1227504" transform="translate(0 2048.198)">
              <g id="Grupo_1225352" data-name="Grupo 1225352" transform="translate(-0.575 -393.641)">
                <g id="Grupo_1208123" data-name="Grupo 1208123" transform="translate(0 -1922.377)">
                  <g id="Grupo_1202434" data-name="Grupo 1202434" transform="translate(-0.56 1255.773)">
                    <g id="Grupo_1202053" data-name="Grupo 1202053" transform="translate(0 3240.511)">
                      <g id="Grupo_1177898" data-name="Grupo 1177898" transform="translate(910.561 1411.003)">
                        <g id="Grupo_1172010" data-name="Grupo 1172010" transform="translate(0)">
                          <g id="Grupo_1171046" data-name="Grupo 1171046">
                            <g id="Grupo_1148525" data-name="Grupo 1148525">
                              <g transform="matrix(1, 0, 0, 1, -9, -6)" filter="url(#Trazado_982547)">
                                <g id="Trazado_982547-2" data-name="Trazado 982547" transform="translate(9 6)" fill="#d6ccfe">
                                  <path d="M 47.5 93.5 C 41.28937149047852 93.5 35.26533508300781 92.28397369384766 29.59518623352051 89.88570404052734 C 24.11771965026855 87.56893157958984 19.19813346862793 84.25196075439453 14.97309303283691 80.02691650390625 C 10.74804019927979 75.80186462402344 7.431066513061523 70.88229370117188 5.114293098449707 65.40481567382812 C 2.716026782989502 59.73468017578125 1.5 53.71062850952148 1.5 47.5 C 1.5 41.28937149047852 2.716026782989502 35.26533508300781 5.114293098449707 29.59518623352051 C 7.431066513061523 24.11771965026855 10.74804019927979 19.19813346862793 14.97309303283691 14.97309303283691 C 19.19813346862793 10.74804019927979 24.11771965026855 7.431066513061523 29.59518623352051 5.114293098449707 C 35.26533508300781 2.716026782989502 41.28937149047852 1.5 47.5 1.5 C 53.71062850952148 1.5 59.73468017578125 2.716026782989502 65.40481567382812 5.114293098449707 C 70.88229370117188 7.431066513061523 75.80186462402344 10.74804019927979 80.02691650390625 14.97309303283691 C 84.25196075439453 19.19813346862793 87.56893157958984 24.11771965026855 89.88570404052734 29.59518623352051 C 92.28397369384766 35.26533508300781 93.5 41.28937149047852 93.5 47.5 C 93.5 53.71062850952148 92.28397369384766 59.73468017578125 89.88570404052734 65.40481567382812 C 87.56893157958984 70.88229370117188 84.25196075439453 75.80186462402344 80.02691650390625 80.02691650390625 C 75.80186462402344 84.25196075439453 70.88229370117188 87.56893157958984 65.40481567382812 89.88570404052734 C 59.73468017578125 92.28397369384766 53.71062850952148 93.5 47.5 93.5 Z" stroke="none"/>
                                  <path d="M 47.5 3 C 41.49121475219727 3 35.66376876831055 4.176155090332031 30.17950439453125 6.495796203613281 C 24.88084411621094 8.736953735351562 20.12152099609375 11.94598388671875 16.03375244140625 16.03375244140625 C 11.94598388671875 20.12152099609375 8.736953735351562 24.88084411621094 6.495796203613281 30.17950439453125 C 4.176155090332031 35.66376876831055 3 41.49121475219727 3 47.5 C 3 53.50878524780273 4.176155090332031 59.33623123168945 6.495796203613281 64.82049560546875 C 8.736953735351562 70.11915588378906 11.94598388671875 74.87847900390625 16.03375244140625 78.96624755859375 C 20.12152099609375 83.05401611328125 24.88084411621094 86.26304626464844 30.17950439453125 88.50419616699219 C 35.66376876831055 90.82384490966797 41.49121475219727 92 47.5 92 C 53.50878524780273 92 59.33623123168945 90.82384490966797 64.82049560546875 88.50419616699219 C 70.11915588378906 86.26304626464844 74.87847900390625 83.05401611328125 78.96624755859375 78.96624755859375 C 83.05401611328125 74.87847900390625 86.26304626464844 70.11915588378906 88.50419616699219 64.82049560546875 C 90.82384490966797 59.33623123168945 92 53.50878524780273 92 47.5 C 92 41.49121475219727 90.82384490966797 35.66376876831055 88.50419616699219 30.17950439453125 C 86.26304626464844 24.88084411621094 83.05401611328125 20.12152099609375 78.96624755859375 16.03375244140625 C 74.87847900390625 11.94598388671875 70.11915588378906 8.736953735351562 64.82049560546875 6.495796203613281 C 59.33623123168945 4.176155090332031 53.50878524780273 3 47.5 3 M 47.5 0 C 73.7335205078125 0 95 21.2664794921875 95 47.5 C 95 73.7335205078125 73.7335205078125 95 47.5 95 C 21.2664794921875 95 0 73.7335205078125 0 47.5 C 0 21.2664794921875 21.2664794921875 0 47.5 0 Z" stroke="none" fill="#7958fb"/>
                                </g>
                              </g>
                            </g>
                          </g>
                        </g>
                      </g>
                    </g>
                  </g>
                </g>
              </g>
            </g>
          </g>
        </g>
      </g>
    </g>
    <g id="washing-hand_6314827" transform="translate(924.054 9955.164)">
      <path id="Trazado_1254677" data-name="Trazado 1254677" d="M95.391,242.791a4.472,4.472,0,0,1-1.636,6.112l-1.649.952h15.6a2.835,2.835,0,0,1,2.835,2.835h0a2.835,2.835,0,0,1-2.835,2.835h3.386a2.835,2.835,0,0,1,2.835,2.835h0a2.835,2.835,0,0,1-2.835,2.835h-3.386a2.836,2.836,0,0,1,2.834,2.915,2.874,2.874,0,0,1-2.893,2.756h-3.729a2.835,2.835,0,0,1,2.835,2.835h0a2.835,2.835,0,0,1-2.835,2.835H83.8a11.293,11.293,0,0,1-6.954-2.381,6.806,6.806,0,0,0-4.178-1.421H62.98a.128.128,0,0,1-.128-.128V253.786a.128.128,0,0,1,.128-.128h9.685a6.754,6.754,0,0,0,4.158-1.406,11.356,11.356,0,0,1,1.605-1.048l15.326-8.848A1.2,1.2,0,0,1,95.391,242.791Z" transform="translate(-48.835 -207.544)" fill="#d78878"/>
      <path id="Trazado_1254678" data-name="Trazado 1254678" d="M327.322,276.194a1.6,1.6,0,0,0-1.327-1.574.341.341,0,0,1-.282-.309v0a3.2,3.2,0,0,0-4.231-2.728,2.023,2.023,0,0,1-2.047-.464,4.791,4.791,0,1,0,.9,5.8,3.194,3.194,0,0,0,1.138.695,3.194,3.194,0,1,0,5.506.334.826.826,0,0,1,.063-.847A1.588,1.588,0,0,0,327.322,276.194Z" transform="translate(-268.586 -231.961)" fill="#d9f0f4"/>
      <path id="Trazado_1254679" data-name="Trazado 1254679" d="M40.168,242.791a4.472,4.472,0,0,1-1.636,6.112l-1.649.952h15.6a2.835,2.835,0,0,1,2.835,2.835h0a2.835,2.835,0,0,1-2.835,2.835H55.87a2.835,2.835,0,0,1,2.835,2.835h0A2.835,2.835,0,0,1,55.87,261.2H52.484a2.836,2.836,0,0,1,2.834,2.915,2.874,2.874,0,0,1-2.893,2.756H48.7a2.835,2.835,0,0,1,2.835,2.835h0a2.835,2.835,0,0,1-2.835,2.835H28.573a11.293,11.293,0,0,1-6.954-2.381,6.806,6.806,0,0,0-4.178-1.421H7.757a.128.128,0,0,1-.128-.128V253.786a.128.128,0,0,1,.128-.128h9.685a6.754,6.754,0,0,0,4.158-1.406,11.356,11.356,0,0,1,1.605-1.048l15.326-8.848A1.2,1.2,0,0,1,40.168,242.791Z" transform="translate(0 -207.544)" fill="#f1b0a2"/>
      <path id="Trazado_1254680" data-name="Trazado 1254680" d="M160.209,314.09h-3.386a2.835,2.835,0,0,0,2.835-2.835h0a2.835,2.835,0,0,0-2.835-2.835h-5.58v11.552a8.817,8.817,0,0,1-8.817,8.817H128.285a11.37,11.37,0,0,1-2.667-.315q.174.118.341.248a11.293,11.293,0,0,0,6.954,2.381h20.123a2.835,2.835,0,0,0,2.835-2.835h0a2.835,2.835,0,0,0-2.835-2.835h3.729a2.874,2.874,0,0,0,2.893-2.756,2.835,2.835,0,0,0-2.834-2.915h3.386a2.835,2.835,0,0,0,2.835-2.835h0A2.836,2.836,0,0,0,160.209,314.09Z" transform="translate(-104.34 -266.108)" fill="#eb9c8d"/>
      <circle id="Elipse_14755" data-name="Elipse 14755" cx="1.597" cy="1.597" r="1.597" transform="translate(55.541 33.053)" fill="#d9f0f4"/>
      <circle id="Elipse_14756" data-name="Elipse 14756" cx="1.597" cy="1.597" r="1.597" transform="translate(23.6 34.65)" fill="#d9f0f4"/>
      <path id="Trazado_1254681" data-name="Trazado 1254681" d="M87.041,302.208l-.112,0a.712.712,0,0,1-.729-.63,4.792,4.792,0,1,0-7.182,4.756,1.874,1.874,0,0,1,.892,1.265l.005.028A3.194,3.194,0,0,0,86.24,307q0-.069,0-.137a2.4,2.4,0,1,0,.8-4.654Z" transform="translate(-61.043 -256.378)" fill="#d9f0f4"/>
      <path id="Trazado_1254682" data-name="Trazado 1254682" d="M30.045,25.4l-6.56-6.56a.153.153,0,0,1,0-.216l6.56-6.56a.153.153,0,0,0,0-.216l-4.3-4.3a.153.153,0,0,0-.216,0l-6.56,6.56a.153.153,0,0,1-.216,0l-6.56-6.56a.153.153,0,0,0-.216,0l-4.3,4.3a.153.153,0,0,0,0,.216l6.56,6.56a.153.153,0,0,1,0,.216L7.675,25.4a.153.153,0,0,0,0,.216l4.3,4.3a.153.153,0,0,0,.216,0l6.56-6.56a.153.153,0,0,1,.216,0l6.56,6.56a.153.153,0,0,0,.216,0l4.3-4.3A.153.153,0,0,0,30.045,25.4Z" transform="translate(-0.001)" fill="#e94444"/>
      <line id="Línea_851" data-name="Línea 851" x1="6.388" transform="translate(52.484 53.653)" fill="none" stroke="#000" stroke-linecap="round" stroke-linejoin="round" stroke-miterlimit="10" stroke-width="1.5"/>
      <line id="Línea_852" data-name="Línea 852" x1="6.388" transform="translate(48.697 59.324)" fill="none" stroke="#000" stroke-linecap="round" stroke-linejoin="round" stroke-miterlimit="10" stroke-width="1.5"/>
      <line id="Línea_853" data-name="Línea 853" x1="2.103" transform="translate(34.779 42.311)" fill="none" stroke="#000" stroke-linecap="round" stroke-linejoin="round" stroke-miterlimit="10" stroke-width="1.5"/>
      <line id="Línea_854" data-name="Línea 854" x1="12.71" transform="translate(39.774 47.982)" fill="none" stroke="#000" stroke-linecap="round" stroke-linejoin="round" stroke-miterlimit="10" stroke-width="1.5"/>
      <line id="Línea_855" data-name="Línea 855" x1="12.71" transform="translate(39.774 53.653)" fill="none" stroke="#000" stroke-linecap="round" stroke-linejoin="round" stroke-miterlimit="10" stroke-width="1.5"/>
      <line id="Línea_856" data-name="Línea 856" x1="8.923" transform="translate(39.774 59.324)" fill="none" stroke="#000" stroke-linecap="round" stroke-linejoin="round" stroke-miterlimit="10" stroke-width="1.5"/>
      <circle id="Elipse_14757" data-name="Elipse 14757" cx="1.597" cy="1.597" r="1.597" transform="translate(55.541 33.053)" fill="none" stroke="#000" stroke-linecap="round" stroke-linejoin="round" stroke-miterlimit="10" stroke-width="1.5"/>
      <circle id="Elipse_14758" data-name="Elipse 14758" cx="1.597" cy="1.597" r="1.597" transform="translate(23.6 34.65)" fill="none" stroke="#000" stroke-linecap="round" stroke-linejoin="round" stroke-miterlimit="10" stroke-width="1.5"/>
      <path id="Trazado_1254683" data-name="Trazado 1254683" d="M87.041,302.208l-.112,0a.712.712,0,0,1-.729-.63,4.792,4.792,0,1,0-7.182,4.756,1.874,1.874,0,0,1,.892,1.265l.005.028A3.194,3.194,0,0,0,86.24,307q0-.069,0-.137a2.4,2.4,0,1,0,.8-4.654Z" transform="translate(-61.043 -256.378)" fill="none" stroke="#000" stroke-linecap="round" stroke-linejoin="round" stroke-miterlimit="10" stroke-width="1.5"/>
      <path id="Trazado_1254684" data-name="Trazado 1254684" d="M26.238,21.591l-2.753-2.753a.153.153,0,0,1,0-.216l6.56-6.56a.153.153,0,0,0,0-.216l-4.3-4.3a.153.153,0,0,0-.216,0l-6.56,6.56a.153.153,0,0,1-.216,0l-6.56-6.56a.153.153,0,0,0-.216,0l-4.3,4.3a.153.153,0,0,0,0,.216l6.56,6.56a.153.153,0,0,1,0,.216L7.675,25.4a.153.153,0,0,0,0,.216l4.3,4.3a.153.153,0,0,0,.216,0l6.56-6.56a.153.153,0,0,1,.216,0l6.56,6.56a.153.153,0,0,0,.216,0l4.3-4.3a.153.153,0,0,0,0-.216l-.928-.928" transform="translate(-0.001)" fill="none" stroke="#000" stroke-linecap="round" stroke-linejoin="round" stroke-miterlimit="10" stroke-width="1.5"/>
      <path id="Trazado_1254685" data-name="Trazado 1254685" d="M362.625,331.1h6.388a2.835,2.835,0,1,0,0-5.671h3.729a2.874,2.874,0,0,0,2.893-2.756,2.835,2.835,0,0,0-2.834-2.915h3.386a2.835,2.835,0,1,0,0-5.671H372.8a2.835,2.835,0,1,0,0-5.671h-1.75" transform="translate(-313.929 -266.109)" fill="none" stroke="#000" stroke-linecap="round" stroke-linejoin="round" stroke-miterlimit="10" stroke-width="1.5"/>
      <path id="Trazado_1254686" data-name="Trazado 1254686" d="M316.423,269.809q-.219-.008-.443,0a4.807,4.807,0,0,0-4.522,4.439" transform="translate(-268.681 -231.961)" fill="none" stroke="#000" stroke-linecap="round" stroke-linejoin="round" stroke-miterlimit="10" stroke-width="1.5"/>
      <path id="Trazado_1254687" data-name="Trazado 1254687" d="M391.556,293.37a3.2,3.2,0,0,0,.193-3.215.826.826,0,0,1,.063-.847,1.6,1.6,0,0,0-1.047-2.479.341.341,0,0,1-.282-.309v0a3.2,3.2,0,0,0-4.231-2.728,1.993,1.993,0,0,1-1.657-.172" transform="translate(-333.357 -244.17)" fill="none" stroke="#000" stroke-linecap="round" stroke-linejoin="round" stroke-miterlimit="10" stroke-width="1.5"/>
      <path id="Trazado_1254688" data-name="Trazado 1254688" d="M300.409,245.406a4.452,4.452,0,0,0-.585-2.615,1.2,1.2,0,0,0-1.636-.436l-4.159,2.4" transform="translate(-253.268 -207.544)" fill="none" stroke="#000" stroke-linecap="round" stroke-linejoin="round" stroke-miterlimit="10" stroke-width="1.5"/>
      <path id="Trazado_1254689" data-name="Trazado 1254689" d="M72.227,268.737h2.339a6.805,6.805,0,0,1,4.178,1.421A11.293,11.293,0,0,0,85.7,272.54h20.123a2.835,2.835,0,0,0,2.835-2.835h0a2.835,2.835,0,0,0-2.835-2.835h3.729a2.874,2.874,0,0,0,2.893-2.756,2.835,2.835,0,0,0-2.834-2.915H113a2.835,2.835,0,0,0,2.835-2.835h0A2.835,2.835,0,0,0,113,255.527H109.61a2.835,2.835,0,0,0,2.835-2.835h0a2.835,2.835,0,0,0-2.835-2.835h-15.6l1.649-.952a4.472,4.472,0,0,0,1.636-6.112,1.2,1.2,0,0,0-1.636-.436l-14.237,8.22" transform="translate(-57.125 -207.545)" fill="none" stroke="#000" stroke-linecap="round" stroke-linejoin="round" stroke-miterlimit="10" stroke-width="1.5"/>
      <path id="Trazado_1254690" data-name="Trazado 1254690" d="M15.624,341.288H7.758a.128.128,0,0,0-.128.128v14.822a.128.128,0,0,0,.128.128h3.3" transform="translate(-0.001 -295.174)" fill="none" stroke="#000" stroke-linecap="round" stroke-linejoin="round" stroke-miterlimit="10" stroke-width="1.5"/>
      <line id="Línea_857" data-name="Línea 857" y1="4.791" transform="translate(15.615 52.218)" fill="none" stroke="#000" stroke-linecap="round" stroke-linejoin="round" stroke-miterlimit="10" stroke-width="1.5"/>
    </g>
  </g>
</svg>
