<svg xmlns="http://www.w3.org/2000/svg" xmlns:xlink="http://www.w3.org/1999/xlink" width="113" height="113" viewBox="0 0 113 113">
  <defs>
    <filter id="Trazado_982547" x="0" y="0" width="113" height="113" filterUnits="userSpaceOnUse">
      <feOffset dy="3" input="SourceAlpha"/>
      <feGaussianBlur stdDeviation="3" result="blur"/>
      <feFlood flood-opacity="0.161"/>
      <feComposite operator="in" in2="blur"/>
      <feComposite in="SourceGraphic"/>
    </filter>
  </defs>
  <g id="Grupo_1236752" data-name="Grupo 1236752" transform="translate(-1216 -9938.494)">
    <g id="Grupo_1234691" data-name="Grupo 1234691" transform="translate(0 -44.352)">
      <g id="Grupo_1231160" data-name="Grupo 1231160" transform="translate(0 4365)">
        <g id="Grupo_1230689" data-name="Grupo 1230689" transform="translate(0 -2146.377)">
          <g id="Grupo_1229017" data-name="Grupo 1229017" transform="translate(0 2131.042)">
            <g id="Grupo_1227505" data-name="Grupo 1227505" transform="translate(0.575 2048.198)">
              <g id="Grupo_1225353" data-name="Grupo 1225353" transform="translate(-0.575 -393.641)">
                <g id="Grupo_1208124" data-name="Grupo 1208124" transform="translate(0 -1922.377)">
                  <g id="Grupo_1202435" data-name="Grupo 1202435" transform="translate(-0.56 1255.486)">
                    <g id="Grupo_1202052" data-name="Grupo 1202052" transform="translate(1225.561 4651.514)">
                      <g id="Grupo_1172010" data-name="Grupo 1172010" transform="translate(0)">
                        <g id="Grupo_1171046" data-name="Grupo 1171046">
                          <g id="Grupo_1148525" data-name="Grupo 1148525">
                            <g transform="matrix(1, 0, 0, 1, -9, -6)" filter="url(#Trazado_982547)">
                              <g id="Trazado_982547-2" data-name="Trazado 982547" transform="translate(9 6)" fill="#d6ccfe">
                                <path d="M 47.5 93.5 C 41.28937149047852 93.5 35.26533508300781 92.28397369384766 29.59518623352051 89.88570404052734 C 24.11771965026855 87.56893157958984 19.19813346862793 84.25196075439453 14.97309303283691 80.02691650390625 C 10.74804019927979 75.80186462402344 7.431066513061523 70.88229370117188 5.114293098449707 65.40481567382812 C 2.716026782989502 59.73468017578125 1.5 53.71062850952148 1.5 47.5 C 1.5 41.28937149047852 2.716026782989502 35.26533508300781 5.114293098449707 29.59518623352051 C 7.431066513061523 24.11771965026855 10.74804019927979 19.19813346862793 14.97309303283691 14.97309303283691 C 19.19813346862793 10.74804019927979 24.11771965026855 7.431066513061523 29.59518623352051 5.114293098449707 C 35.26533508300781 2.716026782989502 41.28937149047852 1.5 47.5 1.5 C 53.71062850952148 1.5 59.73468017578125 2.716026782989502 65.40481567382812 5.114293098449707 C 70.88229370117188 7.431066513061523 75.80186462402344 10.74804019927979 80.02691650390625 14.97309303283691 C 84.25196075439453 19.19813346862793 87.56893157958984 24.11771965026855 89.88570404052734 29.59518623352051 C 92.28397369384766 35.26533508300781 93.5 41.28937149047852 93.5 47.5 C 93.5 53.71062850952148 92.28397369384766 59.73468017578125 89.88570404052734 65.40481567382812 C 87.56893157958984 70.88229370117188 84.25196075439453 75.80186462402344 80.02691650390625 80.02691650390625 C 75.80186462402344 84.25196075439453 70.88229370117188 87.56893157958984 65.40481567382812 89.88570404052734 C 59.73468017578125 92.28397369384766 53.71062850952148 93.5 47.5 93.5 Z" stroke="none"/>
                                <path d="M 47.5 3 C 41.49121475219727 3 35.66376876831055 4.176155090332031 30.17950439453125 6.495796203613281 C 24.88084411621094 8.736953735351562 20.12152099609375 11.94598388671875 16.03375244140625 16.03375244140625 C 11.94598388671875 20.12152099609375 8.736953735351562 24.88084411621094 6.495796203613281 30.17950439453125 C 4.176155090332031 35.66376876831055 3 41.49121475219727 3 47.5 C 3 53.50878524780273 4.176155090332031 59.33623123168945 6.495796203613281 64.82049560546875 C 8.736953735351562 70.11915588378906 11.94598388671875 74.87847900390625 16.03375244140625 78.96624755859375 C 20.12152099609375 83.05401611328125 24.88084411621094 86.26304626464844 30.17950439453125 88.50419616699219 C 35.66376876831055 90.82384490966797 41.49121475219727 92 47.5 92 C 53.50878524780273 92 59.33623123168945 90.82384490966797 64.82049560546875 88.50419616699219 C 70.11915588378906 86.26304626464844 74.87847900390625 83.05401611328125 78.96624755859375 78.96624755859375 C 83.05401611328125 74.87847900390625 86.26304626464844 70.11915588378906 88.50419616699219 64.82049560546875 C 90.82384490966797 59.33623123168945 92 53.50878524780273 92 47.5 C 92 41.49121475219727 90.82384490966797 35.66376876831055 88.50419616699219 30.17950439453125 C 86.26304626464844 24.88084411621094 83.05401611328125 20.12152099609375 78.96624755859375 16.03375244140625 C 74.87847900390625 11.94598388671875 70.11915588378906 8.736953735351562 64.82049560546875 6.495796203613281 C 59.33623123168945 4.176155090332031 53.50878524780273 3 47.5 3 M 47.5 0 C 73.7335205078125 0 95 21.2664794921875 95 47.5 C 95 73.7335205078125 73.7335205078125 95 47.5 95 C 21.2664794921875 95 0 73.7335205078125 0 47.5 C 0 21.2664794921875 21.2664794921875 0 47.5 0 Z" stroke="none" fill="#7958fb"/>
                              </g>
                            </g>
                          </g>
                        </g>
                      </g>
                    </g>
                  </g>
                </g>
              </g>
            </g>
          </g>
        </g>
      </g>
    </g>
    <g id="agua-potable" transform="translate(1200.657 9959.191)">
      <g id="Grupo_1236750" data-name="Grupo 1236750" transform="translate(45.166 0.961)">
        <path id="Trazado_1254691" data-name="Trazado 1254691" d="M274.93,42.432h3.844v6.407H274.93Z" transform="translate(-246.328 -37.956)" fill="#7a6d79"/>
        <path id="Trazado_1254692" data-name="Trazado 1254692" d="M152.222,90.7h1.4c3.663,0,4.531,3.663,8.829,3.663s5.236-3.663,8.829-3.663h4.913l-1.281-5.586h-3.631a5.459,5.459,0,0,1-4.924-2.686h-7.811a5.459,5.459,0,0,1-4.924,2.686h-1.4a8.528,8.528,0,0,0-8.509,7.968l5.09,1.281C149.077,92.3,150.079,90.7,152.222,90.7Z" transform="translate(-131.924 -72.831)" fill="#b5adb6"/>
        <path id="Trazado_1254693" data-name="Trazado 1254693" d="M152.083,107.7a4.226,4.226,0,0,0-3.981,2.807,1.283,1.283,0,0,1-1.208.856h-3.32c-.012.186-.02.373-.02.562v2h6.867v-2a1.662,1.662,0,0,1,1.662-1.662h1.4c3.663,0,4.531,3.663,8.829,3.663s5.236-3.663,8.829-3.663h7.475V103.4H174.77v3.023a1.281,1.281,0,0,1-1.281,1.281h-3.631c-3.593,0-4.531,3.663-8.829,3.663S155.746,107.7,152.083,107.7Z" transform="translate(-131.785 -91.11)" fill="#918291"/>
        <path id="Trazado_1254694" data-name="Trazado 1254694" d="M409.743,83.4H407.18v9.43l3.844,1.281Z" transform="translate(-361.632 -73.673)" fill="#b5adb6"/>
        <path id="Trazado_1254695" data-name="Trazado 1254695" d="M409.743,83.4v8.148a1.281,1.281,0,0,1-1.281,1.281H407.18V95.39h5.125V83.4Z" transform="translate(-361.632 -73.673)" fill="#918291"/>
        <path id="Trazado_1254696" data-name="Trazado 1254696" d="M192.4,11.66a5.832,5.832,0,0,1,3.121.828h3.844a5.832,5.832,0,0,1,3.121-.828c1.873,0,3.749.687,5.243.687A2.848,2.848,0,0,0,210.423,8.5a2.957,2.957,0,0,0-2.344-1c-1.633,0-3.719.828-5.592.828a5.832,5.832,0,0,1-3.121-.828h-3.844a5.832,5.832,0,0,1-3.121.828c-1.873,0-3.959-.828-5.592-.828a2.752,2.752,0,0,0-2.957,2.879,3.273,3.273,0,0,0,.176,1.092,3.681,3.681,0,0,0,2.611.943c2.244,0,3.889-.754,5.762-.754Z" transform="translate(-166.92 -7.5)" fill="#b5adb6"/>
        <path id="Trazado_1254697" data-name="Trazado 1254697" d="M211.619,15.335a2.578,2.578,0,0,1-2.693,2.562c-1.494,0-3.37-.687-5.243-.687a6.158,6.158,0,0,0-2.863.677,1.283,1.283,0,0,1-.6.152h-3.15a1.283,1.283,0,0,1-.6-.152,6.156,6.156,0,0,0-2.863-.677c-1.873,0-5.44,1.138-7.684,1.138a5.177,5.177,0,0,1-.689-.046,2.779,2.779,0,0,0,2.781,1.786c1.633,0,3.719-.828,5.592-.828a5.832,5.832,0,0,1,3.121.828h3.844a5.832,5.832,0,0,1,3.121-.828c1.873,0,3.959.828,5.592.828a2.752,2.752,0,0,0,2.957-2.879,2.886,2.886,0,0,0-.613-1.875Z" transform="translate(-168.116 -14.331)" fill="#918291"/>
        <path id="Trazado_1254698" data-name="Trazado 1254698" d="M52.984,215.582A1.281,1.281,0,0,0,51.71,217l1.6,15.452,1.454,6.954v7.047l.4,3.844a2.571,2.571,0,0,0,.07.376l20.079,1.281c1.1,0,3.61-4.409,3.723-5.5l.572-30.867H52.984Z" transform="translate(-51.703 -188.92)" fill="#f3f0f3"/>
        <path id="Trazado_1254699" data-name="Trazado 1254699" d="M104.885,215.582h-1.213l-3.445,33.165a2.143,2.143,0,0,1-2.132,1.922H79.3a2.561,2.561,0,0,0,2.479,1.922h18.376a2.563,2.563,0,0,0,2.549-2.3l.4-3.844v-7.175l1.454-6.826,1.6-15.452A1.281,1.281,0,0,0,104.885,215.582Z" transform="translate(-75.761 -188.92)" fill="#d9f0f3"/>
        <path id="Trazado_1254700" data-name="Trazado 1254700" d="M65.737,355.166a2.563,2.563,0,0,0,2.549,2.3H87.137l1.634-7.661v-8.072a26.462,26.462,0,0,1-10.9-.566,26.451,26.451,0,0,0-13.591,0Z" transform="translate(-62.671 -297.638)" fill="#d9f0f3"/>
        <path id="Trazado_1254701" data-name="Trazado 1254701" d="M246.974,347.21a26.187,26.187,0,0,1-2.693.566l-1.634,15.733h.324a2.563,2.563,0,0,0,2.549-2.3Z" transform="translate(-218.181 -303.683)" fill="#afe2e6"/>
        <path id="Trazado_1254702" data-name="Trazado 1254702" d="M154.854,253.31a5.559,5.559,0,0,0-.549-1.771,23.157,23.157,0,0,1-1.291-2.31.265.265,0,0,0-.479,0c-1.1,2.321-2.236,3.329-2.343,4.867a1.966,1.966,0,0,0,2.07,1.805A2.592,2.592,0,0,0,154.854,253.31Z" transform="translate(-137.572 -218.124)" fill="#d9f0f3"/>
        <path id="Trazado_1254703" data-name="Trazado 1254703" d="M154.245,268.285a3.346,3.346,0,0,1,.036.489,2.588,2.588,0,0,1-4.15,2.068c-.005.078-.009.157-.009.238a2.592,2.592,0,0,0,5.184,0A5.222,5.222,0,0,0,154.245,268.285Z" transform="translate(-137.511 -234.87)" fill="#afe2e6"/>
        <path id="Trazado_1254704" data-name="Trazado 1254704" d="M275.932,306.588a14.076,14.076,0,0,0-4.027-9.426,13.454,13.454,0,0,0-18.853,18.853,14.263,14.263,0,0,0,9.426,4.027A13.454,13.454,0,0,0,275.932,306.588Z" transform="translate(-224.859 -257.653)" fill="#fe99a0"/>
        <path id="Trazado_1254705" data-name="Trazado 1254705" d="M290.59,315.847A13.454,13.454,0,0,1,271.737,334.7a13.454,13.454,0,1,0,18.853-18.853Z" transform="translate(-243.544 -276.338)" fill="#fd8087"/>
      </g>
      <g id="Grupo_1236751" data-name="Grupo 1236751" transform="translate(44.205 0)">
        <path id="Trazado_1254706" data-name="Trazado 1254706" d="M84.066,218.2a14.34,14.34,0,0,0-8.64,2.884l1.093-10.523a2.242,2.242,0,0,0-2.23-2.474H46.447a2.242,2.242,0,0,0-2.23,2.474l1.937,18.649a.961.961,0,0,0,.955.862.983.983,0,0,0,.1-.005.961.961,0,0,0,.857-1.055l-.246-2.367a25.443,25.443,0,0,1,12.3.2,27.31,27.31,0,0,0,7.041.92q.359,0,.719-.009a.961.961,0,0,0-.05-1.921,25.444,25.444,0,0,1-7.214-.847,27.369,27.369,0,0,0-13-.264l-1.491-14.358a.32.32,0,0,1,.319-.354H74.289a.32.32,0,0,1,.319.354L73.289,223.05a14.388,14.388,0,0,0-1.736,16.711l-.005.049v0a1.6,1.6,0,0,1-1.593,1.436H50.781a1.6,1.6,0,0,1-1.593-1.436v0l-.759-7.311a.961.961,0,1,0-1.912.2l1.159,11.156a3.515,3.515,0,0,0,3.5,3.159H69.556a3.515,3.515,0,0,0,3.5-3.16l.18-1.736A14.412,14.412,0,1,0,84.066,218.2Zm-14.511,26.9H51.18a1.6,1.6,0,0,1-1.593-1.436l-.075-.72a3.531,3.531,0,0,0,1.269.234H69.955a3.531,3.531,0,0,0,1.269-.234l-.075.72A1.6,1.6,0,0,1,69.556,245.091Zm14.511.012a12.493,12.493,0,1,1,12.493-12.493A12.507,12.507,0,0,1,84.066,245.1Z" transform="translate(-44.205 -181.421)"/>
        <path id="Trazado_1254707" data-name="Trazado 1254707" d="M319.36,351.837a.961.961,0,0,0-1.359,0l-4.5,4.5-4.5-4.5a.961.961,0,1,0-1.359,1.359l4.5,4.5-4.5,4.5a.961.961,0,0,0,1.359,1.359l4.5-4.5,4.5,4.5a.961.961,0,1,0,1.359-1.359l-4.5-4.5,4.5-4.5A.961.961,0,0,0,319.36,351.837Z" transform="translate(-273.635 -306.511)"/>
        <path id="Trazado_1254708" data-name="Trazado 1254708" d="M146.174,241.577a1.216,1.216,0,0,0-1.108.7,21.335,21.335,0,0,1-1.172,2.1,6.3,6.3,0,0,0-1.272,3.412,3.553,3.553,0,1,0,7.106,0,6.3,6.3,0,0,0-1.272-3.412,21.294,21.294,0,0,1-1.172-2.1A1.216,1.216,0,0,0,146.174,241.577Zm0,7.849a1.633,1.633,0,0,1-1.631-1.631,4.7,4.7,0,0,1,.989-2.407c.2-.33.418-.683.642-1.078.224.4.44.748.642,1.078a4.706,4.706,0,0,1,.989,2.407A1.633,1.633,0,0,1,146.174,249.426Z" transform="translate(-130.011 -210.624)"/>
        <path id="Trazado_1254709" data-name="Trazado 1254709" d="M137.013,24.74h6.867a.961.961,0,0,0,.961-.961v-2a.7.7,0,0,1,.7-.7h1.4a5.414,5.414,0,0,1,3.451,1.527,8.232,8.232,0,0,0,5.378,2.136,8.346,8.346,0,0,0,5.42-2.148,5.416,5.416,0,0,1,3.409-1.516h5.233v1.6a.961.961,0,0,0,.961.961h5.125a.961.961,0,0,0,.961-.961V10.686a.961.961,0,0,0-.961-.961h-5.125a.961.961,0,0,0-.961.961v1.6H164.6a4.5,4.5,0,0,1-4.062-2.152.961.961,0,0,0-.861-.535h-1.022V7.291a5.339,5.339,0,0,1,2.16-.441,13.9,13.9,0,0,1,2.781.414,13.684,13.684,0,0,0,2.811.415,3.712,3.712,0,0,0,3.918-3.84A3.712,3.712,0,0,0,166.4,0a13.687,13.687,0,0,0-2.811.415,13.891,13.891,0,0,1-2.781.414A5,5,0,0,1,158.24.172.961.961,0,0,0,157.691,0h-3.844a.961.961,0,0,0-.549.172,4.938,4.938,0,0,1-2.572.656,13.9,13.9,0,0,1-2.782-.414A13.677,13.677,0,0,0,145.133,0a3.712,3.712,0,0,0-3.918,3.84,3.712,3.712,0,0,0,3.918,3.84,13.686,13.686,0,0,0,2.811-.415,13.894,13.894,0,0,1,2.782-.414,5.364,5.364,0,0,1,2.16.443V9.6h-1.022a.949.949,0,0,0-.858.528,4.5,4.5,0,0,1-4.066,2.159h-1.4a.961.961,0,1,0,0,1.922h1.4a6.488,6.488,0,0,0,5.454-2.687h6.751A6.488,6.488,0,0,0,164.6,14.21h5.233v4.945H164.6a7.268,7.268,0,0,0-4.565,1.9,6.574,6.574,0,0,1-4.265,1.761,6.46,6.46,0,0,1-4.217-1.746,7.272,7.272,0,0,0-4.612-1.917h-1.4a2.626,2.626,0,0,0-2.623,2.623v1.04h-4.945v-1.04a7.527,7.527,0,0,1,4.229-6.794.961.961,0,1,0-.849-1.724,9.436,9.436,0,0,0-5.3,8.518v2a.961.961,0,0,0,.961.961ZM147.538,5.386a12.422,12.422,0,0,1-2.4.371,1.828,1.828,0,0,1-2-1.918,1.827,1.827,0,0,1,2-1.917,12.423,12.423,0,0,1,2.4.371,15.273,15.273,0,0,0,3.188.457,7.123,7.123,0,0,0,3.385-.828h3.317a7.123,7.123,0,0,0,3.385.828A15.272,15.272,0,0,0,164,2.293a12.422,12.422,0,0,1,2.4-.371,1.828,1.828,0,0,1,2,1.918,1.828,1.828,0,0,1-2,1.918,12.423,12.423,0,0,1-2.4-.371,15.272,15.272,0,0,0-3.187-.457,7.123,7.123,0,0,0-3.385.828H154.11a7.123,7.123,0,0,0-3.385-.828A15.264,15.264,0,0,0,147.538,5.386Zm7.269,2.293h1.922V9.6h-1.922Zm16.945,3.968h3.2v10.07h-3.2Z" transform="translate(-124.284 0)"/>
      </g>
    </g>
  </g>
</svg>
