<svg xmlns="http://www.w3.org/2000/svg" xmlns:xlink="http://www.w3.org/1999/xlink" width="400" height="231" viewBox="0 0 400 231">
  <defs>
    <clipPath id="clip-path">
      <rect id="Rectángulo_424088" data-name="Rectángulo 424088" width="400" height="231" transform="translate(180 10506)" fill="#fff" stroke="#707070" stroke-width="1"/>
    </clipPath>
    <clipPath id="clip-path-2">
      <path id="Trazado_1254768" data-name="Trazado 1254768" d="M204.432,53.319c-26.726-2.072-52.972-9.928-79.724-8.014C58.19,50.062,17.82,117.978,54.91,176.48c85.832,135.38,335.356,42.335,288.273-119.647-9.056-31.155-40.581-25.69-65.845-16.29C253.616,49.369,227.988,55.146,204.432,53.319Z" transform="translate(-40.786 -33.198)"/>
    </clipPath>
  </defs>
  <g id="Enmascarar_grupo_1098666" data-name="Enmascarar grupo 1098666" transform="translate(-180 -10506)" clip-path="url(#clip-path)">
    <g id="OBJECTS" transform="translate(185.086 10494.231)">
      <g id="Grupo_1236801" data-name="Grupo 1236801" transform="translate(40.786 26.129)">
        <path id="Trazado_1254713" data-name="Trazado 1254713" d="M204.432,53.319c-26.726-2.072-52.972-9.928-79.724-8.014C58.19,50.062,17.82,117.978,54.91,176.48c85.832,135.38,335.356,42.335,288.273-119.647-9.056-31.155-40.581-25.69-65.845-16.29C253.616,49.369,227.988,55.146,204.432,53.319Z" transform="translate(-40.786 -33.198)" fill="#cde9f4"/>
        <g id="Grupo_1236760" data-name="Grupo 1236760" transform="translate(209.006 13.359)">
          <g id="Grupo_1236756" data-name="Grupo 1236756" transform="translate(20.704 22.31)">
            <path id="Trazado_1254714" data-name="Trazado 1254714" d="M554.745,162.067c-3.5,1.9-7.169,3.846-11.149,3.945s-8.327-2.3-9.03-6.215c-.435-2.431.575-4.881,1.771-7.041a38.207,38.207,0,0,1,67.014.319,55.631,55.631,0,0,1,4.689,12.571,13.269,13.269,0,0,1,.6,4.654,4.915,4.915,0,0,1-2.328,3.889c-2.1,1.116-4.652,0-6.671-1.251a50.211,50.211,0,0,1-11.2-9.5,51.9,51.9,0,0,1,6.8,28.8,12.284,12.284,0,0,1-.953,4.613,4.943,4.943,0,0,1-3.525,2.884c-1.729.256-3.4-.713-4.775-1.787a18.042,18.042,0,0,1-6.583-9.67,76.38,76.38,0,0,1-6.129,25.439c-1.835,4.233-4.564,8.711-9.05,9.787-5.089,1.22-10.3-2.827-12.027-7.768s-.768-10.4.69-15.429,3.417-9.993,3.737-15.53c-2.378,1.325-4.266,3.355-6.252,5.218s-4.206,3.639-6.859,4.249-5.822-.268-7.12-2.662c-1.382-2.551-.254-5.693,1.013-8.3C541.358,175.138,546.582,167.62,554.745,162.067Z" transform="translate(-534.463 -122.266)" fill="#95d9f4"/>
            <g id="Grupo_1236755" data-name="Grupo 1236755" transform="translate(10.471)">
              <path id="Trazado_1254715" data-name="Trazado 1254715" d="M592.527,199.067a251.415,251.415,0,0,0,11.721-89.211" transform="translate(-575.981 -109.856)" fill="none" stroke="#cde9f4" stroke-linecap="round" stroke-linejoin="round" stroke-miterlimit="10" stroke-width="2"/>
              <path id="Trazado_1254716" data-name="Trazado 1254716" d="M630.85,218.236a65.037,65.037,0,0,0-16.111-19.348" transform="translate(-587.857 -157.461)" fill="none" stroke="#cde9f4" stroke-linecap="round" stroke-linejoin="round" stroke-miterlimit="10" stroke-width="2"/>
              <path id="Trazado_1254717" data-name="Trazado 1254717" d="M587.714,214.864a77.59,77.59,0,0,0-21.706,11.9" transform="translate(-561.802 -166.003)" fill="none" stroke="#cde9f4" stroke-linecap="round" stroke-linejoin="round" stroke-miterlimit="10" stroke-width="2"/>
              <path id="Trazado_1254718" data-name="Trazado 1254718" d="M644.474,170.774A71.324,71.324,0,0,0,618.067,154.8" transform="translate(-589.637 -133.888)" fill="none" stroke="#cde9f4" stroke-linecap="round" stroke-linejoin="round" stroke-miterlimit="10" stroke-width="2"/>
              <path id="Trazado_1254719" data-name="Trazado 1254719" d="M585.214,163.839a84.43,84.43,0,0,0-28.247,7.435" transform="translate(-556.967 -138.72)" fill="none" stroke="#cde9f4" stroke-linecap="round" stroke-linejoin="round" stroke-miterlimit="10" stroke-width="2"/>
            </g>
          </g>
          <g id="Grupo_1236757" data-name="Grupo 1236757" transform="translate(16.338)">
            <path id="Trazado_1254720" data-name="Trazado 1254720" d="M565.289,115.465a61.307,61.307,0,0,0-21.1-25.955c-5.353-3.742-11.4-6.7-15.683-11.636-2.418-2.785-4.233-6.612-3.066-10.111a8.831,8.831,0,0,1,6.035-5.324,18.654,18.654,0,0,1,8.3-.128c10.447,1.762,19.988,7.376,27.674,14.668S581.1,93.2,586.265,102.445Z" transform="translate(-525.08 -61.908)" fill="#95d9f4"/>
            <path id="Trazado_1254721" data-name="Trazado 1254721" d="M556.629,84.789A86.381,86.381,0,0,1,593.7,124.228" transform="translate(-541.949 -74.142)" fill="none" stroke="#cde9f4" stroke-linecap="round" stroke-linejoin="round" stroke-miterlimit="10" stroke-width="2"/>
          </g>
          <g id="Grupo_1236758" data-name="Grupo 1236758" transform="translate(0 19.494)">
            <path id="Trazado_1254722" data-name="Trazado 1254722" d="M532.221,138.935c-10.185-9.612-26.183-10.3-37.236-18.9-3.015-2.347-5.8-5.974-4.819-9.669.746-2.817,3.486-4.67,6.255-5.581,6.11-2.012,12.808-.637,18.91,1.4,8.351,2.789,16.641,7.1,21.582,14.384Z" transform="translate(-489.967 -103.802)" fill="#95d9f4"/>
            <path id="Trazado_1254723" data-name="Trazado 1254723" d="M545.1,139.758a94.058,94.058,0,0,0-34.675-16.193" transform="translate(-500.905 -114.369)" fill="none" stroke="#cde9f4" stroke-linecap="round" stroke-linejoin="round" stroke-miterlimit="10" stroke-width="2"/>
          </g>
          <g id="Grupo_1236759" data-name="Grupo 1236759" transform="translate(52.617 3.377)">
            <path id="Trazado_1254724" data-name="Trazado 1254724" d="M632.6,111.371c-.455-5.49,1.8-10.8,3.961-15.866s4.315-10.446,3.646-15.914-5.244-10.867-10.734-10.395c-4.4.379-7.662,4.158-10.173,7.8a106.787,106.787,0,0,0-16.25,37.073Z" transform="translate(-603.048 -69.166)" fill="#95d9f4"/>
            <path id="Trazado_1254725" data-name="Trazado 1254725" d="M646.453,102.426a68.633,68.633,0,0,0-7.859,29.126" transform="translate(-622.054 -86.95)" fill="none" stroke="#cde9f4" stroke-linecap="round" stroke-linejoin="round" stroke-miterlimit="10" stroke-width="2"/>
          </g>
        </g>
        <g id="Grupo_1236769" data-name="Grupo 1236769" transform="translate(22.685 44.69)">
          <g id="Grupo_1236762" data-name="Grupo 1236762" transform="translate(26.017)">
            <path id="Trazado_1254726" data-name="Trazado 1254726" d="M199.977,189.014c3.153-2.43,6.468-4.934,10.383-5.663s8.586.947,9.9,4.7c.815,2.332.206,4.91-.633,7.233A38.207,38.207,0,0,1,153.412,205.6a55.619,55.619,0,0,1-6.623-11.668,13.267,13.267,0,0,1-1.328-4.5,4.915,4.915,0,0,1,1.682-4.208c1.891-1.434,4.594-.735,6.785.177a50.214,50.214,0,0,1,12.567,7.606,51.9,51.9,0,0,1-11.28-27.359,12.275,12.275,0,0,1,.209-4.706,4.943,4.943,0,0,1,3.023-3.407c1.667-.527,3.466.166,5,1.007a18.046,18.046,0,0,1,8.033,8.5,76.387,76.387,0,0,1,2.018-26.089c1.14-4.47,3.125-9.325,7.384-11.1,4.831-2.012,10.62,1.158,13.106,5.762s2.408,10.15,1.764,15.343-1.79,10.408-1.227,15.927c2.138-1.686,3.68-3.989,5.345-6.143s3.576-4.259,6.1-5.283,5.791-.658,7.451,1.5c1.769,2.3,1.154,5.58.316,8.358C211.122,173.985,207.155,182.237,199.977,189.014Z" transform="translate(-145.451 -129.243)" fill="#95d9f4"/>
            <g id="Grupo_1236761" data-name="Grupo 1236761" transform="translate(10.531 12.054)">
              <path id="Trazado_1254727" data-name="Trazado 1254727" d="M228.2,155.148a251.413,251.413,0,0,0,2.574,89.941" transform="translate(-198.693 -155.148)" fill="none" stroke="#cde9f4" stroke-linecap="round" stroke-linejoin="round" stroke-miterlimit="10" stroke-width="2"/>
              <path id="Trazado_1254728" data-name="Trazado 1254728" d="M185.075,224.5a65.03,65.03,0,0,0,18.976,16.548" transform="translate(-177.169 -192.231)" fill="none" stroke="#cde9f4" stroke-linecap="round" stroke-linejoin="round" stroke-miterlimit="10" stroke-width="2"/>
              <path id="Trazado_1254729" data-name="Trazado 1254729" d="M225.378,226.506a77.6,77.6,0,0,0,19.544-15.189" transform="translate(-198.719 -185.181)" fill="none" stroke="#cde9f4" stroke-linecap="round" stroke-linejoin="round" stroke-miterlimit="10" stroke-width="2"/>
              <path id="Trazado_1254730" data-name="Trazado 1254730" d="M168.084,279.228a71.328,71.328,0,0,0,28.606,11.583" transform="translate(-168.084 -221.493)" fill="none" stroke="#cde9f4" stroke-linecap="round" stroke-linejoin="round" stroke-miterlimit="10" stroke-width="2"/>
              <path id="Trazado_1254731" data-name="Trazado 1254731" d="M228.516,281.552a84.44,84.44,0,0,0,26.711-11.82" transform="translate(-200.397 -216.415)" fill="none" stroke="#cde9f4" stroke-linecap="round" stroke-linejoin="round" stroke-miterlimit="10" stroke-width="2"/>
            </g>
          </g>
          <g id="Grupo_1236763" data-name="Grupo 1236763" transform="translate(0 60.591)">
            <path id="Trazado_1254732" data-name="Trazado 1254732" d="M129.986,322.052c-9.462-5.451-18.461-11.9-25.713-20.063s-12.705-18.143-14.386-28.932A17.545,17.545,0,0,1,90.1,265.1a7.89,7.89,0,0,1,5.373-5.478c3.8-.877,7.376,1.958,10.146,4.7,5.953,5.9,11.386,12.318,17.583,17.96s13.308,10.558,21.4,12.718Z" transform="translate(-89.538 -259.46)" fill="#95d9f4"/>
            <path id="Trazado_1254733" data-name="Trazado 1254733" d="M117.307,303.787a111.979,111.979,0,0,0,38.657,30.551" transform="translate(-104.386 -283.161)" fill="none" stroke="#cde9f4" stroke-linecap="round" stroke-linejoin="round" stroke-miterlimit="10" stroke-width="2"/>
          </g>
          <g id="Grupo_1236764" data-name="Grupo 1236764" transform="translate(93.668 26.359)">
            <path id="Trazado_1254734" data-name="Trazado 1254734" d="M315.34,248.3a61.3,61.3,0,0,1,8.329-32.395c3.3-5.636,7.559-10.852,9.389-17.122,1.033-3.54,1.085-7.776-1.437-10.467A8.831,8.831,0,0,0,323.913,186a18.641,18.641,0,0,0-7.592,3.349c-8.757,5.965-15.081,15.05-19.018,24.886s-5.628,20.434-6.459,31Z" transform="translate(-290.843 -185.891)" fill="#95d9f4"/>
            <path id="Trazado_1254735" data-name="Trazado 1254735" d="M335.049,213.318a86.385,86.385,0,0,0-17.209,51.317" transform="translate(-305.278 -200.556)" fill="none" stroke="#cde9f4" stroke-linecap="round" stroke-linejoin="round" stroke-miterlimit="10" stroke-width="2"/>
          </g>
          <g id="Grupo_1236765" data-name="Grupo 1236765" transform="translate(111.129 57.411)">
            <path id="Trazado_1254736" data-name="Trazado 1254736" d="M328.369,279.74c13.066-5.039,20.592-19.173,33.119-25.432,3.418-1.707,7.891-2.65,10.8-.174,2.219,1.889,2.708,5.16,2.335,8.051-.823,6.38-4.954,11.828-9.427,16.453-6.121,6.329-13.584,11.948-22.29,13.26Z" transform="translate(-328.369 -252.625)" fill="#95d9f4"/>
            <path id="Trazado_1254737" data-name="Trazado 1254737" d="M345.46,295.785a94.06,94.06,0,0,0,29.574-24.29" transform="translate(-337.507 -262.715)" fill="none" stroke="#cde9f4" stroke-linecap="round" stroke-linejoin="round" stroke-miterlimit="10" stroke-width="2"/>
          </g>
          <g id="Grupo_1236766" data-name="Grupo 1236766" transform="translate(53.73 113.237)">
            <path id="Trazado_1254738" data-name="Trazado 1254738" d="M234.637,374.87c-.264,5.5,2.174,10.73,4.509,15.719s4.675,10.29,4.2,15.779-4.864,11.042-10.366,10.761c-4.414-.226-7.8-3.889-10.438-7.438a106.785,106.785,0,0,1-17.527-36.486Z" transform="translate(-205.011 -372.925)" fill="#95d9f4"/>
            <path id="Trazado_1254739" data-name="Trazado 1254739" d="M249.423,401.44a68.629,68.629,0,0,1-8.865-28.836" transform="translate(-224.018 -372.604)" fill="none" stroke="#cde9f4" stroke-linecap="round" stroke-linejoin="round" stroke-miterlimit="10" stroke-width="2"/>
          </g>
          <g id="Grupo_1236768" data-name="Grupo 1236768" transform="translate(77.25 77.012)">
            <path id="Trazado_1254740" data-name="Trazado 1254740" d="M287.7,345.111a28.556,28.556,0,0,1,2.432,16.627c-.425,2.7-1.575,5.711-4.165,6.6-2.357.806-4.91-.51-6.828-2.1-6.64-5.506-9.586-14.394-10.293-22.991a50.625,50.625,0,0,1,6.083-29.206c5.022-8.759,13.28-15.771,22.979-18.577,2.63-.761,5.6-1.179,7.988.165,3.28,1.849,4.1,6.449,2.833,9.993s-4.091,6.273-6.61,9.991a87.643,87.643,0,0,1,33.015.738c2.481.535,5.133,1.3,6.665,3.326a7.043,7.043,0,0,1-.112,7.96,11.553,11.553,0,0,1-7.007,4.449c-2.754.661-5.619.63-9.485,1.614,3.42,1.891,7.3,2.726,11.035,3.883s7.51,2.761,10.032,5.746,3.389,7.673,1.055,10.808c-2.161,2.9-6.19,3.606-9.809,3.645a56.555,56.555,0,0,1-19.838-3.742c1.748,2.557,3.544,5.233,3.985,8.3s-.917,6.629-3.833,7.673c-2.775.994-5.783-.543-8.2-2.237C301.181,361.845,294.759,353.514,287.7,345.111Z" transform="translate(-262.563 -294.751)" fill="#95d9f4"/>
            <g id="Grupo_1236767" data-name="Grupo 1236767" transform="translate(0 12.659)">
              <path id="Trazado_1254741" data-name="Trazado 1254741" d="M327.791,373.2a340.98,340.98,0,0,1-72.232-31.077" transform="translate(-255.559 -332.741)" fill="none" stroke="#cde9f4" stroke-linecap="round" stroke-linejoin="round" stroke-miterlimit="10" stroke-width="2"/>
              <path id="Trazado_1254742" data-name="Trazado 1254742" d="M330.175,369.844a81.4,81.4,0,0,1,31.653-8.449" transform="translate(-295.456 -343.044)" fill="none" stroke="#cde9f4" stroke-linecap="round" stroke-linejoin="round" stroke-miterlimit="10" stroke-width="2"/>
              <path id="Trazado_1254743" data-name="Trazado 1254743" d="M343.736,385.252a49.98,49.98,0,0,0,6.435,21.695" transform="translate(-302.707 -355.8)" fill="none" stroke="#cde9f4" stroke-linecap="round" stroke-linejoin="round" stroke-miterlimit="10" stroke-width="2"/>
              <path id="Trazado_1254744" data-name="Trazado 1254744" d="M292.672,391.123a64.737,64.737,0,0,1-1.912-29.5" transform="translate(-273.907 -343.168)" fill="none" stroke="#cde9f4" stroke-linecap="round" stroke-linejoin="round" stroke-miterlimit="10" stroke-width="2"/>
              <path id="Trazado_1254745" data-name="Trazado 1254745" d="M298.09,341.871a44.824,44.824,0,0,1,18.551-19.915" transform="translate(-278.3 -321.956)" fill="none" stroke="#cde9f4" stroke-linecap="round" stroke-linejoin="round" stroke-miterlimit="10" stroke-width="2"/>
            </g>
          </g>
        </g>
        <g id="Grupo_1236770" data-name="Grupo 1236770" transform="translate(17.529 14.101)">
          <path id="Trazado_1254746" data-name="Trazado 1254746" d="M186.282,102.769c4.638-.022,5.08,7.35-.089,6.782C180.982,108.978,182.129,102.789,186.282,102.769Z" transform="translate(-134.202 -84.499)" fill="#95d9f4"/>
          <path id="Trazado_1254747" data-name="Trazado 1254747" d="M543.371,371.834c4.638-.022,5.08,7.35-.089,6.782C538.071,378.043,539.218,371.854,543.371,371.834Z" transform="translate(-325.135 -228.366)" fill="#95d9f4"/>
          <path id="Trazado_1254748" data-name="Trazado 1254748" d="M283.872,153c2.319-.011,2.54,3.675-.045,3.391A1.7,1.7,0,1,1,283.872,153Z" transform="translate(-187.338 -111.355)" fill="#95d9f4"/>
          <path id="Trazado_1254749" data-name="Trazado 1254749" d="M80.244,227.291c2.319-.011,2.54,3.675-.045,3.391A1.7,1.7,0,1,1,80.244,227.291Z" transform="translate(-78.458 -151.08)" fill="#95d9f4"/>
          <path id="Trazado_1254750" data-name="Trazado 1254750" d="M630.943,316.9c2.319-.011,2.54,3.675-.045,3.391A1.7,1.7,0,1,1,630.943,316.9Z" transform="translate(-372.914 -198.996)" fill="#95d9f4"/>
          <path id="Trazado_1254751" data-name="Trazado 1254751" d="M118.051,239.934c2.319-.011,2.54,3.675-.045,3.391A1.7,1.7,0,1,1,118.051,239.934Z" transform="translate(-98.674 -157.84)" fill="#95d9f4"/>
          <path id="Trazado_1254752" data-name="Trazado 1254752" d="M406.51,451.636c2.319-.011,2.54,3.675-.045,3.391A1.7,1.7,0,1,1,406.51,451.636Z" transform="translate(-252.911 -271.036)" fill="#95d9f4"/>
          <path id="Trazado_1254753" data-name="Trazado 1254753" d="M555.936,340.4c2.319-.011,2.54,3.675-.045,3.391A1.7,1.7,0,1,1,555.936,340.4Z" transform="translate(-332.809 -211.56)" fill="#95d9f4"/>
          <path id="Trazado_1254754" data-name="Trazado 1254754" d="M318.361,456.337c2.319-.011,2.54,3.675-.045,3.391A1.7,1.7,0,1,1,318.361,456.337Z" transform="translate(-205.779 -273.55)" fill="#95d9f4"/>
          <path id="Trazado_1254755" data-name="Trazado 1254755" d="M637.151,63.5c2.319-.011,2.54,3.675-.045,3.391A1.7,1.7,0,1,1,637.151,63.5Z" transform="translate(-376.234 -63.504)" fill="#95d9f4"/>
        </g>
        <g id="Grupo_1236786" data-name="Grupo 1236786">
          <g id="Grupo_1236776" data-name="Grupo 1236776" clip-path="url(#clip-path-2)">
            <path id="Trazado_1254756" data-name="Trazado 1254756" d="M261.785,292.2c-6.5-2.265-13.474-.407-20.37.738a101.3,101.3,0,0,0,12.4-7.712,3.044,3.044,0,0,0,1.533-2.046c.063-1.18-1.194-1.98-2.335-2.284a12.637,12.637,0,0,0-6.732.3,47.179,47.179,0,0,0-6.31,2.581c-.68.31-1.367.606-2.052.9a59.762,59.762,0,0,0,6.768-7.035c.574-.7,1.162-1.635.777-2.46a2.263,2.263,0,0,0-1.875-1.016,13.975,13.975,0,0,0-7.878,1.638,55.593,55.593,0,0,0-6.857,4.418,110.444,110.444,0,0,1-9.992,6.2,66.177,66.177,0,0,0,5.4-6.723,5.517,5.517,0,0,0,1.061-2.146,1.989,1.989,0,0,0-.844-2.1,2.7,2.7,0,0,0-2-.007,22.6,22.6,0,0,0-8.507,5.036c-1.75,1.531-3.385,3.2-5.073,4.889a6.426,6.426,0,0,1-.925-3.826c.317-3.836,3.946-6.516,7.5-8.006s7.5-2.424,10.263-5.106c1.842-1.789,2.8-5.175.758-6.729a5.652,5.652,0,0,0-3.933-.657c-23.949,1.993-47.028,10.835-67.443,23.515s-38.289,29.118-54.5,48.1a172.88,172.88,0,0,0,50.8,28.9c13.52-26.316,38.69-48.922,68.066-52.444,16.461-1.973,31.057-4.537,43.353-12.243a3.172,3.172,0,0,0,1.511-1.556C264.8,293.9,263.2,292.693,261.785,292.2Z" transform="translate(-72.778 -154.998)" fill="#424f96" opacity="0.12"/>
            <g id="Grupo_1236775" data-name="Grupo 1236775" transform="translate(23.118 101.691)">
              <g id="Grupo_1236771" data-name="Grupo 1236771" transform="translate(107.948 14.256)">
                <path id="Trazado_1254757" data-name="Trazado 1254757" d="M328.156,298.968l1.353-.976a66.552,66.552,0,0,0,10.86-11.144,5.521,5.521,0,0,0,1.154-2.1,1.989,1.989,0,0,0-.751-2.131,2.7,2.7,0,0,0-2-.094,22.59,22.59,0,0,0-8.72,4.658c-2.595,2.076-4.959,4.43-7.591,6.748A28.141,28.141,0,0,0,328.156,298.968Z" transform="translate(-322.466 -282.383)" fill="#915741"/>
                <path id="Trazado_1254758" data-name="Trazado 1254758" d="M329.508,307.2a66.971,66.971,0,0,0,7.926-7.6c-3.316,1.793-6.716,3.364-6.716,3.364a44.057,44.057,0,0,1-4.61-3.138c-1.19,1.09-2.385,2.2-3.643,3.312a28.144,28.144,0,0,0,5.69,5.037Z" transform="translate(-322.465 -291.589)" fill="#4f2718" opacity="0.18"/>
              </g>
              <g id="Grupo_1236772" data-name="Grupo 1236772" transform="translate(113.343 13.892)">
                <path id="Trazado_1254759" data-name="Trazado 1254759" d="M334.059,295.991a110.363,110.363,0,0,0,17.069-8.838,55.574,55.574,0,0,1,7.044-4.112,13.977,13.977,0,0,1,7.942-1.29,2.263,2.263,0,0,1,1.829,1.1c.349.84-.28,1.744-.885,2.423a60.159,60.159,0,0,1-21.974,15.579,20.931,20.931,0,0,1-5.507,1.6Z" transform="translate(-334.059 -281.601)" fill="#915741"/>
                <path id="Trazado_1254760" data-name="Trazado 1254760" d="M362.372,299.6c-8.353,3.237-19.822,6.478-19.822,6.478-1.251-.749-2.856-1.864-3.791-2.528q-2.326,1.087-4.7,2.068l5.518,6.455a20.909,20.909,0,0,0,5.507-1.6A60.183,60.183,0,0,0,362.372,299.6Z" transform="translate(-334.059 -291.223)" fill="#4f2718" opacity="0.18"/>
              </g>
              <g id="Grupo_1236773" data-name="Grupo 1236773" transform="translate(116.985 20.72)">
                <path id="Trazado_1254761" data-name="Trazado 1254761" d="M357.859,312.154a101.266,101.266,0,0,0,22.172-11.061c.735-.488,1.535-1.1,1.621-1.977.115-1.176-1.106-2.03-2.233-2.385a12.64,12.64,0,0,0-6.739,0,47.106,47.106,0,0,0-6.417,2.3,241.973,241.973,0,0,1-24.377,7.912C346.544,309.909,352.206,314.154,357.859,312.154Z" transform="translate(-341.886 -296.274)" fill="#915741"/>
                <path id="Trazado_1254762" data-name="Trazado 1254762" d="M416.87,302.186q-1.707,1.148-3.416,2.294a3.709,3.709,0,0,1-.9.491,1.115,1.115,0,0,1-1.4-1.6,3.04,3.04,0,0,1,1.181-1.249,4.8,4.8,0,0,1,2.227-.921A2.728,2.728,0,0,1,416.87,302.186Z" transform="translate(-378.866 -298.904)" fill="none" stroke="#a86d56" stroke-linecap="round" stroke-linejoin="round" stroke-miterlimit="10" stroke-width="2"/>
                <path id="Trazado_1254763" data-name="Trazado 1254763" d="M349.7,314.345q-3.918,1.167-7.814,2.265c4.657,2.962,10.32,7.206,15.973,5.207a101.19,101.19,0,0,0,12.351-5.33C362.818,316.861,353.629,315.167,349.7,314.345Z" transform="translate(-341.887 -305.936)" fill="#4f2718" opacity="0.18"/>
              </g>
              <g id="Grupo_1236774" data-name="Grupo 1236774">
                <path id="Trazado_1254764" data-name="Trazado 1254764" d="M139.957,349.06c14.662-25.7,40.8-47.177,70.3-49.406,16.532-1.249,31.226-3.17,43.848-10.329a3.172,3.172,0,0,0,1.578-1.488c.509-1.408-1.037-2.682-2.429-3.236-7.588-3.022-16.085-.279-24.238.207a43.517,43.517,0,0,1-25.928-6.789,6.76,6.76,0,0,1-3.121-6.42c.485-3.818,4.228-6.336,7.839-7.669s7.6-2.092,10.477-4.651c1.919-1.707,3.027-5.047,1.052-6.689a5.65,5.65,0,0,0-3.9-.829c-24.013.94-47.458,8.761-68.41,20.533S107.5,299.7,90.47,317.957A172.862,172.862,0,0,0,139.957,349.06Z" transform="translate(-90.47 -251.744)" fill="#915741"/>
                <path id="Trazado_1254765" data-name="Trazado 1254765" d="M356.405,255.251a22.326,22.326,0,0,0-4.4.083,3.3,3.3,0,0,0-1.312.359,2.082,2.082,0,0,0-.953,1.6,2.474,2.474,0,0,0,.639,1.88,2.849,2.849,0,0,0,2.644.768,3.964,3.964,0,0,0,2.324-1.589A6.207,6.207,0,0,0,356.405,255.251Z" transform="translate(-229.097 -253.582)" fill="none" stroke="#a86d56" stroke-linecap="round" stroke-linejoin="round" stroke-miterlimit="10" stroke-width="2"/>
                <path id="Trazado_1254766" data-name="Trazado 1254766" d="M432.455,327.592a29.627,29.627,0,0,1-4.931,2.428c-.628.24-1.42.429-1.9-.037a1.245,1.245,0,0,1-.174-1.386,3.326,3.326,0,0,1,.967-1.115,6.3,6.3,0,0,1,2.8-1.53A3.164,3.164,0,0,1,432.455,327.592Z" transform="translate(-269.51 -291.398)" fill="none" stroke="#a86d56" stroke-linecap="round" stroke-linejoin="round" stroke-miterlimit="10" stroke-width="2"/>
                <path id="Trazado_1254767" data-name="Trazado 1254767" d="M271.375,346.475c-67.311-10.615-101.219,31.261-110.081,44.442a178.66,178.66,0,0,0,16.532,7.883c14.662-25.7,40.8-47.177,70.3-49.406A182.735,182.735,0,0,0,271.375,346.475Z" transform="translate(-128.339 -301.484)" fill="#4f2718" opacity="0.18"/>
              </g>
            </g>
          </g>
          <g id="Grupo_1236785" data-name="Grupo 1236785" clip-path="url(#clip-path-2)">
            <path id="Trazado_1254769" data-name="Trazado 1254769" d="M608.371,129.54c-21.512-2.937-57.881,3.042-76.821,8.546-16.463,4.785-32.91,9.731-50.4,10.4-10.178.387-20.355,1.534-30.467.325a14.575,14.575,0,0,1-6.516-1.918c-1.9-1.276-3.2-3.715-2.474-5.881a5.571,5.571,0,0,1,3.693-3.25,21.528,21.528,0,0,1,5.041-.7c8.536-.662,22.43-5.006,23.822-8.52.847-2.139-3.9-4.018-6.415-5.254-12.224-6-26.434-5.8-39.8-8.405-3.792-.739-7.658-1.768-10.706-4.143a7.665,7.665,0,0,1-2.528-3.1,4.033,4.033,0,0,1,.356-3.856c1.4-1.858,4.2-1.655,6.5-1.308,23.844,3.588,48.714,3.512,72.14-3.2,35.589-10.2,68.907-27.33,101-45.786,0,0,.176.848.088.651C607.638,76.472,612.256,103.345,608.371,129.54Z" transform="translate(-240.595 -44.046)" fill="#424f96" opacity="0.12"/>
            <g id="Grupo_1236777" data-name="Grupo 1236777" transform="translate(216.409 75.091)">
              <path id="Trazado_1254770" data-name="Trazado 1254770" d="M519.031,194.579a55.892,55.892,0,0,0-8.136,7.014,18.736,18.736,0,0,0-4.843,9.44c-.655,4.254.675,8.536,1.988,12.635.527,1.644,1.281,3.519,2.94,4a3.616,3.616,0,0,0,3.333-1.009c1.616-1.5,2.161-3.837,2.241-6.04s-.22-4.423.07-6.609a16.584,16.584,0,0,1,4.7-9.006,49.378,49.378,0,0,1,8.068-6.414Z" transform="translate(-505.878 -194.579)" fill="#eda36b"/>
              <path id="Trazado_1254771" data-name="Trazado 1254771" d="M510.893,201.593a18.736,18.736,0,0,0-4.843,9.44c-.648,4.21.648,8.447,1.947,12.507a32.648,32.648,0,0,0,4.171-.317c1.188-.179,2.61-.314,4.124-.416a13.168,13.168,0,0,0,.261-2.193c.08-2.2-.22-4.423.07-6.609a16.584,16.584,0,0,1,4.7-9.006,49.381,49.381,0,0,1,8.068-6.414l-10.359-4.007A55.944,55.944,0,0,0,510.893,201.593Zm.089,6.8a46.866,46.866,0,0,1,6.277-8.027l.1.06C521.579,203.094,515.729,206.378,510.982,208.392Z" transform="translate(-505.878 -194.578)" fill="#755524" opacity="0.18"/>
            </g>
            <g id="Grupo_1236778" data-name="Grupo 1236778" transform="translate(204.951 71.441)">
              <path id="Trazado_1254772" data-name="Trazado 1254772" d="M495.133,186.735a75.243,75.243,0,0,0-8.285,8.469,25.177,25.177,0,0,0-5.205,10.532c-1.033,5.2.168,10.561,1.364,15.73.419,1.808,1.08,3.9,2.836,4.5,1.692.578,3.542-.639,4.434-2.189,2.07-3.6.435-8.141.935-12.263.548-4.525,3.641-8.291,6.781-11.594a124.419,124.419,0,0,1,10.951-10.211Z" transform="translate(-481.251 -186.735)" fill="#eda36b"/>
              <path id="Trazado_1254773" data-name="Trazado 1254773" d="M486.849,195.2a25.177,25.177,0,0,0-5.205,10.532c-.8,4.026-.26,8.143.578,12.195a44.027,44.027,0,0,0,9.129,1.356c.052-2.538-.447-5.235-.14-7.772a14.363,14.363,0,0,1,2-5.577c-.239.08-.375.122-.375.122l-9.416,2.753a51.971,51.971,0,0,1,10.515-16.674,60.755,60.755,0,0,1,8.649,3.21c2.056-1.949,4.171-3.836,6.356-5.639l-13.809-2.974A75.2,75.2,0,0,0,486.849,195.2Z" transform="translate(-481.252 -186.736)" fill="#755524" opacity="0.18"/>
            </g>
            <g id="Grupo_1236779" data-name="Grupo 1236779" transform="translate(193.643 69.272)">
              <path id="Trazado_1254774" data-name="Trazado 1254774" d="M471.585,182.073a84.306,84.306,0,0,0-8.839,9.593,28.19,28.19,0,0,0-5.446,11.74c-.983,5.542.283,11.212,1.622,16.68.347,1.412.858,3.017,2.2,3.567a3.063,3.063,0,0,0,3.185-.815,7,7,0,0,0,1.615-3.042c1.028-3.408,1.158-7.014,1.788-10.518a37.6,37.6,0,0,1,17.148-25.073Z" transform="translate(-456.95 -182.073)" fill="#eda36b"/>
              <path id="Trazado_1254775" data-name="Trazado 1254775" d="M472.042,236.706a4.239,4.239,0,0,0,1.445,5.922,8.331,8.331,0,0,0,1.185.626c.245-1.791.436-3.6.757-5.373.14-.778.315-1.547.506-2.313Z" transform="translate(-464.664 -210.676)" fill="#755524" opacity="0.18"/>
              <path id="Trazado_1254776" data-name="Trazado 1254776" d="M490.807,188.98a36.3,36.3,0,0,1,6.179-4.776l-13.278-2.132c-1.375,1.346-2.751,2.7-4.085,4.084C482.472,186.8,486.646,187.794,490.807,188.98Z" transform="translate(-469.073 -182.072)" fill="#755524" opacity="0.18"/>
            </g>
            <g id="Grupo_1236783" data-name="Grupo 1236783" transform="translate(168.401 61.275)">
              <g id="Grupo_1236782" data-name="Grupo 1236782" transform="translate(3.486)">
                <g id="Grupo_1236780" data-name="Grupo 1236780" transform="translate(7.593 12.482)">
                  <path id="Trazado_1254777" data-name="Trazado 1254777" d="M477.567,264.7q-2.573,1.219-5.2,2.319a24.138,24.138,0,0,1-30.477-10.675,199.071,199.071,0,0,1-14.054-31.983,24.662,24.662,0,0,1,13.615-30.688l.384-.159a24.586,24.586,0,0,1,29.277,8.679,204.776,204.776,0,0,1,18.019,30.3A24.15,24.15,0,0,1,477.567,264.7Z" transform="translate(-426.513 -191.71)" fill="#fff"/>
                  <path id="Trazado_1254778" data-name="Trazado 1254778" d="M484.594,249.579c-6.827,2.468-13.438,5.019-20.332,2.747a51.943,51.943,0,0,1-6.954-3.331,15.644,15.644,0,0,0-7.356-2.06c-2.573.075-4.988,1.435-5.385,4.627,2.62,7.443,5.618,12.4,8.4,18.7s6.854,12.56,13.191,15.262a20.847,20.847,0,0,0,11.56,1.13,18.016,18.016,0,0,0,8.794-3.781c4.576-3.906,6.229-10.568,5.194-16.493C490.743,260.839,487.6,254.157,484.594,249.579Z" transform="translate(-436.166 -221.236)" fill="#95d9f4"/>
                  <path id="Trazado_1254779" data-name="Trazado 1254779" d="M480.33,264.093q-1.847.851-3.725,1.636a19.3,19.3,0,0,1-24.152-8.222,164.005,164.005,0,0,1-13.144-29.27A19.92,19.92,0,0,1,449.929,203.8l.344-.154a19.9,19.9,0,0,1,24.345,6.987,153.408,153.408,0,0,1,15.522,28.3A19.444,19.444,0,0,1,480.33,264.093Z" transform="translate(-432.804 -197.196)" fill="none" stroke="#6ab9d4" stroke-linecap="round" stroke-linejoin="round" stroke-miterlimit="10" stroke-width="2"/>
                  <path id="Trazado_1254780" data-name="Trazado 1254780" d="M497.228,285.905a32.342,32.342,0,0,1-22.133,13.14c-15.025,2.031-28.845-6.61-35.689-11.883a199.546,199.546,0,0,0,9.377,19.545,24.138,24.138,0,0,0,30.477,10.675q2.626-1.1,5.2-2.319A24.178,24.178,0,0,0,497.228,285.905Z" transform="translate(-433.407 -242.076)" fill="#183f4f" opacity="0.12"/>
                  <path id="Trazado_1254781" data-name="Trazado 1254781" d="M479.866,234.7a122.261,122.261,0,0,0,28.915,1.524,212.945,212.945,0,0,0-13.631-21.749,71.33,71.33,0,0,1-16.85,4.606C465.915,220.855,472.309,233.122,479.866,234.7Z" transform="translate(-450.472 -203.884)" fill="#183f4f" opacity="0.12"/>
                  <path id="Trazado_1254782" data-name="Trazado 1254782" d="M477.567,264.7q-2.573,1.219-5.2,2.319a24.138,24.138,0,0,1-30.477-10.675,199.071,199.071,0,0,1-14.054-31.983,24.662,24.662,0,0,1,13.615-30.688l.384-.159a24.586,24.586,0,0,1,29.277,8.679,204.776,204.776,0,0,1,18.019,30.3A24.15,24.15,0,0,1,477.567,264.7Z" transform="translate(-426.513 -191.71)" fill="none" stroke="#6ab9d4" stroke-linecap="round" stroke-linejoin="round" stroke-miterlimit="10" stroke-width="2"/>
                </g>
                <g id="Grupo_1236781" data-name="Grupo 1236781">
                  <path id="Trazado_1254783" data-name="Trazado 1254783" d="M459.193,239.987a.524.524,0,0,0-.166-.315c-8.686-18.823-17.657-38.269-26.3-57.561a2.084,2.084,0,0,0,.545-2.523l-2.569-5.219a16.909,16.909,0,0,0,4.1-1.7c1.226-.732,2.42-1.852,2.457-3.279.046-1.728-1.611-3.011-3.223-3.636a16.341,16.341,0,0,0-10.894.139,24.144,24.144,0,0,0-8.421,4.54,12.9,12.9,0,0,0-4.5,8.257,4.556,4.556,0,0,0,.255,2.244,2.177,2.177,0,0,0,1.7,1.352c1.286.112,2.189-1.162,3.037-2.133,2.334-2.671,5.96-3.777,9.435-4.486l.2-.04,3.073,6.424a2.086,2.086,0,0,0,2.367,1.126c7.9,19.706,16.843,39.242,26.595,58.087a.473.473,0,0,0,.282.235.467.467,0,0,0,.118.021.478.478,0,0,0,.248-.056C459.27,240.537,459.229,240.245,459.193,239.987Z" transform="translate(-410.194 -164.885)" fill="#6ab9d4"/>
                  <path id="Trazado_1254784" data-name="Trazado 1254784" d="M435,174.371a16.908,16.908,0,0,0,4.1-1.7c1.226-.732,2.42-1.852,2.457-3.279.046-1.728-1.611-3.011-3.223-3.636a16.341,16.341,0,0,0-10.894.139,24.144,24.144,0,0,0-8.421,4.54c-.274.242-.539.5-.8.759a120.993,120.993,0,0,0,17.317,4.278Z" transform="translate(-414.488 -164.886)" fill="#183f4f" opacity="0.18"/>
                  <path id="Trazado_1254785" data-name="Trazado 1254785" d="M471.811,232.386c-1.612,3.4,1,8.131,4.8,10.531Q474.2,237.657,471.811,232.386Z" transform="translate(-442.881 -200.978)" fill="#183f4f" opacity="0.18"/>
                </g>
                <path id="Trazado_1254786" data-name="Trazado 1254786" d="M443.3,214.6c-5.28-1.555-9.718,6.292-9.567,13.727s3.765,13.956,6.165,13.115c3.886-1.363-.6-5.834,2.108-12.724S448.384,216.1,443.3,214.6Z" transform="translate(-422.78 -191.363)" fill="#fff"/>
              </g>
              <path id="Trazado_1254787" data-name="Trazado 1254787" d="M411.441,231.45c-.3-1.417-.658-2.8-1.032-4.261a52.974,52.974,0,0,1-2.112-12.768.476.476,0,0,0-.924-.152,110.928,110.928,0,0,0-4.186,15.135c-.456,2.267-.829,4.664.036,6.866a5.586,5.586,0,0,0,2.928,3.014,4.112,4.112,0,0,0,1.727.34,3.534,3.534,0,0,0,1.277-.28,4.7,4.7,0,0,0,2.589-3.6A11.372,11.372,0,0,0,411.441,231.45Z" transform="translate(-402.702 -191.121)" fill="#6ab9d4"/>
            </g>
            <g id="Grupo_1236784" data-name="Grupo 1236784" transform="translate(172.708 3.257)">
              <path id="Trazado_1254788" data-name="Trazado 1254788" d="M606.293,115.965c-21.567-2.5-57.807,4.212-76.633,10.1-16.363,5.117-32.706,10.395-50.184,11.414-10.168.593-20.319,1.945-30.454.941a14.575,14.575,0,0,1-6.553-1.785c-1.922-1.237-3.278-3.649-2.592-5.83a5.57,5.57,0,0,1,3.626-3.324,21.538,21.538,0,0,1,5.026-.8c8.521-.835,22.323-5.458,23.645-9,.8-2.156-3.977-3.938-6.519-5.123-12.343-5.753-26.546-5.266-39.961-7.6-3.806-.663-7.692-1.613-10.787-3.925a7.665,7.665,0,0,1-2.59-3.047,4.033,4.033,0,0,1,.278-3.862c1.361-1.886,4.161-1.739,6.468-1.439,23.912,3.1,48.775,2.526,72.06-4.659C526.5,77.1,559.463,59.3,591.177,40.2c0,0,.193.844.1.65C604.487,62.923,609.647,89.7,606.293,115.965Z" transform="translate(-411.957 -40.199)" fill="#eda36b"/>
              <path id="Trazado_1254789" data-name="Trazado 1254789" d="M417.958,156.4a4.3,4.3,0,0,0,7.915,1.626,1.126,1.126,0,0,0,.219-.721c-.068-.492-.64-.72-1.126-.827A18.59,18.59,0,0,0,417.958,156.4Z" transform="translate(-415.166 -102.176)" fill="none" stroke="#fcc488" stroke-linecap="round" stroke-linejoin="round" stroke-miterlimit="10" stroke-width="2"/>
              <path id="Trazado_1254790" data-name="Trazado 1254790" d="M483.678,234.56a12.379,12.379,0,0,1,.06,3.387,2.563,2.563,0,0,1-.463,1.356,2.367,2.367,0,0,1-1.706.693,5.455,5.455,0,0,1-3.008-.615,4.075,4.075,0,0,1-1.948-2.329,2.266,2.266,0,0,1,.5-2.365,2.827,2.827,0,0,1,1.591-.535A15.831,15.831,0,0,1,483.678,234.56Z" transform="translate(-446.461 -143.875)" fill="none" stroke="#fcc488" stroke-linecap="round" stroke-linejoin="round" stroke-miterlimit="10" stroke-width="2"/>
            </g>
          </g>
        </g>
        <g id="Grupo_1236800" data-name="Grupo 1236800" transform="translate(38.965 13.419)">
          <g id="Grupo_1236787" data-name="Grupo 1236787" transform="translate(2.835 48.354)">
            <path id="Trazado_1254792" data-name="Trazado 1254792" d="M142.585,170.622a6.044,6.044,0,0,0-6.5.592,5.923,5.923,0,0,0-1.891,6.23,5.8,5.8,0,0,0,5.15,3.956,5.694,5.694,0,0,0,5.416-3.552C145.579,175.694,145.5,172.192,142.585,170.622Z" transform="translate(-132.397 -168.086)" fill="#424f96" opacity="0.12"/>
            <path id="Trazado_1254793" data-name="Trazado 1254793" d="M139.263,166.637a6.044,6.044,0,0,0-6.5.592,5.923,5.923,0,0,0-1.891,6.23,5.805,5.805,0,0,0,5.15,3.956,5.694,5.694,0,0,0,5.416-3.552C142.257,171.709,142.182,168.207,139.263,166.637Z" transform="translate(-130.621 -165.955)" fill="#fff"/>
            <path id="Trazado_1254794" data-name="Trazado 1254794" d="M137.591,169.689a3.385,3.385,0,0,0-2.615,1.281,3.55,3.55,0,0,0-.741,2.816c.064.371.241.784.6.88.422.111.818-.277.983-.681a6.172,6.172,0,0,1,.454-1.222,2.157,2.157,0,0,1,.972-.7,5.319,5.319,0,0,0,1.086-.528,1.211,1.211,0,0,0,.55-1.021C138.851,170.115,138.433,169.709,137.591,169.689Z" transform="translate(-132.527 -167.951)" fill="#cde9f4"/>
          </g>
          <g id="Grupo_1236788" data-name="Grupo 1236788" transform="translate(240.677 93.987)">
            <path id="Trazado_1254795" data-name="Trazado 1254795" d="M653.623,271.136a6.044,6.044,0,0,0-6.5.592,5.924,5.924,0,0,0-1.891,6.23,5.806,5.806,0,0,0,5.15,3.956,5.694,5.694,0,0,0,5.416-3.552C656.617,276.208,656.542,272.706,653.623,271.136Z" transform="translate(-643.489 -267.464)" fill="#424f96" opacity="0.12"/>
            <path id="Trazado_1254796" data-name="Trazado 1254796" d="M650.416,264.709a6.045,6.045,0,0,0-6.5.592,5.923,5.923,0,0,0-1.891,6.23,5.806,5.806,0,0,0,5.15,3.956,5.694,5.694,0,0,0,5.416-3.552C653.41,269.78,653.335,266.278,650.416,264.709Z" transform="translate(-641.774 -264.027)" fill="#fff"/>
            <path id="Trazado_1254797" data-name="Trazado 1254797" d="M648.745,267.759a3.387,3.387,0,0,0-2.615,1.281,3.552,3.552,0,0,0-.742,2.816c.065.371.241.784.605.88.422.111.818-.277.983-.681a6.212,6.212,0,0,1,.453-1.222,2.156,2.156,0,0,1,.972-.7,5.334,5.334,0,0,0,1.086-.529,1.21,1.21,0,0,0,.55-1.02C650.005,268.186,649.586,267.779,648.745,267.759Z" transform="translate(-643.68 -266.022)" fill="#cde9f4"/>
          </g>
          <g id="Grupo_1236789" data-name="Grupo 1236789" transform="translate(58.994 146.294)">
            <path id="Trazado_1254798" data-name="Trazado 1254798" d="M263.163,383.552a6.045,6.045,0,0,0-6.5.592,5.924,5.924,0,0,0-1.891,6.23,5.806,5.806,0,0,0,5.15,3.956,5.694,5.694,0,0,0,5.416-3.552C266.157,388.623,266.082,385.121,263.163,383.552Z" transform="translate(-253.029 -379.879)" fill="#424f96" opacity="0.12"/>
            <path id="Trazado_1254799" data-name="Trazado 1254799" d="M259.956,377.124a6.045,6.045,0,0,0-6.5.592,5.923,5.923,0,0,0-1.891,6.23,5.806,5.806,0,0,0,5.15,3.956,5.694,5.694,0,0,0,5.416-3.552C262.95,382.195,262.875,378.693,259.956,377.124Z" transform="translate(-251.314 -376.442)" fill="#fff"/>
            <path id="Trazado_1254800" data-name="Trazado 1254800" d="M258.286,380.174a3.384,3.384,0,0,0-2.615,1.281,3.552,3.552,0,0,0-.742,2.816c.065.371.242.784.605.88.422.111.818-.277.983-.681a6.212,6.212,0,0,1,.453-1.222,2.158,2.158,0,0,1,.972-.7,5.335,5.335,0,0,0,1.086-.529,1.21,1.21,0,0,0,.55-1.02C259.546,380.6,259.127,380.194,258.286,380.174Z" transform="translate(-253.221 -378.437)" fill="#cde9f4"/>
          </g>
          <g id="Grupo_1236790" data-name="Grupo 1236790" transform="translate(168.477 132.31)">
            <path id="Trazado_1254801" data-name="Trazado 1254801" d="M497.461,351.191a6.042,6.042,0,0,0-6.5.592,5.924,5.924,0,0,0-1.892,6.23,5.807,5.807,0,0,0,5.15,3.956,5.7,5.7,0,0,0,5.416-3.552C500.455,356.262,500.38,352.76,497.461,351.191Z" transform="translate(-487.79 -348.592)" fill="#424f96" opacity="0.12"/>
            <path id="Trazado_1254802" data-name="Trazado 1254802" d="M495.249,347.07a6.042,6.042,0,0,0-6.5.592,5.925,5.925,0,0,0-1.892,6.23,5.807,5.807,0,0,0,5.15,3.956,5.7,5.7,0,0,0,5.416-3.552C498.243,352.141,498.168,348.639,495.249,347.07Z" transform="translate(-486.607 -346.388)" fill="#fff"/>
            <path id="Trazado_1254803" data-name="Trazado 1254803" d="M493.578,350.12a3.384,3.384,0,0,0-2.615,1.281,3.552,3.552,0,0,0-.742,2.816c.064.371.241.784.6.879.422.112.819-.276.983-.681a6.254,6.254,0,0,1,.454-1.222,2.156,2.156,0,0,1,.971-.7,5.366,5.366,0,0,0,1.086-.528,1.208,1.208,0,0,0,.55-1.021C494.838,350.547,494.419,350.141,493.578,350.12Z" transform="translate(-488.513 -348.383)" fill="#cde9f4"/>
          </g>
          <g id="Grupo_1236791" data-name="Grupo 1236791" transform="translate(93.17 42.763)">
            <path id="Trazado_1254804" data-name="Trazado 1254804" d="M333.023,158.442a4.179,4.179,0,0,0-4.492.409,4.094,4.094,0,0,0-1.307,4.305,4.013,4.013,0,0,0,3.56,2.734,3.934,3.934,0,0,0,3.742-2.455C335.092,161.947,335.04,159.527,333.023,158.442Z" transform="translate(-325.985 -156.095)" fill="#424f96" opacity="0.12"/>
            <path id="Trazado_1254805" data-name="Trazado 1254805" d="M330.735,154.411a4.179,4.179,0,0,0-4.493.409,4.094,4.094,0,0,0-1.307,4.305,4.013,4.013,0,0,0,3.56,2.734,3.934,3.934,0,0,0,3.742-2.455C332.8,157.916,332.752,155.5,330.735,154.411Z" transform="translate(-324.762 -153.94)" fill="#fff"/>
            <path id="Trazado_1254806" data-name="Trazado 1254806" d="M329.253,156.84a3.253,3.253,0,0,0-1.407.81,1.868,1.868,0,0,0-.545,1.49.973.973,0,0,0,.245.561.571.571,0,0,0,.569.162c.323-.107.422-.508.64-.77.444-.53,1.377-.465,1.753-1.045a.847.847,0,0,0,.034-.845C330.4,156.942,330.077,156.584,329.253,156.84Z" transform="translate(-326.113 -155.443)" fill="#cde9f4"/>
          </g>
          <g id="Grupo_1236792" data-name="Grupo 1236792" transform="translate(61.125 84.126)">
            <path id="Trazado_1254807" data-name="Trazado 1254807" d="M264.154,247.337a4.179,4.179,0,0,0-4.493.409,4.094,4.094,0,0,0-1.307,4.305,4.013,4.013,0,0,0,3.56,2.734,3.934,3.934,0,0,0,3.742-2.455C266.223,250.842,266.171,248.422,264.154,247.337Z" transform="translate(-257.116 -244.99)" fill="#424f96" opacity="0.12"/>
            <path id="Trazado_1254808" data-name="Trazado 1254808" d="M261.866,243.306a4.179,4.179,0,0,0-4.493.409,4.1,4.1,0,0,0-1.308,4.305,4.014,4.014,0,0,0,3.56,2.734,3.934,3.934,0,0,0,3.742-2.455C263.935,246.811,263.883,244.391,261.866,243.306Z" transform="translate(-255.893 -242.835)" fill="#fff"/>
            <path id="Trazado_1254809" data-name="Trazado 1254809" d="M260.384,245.735a3.253,3.253,0,0,0-1.407.81,1.868,1.868,0,0,0-.545,1.49.973.973,0,0,0,.245.561.572.572,0,0,0,.569.162c.323-.107.422-.508.64-.77.444-.53,1.377-.465,1.753-1.045a.848.848,0,0,0,.034-.846C261.532,245.837,261.208,245.479,260.384,245.735Z" transform="translate(-257.244 -244.338)" fill="#cde9f4"/>
          </g>
          <g id="Grupo_1236793" data-name="Grupo 1236793" transform="translate(155.888 163.404)">
            <path id="Trazado_1254810" data-name="Trazado 1254810" d="M467.017,418.074a4.178,4.178,0,0,0-4.493.409,4.1,4.1,0,0,0-1.307,4.306,4.013,4.013,0,0,0,3.559,2.734,3.934,3.934,0,0,0,3.743-2.455C469.087,421.579,469.035,419.158,467.017,418.074Z" transform="translate(-460.349 -415.56)" fill="#424f96" opacity="0.12"/>
            <path id="Trazado_1254811" data-name="Trazado 1254811" d="M465.524,413.684a4.178,4.178,0,0,0-4.493.409,4.1,4.1,0,0,0-1.307,4.306,4.013,4.013,0,0,0,3.559,2.734,3.934,3.934,0,0,0,3.743-2.455C467.594,417.189,467.542,414.768,465.524,413.684Z" transform="translate(-459.551 -413.212)" fill="#fff"/>
            <path id="Trazado_1254812" data-name="Trazado 1254812" d="M464.043,416.113a3.267,3.267,0,0,0-1.408.81,1.869,1.869,0,0,0-.544,1.49.972.972,0,0,0,.244.561.571.571,0,0,0,.569.162c.323-.108.422-.509.64-.77.443-.531,1.377-.466,1.753-1.046a.847.847,0,0,0,.034-.845C465.191,416.215,464.867,415.857,464.043,416.113Z" transform="translate(-460.903 -414.716)" fill="#cde9f4"/>
          </g>
          <g id="Grupo_1236794" data-name="Grupo 1236794" transform="translate(113.033 72.057)">
            <path id="Trazado_1254813" data-name="Trazado 1254813" d="M374.915,221.758a4.177,4.177,0,0,0-4.493.409,4.1,4.1,0,0,0-1.307,4.306,4.013,4.013,0,0,0,3.559,2.734,3.934,3.934,0,0,0,3.743-2.455C376.985,225.263,376.933,222.842,374.915,221.758Z" transform="translate(-368.248 -219.244)" fill="#424f96" opacity="0.12"/>
            <path id="Trazado_1254814" data-name="Trazado 1254814" d="M373.422,217.368a4.177,4.177,0,0,0-4.493.409,4.1,4.1,0,0,0-1.307,4.306,4.013,4.013,0,0,0,3.559,2.734,3.934,3.934,0,0,0,3.743-2.455C375.492,220.873,375.44,218.452,373.422,217.368Z" transform="translate(-367.45 -216.896)" fill="#fff"/>
            <path id="Trazado_1254815" data-name="Trazado 1254815" d="M371.941,219.8a3.265,3.265,0,0,0-1.408.81,1.869,1.869,0,0,0-.544,1.491.974.974,0,0,0,.244.561.571.571,0,0,0,.569.162c.323-.108.422-.509.64-.77.443-.531,1.377-.466,1.753-1.046a.847.847,0,0,0,.034-.845C373.089,219.9,372.765,219.541,371.941,219.8Z" transform="translate(-368.801 -218.4)" fill="#cde9f4"/>
          </g>
          <g id="Grupo_1236795" data-name="Grupo 1236795" transform="translate(9.974 149.004)">
            <path id="Trazado_1254816" data-name="Trazado 1254816" d="M153.429,387.129a4.177,4.177,0,0,0-4.493.409,4.094,4.094,0,0,0-1.307,4.306,4.013,4.013,0,0,0,3.559,2.734,3.934,3.934,0,0,0,3.743-2.455C155.5,390.634,155.447,388.213,153.429,387.129Z" transform="translate(-146.762 -384.614)" fill="#424f96" opacity="0.12"/>
            <path id="Trazado_1254817" data-name="Trazado 1254817" d="M151.936,382.738a4.177,4.177,0,0,0-4.493.409,4.1,4.1,0,0,0-1.307,4.306,4.013,4.013,0,0,0,3.559,2.734,3.934,3.934,0,0,0,3.743-2.455C154.006,386.243,153.954,383.823,151.936,382.738Z" transform="translate(-145.963 -382.266)" fill="#fff"/>
            <path id="Trazado_1254818" data-name="Trazado 1254818" d="M150.455,385.167a3.265,3.265,0,0,0-1.408.81,1.869,1.869,0,0,0-.544,1.491.974.974,0,0,0,.244.561.571.571,0,0,0,.569.162c.323-.108.422-.509.64-.77.443-.531,1.377-.466,1.753-1.046a.849.849,0,0,0,.034-.846C151.6,385.27,151.279,384.912,150.455,385.167Z" transform="translate(-147.315 -383.77)" fill="#cde9f4"/>
          </g>
          <g id="Grupo_1236796" data-name="Grupo 1236796" transform="translate(213.079)">
            <path id="Trazado_1254819" data-name="Trazado 1254819" d="M589.926,66.9a4.178,4.178,0,0,0-4.493.409,4.094,4.094,0,0,0-1.307,4.306,4.013,4.013,0,0,0,3.559,2.734,3.934,3.934,0,0,0,3.743-2.455C592,70.4,591.944,67.983,589.926,66.9Z" transform="translate(-583.259 -64.384)" fill="#424f96" opacity="0.12"/>
            <path id="Trazado_1254820" data-name="Trazado 1254820" d="M588.435,62.508a4.178,4.178,0,0,0-4.493.409,4.094,4.094,0,0,0-1.307,4.306,4.013,4.013,0,0,0,3.559,2.734,3.934,3.934,0,0,0,3.743-2.455C590.5,66.013,590.452,63.593,588.435,62.508Z" transform="translate(-582.462 -62.037)" fill="#fff"/>
            <path id="Trazado_1254821" data-name="Trazado 1254821" d="M586.952,64.937a3.267,3.267,0,0,0-1.408.81,1.869,1.869,0,0,0-.544,1.49.973.973,0,0,0,.244.561.571.571,0,0,0,.569.162c.323-.108.422-.509.64-.77.443-.531,1.377-.466,1.753-1.046a.847.847,0,0,0,.034-.845C588.1,65.039,587.776,64.681,586.952,64.937Z" transform="translate(-583.813 -63.54)" fill="#cde9f4"/>
          </g>
          <g id="Grupo_1236797" data-name="Grupo 1236797" transform="translate(0 102.566)">
            <path id="Trazado_1254822" data-name="Trazado 1254822" d="M131.993,287.326a4.178,4.178,0,0,0-4.493.409,4.1,4.1,0,0,0-1.307,4.306,4.013,4.013,0,0,0,3.559,2.734,3.934,3.934,0,0,0,3.743-2.455C134.062,290.831,134.01,288.411,131.993,287.326Z" transform="translate(-125.326 -284.812)" fill="#424f96" opacity="0.12"/>
            <path id="Trazado_1254823" data-name="Trazado 1254823" d="M130.5,282.936a4.178,4.178,0,0,0-4.493.409,4.1,4.1,0,0,0-1.307,4.306,4.013,4.013,0,0,0,3.559,2.734A3.934,3.934,0,0,0,132,287.931C132.57,286.441,132.518,284.021,130.5,282.936Z" transform="translate(-124.528 -282.465)" fill="#fff"/>
            <path id="Trazado_1254824" data-name="Trazado 1254824" d="M129.018,285.366a3.267,3.267,0,0,0-1.408.81,1.869,1.869,0,0,0-.544,1.49.974.974,0,0,0,.244.561.571.571,0,0,0,.569.162c.323-.108.422-.509.64-.77.443-.531,1.377-.466,1.753-1.046a.848.848,0,0,0,.033-.846C130.167,285.468,129.842,285.11,129.018,285.366Z" transform="translate(-125.879 -283.969)" fill="#cde9f4"/>
          </g>
          <g id="Grupo_1236798" data-name="Grupo 1236798" transform="translate(207.398 92.545)">
            <path id="Trazado_1254825" data-name="Trazado 1254825" d="M577.262,264.52a4.179,4.179,0,0,0-4.492.409,4.092,4.092,0,0,0-1.307,4.305,4.012,4.012,0,0,0,3.559,2.734,3.934,3.934,0,0,0,3.742-2.455C579.331,268.025,579.279,265.6,577.262,264.52Z" transform="translate(-570.807 -262.596)" fill="#424f96" opacity="0.12"/>
            <path id="Trazado_1254826" data-name="Trazado 1254826" d="M576.225,261.4a4.179,4.179,0,0,0-4.492.409,4.092,4.092,0,0,0-1.307,4.305,4.012,4.012,0,0,0,3.559,2.734,3.933,3.933,0,0,0,3.742-2.455C578.294,264.9,578.242,262.483,576.225,261.4Z" transform="translate(-570.253 -260.927)" fill="#fff"/>
            <path id="Trazado_1254827" data-name="Trazado 1254827" d="M574.743,263.827a3.263,3.263,0,0,0-1.408.81,1.87,1.87,0,0,0-.544,1.49.97.97,0,0,0,.245.561.571.571,0,0,0,.569.162c.322-.107.422-.508.639-.77.444-.531,1.377-.465,1.754-1.046a.849.849,0,0,0,.033-.845C575.891,263.929,575.567,263.571,574.743,263.827Z" transform="translate(-571.603 -262.43)" fill="#cde9f4"/>
          </g>
          <g id="Grupo_1236799" data-name="Grupo 1236799" transform="translate(193.182 38.211)">
            <path id="Trazado_1254828" data-name="Trazado 1254828" d="M546.709,147.75a4.179,4.179,0,0,0-4.492.409,4.092,4.092,0,0,0-1.307,4.305,4.012,4.012,0,0,0,3.559,2.734,3.933,3.933,0,0,0,3.742-2.455C548.778,151.255,548.726,148.835,546.709,147.75Z" transform="translate(-540.254 -145.826)" fill="#424f96" opacity="0.12"/>
            <path id="Trazado_1254829" data-name="Trazado 1254829" d="M545.672,144.628a4.179,4.179,0,0,0-4.493.409,4.092,4.092,0,0,0-1.307,4.305,4.012,4.012,0,0,0,3.559,2.734,3.933,3.933,0,0,0,3.742-2.455C547.741,148.133,547.689,145.713,545.672,144.628Z" transform="translate(-539.7 -144.157)" fill="#fff"/>
            <path id="Trazado_1254830" data-name="Trazado 1254830" d="M544.19,147.057a3.262,3.262,0,0,0-1.408.81,1.871,1.871,0,0,0-.544,1.491.972.972,0,0,0,.245.561.572.572,0,0,0,.569.162c.322-.107.422-.508.639-.77.444-.531,1.377-.465,1.754-1.046a.849.849,0,0,0,.034-.845C545.338,147.159,545.014,146.8,544.19,147.057Z" transform="translate(-541.05 -145.66)" fill="#cde9f4"/>
          </g>
        </g>
      </g>
      <g id="Grupo_1236803" data-name="Grupo 1236803" transform="translate(108.626 19.978)">
        <path id="SVGID_x5F_00000024688984316265726450000014626765494551014299_x5F_" d="M199.627,71.674s83.115,34.72,168.54.623" transform="translate(-193.557 -47.62)" fill="none"/>
        <path id="SVGID_x5F_00000049186648653207492880000005481870140012060038_x5F_" d="M186.582,19.978S264.185,60,360.017,24.769" transform="translate(-186.582 -19.978)" fill="none"/>
      </g>
    </g>
  </g>
</svg>
