<svg xmlns="http://www.w3.org/2000/svg" xmlns:xlink="http://www.w3.org/1999/xlink" width="1328" height="760" viewBox="0 0 1328 760">
  <defs>
    <clipPath id="clip-path">
      <rect id="Rectángulo_422868" data-name="Rectángulo 422868" width="1328" height="760" fill="none"/>
    </clipPath>
  </defs>
  <g id="Grupo_1234667" data-name="Grupo 1234667" transform="translate(-136 -1732)">
    <g id="Grupo_1232503" data-name="Grupo 1232503" transform="translate(136 1732)">
      <path id="Trazado_1045201" data-name="Trazado 1045201" d="M0,0H1328V759.782H0Z" fill="#00257a"/>
      <g id="Grupo_1232502" data-name="Grupo 1232502">
        <g id="Grupo_1232501" data-name="Grupo 1232501" clip-path="url(#clip-path)">
          <path id="Trazado_1045046" data-name="Trazado 1045046" d="M556.825,507.807c-86.324,0-156.572,68.487-156.572,152.684S470.5,813.205,556.825,813.205s156.541-68.517,156.541-152.714S643.149,507.807,556.825,507.807m0,275.277c-69.447,0-125.721-54.887-125.721-122.593S487.377,537.9,556.825,537.9c69.416,0,125.69,54.887,125.69,122.593s-56.274,122.593-125.69,122.593" transform="translate(397.771 -746.927)" fill="#7958fb"/>
          <path id="Trazado_1045047" data-name="Trazado 1045047" d="M378.37,685.463a2.54,2.54,0,0,1-1.616-3.254l18.64-52.338a2.639,2.639,0,0,1,3.336-1.576,2.541,2.541,0,0,1,1.616,3.254l-18.64,52.338a2.639,2.639,0,0,1-3.336,1.576" transform="translate(368.506 -604.61)" fill="#b081de"/>
          <path id="Trazado_1045048" data-name="Trazado 1045048" d="M371.111,663.734a2.593,2.593,0,0,1-1.5-1.3,2.528,2.528,0,0,1,1.217-3.416l51.123-24.15a2.649,2.649,0,0,1,3.5,1.185,2.528,2.528,0,0,1-1.215,3.416l-51.125,24.15a2.667,2.667,0,0,1-2,.116" transform="translate(359.522 -596.974)" fill="#b081de"/>
          <path id="Trazado_1045049" data-name="Trazado 1045049" d="M424.2,659.131,370.545,640.95a2.541,2.541,0,0,1-1.618-3.252,2.64,2.64,0,0,1,3.339-1.578L425.924,654.3a2.544,2.544,0,0,1,1.616,3.256,2.639,2.639,0,0,1-3.336,1.576" transform="translate(358.82 -595.356)" fill="#b081de"/>
          <path id="Trazado_1045050" data-name="Trazado 1045050" d="M401.764,683.556a2.593,2.593,0,0,1-1.5-1.3L375.5,632.392a2.529,2.529,0,0,1,1.215-3.416,2.653,2.653,0,0,1,3.5,1.187l24.763,49.863a2.529,2.529,0,0,1-1.217,3.416,2.677,2.677,0,0,1-2,.113" transform="translate(366.813 -603.94)" fill="#b081de"/>
          <path id="Trazado_1045051" data-name="Trazado 1045051" d="M392.494,693.565h0a10.263,10.263,0,0,1,14.256,0l30.352,29.6a9.663,9.663,0,0,1,0,13.905,10.263,10.263,0,0,1-14.256,0l-30.352-29.6a9.663,9.663,0,0,1,0-13.905" transform="translate(-224.846 -677.414)" fill="#fd660a"/>
          <path id="Trazado_1045052" data-name="Trazado 1045052" d="M437.1,693.565h0a9.663,9.663,0,0,1,0,13.905l-30.352,29.6a10.263,10.263,0,0,1-14.256,0,9.663,9.663,0,0,1,0-13.905l30.352-29.6a10.263,10.263,0,0,1,14.256,0" transform="translate(384.515 -530.66)" fill="#5e03af"/>
          <path id="Trazado_1045053" data-name="Trazado 1045053" d="M470.9,682.893a7.064,7.064,0,1,1-7.062-6.888,6.977,6.977,0,0,1,7.062,6.888" transform="translate(467.728 -548.022)" fill="#5e03af"/>
          <path id="Trazado_1045054" data-name="Trazado 1045054" d="M470.9,699.382a7.064,7.064,0,1,1-7.062-6.888,6.977,6.977,0,0,1,7.062,6.888" transform="translate(467.728 -528.522)" fill="#5e03af"/>
          <path id="Trazado_1045055" data-name="Trazado 1045055" d="M486.956,682.893a7.064,7.064,0,1,1-7.062-6.888,6.977,6.977,0,0,1,7.062,6.888" transform="translate(487.604 -548.022)" fill="#5e03af"/>
          <path id="Trazado_1045056" data-name="Trazado 1045056" d="M486.956,699.382a7.064,7.064,0,1,1-7.062-6.888,6.977,6.977,0,0,1,7.062,6.888" transform="translate(487.604 -528.522)" fill="#5e03af"/>
          <path id="Trazado_1045057" data-name="Trazado 1045057" d="M77.9,708.893a7.064,7.064,0,1,1-7.062-6.888,6.977,6.977,0,0,1,7.062,6.888" transform="translate(-18.692 -517.275)" fill="#5e03af"/>
          <path id="Trazado_1045058" data-name="Trazado 1045058" d="M77.9,725.382a7.064,7.064,0,1,1-7.062-6.888,6.977,6.977,0,0,1,7.062,6.888" transform="translate(-18.692 -497.775)" fill="#5e03af"/>
          <path id="Trazado_1045059" data-name="Trazado 1045059" d="M93.956,708.893a7.064,7.064,0,1,1-7.062-6.888,6.977,6.977,0,0,1,7.062,6.888" transform="translate(1.184 -517.275)" fill="#5e03af"/>
          <path id="Trazado_1045060" data-name="Trazado 1045060" d="M93.956,725.382a7.064,7.064,0,1,1-7.062-6.888,6.977,6.977,0,0,1,7.062,6.888" transform="translate(1.184 -497.775)" fill="#5e03af"/>
          <path id="Trazado_1045061" data-name="Trazado 1045061" d="M216.852,776.322a7.064,7.064,0,1,1-7.062-6.888,6.977,6.977,0,0,1,7.062,6.888" transform="translate(153.294 -437.535)" fill="#5e03af"/>
          <path id="Trazado_1045062" data-name="Trazado 1045062" d="M216.852,792.81a7.064,7.064,0,1,1-7.062-6.888,6.977,6.977,0,0,1,7.062,6.888" transform="translate(153.294 -418.037)" fill="#5e03af"/>
          <path id="Trazado_1045063" data-name="Trazado 1045063" d="M232.911,776.322a7.064,7.064,0,1,1-7.062-6.888,6.977,6.977,0,0,1,7.062,6.888" transform="translate(173.17 -437.535)" fill="#5e03af"/>
          <path id="Trazado_1045064" data-name="Trazado 1045064" d="M232.911,792.81a7.064,7.064,0,1,1-7.062-6.888,6.977,6.977,0,0,1,7.062,6.888" transform="translate(173.17 -418.037)" fill="#5e03af"/>
          <path id="Trazado_1045065" data-name="Trazado 1045065" d="M184.346,776.322a7.064,7.064,0,1,1-7.062-6.888,6.977,6.977,0,0,1,7.062,6.888" transform="translate(113.061 -437.535)" fill="#5e03af"/>
          <path id="Trazado_1045066" data-name="Trazado 1045066" d="M184.346,792.81a7.064,7.064,0,1,1-7.062-6.888,6.977,6.977,0,0,1,7.062,6.888" transform="translate(113.061 -418.037)" fill="#5e03af"/>
          <path id="Trazado_1045067" data-name="Trazado 1045067" d="M200.405,776.322a7.064,7.064,0,1,1-7.062-6.888,6.977,6.977,0,0,1,7.062,6.888" transform="translate(132.937 -437.535)" fill="#5e03af"/>
          <path id="Trazado_1045068" data-name="Trazado 1045068" d="M200.405,792.81a7.064,7.064,0,1,1-7.062-6.888,6.977,6.977,0,0,1,7.062,6.888" transform="translate(132.937 -418.037)" fill="#5e03af"/>
          <path id="Trazado_1045069" data-name="Trazado 1045069" d="M281.8,776.322a7.064,7.064,0,1,1-7.062-6.888,6.977,6.977,0,0,1,7.062,6.888" transform="translate(233.686 -437.535)" fill="#5e03af"/>
          <path id="Trazado_1045070" data-name="Trazado 1045070" d="M281.8,792.81a7.064,7.064,0,1,1-7.062-6.888,6.977,6.977,0,0,1,7.062,6.888" transform="translate(233.686 -418.037)" fill="#5e03af"/>
          <path id="Trazado_1045071" data-name="Trazado 1045071" d="M297.862,776.322a7.064,7.064,0,1,1-7.062-6.888,6.977,6.977,0,0,1,7.062,6.888" transform="translate(253.561 -437.535)" fill="#5e03af"/>
          <path id="Trazado_1045072" data-name="Trazado 1045072" d="M297.862,792.81a7.064,7.064,0,1,1-7.062-6.888,6.977,6.977,0,0,1,7.062,6.888" transform="translate(253.561 -418.037)" fill="#5e03af"/>
          <path id="Trazado_1045073" data-name="Trazado 1045073" d="M249.3,776.322a7.064,7.064,0,1,1-7.062-6.888,6.977,6.977,0,0,1,7.062,6.888" transform="translate(193.451 -437.535)" fill="#5e03af"/>
          <path id="Trazado_1045074" data-name="Trazado 1045074" d="M249.3,792.81a7.064,7.064,0,1,1-7.062-6.888,6.977,6.977,0,0,1,7.062,6.888" transform="translate(193.451 -418.037)" fill="#5e03af"/>
          <path id="Trazado_1045075" data-name="Trazado 1045075" d="M265.356,776.322a7.064,7.064,0,1,1-7.062-6.888,6.977,6.977,0,0,1,7.062,6.888" transform="translate(213.328 -437.535)" fill="#5e03af"/>
          <path id="Trazado_1045076" data-name="Trazado 1045076" d="M265.356,792.81a7.064,7.064,0,1,1-7.062-6.888,6.977,6.977,0,0,1,7.062,6.888" transform="translate(213.328 -418.037)" fill="#5e03af"/>
          <line id="Línea_827" data-name="Línea 827" y1="252.862" x2="259.25" transform="translate(-33.04 -74.749)" fill="none" stroke="#fff" stroke-linecap="round" stroke-miterlimit="10" stroke-width="3"/>
          <line id="Línea_828" data-name="Línea 828" y1="315.772" x2="323.75" transform="translate(464.15 458.503)" fill="none" stroke="#5e03af" stroke-linecap="round" stroke-miterlimit="10" stroke-width="3"/>
          <line id="Línea_829" data-name="Línea 829" y1="61.573" x2="63.128" transform="translate(988.815 380.142)" fill="none" stroke="#5e03af" stroke-linecap="round" stroke-miterlimit="10" stroke-width="3"/>
          <line id="Línea_830" data-name="Línea 830" y1="61.572" x2="63.13" transform="translate(189.953 0.374)" fill="none" stroke="#5e03af" stroke-linecap="round" stroke-miterlimit="10" stroke-width="3"/>
          <line id="Línea_831" data-name="Línea 831" y1="252.862" x2="259.25" transform="translate(1284.546 99.429)" fill="none" stroke="#fff" stroke-linecap="round" stroke-miterlimit="10" stroke-width="3"/>
          <line id="Línea_832" data-name="Línea 832" y1="442.718" x2="442.318" transform="translate(674.5 409.782)" fill="none" stroke="#fff" stroke-linecap="round" stroke-miterlimit="10" stroke-width="3"/>
          <line id="Línea_833" data-name="Línea 833" y1="315.772" x2="323.749" transform="translate(1179.474 17.552)" fill="none" stroke="#fd660a" stroke-linecap="round" stroke-miterlimit="10" stroke-width="3"/>
          <line id="Línea_834" data-name="Línea 834" x2="116.493" y2="114.129" transform="translate(1119.705 88.254)" fill="none" stroke="#fff" stroke-linecap="round" stroke-miterlimit="10" stroke-width="3"/>
          <line id="Línea_835" data-name="Línea 835" x2="85.04" y2="83.313" transform="translate(1187.51 49.683)" fill="none" stroke="#fff" stroke-linecap="round" stroke-miterlimit="10" stroke-width="3"/>
          <line id="Línea_836" data-name="Línea 836" x2="78.049" y2="76.464" transform="translate(1082.184 158.775)" fill="none" stroke="#fff" stroke-linecap="round" stroke-miterlimit="10" stroke-width="3"/>
          <line id="Línea_837" data-name="Línea 837" x2="78.049" y2="76.464" transform="translate(1011.983 224.671)" fill="none" stroke="#fff" stroke-linecap="round" stroke-miterlimit="10" stroke-width="3"/>
          <line id="Línea_838" data-name="Línea 838" x2="81.544" y2="79.889" transform="translate(1248.36 -11.678)" fill="none" stroke="#fff" stroke-linecap="round" stroke-miterlimit="10" stroke-width="3"/>
          <path id="Trazado_1045077" data-name="Trazado 1045077" d="M759.949,611.644c-13.974,37.73-5.605,79.275-3.645,119.345s-5.961,85.9-40.355,107.9c-23.082,14.761-52.826,15.04-80.146,11.218s-54.419-11.232-81.992-10.044-56.959,13.311-68.492,37.769" transform="translate(503.059 -624.133)" fill="none" stroke="#fff" stroke-linecap="round" stroke-miterlimit="10" stroke-width="3"/>
          <path id="Trazado_1045078" data-name="Trazado 1045078" d="M791.211,643.322c-38.744,13.462-81.3,5.116-122.376,3.025s-88.1,5.43-110.8,38.88c-15.236,22.448-15.655,51.454-11.86,78.121s11.276,53.126,9.936,80.015-13.9,55.5-39.028,66.634" transform="translate(542.37 -586.671)" fill="none" stroke="#fff" stroke-linecap="round" stroke-miterlimit="10" stroke-width="3"/>
          <path id="Trazado_1045079" data-name="Trazado 1045079" d="M563.377,663.915a14.489,14.489,0,1,1-14.453-14.158,14.312,14.312,0,0,1,14.453,14.158" transform="translate(563.816 -579.062)" fill="#3cd2fa"/>
          <path id="Trazado_1045080" data-name="Trazado 1045080" d="M521.495,728a14.489,14.489,0,1,1-14.453-14.158A14.313,14.313,0,0,1,521.495,728" transform="translate(511.978 -503.28)" fill="#3cd2fa"/>
          <path id="Trazado_1045081" data-name="Trazado 1045081" d="M617.777,718.559A14.489,14.489,0,1,1,603.324,704.4a14.313,14.313,0,0,1,14.453,14.158" transform="translate(631.149 -514.441)" fill="#3cd2fa"/>
          <path id="Trazado_1045082" data-name="Trazado 1045082" d="M628.166,621.8a14.489,14.489,0,1,1-14.451-14.158A14.309,14.309,0,0,1,628.166,621.8" transform="translate(644.007 -628.869)" fill="#3cd2fa"/>
          <path id="Trazado_1045083" data-name="Trazado 1045083" d="M662.482,655.249a14.489,14.489,0,1,1-14.451-14.158,14.313,14.313,0,0,1,14.451,14.158" transform="translate(686.48 -589.31)" fill="#3cd2fa"/>
          <path id="Trazado_1045084" data-name="Trazado 1045084" d="M553.252,758.639A14.489,14.489,0,1,1,538.8,744.481a14.313,14.313,0,0,1,14.451,14.158" transform="translate(551.285 -467.044)" fill="#3cd2fa"/>
          <path id="Trazado_1045085" data-name="Trazado 1045085" d="M582.012,730.219a14.489,14.489,0,1,1-14.451-14.158,14.313,14.313,0,0,1,14.451,14.158" transform="translate(586.882 -500.654)" fill="#b081de"/>
          <path id="Trazado_1045086" data-name="Trazado 1045086" d="M598.885,650.952a14.489,14.489,0,1,1-14.453-14.16,14.31,14.31,0,0,1,14.453,14.16" transform="translate(607.765 -594.395)" fill="#b081de"/>
          <path id="Trazado_1045087" data-name="Trazado 1045087" d="M552.3,699.472a14.489,14.489,0,1,1-14.453-14.16,14.311,14.311,0,0,1,14.453,14.16" transform="translate(550.107 -537.015)" fill="#b081de"/>
          <path id="Trazado_1045088" data-name="Trazado 1045088" d="M631.64,684a14.489,14.489,0,1,1-14.451-14.158A14.309,14.309,0,0,1,631.64,684" transform="translate(648.307 -555.316)" fill="#b081de"/>
          <path id="Trazado_1045089" data-name="Trazado 1045089" d="M323.115,889.4l-17.9-1.552A42.185,42.185,0,0,0,303.277,876l17.794-5.371a2.451,2.451,0,0,0,1.66-3.069,2.538,2.538,0,0,0-3.148-1.619l-18.04,5.445a43.453,43.453,0,0,0-6.416-10.23L310.1,848.94a2.418,2.418,0,0,0,.316-3.455,2.565,2.565,0,0,0-3.542-.305l-15.143,12.358a44.563,44.563,0,0,0-9.336-6.8l9.423-17.43A2.43,2.43,0,0,0,290.762,830a2.554,2.554,0,0,0-3.4,1.026l-9.495,17.559a45.439,45.439,0,0,0-11.365-2.994l1.826-20.045a2.481,2.481,0,0,0-2.282-2.661,2.508,2.508,0,0,0-2.73,2.226l-1.83,20.112a45.482,45.482,0,0,0-11.294,1.185l-6.125-19.3a2.535,2.535,0,0,0-3.146-1.617,2.448,2.448,0,0,0-1.658,3.069l6.111,19.263a45.106,45.106,0,0,0-10.408,5.3l-13.135-15.313a2.568,2.568,0,0,0-3.545-.308,2.42,2.42,0,0,0-.313,3.457l13.048,15.21a43.96,43.96,0,0,0-8.078,9.241l-17.758-8.7a2.552,2.552,0,0,0-3.377,1.091,2.432,2.432,0,0,0,1.119,3.293l17.559,8.6a42.57,42.57,0,0,0-3.621,10.5l-19.023-1.648a2.5,2.5,0,0,0-2.728,2.226,2.478,2.478,0,0,0,2.282,2.66l18.765,1.626a42.44,42.44,0,0,0,.649,11.9l-17.371,5.245a2.45,2.45,0,0,0-1.66,3.069,2.535,2.535,0,0,0,3.146,1.619l17.112-5.166a42.983,42.983,0,0,0,5.623,11.356L210.415,923.9a2.42,2.42,0,0,0-.316,3.457,2.568,2.568,0,0,0,3.545.308l13.073-10.671a44.437,44.437,0,0,0,9.694,8.274L228.7,939.528a2.429,2.429,0,0,0,1.052,3.313,2.551,2.551,0,0,0,3.4-1.026l7.637-14.123a45.174,45.174,0,0,0,12.822,3.983L252.184,947.3a2.515,2.515,0,0,0,5.01.434l1.419-15.555a45.535,45.535,0,0,0,13.111-1.316l4.719,14.879a2.537,2.537,0,0,0,3.148,1.617,2.449,2.449,0,0,0,1.658-3.069l-4.733-14.913a44.949,44.949,0,0,0,11.723-6.511l10.441,12.17a2.563,2.563,0,0,0,3.542.308,2.42,2.42,0,0,0,.316-3.457l-10.528-12.27a43.584,43.584,0,0,0,8.215-10.878l15.1,7.392a2.55,2.55,0,0,0,3.377-1.091,2.435,2.435,0,0,0-1.119-3.293l-15.3-7.493a42.57,42.57,0,0,0,2.743-11.485l17.644,1.53a2.508,2.508,0,0,0,2.728-2.228,2.479,2.479,0,0,0-2.282-2.661" transform="translate(143.859 -374.34)" fill="#3cd2fa"/>
          <path id="Trazado_1045090" data-name="Trazado 1045090" d="M265.218,859.63a7.25,7.25,0,0,1-7.915,6.46,7.171,7.171,0,0,1-6.624-7.722,7.245,7.245,0,0,1,7.915-6.458,7.172,7.172,0,0,1,6.624,7.72" transform="translate(212.607 -340.035)" fill="#3cd2fa"/>
          <path id="Trazado_1045091" data-name="Trazado 1045091" d="M207.886,843.427a7.248,7.248,0,0,1-7.915,6.461,7.169,7.169,0,0,1-6.624-7.72,7.245,7.245,0,0,1,7.915-6.46,7.17,7.17,0,0,1,6.624,7.72" transform="translate(141.647 -359.196)" fill="#7958fb"/>
          <path id="Trazado_1045092" data-name="Trazado 1045092" d="M237.99,826.726a7.248,7.248,0,0,1-7.915,6.46,7.169,7.169,0,0,1-6.624-7.72,7.245,7.245,0,0,1,7.915-6.46,7.17,7.17,0,0,1,6.624,7.72" transform="translate(178.907 -378.946)" fill="#7958fb"/>
          <path id="Trazado_1045093" data-name="Trazado 1045093" d="M258.823,868.186a4.809,4.809,0,0,1-5.252,4.286,4.76,4.76,0,0,1-4.4-5.122,4.813,4.813,0,0,1,5.254-4.289,4.76,4.76,0,0,1,4.395,5.125" transform="translate(210.756 -326.836)" fill="#3cd2fa"/>
          <path id="Trazado_1045094" data-name="Trazado 1045094" d="M204.464,864.061a4.81,4.81,0,0,1-5.254,4.286,4.76,4.76,0,0,1-4.395-5.122,4.813,4.813,0,0,1,5.254-4.289,4.76,4.76,0,0,1,4.395,5.125" transform="translate(143.475 -331.715)" fill="#3cd2fa"/>
          <path id="Trazado_1045095" data-name="Trazado 1045095" d="M254.161,835.667a4.742,4.742,0,0,1-4.055,5.384,4.829,4.829,0,0,1-5.52-3.955,4.741,4.741,0,0,1,4.055-5.384,4.827,4.827,0,0,1,5.52,3.955" transform="translate(205.032 -363.952)" fill="#7958fb"/>
          <path id="Trazado_1045096" data-name="Trazado 1045096" d="M224.241,826.777a5.88,5.88,0,0,1-5.03,6.674,5.986,5.986,0,0,1-6.843-4.9,5.881,5.881,0,0,1,5.028-6.674,5.987,5.987,0,0,1,6.845,4.9" transform="translate(165.138 -375.603)" fill="#7958fb"/>
          <path id="Trazado_1045097" data-name="Trazado 1045097" d="M683.415,850.828l-17.9-1.552a42.257,42.257,0,0,0-1.936-11.851l17.794-5.371a2.453,2.453,0,0,0,1.66-3.069,2.538,2.538,0,0,0-3.148-1.619l-18.041,5.445a43.461,43.461,0,0,0-6.416-10.23L670.4,810.363a2.418,2.418,0,0,0,.316-3.455,2.566,2.566,0,0,0-3.542-.306L652.026,818.96a44.55,44.55,0,0,0-9.336-6.8l9.423-17.43a2.43,2.43,0,0,0-1.052-3.313,2.554,2.554,0,0,0-3.4,1.026l-9.495,17.559a45.437,45.437,0,0,0-11.365-2.995l1.826-20.045a2.48,2.48,0,0,0-2.282-2.661,2.508,2.508,0,0,0-2.73,2.226l-1.833,20.112a45.487,45.487,0,0,0-11.291,1.185l-6.125-19.3a2.535,2.535,0,0,0-3.146-1.617,2.448,2.448,0,0,0-1.658,3.069l6.111,19.263a45.106,45.106,0,0,0-10.408,5.3L582.132,799.23a2.568,2.568,0,0,0-3.545-.308,2.42,2.42,0,0,0-.313,3.457l13.048,15.21a43.957,43.957,0,0,0-8.078,9.241l-17.759-8.7a2.552,2.552,0,0,0-3.377,1.091,2.433,2.433,0,0,0,1.119,3.294l17.559,8.6a42.564,42.564,0,0,0-3.621,10.5l-19.023-1.648a2.454,2.454,0,1,0-.445,4.887l18.765,1.626a42.445,42.445,0,0,0,.649,11.9l-17.371,5.245a2.45,2.45,0,0,0-1.66,3.069,2.537,2.537,0,0,0,3.146,1.619l17.112-5.166a42.986,42.986,0,0,0,5.623,11.356l-13.247,10.81a2.42,2.42,0,0,0-.316,3.457,2.568,2.568,0,0,0,3.545.308l13.073-10.67a44.435,44.435,0,0,0,9.694,8.274L589,900.951a2.427,2.427,0,0,0,1.052,3.313,2.551,2.551,0,0,0,3.4-1.026l7.637-14.123a45.174,45.174,0,0,0,12.822,3.983l-1.423,15.621a2.515,2.515,0,0,0,5.01.434l1.419-15.555a45.53,45.53,0,0,0,13.111-1.316l4.719,14.879a2.535,2.535,0,0,0,3.146,1.617,2.448,2.448,0,0,0,1.66-3.069L636.817,890.8a44.954,44.954,0,0,0,11.723-6.511l10.441,12.17a2.564,2.564,0,0,0,3.542.308,2.42,2.42,0,0,0,.316-3.457l-10.528-12.27a43.581,43.581,0,0,0,8.215-10.878l15.1,7.392A2.55,2.55,0,0,0,679,876.458a2.435,2.435,0,0,0-1.119-3.294l-15.3-7.493a42.572,42.572,0,0,0,2.743-11.485l17.644,1.53a2.507,2.507,0,0,0,2.728-2.228,2.479,2.479,0,0,0-2.282-2.661" transform="translate(642.612 -159.308)" fill="#3cd2fa"/>
          <path id="Trazado_1045098" data-name="Trazado 1045098" d="M582.156,843.657a7.247,7.247,0,0,1-7.915,6.46,7.168,7.168,0,0,1-6.624-7.72,7.245,7.245,0,0,1,7.915-6.46,7.172,7.172,0,0,1,6.624,7.72" transform="translate(657.69 -98.272)" fill="#5cddfd"/>
          <path id="Trazado_1045099" data-name="Trazado 1045099" d="M625.519,821.053a7.248,7.248,0,0,1-7.915,6.46,7.169,7.169,0,0,1-6.624-7.72,7.245,7.245,0,0,1,7.915-6.461,7.172,7.172,0,0,1,6.624,7.72" transform="translate(711.361 -125.002)" fill="#5cddfd"/>
          <path id="Trazado_1045100" data-name="Trazado 1045100" d="M568.186,804.85a7.248,7.248,0,0,1-7.915,6.46,7.169,7.169,0,0,1-6.624-7.72,7.245,7.245,0,0,1,7.915-6.46,7.17,7.17,0,0,1,6.624,7.72" transform="translate(640.399 -144.164)" fill="#5cddfd"/>
          <path id="Trazado_1045101" data-name="Trazado 1045101" d="M598.29,788.149a7.248,7.248,0,0,1-7.915,6.46,7.169,7.169,0,0,1-6.624-7.72,7.245,7.245,0,0,1,7.915-6.46,7.172,7.172,0,0,1,6.624,7.72" transform="translate(677.659 -163.914)" fill="#5cddfd"/>
          <path id="Trazado_1045102" data-name="Trazado 1045102" d="M604.745,847.38a7.249,7.249,0,0,1-7.917,6.46,7.168,7.168,0,0,1-6.621-7.72,7.245,7.245,0,0,1,7.915-6.46,7.172,7.172,0,0,1,6.624,7.72" transform="translate(685.649 -93.869)" fill="#5cddfd"/>
          <path id="Trazado_1045103" data-name="Trazado 1045103" d="M619.123,829.609a4.809,4.809,0,0,1-5.252,4.287,4.76,4.76,0,0,1-4.4-5.122,4.813,4.813,0,0,1,5.254-4.289,4.76,4.76,0,0,1,4.395,5.125" transform="translate(709.508 -111.804)" fill="#5cddfd"/>
          <path id="Trazado_1045104" data-name="Trazado 1045104" d="M564.764,825.484a4.809,4.809,0,0,1-5.252,4.287,4.76,4.76,0,0,1-4.4-5.122,4.813,4.813,0,0,1,5.254-4.289,4.76,4.76,0,0,1,4.395,5.125" transform="translate(642.228 -116.682)" fill="#5cddfd"/>
          <path id="Trazado_1045105" data-name="Trazado 1045105" d="M589.209,845.743a4.81,4.81,0,0,1-5.254,4.287,4.76,4.76,0,0,1-4.395-5.123,4.813,4.813,0,0,1,5.254-4.289,4.761,4.761,0,0,1,4.395,5.125" transform="translate(672.484 -92.725)" fill="#5cddfd"/>
          <path id="Trazado_1045106" data-name="Trazado 1045106" d="M614.461,797.09a4.741,4.741,0,0,1-4.055,5.384,4.829,4.829,0,0,1-5.521-3.955,4.742,4.742,0,0,1,4.055-5.385,4.827,4.827,0,0,1,5.52,3.955" transform="translate(703.785 -148.92)" fill="#5cddfd"/>
          <path id="Trazado_1045107" data-name="Trazado 1045107" d="M584.54,788.2a5.879,5.879,0,0,1-5.028,6.674,5.985,5.985,0,0,1-6.843-4.9A5.88,5.88,0,0,1,577.7,783.3a5.985,5.985,0,0,1,6.843,4.9" transform="translate(663.892 -160.571)" fill="#5cddfd"/>
          <path id="Trazado_1045108" data-name="Trazado 1045108" d="M119.948,781.76c0-14.759-12.267-26.723-27.4-26.723S65.151,767,65.151,781.76A26.726,26.726,0,0,0,81.934,806.4v73.276h21.234V806.4a26.727,26.727,0,0,0,16.781-24.639" transform="translate(-16.987 -454.562)" fill="#b081de"/>
          <path id="Trazado_1045109" data-name="Trazado 1045109" d="M167.987,810.921a18.437,18.437,0,0,0,0-26.534,19.582,19.582,0,0,0-27.2,0,18.428,18.428,0,0,0-4.209,20.359l-37.3,36.377,10.542,10.282,37.3-36.377a19.6,19.6,0,0,0,20.873-4.108" transform="translate(25.25 -426.35)" fill="#b081de"/>
          <path id="Trazado_1045110" data-name="Trazado 1045110" d="M159,853.421a12.6,12.6,0,1,0,0-25.2,12.927,12.927,0,0,0-11.911,7.718H111.671v9.763h35.414A12.925,12.925,0,0,0,159,853.421" transform="translate(40.592 -368.011)" fill="#b081de"/>
          <path id="Trazado_1045111" data-name="Trazado 1045111" d="M149.952,945.783a30.111,30.111,0,0,0,41.832,0,28.352,28.352,0,0,0,0-40.8,30.135,30.135,0,0,0-32.1-6.314l-57.35-55.939-16.21,15.808,57.352,55.939a28.34,28.34,0,0,0,6.474,31.307" transform="translate(8.974 -350.86)" fill="#b081de"/>
          <path id="Trazado_1045112" data-name="Trazado 1045112" d="M33.187,888.409a14.59,14.59,0,0,0,0,21,15.5,15.5,0,0,0,21.529,0A14.582,14.582,0,0,0,58.048,893.3l29.518-28.79-8.342-8.137-29.518,28.79a15.506,15.506,0,0,0-16.519,3.25" transform="translate(-62.067 -334.728)" fill="#b081de"/>
          <path id="Trazado_1045113" data-name="Trazado 1045113" d="M54.654,790.495a14.869,14.869,0,0,0-20.656,0,14,14,0,0,0,0,20.147,14.884,14.884,0,0,0,15.85,3.117l28.318,27.623,8-7.807-28.318-27.62a13.994,13.994,0,0,0-3.2-15.459" transform="translate(-60.84 -417.563)" fill="#b081de"/>
          <path id="Trazado_1045114" data-name="Trazado 1045114" d="M119.948,781.76c0-14.759-12.267-26.723-27.4-26.723S65.151,767,65.151,781.76A26.726,26.726,0,0,0,81.934,806.4v73.276h21.234V806.4a26.727,26.727,0,0,0,16.781-24.639" transform="translate(-16.987 -249.562)" fill="#d6ccfe"/>
          <path id="Trazado_1045115" data-name="Trazado 1045115" d="M203.052,847.581a26.5,26.5,0,0,0,14.8-34.928c-5.8-13.63-21.836-20.093-35.81-14.433a26.73,26.73,0,0,0-16.9,24.565L95.761,850.879,103.9,870l69.385-28.094a27.912,27.912,0,0,0,29.766,5.67" transform="translate(20.9 -200.918)" fill="#d6ccfe"/>
          <path id="Trazado_1045116" data-name="Trazado 1045116" d="M167.987,810.921a18.437,18.437,0,0,0,0-26.534,19.582,19.582,0,0,0-27.2,0,18.428,18.428,0,0,0-4.209,20.359l-37.3,36.377,10.542,10.282,37.3-36.377a19.6,19.6,0,0,0,20.873-4.108" transform="translate(25.25 -221.35)" fill="#d6ccfe"/>
          <path id="Trazado_1045117" data-name="Trazado 1045117" d="M19.985,860.7A18.593,18.593,0,0,0,9.816,885.307a19.422,19.422,0,0,0,25.232,9.918,18.758,18.758,0,0,0,11.705-17.349L95.29,857.732l-5.838-13.379L40.918,864.5a19.6,19.6,0,0,0-20.934-3.8" transform="translate(-87.382 -143.938)" fill="#d6ccfe"/>
          <path id="Trazado_1045118" data-name="Trazado 1045118" d="M159,853.421a12.6,12.6,0,1,0,0-25.2,12.927,12.927,0,0,0-11.911,7.718H111.671v9.763h35.414A12.925,12.925,0,0,0,159,853.421" transform="translate(40.592 -163.011)" fill="#d6ccfe"/>
          <path id="Trazado_1045119" data-name="Trazado 1045119" d="M149.952,945.783a30.111,30.111,0,0,0,41.832,0,28.352,28.352,0,0,0,0-40.8,30.135,30.135,0,0,0-32.1-6.314l-57.35-55.939-16.21,15.808,57.352,55.939a28.34,28.34,0,0,0,6.474,31.307" transform="translate(8.974 -145.86)" fill="#d6ccfe"/>
          <path id="Trazado_1045120" data-name="Trazado 1045120" d="M44.264,797.689c-15.084-6.118-32.4.849-38.67,15.562a28.6,28.6,0,0,0,15.957,37.717,30.133,30.133,0,0,0,32.138-6.1l74.892,30.373,8.8-20.645L62.49,824.221a28.853,28.853,0,0,0-18.226-26.531" transform="translate(-93.516 -201.745)" fill="#d6ccfe"/>
          <path id="Trazado_1045121" data-name="Trazado 1045121" d="M76.675,773.266a20.878,20.878,0,0,0-27.607-9.25,19.907,19.907,0,0,0-9.483,26.924A20.734,20.734,0,0,0,59.3,802.207l24.845,49.6,14.371-6.849-24.845-49.6a19.749,19.749,0,0,0,3.005-22.092" transform="translate(-51.23 -241.365)" fill="#d6ccfe"/>
          <path id="Trazado_1045122" data-name="Trazado 1045122" d="M33.187,888.409a14.59,14.59,0,0,0,0,21,15.5,15.5,0,0,0,21.529,0A14.582,14.582,0,0,0,58.048,893.3l29.518-28.79-8.342-8.137-29.518,28.79a15.506,15.506,0,0,0-16.519,3.25" transform="translate(-62.067 -129.728)" fill="#d6ccfe"/>
          <path id="Trazado_1045123" data-name="Trazado 1045123" d="M54.654,790.495a14.869,14.869,0,0,0-20.656,0,14,14,0,0,0,0,20.147,14.884,14.884,0,0,0,15.85,3.117l28.318,27.623,8-7.807-28.318-27.62a13.994,13.994,0,0,0-3.2-15.459" transform="translate(-60.84 -212.563)" fill="#d6ccfe"/>
          <path id="Trazado_1045124" data-name="Trazado 1045124" d="M127.94,793.677a14.118,14.118,0,0,0-7.758-18.67,14.743,14.743,0,0,0-19.144,7.567,14,14,0,0,0,2.99,15.5L88.422,834.046l10.425,4.3,15.606-35.973a14.624,14.624,0,0,0,13.487-8.7" transform="translate(11.816 -227.281)" fill="#d6ccfe"/>
          <path id="Trazado_1045125" data-name="Trazado 1045125" d="M156,879.716a14.709,14.709,0,0,0,18.714-8.527,14.152,14.152,0,0,0-8.743-18.253,14.861,14.861,0,0,0-15.711,3.717L112.614,843.32,108.749,853.7l37.643,13.336a14.288,14.288,0,0,0,9.6,12.685" transform="translate(36.975 -145.16)" fill="#d6ccfe"/>
          <path id="Trazado_1045126" data-name="Trazado 1045126" d="M241.333,889.78c0,56.86-47.258,102.954-105.555,102.954S30.225,946.641,30.225,889.78,77.483,786.826,135.778,786.826,241.333,832.92,241.333,889.78" transform="translate(-60.215 -211.968)" fill="#d6ccfe"/>
          <path id="Trazado_1045127" data-name="Trazado 1045127" d="M123.536,823.75c0,13.7-11.392,24.814-25.441,24.814S72.65,837.454,72.65,823.75,84.042,798.936,98.1,798.936s25.441,11.109,25.441,24.814" transform="translate(-7.705 -197.647)" fill="#5e03af"/>
          <path id="Trazado_1045128" data-name="Trazado 1045128" d="M119.964,834.84a10.347,10.347,0,1,1-10.343-10.088,10.22,10.22,0,0,1,10.343,10.088" transform="translate(25.25 -167.118)" fill="#5e03af"/>
          <path id="Trazado_1045129" data-name="Trazado 1045129" d="M117.13,865.414a12.5,12.5,0,1,1-12.493-12.185,12.342,12.342,0,0,1,12.493,12.185" transform="translate(16.419 -133.442)" fill="#5e03af"/>
          <path id="Trazado_1045130" data-name="Trazado 1045130" d="M112.137,855.94c0,18.925-15.729,34.264-35.13,34.264S41.875,874.865,41.875,855.94,57.6,821.674,77.007,821.674s35.13,15.341,35.13,34.266" transform="translate(-45.795 -170.757)" fill="#5e03af"/>
          <path id="Trazado_1045131" data-name="Trazado 1045131" d="M65.563,815.529a7.223,7.223,0,1,1-7.221-7.043,7.134,7.134,0,0,1,7.221,7.043" transform="translate(-34.352 -186.353)" fill="#5e03af"/>
          <path id="Trazado_1045132" data-name="Trazado 1045132" d="M99.925,774.964a13.33,13.33,0,1,1-13.326-13,13.164,13.164,0,0,1,13.326,13" transform="translate(-6.933 -241.365)" fill="#5e03af"/>
          <path id="Trazado_1045133" data-name="Trazado 1045133" d="M56.979,774.421a6.665,6.665,0,1,1-6.664-6.5,6.582,6.582,0,0,1,6.664,6.5" transform="translate(-43.595 -234.324)" fill="#5e03af"/>
          <path id="Trazado_1045134" data-name="Trazado 1045134" d="M149,815.613a8.252,8.252,0,1,1-8.25-8.047,8.151,8.151,0,0,1,8.25,8.047" transform="translate(66.372 -187.441)" fill="#5e03af"/>
          <path id="Trazado_1045135" data-name="Trazado 1045135" d="M134.391,789.375a5.935,5.935,0,1,1-5.932-5.786,5.861,5.861,0,0,1,5.932,5.786" transform="translate(54.025 -215.796)" fill="#5e03af"/>
          <path id="Trazado_1045136" data-name="Trazado 1045136" d="M144.483,837.862a5.993,5.993,0,1,1-5.99-5.843,5.92,5.92,0,0,1,5.99,5.843" transform="translate(66.372 -158.524)" fill="#5e03af"/>
          <path id="Trazado_1045137" data-name="Trazado 1045137" d="M127.561,849.991a10.484,10.484,0,1,1-10.481-10.223,10.354,10.354,0,0,1,10.481,10.223" transform="translate(34.315 -149.36)" fill="#5e03af"/>
          <path id="Trazado_1045138" data-name="Trazado 1045138" d="M104.307,844.022a9.565,9.565,0,1,1-9.562-9.326,9.446,9.446,0,0,1,9.562,9.326" transform="translate(7.808 -155.358)" fill="#5e03af"/>
          <path id="Trazado_1045139" data-name="Trazado 1045139" d="M71.39,803.826a5.015,5.015,0,1,1-5.012-4.891,4.952,4.952,0,0,1,5.012,4.891" transform="translate(-21.675 -197.648)" fill="#5e03af"/>
          <path id="Trazado_1045140" data-name="Trazado 1045140" d="M463.183,750.884a18.227,18.227,0,0,0-36.443,0A17.779,17.779,0,0,0,437.9,767.271V816h14.12V767.271a17.775,17.775,0,0,0,11.162-16.387" transform="translate(430.555 -480.489)" fill="#5e03af"/>
          <path id="Trazado_1045141" data-name="Trazado 1045141" d="M495.132,770.279a12.264,12.264,0,0,0,0-17.646,13.021,13.021,0,0,0-18.092,0,12.258,12.258,0,0,0-2.8,13.538l-24.8,24.194,7.008,6.838,24.805-24.194a13.032,13.032,0,0,0,13.883-2.73" transform="translate(458.647 -461.727)" fill="#5e03af"/>
          <path id="Trazado_1045142" data-name="Trazado 1045142" d="M489.152,798.543a8.38,8.38,0,1,0,0-16.756,8.6,8.6,0,0,0-7.919,5.131H457.679v6.493h23.554a8.594,8.594,0,0,0,7.919,5.131" transform="translate(468.849 -422.927)" fill="#5e03af"/>
          <path id="Trazado_1045143" data-name="Trazado 1045143" d="M483.138,859.969a20.027,20.027,0,0,0,27.821,0,18.857,18.857,0,0,0,0-27.136,20.042,20.042,0,0,0-21.348-4.2l-38.142-37.2-10.781,10.513,38.144,37.206a18.841,18.841,0,0,0,4.305,20.817" transform="translate(447.82 -411.521)" fill="#5e03af"/>
          <path id="Trazado_1045144" data-name="Trazado 1045144" d="M428.785,857.185a13.649,13.649,0,0,0,27.289,0,13.307,13.307,0,0,0-8.358-12.27V808.42H437.143v36.495a13.31,13.31,0,0,0-8.358,12.27" transform="translate(433.087 -391.431)" fill="#5e03af"/>
          <path id="Trazado_1045145" data-name="Trazado 1045145" d="M405.482,821.813a9.7,9.7,0,0,0,0,13.966,10.307,10.307,0,0,0,14.319,0,9.7,9.7,0,0,0,2.215-10.716l19.631-19.148-5.547-5.411L416.47,819.653a10.316,10.316,0,0,0-10.987,2.161" transform="translate(400.574 -400.791)" fill="#5e03af"/>
          <path id="Trazado_1045146" data-name="Trazado 1045146" d="M397.168,779.477a13.424,13.424,0,1,0,0,26.839,13.77,13.77,0,0,0,12.686-8.219h37.728V787.7H409.854a13.77,13.77,0,0,0-12.686-8.22" transform="translate(376.927 -425.659)" fill="#5e03af"/>
          <path id="Trazado_1045147" data-name="Trazado 1045147" d="M419.759,756.693a9.889,9.889,0,0,0-13.737,0,9.311,9.311,0,0,0,0,13.4,9.9,9.9,0,0,0,10.54,2.073L435.4,790.536l5.324-5.192-18.835-18.371a9.306,9.306,0,0,0-2.126-10.28" transform="translate(401.391 -455.883)" fill="#5e03af"/>
          <path id="Trazado_1045148" data-name="Trazado 1045148" d="M463.183,750.884a18.227,18.227,0,0,0-36.443,0A17.779,17.779,0,0,0,437.9,767.271V816h14.12V767.271a17.775,17.775,0,0,0,11.162-16.387" transform="translate(430.555 -480.489)" fill="#5e03af"/>
          <path id="Trazado_1045149" data-name="Trazado 1045149" d="M518.453,794.659a17.617,17.617,0,0,0,9.842-23.229,18.387,18.387,0,0,0-23.814-9.6,17.775,17.775,0,0,0-11.238,16.337L447.1,796.853l5.415,12.72,46.144-18.685a18.564,18.564,0,0,0,19.8,3.771" transform="translate(455.752 -448.137)" fill="#5e03af"/>
          <path id="Trazado_1045150" data-name="Trazado 1045150" d="M495.132,770.279a12.264,12.264,0,0,0,0-17.646,13.021,13.021,0,0,0-18.092,0,12.258,12.258,0,0,0-2.8,13.538l-24.8,24.194,7.008,6.838,24.805-24.194a13.032,13.032,0,0,0,13.883-2.73" transform="translate(458.647 -461.727)" fill="#5e03af"/>
          <path id="Trazado_1045151" data-name="Trazado 1045151" d="M396.7,803.382a12.367,12.367,0,0,0-6.762,16.367,12.916,12.916,0,0,0,16.781,6.6,12.468,12.468,0,0,0,7.785-11.537l32.279-13.4-3.882-8.9-32.277,13.4a13.037,13.037,0,0,0-13.923-2.527" transform="translate(383.738 -410.243)" fill="#5e03af"/>
          <path id="Trazado_1045152" data-name="Trazado 1045152" d="M413.417,845.168a12.371,12.371,0,0,0,6.93,16.3,12.911,12.911,0,0,0,16.713-6.759,12.261,12.261,0,0,0-2.732-13.554l13.411-31.615-9.161-3.7-13.411,31.617a12.8,12.8,0,0,0-11.75,7.709" transform="translate(412.859 -394.48)" fill="#5e03af"/>
          <path id="Trazado_1045153" data-name="Trazado 1045153" d="M489.152,798.543a8.38,8.38,0,1,0,0-16.756,8.6,8.6,0,0,0-7.919,5.131H457.679v6.493h23.554a8.594,8.594,0,0,0,7.919,5.131" transform="translate(468.849 -422.927)" fill="#5e03af"/>
          <path id="Trazado_1045154" data-name="Trazado 1045154" d="M483.138,859.969a20.027,20.027,0,0,0,27.821,0,18.857,18.857,0,0,0,0-27.136,20.042,20.042,0,0,0-21.348-4.2l-38.142-37.2-10.781,10.513,38.144,37.206a18.841,18.841,0,0,0,4.305,20.817" transform="translate(447.82 -411.521)" fill="#5e03af"/>
          <path id="Trazado_1045155" data-name="Trazado 1045155" d="M412.849,761.479a19.853,19.853,0,0,0-25.718,10.35,19.023,19.023,0,0,0,10.611,25.084,20.041,20.041,0,0,0,21.375-4.06l49.809,20.2,5.854-13.731-49.809-20.2a19.187,19.187,0,0,0-12.122-17.644" transform="translate(379.658 -448.688)" fill="#5e03af"/>
          <path id="Trazado_1045156" data-name="Trazado 1045156" d="M434.4,745.236a13.887,13.887,0,0,0-18.36-6.153,13.241,13.241,0,0,0-6.306,17.908,13.788,13.788,0,0,0,13.111,7.493l16.523,32.985,9.557-4.555-16.523-32.985a13.134,13.134,0,0,0,2-14.693" transform="translate(407.781 -475.038)" fill="#5e03af"/>
          <path id="Trazado_1045157" data-name="Trazado 1045157" d="M428.785,857.185a13.649,13.649,0,0,0,27.289,0,13.307,13.307,0,0,0-8.358-12.27V808.42H437.143v36.495a13.31,13.31,0,0,0-8.358,12.27" transform="translate(433.087 -391.431)" fill="#5e03af"/>
          <path id="Trazado_1045158" data-name="Trazado 1045158" d="M405.482,821.813a9.7,9.7,0,0,0,0,13.966,10.307,10.307,0,0,0,14.319,0,9.7,9.7,0,0,0,2.215-10.716l19.631-19.148-5.547-5.411L416.47,819.653a10.316,10.316,0,0,0-10.987,2.161" transform="translate(400.574 -400.791)" fill="#5e03af"/>
          <path id="Trazado_1045159" data-name="Trazado 1045159" d="M397.168,779.477a13.424,13.424,0,1,0,0,26.839,13.77,13.77,0,0,0,12.686-8.219h37.728V787.7H409.854a13.77,13.77,0,0,0-12.686-8.22" transform="translate(376.927 -425.659)" fill="#5e03af"/>
          <path id="Trazado_1045160" data-name="Trazado 1045160" d="M419.759,756.693a9.889,9.889,0,0,0-13.737,0,9.311,9.311,0,0,0,0,13.4,9.9,9.9,0,0,0,10.54,2.073L435.4,790.536l5.324-5.192-18.835-18.371a9.306,9.306,0,0,0-2.126-10.28" transform="translate(401.391 -455.883)" fill="#5e03af"/>
          <path id="Trazado_1045161" data-name="Trazado 1045161" d="M468.5,758.81a9.389,9.389,0,0,0-5.16-12.417,9.8,9.8,0,0,0-12.73,5.033,9.3,9.3,0,0,0,1.987,10.306l-10.378,23.925,6.932,2.861,10.381-23.925a9.723,9.723,0,0,0,8.969-5.784" transform="translate(449.71 -465.671)" fill="#5e03af"/>
          <path id="Trazado_1045162" data-name="Trazado 1045162" d="M487.157,816.032a9.785,9.785,0,0,0,12.446-5.67,9.412,9.412,0,0,0-5.813-12.139,9.883,9.883,0,0,0-10.45,2.473l-25.036-8.87-2.569,6.9,25.036,8.87a9.5,9.5,0,0,0,6.386,8.436" transform="translate(466.443 -411.056)" fill="#5e03af"/>
          <path id="Trazado_1045163" data-name="Trazado 1045163" d="M447.4,836.821a8.006,8.006,0,0,0,10.242,4.507,7.7,7.7,0,0,0,4.621-9.99,7.936,7.936,0,0,0-7.143-5l-7.707-19.872-5.758,2.124,7.7,19.874a7.616,7.616,0,0,0-1.96,8.361" transform="translate(449.022 -393.748)" fill="#5e03af"/>
          <path id="Trazado_1045164" data-name="Trazado 1045164" d="M543.912,822.725c0,37.815-31.429,68.469-70.2,68.469s-70.2-30.654-70.2-68.469,31.431-68.472,70.2-68.472,70.2,30.656,70.2,68.472" transform="translate(401.805 -455.488)" fill="#5e03af"/>
          <path id="Trazado_1045165" data-name="Trazado 1045165" d="M465.568,778.811a16.926,16.926,0,1,1-16.919-16.5,16.714,16.714,0,0,1,16.919,16.5" transform="translate(436.728 -445.962)" fill="#b081de"/>
          <path id="Trazado_1045166" data-name="Trazado 1045166" d="M463.195,786.186a6.882,6.882,0,1,1-6.879-6.709,6.795,6.795,0,0,1,6.879,6.709" transform="translate(458.645 -425.659)" fill="#b081de"/>
          <path id="Trazado_1045167" data-name="Trazado 1045167" d="M461.309,806.52a8.312,8.312,0,1,1-8.309-8.1,8.207,8.207,0,0,1,8.309,8.1" transform="translate(452.771 -403.262)" fill="#b081de"/>
          <path id="Trazado_1045168" data-name="Trazado 1045168" d="M457.988,800.218c0,12.587-10.461,22.788-23.364,22.788s-23.364-10.2-23.364-22.788,10.459-22.788,23.364-22.788,23.364,10.2,23.364,22.788" transform="translate(411.396 -428.079)" fill="#b081de"/>
          <path id="Trazado_1045169" data-name="Trazado 1045169" d="M432.977,811.959a5.64,5.64,0,1,1-5.637-5.5,5.569,5.569,0,0,1,5.637,5.5" transform="translate(424.319 -393.748)" fill="#b081de"/>
          <path id="Trazado_1045170" data-name="Trazado 1045170" d="M427.013,773.343a4.8,4.8,0,1,1-4.8-4.684,4.745,4.745,0,0,1,4.8,4.684" transform="translate(419.006 -438.452)" fill="#b081de"/>
          <path id="Trazado_1045171" data-name="Trazado 1045171" d="M449.867,746.365a8.865,8.865,0,1,1-8.861-8.645,8.754,8.754,0,0,1,8.861,8.645" transform="translate(437.242 -475.039)" fill="#b081de"/>
          <path id="Trazado_1045172" data-name="Trazado 1045172" d="M421.3,746a4.432,4.432,0,1,1-4.431-4.321A4.377,4.377,0,0,1,421.3,746" transform="translate(412.86 -470.354)" fill="#b081de"/>
          <path id="Trazado_1045173" data-name="Trazado 1045173" d="M410.41,772.784a7.688,7.688,0,1,1-7.687-7.5,7.594,7.594,0,0,1,7.687,7.5" transform="translate(391.319 -442.439)" fill="#b081de"/>
          <path id="Trazado_1045174" data-name="Trazado 1045174" d="M393.589,788.2a3.987,3.987,0,1,1-3.988-3.887,3.939,3.939,0,0,1,3.988,3.887" transform="translate(379.658 -419.944)" fill="#b081de"/>
          <path id="Trazado_1045175" data-name="Trazado 1045175" d="M399.77,805.837a3.8,3.8,0,1,1-3.8-3.708,3.757,3.757,0,0,1,3.8,3.708" transform="translate(387.763 -398.871)" fill="#b081de"/>
          <path id="Trazado_1045176" data-name="Trazado 1045176" d="M425.471,829.169a5.35,5.35,0,1,1-5.348-5.216,5.283,5.283,0,0,1,5.348,5.216" transform="translate(415.746 -373.062)" fill="#b081de"/>
          <path id="Trazado_1045177" data-name="Trazado 1045177" d="M443.268,834.159a5.565,5.565,0,1,1-5.563-5.426,5.5,5.5,0,0,1,5.563,5.426" transform="translate(437.242 -367.41)" fill="#b081de"/>
          <path id="Trazado_1045178" data-name="Trazado 1045178" d="M480.235,824.2a9.879,9.879,0,1,1-9.877-9.634,9.757,9.757,0,0,1,9.877,9.634" transform="translate(472.32 -384.167)" fill="#b081de"/>
          <path id="Trazado_1045179" data-name="Trazado 1045179" d="M482.5,773.4a5.489,5.489,0,1,1-5.487-5.352A5.421,5.421,0,0,1,482.5,773.4" transform="translate(485.994 -439.175)" fill="#b081de"/>
          <path id="Trazado_1045180" data-name="Trazado 1045180" d="M472.787,755.949a3.946,3.946,0,1,1-3.945-3.848,3.9,3.9,0,0,1,3.945,3.848" transform="translate(477.783 -458.033)" fill="#b081de"/>
          <path id="Trazado_1045181" data-name="Trazado 1045181" d="M479.5,788.2a3.985,3.985,0,1,1-3.985-3.887A3.937,3.937,0,0,1,479.5,788.2" transform="translate(485.994 -419.944)" fill="#b081de"/>
          <path id="Trazado_1045182" data-name="Trazado 1045182" d="M468.246,796.263a6.973,6.973,0,1,1-6.97-6.8,6.887,6.887,0,0,1,6.97,6.8" transform="translate(464.673 -413.848)" fill="#b081de"/>
          <path id="Trazado_1045183" data-name="Trazado 1045183" d="M452.781,792.293a6.36,6.36,0,1,1-6.36-6.2,6.283,6.283,0,0,1,6.36,6.2" transform="translate(447.047 -417.838)" fill="#b081de"/>
          <path id="Trazado_1045184" data-name="Trazado 1045184" d="M449.86,815.3a9.069,9.069,0,1,1-9.067-8.842,8.957,8.957,0,0,1,9.067,8.842" transform="translate(436.729 -393.748)" fill="#b081de"/>
          <path id="Trazado_1045185" data-name="Trazado 1045185" d="M430.889,765.559a3.335,3.335,0,1,1-3.334-3.252,3.294,3.294,0,0,1,3.334,3.252" transform="translate(427.438 -445.963)" fill="#b081de"/>
          <path id="Trazado_1045186" data-name="Trazado 1045186" d="M431.577,853.055l-17.9-1.552a42.265,42.265,0,0,0-1.938-11.851l17.794-5.371a2.453,2.453,0,0,0,1.66-3.069,2.536,2.536,0,0,0-3.146-1.619L410,835.038a43.528,43.528,0,0,0-6.415-10.23l14.968-12.218a2.42,2.42,0,0,0,.318-3.455,2.568,2.568,0,0,0-3.544-.308l-15.143,12.36a44.486,44.486,0,0,0-9.334-6.8l9.423-17.43a2.434,2.434,0,0,0-1.052-3.313,2.557,2.557,0,0,0-3.4,1.026l-9.492,17.559a45.443,45.443,0,0,0-11.37-2.995l1.83-20.045a2.484,2.484,0,0,0-2.285-2.661,2.51,2.51,0,0,0-2.73,2.226l-1.833,20.112a45.492,45.492,0,0,0-11.292,1.185l-6.125-19.3a2.535,2.535,0,0,0-3.146-1.617,2.449,2.449,0,0,0-1.658,3.069l6.111,19.263a45.1,45.1,0,0,0-10.405,5.3l-13.138-15.313a2.568,2.568,0,0,0-3.544-.308,2.42,2.42,0,0,0-.313,3.455l13.05,15.212a43.979,43.979,0,0,0-8.08,9.241l-17.761-8.7a2.55,2.55,0,0,0-3.374,1.091,2.434,2.434,0,0,0,1.119,3.294l17.562,8.6a42.481,42.481,0,0,0-3.623,10.5l-19.023-1.65a2.511,2.511,0,0,0-2.73,2.229,2.481,2.481,0,0,0,2.287,2.66l18.763,1.626a42.438,42.438,0,0,0,.651,11.9L307.9,865.858a2.45,2.45,0,0,0-1.663,3.069,2.539,2.539,0,0,0,3.148,1.619L326.5,865.38a42.919,42.919,0,0,0,5.623,11.356l-13.249,10.81a2.418,2.418,0,0,0-.313,3.457,2.566,2.566,0,0,0,3.542.308l13.073-10.671a44.436,44.436,0,0,0,9.694,8.274l-7.711,14.263a2.428,2.428,0,0,0,1.052,3.313,2.551,2.551,0,0,0,3.4-1.026l7.637-14.123a45.188,45.188,0,0,0,12.822,3.983l-1.423,15.621a2.515,2.515,0,0,0,5.01.434l1.419-15.555a45.554,45.554,0,0,0,13.113-1.316l4.717,14.878A2.535,2.535,0,0,0,388.049,911a2.446,2.446,0,0,0,1.66-3.069l-4.731-14.914a45.012,45.012,0,0,0,11.721-6.51l10.443,12.17a2.561,2.561,0,0,0,3.54.308,2.42,2.42,0,0,0,.318-3.457l-10.531-12.27a43.59,43.59,0,0,0,8.217-10.878l15.1,7.392a2.55,2.55,0,0,0,3.377-1.091,2.431,2.431,0,0,0-1.119-3.294l-15.3-7.493a42.57,42.57,0,0,0,2.743-11.485l17.647,1.53a2.5,2.5,0,0,0,2.726-2.228,2.477,2.477,0,0,0-2.28-2.661" transform="translate(278.099 -417.327)" fill="#3cd2fa"/>
          <path id="Trazado_1045187" data-name="Trazado 1045187" d="M330.315,845.884a7.249,7.249,0,0,1-7.917,6.46,7.168,7.168,0,0,1-6.621-7.72,7.245,7.245,0,0,1,7.915-6.46,7.172,7.172,0,0,1,6.624,7.72" transform="translate(293.178 -356.29)" fill="#5cddfd"/>
          <path id="Trazado_1045188" data-name="Trazado 1045188" d="M373.678,823.28a7.25,7.25,0,0,1-7.915,6.46,7.169,7.169,0,0,1-6.624-7.722,7.245,7.245,0,0,1,7.915-6.458,7.172,7.172,0,0,1,6.624,7.72" transform="translate(346.849 -383.021)" fill="#5cddfd"/>
          <path id="Trazado_1045189" data-name="Trazado 1045189" d="M316.345,807.077a7.248,7.248,0,0,1-7.915,6.46,7.169,7.169,0,0,1-6.624-7.722,7.245,7.245,0,0,1,7.915-6.458,7.17,7.17,0,0,1,6.624,7.72" transform="translate(275.888 -402.182)" fill="#5cddfd"/>
          <path id="Trazado_1045190" data-name="Trazado 1045190" d="M346.45,790.376a7.252,7.252,0,0,1-7.917,6.46,7.168,7.168,0,0,1-6.621-7.72,7.3,7.3,0,0,1,14.538,1.259" transform="translate(313.149 -421.932)" fill="#5cddfd"/>
          <path id="Trazado_1045191" data-name="Trazado 1045191" d="M352.9,849.607a7.25,7.25,0,0,1-7.917,6.46,7.17,7.17,0,0,1-6.621-7.72,7.245,7.245,0,0,1,7.915-6.46,7.172,7.172,0,0,1,6.624,7.72" transform="translate(321.137 -351.888)" fill="#5cddfd"/>
          <path id="Trazado_1045192" data-name="Trazado 1045192" d="M367.284,831.836a4.813,4.813,0,0,1-5.256,4.286A4.76,4.76,0,0,1,357.633,831a4.813,4.813,0,0,1,5.254-4.289,4.764,4.764,0,0,1,4.4,5.125" transform="translate(344.997 -369.823)" fill="#5cddfd"/>
          <path id="Trazado_1045193" data-name="Trazado 1045193" d="M312.925,827.71A4.813,4.813,0,0,1,307.669,832a4.757,4.757,0,0,1-4.395-5.123,4.81,4.81,0,0,1,5.254-4.286,4.76,4.76,0,0,1,4.4,5.122" transform="translate(277.716 -374.7)" fill="#5cddfd"/>
          <path id="Trazado_1045194" data-name="Trazado 1045194" d="M337.368,847.97a4.81,4.81,0,0,1-5.254,4.286,4.76,4.76,0,0,1-4.395-5.122,4.813,4.813,0,0,1,5.254-4.289,4.76,4.76,0,0,1,4.395,5.125" transform="translate(307.972 -350.743)" fill="#5cddfd"/>
          <path id="Trazado_1045195" data-name="Trazado 1045195" d="M362.62,799.318a4.742,4.742,0,0,1-4.055,5.384,4.828,4.828,0,0,1-5.52-3.955,4.741,4.741,0,0,1,4.055-5.384,4.827,4.827,0,0,1,5.52,3.955" transform="translate(339.273 -406.938)" fill="#5cddfd"/>
          <path id="Trazado_1045196" data-name="Trazado 1045196" d="M332.7,790.427a5.878,5.878,0,0,1-5.028,6.674,5.987,5.987,0,0,1-6.843-4.9,5.882,5.882,0,0,1,5.028-6.676,5.985,5.985,0,0,1,6.843,4.9" transform="translate(299.38 -418.589)" fill="#5cddfd"/>
          <path id="Trazado_1045197" data-name="Trazado 1045197" d="M329.825,855.159a2.2,2.2,0,0,1-1.4-2.813l16.118-45.258a2.283,2.283,0,0,1,2.887-1.362,2.2,2.2,0,0,1,1.4,2.813l-16.118,45.256a2.279,2.279,0,0,1-2.884,1.364" transform="translate(308.717 -394.763)" fill="#fff"/>
          <path id="Trazado_1045198" data-name="Trazado 1045198" d="M323.549,836.369a2.245,2.245,0,0,1-1.3-1.124,2.187,2.187,0,0,1,1.052-2.955l44.206-20.883a2.3,2.3,0,0,1,3.03,1.026,2.19,2.19,0,0,1-1.054,2.955l-44.206,20.883a2.312,2.312,0,0,1-1.732.1" transform="translate(300.949 -388.161)" fill="#fff"/>
          <path id="Trazado_1045199" data-name="Trazado 1045199" d="M369.458,832.39l-46.4-15.721a2.2,2.2,0,0,1-1.4-2.813,2.282,2.282,0,0,1,2.887-1.364l46.4,15.721a2.2,2.2,0,0,1,1.4,2.816,2.279,2.279,0,0,1-2.884,1.362" transform="translate(300.342 -386.762)" fill="#fff"/>
          <path id="Trazado_1045200" data-name="Trazado 1045200" d="M350.054,853.51a2.245,2.245,0,0,1-1.3-1.124l-21.413-43.117a2.187,2.187,0,0,1,1.052-2.955,2.293,2.293,0,0,1,3.028,1.026l21.413,43.117a2.187,2.187,0,0,1-1.052,2.955,2.312,2.312,0,0,1-1.732.1" transform="translate(307.253 -394.184)" fill="#fff"/>
          <path id="Trazado_1045202" data-name="Trazado 1045202" d="M216.852,776.322a7.064,7.064,0,1,1-7.062-6.888,6.977,6.977,0,0,1,7.062,6.888" transform="translate(153.294 -767.514)" fill="#7958fb"/>
          <path id="Trazado_1045203" data-name="Trazado 1045203" d="M216.852,792.81a7.064,7.064,0,1,1-7.062-6.888,6.977,6.977,0,0,1,7.062,6.888" transform="translate(153.294 -748.016)" fill="#7958fb"/>
          <path id="Trazado_1045204" data-name="Trazado 1045204" d="M232.911,776.322a7.064,7.064,0,1,1-7.062-6.888,6.977,6.977,0,0,1,7.062,6.888" transform="translate(173.17 -767.514)" fill="#7958fb"/>
          <path id="Trazado_1045205" data-name="Trazado 1045205" d="M232.911,792.81a7.064,7.064,0,1,1-7.062-6.888,6.977,6.977,0,0,1,7.062,6.888" transform="translate(173.17 -748.016)" fill="#7958fb"/>
          <path id="Trazado_1045206" data-name="Trazado 1045206" d="M184.346,776.322a7.064,7.064,0,1,1-7.062-6.888,6.977,6.977,0,0,1,7.062,6.888" transform="translate(113.061 -767.514)" fill="#7958fb"/>
          <path id="Trazado_1045207" data-name="Trazado 1045207" d="M184.346,792.81a7.064,7.064,0,1,1-7.062-6.888,6.977,6.977,0,0,1,7.062,6.888" transform="translate(113.061 -748.016)" fill="#7958fb"/>
          <path id="Trazado_1045208" data-name="Trazado 1045208" d="M200.405,776.322a7.064,7.064,0,1,1-7.062-6.888,6.977,6.977,0,0,1,7.062,6.888" transform="translate(132.937 -767.514)" fill="#7958fb"/>
          <path id="Trazado_1045209" data-name="Trazado 1045209" d="M200.405,792.81a7.064,7.064,0,1,1-7.062-6.888,6.977,6.977,0,0,1,7.062,6.888" transform="translate(132.937 -748.016)" fill="#7958fb"/>
          <path id="Trazado_1045210" data-name="Trazado 1045210" d="M281.8,776.322a7.064,7.064,0,1,1-7.062-6.888,6.977,6.977,0,0,1,7.062,6.888" transform="translate(233.686 -767.514)" fill="#7958fb"/>
          <path id="Trazado_1045211" data-name="Trazado 1045211" d="M281.8,792.81a7.064,7.064,0,1,1-7.062-6.888,6.977,6.977,0,0,1,7.062,6.888" transform="translate(233.686 -748.016)" fill="#7958fb"/>
          <path id="Trazado_1045212" data-name="Trazado 1045212" d="M297.862,776.322a7.064,7.064,0,1,1-7.062-6.888,6.977,6.977,0,0,1,7.062,6.888" transform="translate(253.561 -767.514)" fill="#7958fb"/>
          <path id="Trazado_1045213" data-name="Trazado 1045213" d="M297.862,792.81a7.064,7.064,0,1,1-7.062-6.888,6.977,6.977,0,0,1,7.062,6.888" transform="translate(253.561 -748.016)" fill="#7958fb"/>
          <path id="Trazado_1045214" data-name="Trazado 1045214" d="M249.3,776.322a7.064,7.064,0,1,1-7.062-6.888,6.977,6.977,0,0,1,7.062,6.888" transform="translate(193.451 -767.514)" fill="#7958fb"/>
          <path id="Trazado_1045215" data-name="Trazado 1045215" d="M249.3,792.81a7.064,7.064,0,1,1-7.062-6.888,6.977,6.977,0,0,1,7.062,6.888" transform="translate(193.451 -748.016)" fill="#7958fb"/>
          <path id="Trazado_1045216" data-name="Trazado 1045216" d="M265.356,776.322a7.064,7.064,0,1,1-7.062-6.888,6.977,6.977,0,0,1,7.062,6.888" transform="translate(213.328 -767.514)" fill="#7958fb"/>
          <path id="Trazado_1045217" data-name="Trazado 1045217" d="M265.356,792.81a7.064,7.064,0,1,1-7.062-6.888,6.977,6.977,0,0,1,7.062,6.888" transform="translate(213.328 -748.016)" fill="#7958fb"/>
          <path id="Trazado_1045218" data-name="Trazado 1045218" d="M437.1,693.565h0a9.663,9.663,0,0,1,0,13.905l-30.352,29.6a10.263,10.263,0,0,1-14.256,0,9.663,9.663,0,0,1,0-13.905l30.352-29.6a10.263,10.263,0,0,1,14.256,0" transform="translate(-226.383 -677.414)" fill="#fd660a"/>
          <path id="Trazado_1045219" data-name="Trazado 1045219" d="M392.494,693.565h0a10.263,10.263,0,0,1,14.256,0l30.352,29.6a9.663,9.663,0,0,1,0,13.905,10.263,10.263,0,0,1-14.256,0l-30.352-29.6a9.663,9.663,0,0,1,0-13.905" transform="translate(693.008 34.321)" fill="#fd660a"/>
          <path id="Trazado_1045220" data-name="Trazado 1045220" d="M437.1,693.565h0a9.663,9.663,0,0,1,0,13.905l-30.352,29.6a10.263,10.263,0,0,1-14.256,0,9.663,9.663,0,0,1,0-13.905l30.352-29.6a10.263,10.263,0,0,1,14.256,0" transform="translate(691.47 34.321)" fill="#fd660a"/>
          <path id="Trazado_1232471" data-name="Trazado 1232471" d="M216.852,776.322a7.064,7.064,0,1,1-7.062-6.888,6.977,6.977,0,0,1,7.062,6.888" transform="translate(556.451 -66.576)" fill="#7958fb"/>
          <path id="Trazado_1232472" data-name="Trazado 1232472" d="M216.852,792.81a7.064,7.064,0,1,1-7.062-6.888,6.977,6.977,0,0,1,7.062,6.888" transform="translate(556.451 -47.078)" fill="#7958fb"/>
          <path id="Trazado_1232473" data-name="Trazado 1232473" d="M232.911,776.322a7.064,7.064,0,1,1-7.062-6.888,6.977,6.977,0,0,1,7.062,6.888" transform="translate(576.327 -66.576)" fill="#7958fb"/>
          <path id="Trazado_1232474" data-name="Trazado 1232474" d="M232.911,792.81a7.064,7.064,0,1,1-7.062-6.888,6.977,6.977,0,0,1,7.062,6.888" transform="translate(576.327 -47.078)" fill="#7958fb"/>
          <path id="Trazado_1232475" data-name="Trazado 1232475" d="M184.346,776.322a7.064,7.064,0,1,1-7.062-6.888,6.977,6.977,0,0,1,7.062,6.888" transform="translate(516.218 -66.576)" fill="#7958fb"/>
          <path id="Trazado_1232476" data-name="Trazado 1232476" d="M184.346,792.81a7.064,7.064,0,1,1-7.062-6.888,6.977,6.977,0,0,1,7.062,6.888" transform="translate(516.218 -47.078)" fill="#7958fb"/>
          <path id="Trazado_1232477" data-name="Trazado 1232477" d="M200.405,776.322a7.064,7.064,0,1,1-7.062-6.888,6.977,6.977,0,0,1,7.062,6.888" transform="translate(536.094 -66.576)" fill="#7958fb"/>
          <path id="Trazado_1232478" data-name="Trazado 1232478" d="M200.405,792.81a7.064,7.064,0,1,1-7.062-6.888,6.977,6.977,0,0,1,7.062,6.888" transform="translate(536.094 -47.078)" fill="#7958fb"/>
          <path id="Trazado_1232479" data-name="Trazado 1232479" d="M281.8,776.322a7.064,7.064,0,1,1-7.062-6.888,6.977,6.977,0,0,1,7.062,6.888" transform="translate(636.842 -66.576)" fill="#7958fb"/>
          <path id="Trazado_1232480" data-name="Trazado 1232480" d="M281.8,792.81a7.064,7.064,0,1,1-7.062-6.888,6.977,6.977,0,0,1,7.062,6.888" transform="translate(636.842 -47.078)" fill="#7958fb"/>
          <path id="Trazado_1232481" data-name="Trazado 1232481" d="M297.862,776.322a7.064,7.064,0,1,1-7.062-6.888,6.977,6.977,0,0,1,7.062,6.888" transform="translate(656.718 -66.576)" fill="#7958fb"/>
          <path id="Trazado_1232482" data-name="Trazado 1232482" d="M297.862,792.81a7.064,7.064,0,1,1-7.062-6.888,6.977,6.977,0,0,1,7.062,6.888" transform="translate(656.718 -47.078)" fill="#7958fb"/>
          <path id="Trazado_1232483" data-name="Trazado 1232483" d="M249.3,776.322a7.064,7.064,0,1,1-7.062-6.888,6.977,6.977,0,0,1,7.062,6.888" transform="translate(596.608 -66.576)" fill="#7958fb"/>
          <path id="Trazado_1232484" data-name="Trazado 1232484" d="M249.3,792.81a7.064,7.064,0,1,1-7.062-6.888,6.977,6.977,0,0,1,7.062,6.888" transform="translate(596.608 -47.078)" fill="#7958fb"/>
          <path id="Trazado_1232485" data-name="Trazado 1232485" d="M265.356,776.322a7.064,7.064,0,1,1-7.062-6.888,6.977,6.977,0,0,1,7.062,6.888" transform="translate(616.484 -66.576)" fill="#7958fb"/>
          <path id="Trazado_1232486" data-name="Trazado 1232486" d="M265.356,792.81a7.064,7.064,0,1,1-7.062-6.888,6.977,6.977,0,0,1,7.062,6.888" transform="translate(616.484 -47.078)" fill="#7958fb"/>
        </g>
      </g>
    </g>
  </g>
</svg>
