<svg xmlns="http://www.w3.org/2000/svg" xmlns:xlink="http://www.w3.org/1999/xlink" width="106" height="106" viewBox="0 0 106 106">
  <defs>
    <filter id="Trazado_982547" x="0" y="0" width="106" height="106" filterUnits="userSpaceOnUse">
      <feOffset dy="3" input="SourceAlpha"/>
      <feGaussianBlur stdDeviation="3" result="blur"/>
      <feFlood flood-opacity="0.161"/>
      <feComposite operator="in" in2="blur"/>
      <feComposite in="SourceGraphic"/>
    </filter>
  </defs>
  <g id="Grupo_1236808" data-name="Grupo 1236808" transform="translate(-200 -321)">
    <g id="Grupo_1234693" data-name="Grupo 1234693" transform="translate(29 -1061)">
      <g id="Grupo_1173169" data-name="Grupo 1173169" transform="translate(0 -2329)">
        <g id="Grupo_1172017" data-name="Grupo 1172017" transform="translate(0 2654)">
          <g id="Grupo_1167337" data-name="Grupo 1167337" transform="translate(180 1063)">
            <g id="Grupo_1166720" data-name="Grupo 1166720" transform="translate(0)">
              <g id="Grupo_1164305" data-name="Grupo 1164305">
                <g id="Grupo_1163948" data-name="Grupo 1163948">
                  <g id="Grupo_1158168" data-name="Grupo 1158168">
                    <g id="Grupo_1152576" data-name="Grupo 1152576">
                      <g id="Grupo_1148633" data-name="Grupo 1148633">
                        <g id="Grupo_1148525" data-name="Grupo 1148525">
                          <g transform="matrix(1, 0, 0, 1, -9, -6)" filter="url(#Trazado_982547)">
                            <g id="Trazado_982547-2" data-name="Trazado 982547" transform="translate(9 6)" fill="#f0edfe">
                              <path d="M 44 86.5 C 38.26187515258789 86.5 32.69618606567383 85.37651062011719 27.45755004882812 83.16075897216797 C 22.3968505859375 81.020263671875 17.85157585144043 77.95565032958984 13.94796276092529 74.05204010009766 C 10.04434967041016 70.1484375 6.979737281799316 65.6031494140625 4.839250087738037 60.54246139526367 C 2.62348747253418 55.30381393432617 1.5 49.73812484741211 1.5 44 C 1.5 38.26187515258789 2.62348747253418 32.69618606567383 4.839250087738037 27.45755004882812 C 6.979737281799316 22.3968505859375 10.04434967041016 17.85157585144043 13.94796276092529 13.94796276092529 C 17.85157585144043 10.04434967041016 22.3968505859375 6.979737281799316 27.45755004882812 4.839250087738037 C 32.69618606567383 2.62348747253418 38.26187515258789 1.5 44 1.5 C 49.73812484741211 1.5 55.30381393432617 2.62348747253418 60.54246139526367 4.839250087738037 C 65.6031494140625 6.979737281799316 70.1484375 10.04434967041016 74.05204010009766 13.94796276092529 C 77.95565032958984 17.85157585144043 81.020263671875 22.3968505859375 83.16075897216797 27.45755004882812 C 85.37651062011719 32.69618606567383 86.5 38.26187515258789 86.5 44 C 86.5 49.73812484741211 85.37651062011719 55.30381393432617 83.16075897216797 60.54246139526367 C 81.020263671875 65.6031494140625 77.95565032958984 70.1484375 74.05204010009766 74.05204010009766 C 70.1484375 77.95565032958984 65.6031494140625 81.020263671875 60.54246139526367 83.16075897216797 C 55.30381393432617 85.37651062011719 49.73812484741211 86.5 44 86.5 Z" stroke="none"/>
                              <path d="M 44 3 C 38.46371459960938 3 33.09462738037109 4.083610534667969 28.0418701171875 6.220756530761719 C 23.15997314453125 8.285614013671875 18.77495574951172 11.24228668212891 15.00862884521484 15.00862884521484 C 11.24228668212891 18.77495574951172 8.285614013671875 23.15997314453125 6.220756530761719 28.0418701171875 C 4.083610534667969 33.09462738037109 3 38.46371459960938 3 44 C 3 49.53628540039062 4.083610534667969 54.9053840637207 6.220756530761719 59.9581298828125 C 8.285614013671875 64.84002685546875 11.24228668212891 69.22504425048828 15.00862884521484 72.99138641357422 C 18.77495574951172 76.75771331787109 23.15997314453125 79.71438598632812 28.0418701171875 81.77925872802734 C 33.09462738037109 83.9163818359375 38.46371459960938 85 44 85 C 49.53628540039062 85 54.9053840637207 83.9163818359375 59.95814514160156 81.77925872802734 C 64.84002685546875 79.71438598632812 69.22504425048828 76.75771331787109 72.99138641357422 72.99138641357422 C 76.75771331787109 69.22504425048828 79.71438598632812 64.84002685546875 81.77925872802734 59.95814514160156 C 83.9163818359375 54.9053840637207 85 49.53628540039062 85 44 C 85 38.46371459960938 83.9163818359375 33.09462738037109 81.77925872802734 28.0418701171875 C 79.71438598632812 23.15997314453125 76.75771331787109 18.77495574951172 72.99138641357422 15.00862884521484 C 69.22504425048828 11.24228668212891 64.84002685546875 8.285614013671875 59.9581298828125 6.220756530761719 C 54.9053840637207 4.083610534667969 49.53628540039062 3 44 3 M 44 0 C 68.30054473876953 0 88 19.69947052001953 88 44 C 88 68.30054473876953 68.30054473876953 88 44 88 C 19.69947052001953 88 0 68.30054473876953 0 44 C 0 19.69947052001953 19.69947052001953 0 44 0 Z" stroke="none" fill="#7958fb"/>
                            </g>
                          </g>
                        </g>
                      </g>
                    </g>
                  </g>
                </g>
              </g>
            </g>
          </g>
        </g>
      </g>
    </g>
    <g id="virus-del-nilo-occidental" transform="translate(225.367 343.462)">
      <g id="Grupo_1236805" data-name="Grupo 1236805" transform="translate(0.927 0.808)">
        <circle id="Elipse_14759" data-name="Elipse 14759" cx="10.799" cy="10.799" r="10.799" fill="#71e4bf"/>
        <circle id="Elipse_14760" data-name="Elipse 14760" cx="10.799" cy="10.799" r="10.799" transform="translate(31.857 31.857)" fill="#71e4bf"/>
        <path id="Trazado_1254831" data-name="Trazado 1254831" d="M60.559,47.2a3.953,3.953,0,1,0-5.449,0A6.033,6.033,0,0,0,51.8,52.587v4a10.8,10.8,0,0,0,12.07,0v-4A6.033,6.033,0,0,0,60.559,47.2Z" transform="translate(-47.036 -36.833)" fill="#ffcec4"/>
        <path id="Trazado_1254832" data-name="Trazado 1254832" d="M355.609,381.432a3.953,3.953,0,1,0-5.448,0,6.035,6.035,0,0,0-3.3,5.153,10.8,10.8,0,0,0,12.058,0A6.035,6.035,0,0,0,355.609,381.432Z" transform="translate(-310.229 -334.97)" fill="#ffcec4"/>
        <circle id="Elipse_14761" data-name="Elipse 14761" cx="15.119" cy="15.119" r="15.119" transform="translate(11.555 11.555)" fill="#ff6a47"/>
        <g id="Grupo_1236804" data-name="Grupo 1236804" transform="translate(17.655 16.257)">
          <path id="Trazado_1254833" data-name="Trazado 1254833" d="M242.406,227.947a3.243,3.243,0,0,0-3.04,2.119l0,.006a2.146,2.146,0,0,1,.4,1.108l0,.007h8.046a3.241,3.241,0,0,0,3.24-3.24Z" transform="translate(-232.002 -220.395)" fill="#d8d7da"/>
          <path id="Trazado_1254834" data-name="Trazado 1254834" d="M216.948,158.017s-6.89,2.6-8.352,5.6a3.788,3.788,0,0,0-.013,3.527h0a2.148,2.148,0,0,1,1.185-.355h0a8.931,8.931,0,0,1,4.9-4.412C216.9,161.561,217.589,159.962,216.948,158.017Z" transform="translate(-204.161 -158.017)" fill="#d8d7da"/>
          <path id="Trazado_1254835" data-name="Trazado 1254835" d="M174.633,260.252l0-.005h-2.013a1.441,1.441,0,1,0,.008,2.881,2.873,2.873,0,0,0,2.554-1.548l0-.005A2.148,2.148,0,0,1,174.633,260.252Z" transform="translate(-171.176 -249.207)" fill="#d8d7da"/>
          <circle id="Elipse_14762" data-name="Elipse 14762" cx="2.16" cy="2.16" r="2.16" transform="translate(3.451 8.772)" fill="#d8d7da"/>
        </g>
      </g>
      <g id="Grupo_1236806" data-name="Grupo 1236806" transform="translate(0.108 0.001)">
        <path id="Trazado_1254836" data-name="Trazado 1254836" d="M50.206,50.921a6.853,6.853,0,0,0-2.673-3.855,4.762,4.762,0,1,0-7.9,0,6.8,6.8,0,0,0-2.675,3.867,10.014,10.014,0,0,1-3.283-8.725,16.019,16.019,0,0,0,8.652-8.652,10.036,10.036,0,0,1,11.219,9.16l1.615-.12A11.659,11.659,0,0,0,42.911,31.877C46.385,20.024,35.2,8.753,23.321,12.138c.5-10.45-12.26-16.163-19.709-8.832L4.745,4.464C11.4-2.058,22.679,3.443,21.654,12.706a15.92,15.92,0,0,0-3.378,1.87,6.855,6.855,0,0,0-2.6-3.6,4.762,4.762,0,1,0-7.9,0A6.809,6.809,0,0,0,4.88,16.563v2.312A10.039,10.039,0,0,1,3.754,5.589L2.463,4.611c-5.92,7.739.056,19.083,9.794,18.592C8.871,35.083,20.146,46.267,32,42.793a11.608,11.608,0,0,0,23.164,1.541l-1.615-.12A9.949,9.949,0,0,1,50.206,50.921ZM11.726,5.172A3.143,3.143,0,1,1,8.583,8.315a3.146,3.146,0,0,1,3.143-3.143Zm0,16.424A9.929,9.929,0,0,1,6.5,20.117V16.563a5.2,5.2,0,0,1,2.415-4.406,4.785,4.785,0,0,0,5.62,0,5.238,5.238,0,0,1,2.345,3.552,15.993,15.993,0,0,0-4.057,5.825,10.122,10.122,0,0,1-1.1.061Zm1.566,5.885A14.325,14.325,0,0,1,27.6,13.173c18.982.786,18.977,27.834,0,28.617A14.325,14.325,0,0,1,13.291,27.482ZM43.582,41.266a3.143,3.143,0,1,1-3.143,3.143A3.146,3.146,0,0,1,43.582,41.266ZM38.4,52a5.2,5.2,0,0,1,2.373-3.75,4.785,4.785,0,0,0,5.621,0,5.225,5.225,0,0,1,2.372,3.739A10.03,10.03,0,0,1,38.4,52Z" transform="translate(-0.108 -0.001)"/>
        <path id="Trazado_1254837" data-name="Trazado 1254837" d="M275.4,67.671l-1.922-1.6-1.036,1.245,3.944,3.28,3.28-3.943-1.245-1.036L277,67.33a22.438,22.438,0,0,0-22.313-20.354V48.6A20.815,20.815,0,0,1,275.4,67.671Z" transform="translate(-227.195 -41.903)"/>
        <path id="Trazado_1254838" data-name="Trazado 1254838" d="M27.08,245.286l1.863,1.55,1.036-1.245-3.944-3.28-3.28,3.943L24,247.289l1.474-1.772A22.437,22.437,0,0,0,47.8,266.032v-1.62A20.816,20.816,0,0,1,27.08,245.286Z" transform="translate(-20.309 -216.143)"/>
        <path id="Trazado_1254839" data-name="Trazado 1254839" d="M165.248,160.9a4.068,4.068,0,0,0,4.05-4.05v-.81h-4.084l1.274-1.508h2.785v-1.62h-3.537l-2.642,3.128c-2.326.1-4.921-.572-6.513,1.648a2.976,2.976,0,0,0-.292-.155,8.2,8.2,0,0,1,3.934-3.115c2.985-1.082,3.627-3.5,2.505-6.176-1.94.749-11.976,4.339-9.826,9.938a2.966,2.966,0,0,0-.74,1.348h-1.284a2.258,2.258,0,0,0-1.825,3.565L146.8,165.4l1.16,1.131,2.479-2.543a3.619,3.619,0,0,0,3.165-1.161,2.961,2.961,0,0,0,.317.152l.869,2.808v3.48l3.177,1.589.724-1.449-2.282-1.141v-2.724l-.745-2.409a2.939,2.939,0,0,0,.54-.171l2.961,2.34,1.744-1.159,2.9,3.5h3.21v-1.62h-2.45l-3.347-4.033-1.978,1.314-1.76-1.391a2.955,2.955,0,0,0,.447-1.013Zm2.292-3.24a2.442,2.442,0,0,1-2.292,1.62h-2.771l1.368-1.62Zm-7.7,0h1.885l-1.368,1.62h-2.5a2.969,2.969,0,0,0-.149-.36A2.429,2.429,0,0,1,159.84,157.657Zm-4.793,3.92a1.35,1.35,0,1,1,1.35-1.35A1.351,1.351,0,0,1,155.047,161.577Zm-.447-6.326c.94-1.93,4.828-3.905,7.036-4.845.19,3.174-4.3,1.763-7.1,6.9q-.1.017-.2.041A2.755,2.755,0,0,1,154.6,155.251Zm-3.719,7.155a.631.631,0,1,1,0-1.261h1.345a2.958,2.958,0,0,0,.236.536,2.052,2.052,0,0,1-1.578.725Z" transform="translate(-130.962 -132.231)"/>
      </g>
      <g id="Grupo_1236807" data-name="Grupo 1236807" transform="translate(17.503 22.406)">
        <path id="Trazado_1254840" data-name="Trazado 1254840" d="M343.336,279.427h1.62v1.62h-1.62Z" transform="translate(-323.666 -271.657)" fill="#fff"/>
        <path id="Trazado_1254841" data-name="Trazado 1254841" d="M161.186,207.477h1.62v1.62h-1.62Z" transform="translate(-161.186 -207.477)" fill="#fff"/>
      </g>
    </g>
  </g>
</svg>
