<svg xmlns="http://www.w3.org/2000/svg" xmlns:xlink="http://www.w3.org/1999/xlink" width="113" height="113" viewBox="0 0 113 113">
  <defs>
    <filter id="Trazado_982547" x="0" y="0" width="113" height="113" filterUnits="userSpaceOnUse">
      <feOffset dy="3" input="SourceAlpha"/>
      <feGaussianBlur stdDeviation="3" result="blur"/>
      <feFlood flood-opacity="0.161"/>
      <feComposite operator="in" in2="blur"/>
      <feComposite in="SourceGraphic"/>
    </filter>
  </defs>
  <g id="Grupo_1235215" data-name="Grupo 1235215" transform="translate(-1216 -4103.5)">
    <g id="Grupo_1234674" data-name="Grupo 1234674" transform="translate(0 -5879.346)">
      <g id="Grupo_1231160" data-name="Grupo 1231160" transform="translate(0 4365)">
        <g id="Grupo_1230689" data-name="Grupo 1230689" transform="translate(0 -2146.377)">
          <g id="Grupo_1229017" data-name="Grupo 1229017" transform="translate(0 2131.042)">
            <g id="Grupo_1227505" data-name="Grupo 1227505" transform="translate(0.575 2048.198)">
              <g id="Grupo_1225353" data-name="Grupo 1225353" transform="translate(-0.575 -393.641)">
                <g id="Grupo_1208124" data-name="Grupo 1208124" transform="translate(0 -1922.377)">
                  <g id="Grupo_1202435" data-name="Grupo 1202435" transform="translate(-0.56 1255.486)">
                    <g id="Grupo_1202052" data-name="Grupo 1202052" transform="translate(1225.561 4651.514)">
                      <g id="Grupo_1172010" data-name="Grupo 1172010" transform="translate(0)">
                        <g id="Grupo_1171046" data-name="Grupo 1171046">
                          <g id="Grupo_1148525" data-name="Grupo 1148525">
                            <g transform="matrix(1, 0, 0, 1, -9, -6)" filter="url(#Trazado_982547)">
                              <g id="Trazado_982547-2" data-name="Trazado 982547" transform="translate(9 6)" fill="#d6ccfe">
                                <path d="M 47.5 93.5 C 41.28937149047852 93.5 35.26533508300781 92.28397369384766 29.59518623352051 89.88570404052734 C 24.11771965026855 87.56893157958984 19.19813346862793 84.25196075439453 14.97309303283691 80.02691650390625 C 10.74804019927979 75.80186462402344 7.431066513061523 70.88229370117188 5.114293098449707 65.40481567382812 C 2.716026782989502 59.73468017578125 1.5 53.71062850952148 1.5 47.5 C 1.5 41.28937149047852 2.716026782989502 35.26533508300781 5.114293098449707 29.59518623352051 C 7.431066513061523 24.11771965026855 10.74804019927979 19.19813346862793 14.97309303283691 14.97309303283691 C 19.19813346862793 10.74804019927979 24.11771965026855 7.431066513061523 29.59518623352051 5.114293098449707 C 35.26533508300781 2.716026782989502 41.28937149047852 1.5 47.5 1.5 C 53.71062850952148 1.5 59.73468017578125 2.716026782989502 65.40481567382812 5.114293098449707 C 70.88229370117188 7.431066513061523 75.80186462402344 10.74804019927979 80.02691650390625 14.97309303283691 C 84.25196075439453 19.19813346862793 87.56893157958984 24.11771965026855 89.88570404052734 29.59518623352051 C 92.28397369384766 35.26533508300781 93.5 41.28937149047852 93.5 47.5 C 93.5 53.71062850952148 92.28397369384766 59.73468017578125 89.88570404052734 65.40481567382812 C 87.56893157958984 70.88229370117188 84.25196075439453 75.80186462402344 80.02691650390625 80.02691650390625 C 75.80186462402344 84.25196075439453 70.88229370117188 87.56893157958984 65.40481567382812 89.88570404052734 C 59.73468017578125 92.28397369384766 53.71062850952148 93.5 47.5 93.5 Z" stroke="none"/>
                                <path d="M 47.5 3 C 41.49121475219727 3 35.66376876831055 4.176155090332031 30.17950439453125 6.495796203613281 C 24.88084411621094 8.736953735351562 20.12152099609375 11.94598388671875 16.03375244140625 16.03375244140625 C 11.94598388671875 20.12152099609375 8.736953735351562 24.88084411621094 6.495796203613281 30.17950439453125 C 4.176155090332031 35.66376876831055 3 41.49121475219727 3 47.5 C 3 53.50878524780273 4.176155090332031 59.33623123168945 6.495796203613281 64.82049560546875 C 8.736953735351562 70.11915588378906 11.94598388671875 74.87847900390625 16.03375244140625 78.96624755859375 C 20.12152099609375 83.05401611328125 24.88084411621094 86.26304626464844 30.17950439453125 88.50419616699219 C 35.66376876831055 90.82384490966797 41.49121475219727 92 47.5 92 C 53.50878524780273 92 59.33623123168945 90.82384490966797 64.82049560546875 88.50419616699219 C 70.11915588378906 86.26304626464844 74.87847900390625 83.05401611328125 78.96624755859375 78.96624755859375 C 83.05401611328125 74.87847900390625 86.26304626464844 70.11915588378906 88.50419616699219 64.82049560546875 C 90.82384490966797 59.33623123168945 92 53.50878524780273 92 47.5 C 92 41.49121475219727 90.82384490966797 35.66376876831055 88.50419616699219 30.17950439453125 C 86.26304626464844 24.88084411621094 83.05401611328125 20.12152099609375 78.96624755859375 16.03375244140625 C 74.87847900390625 11.94598388671875 70.11915588378906 8.736953735351562 64.82049560546875 6.495796203613281 C 59.33623123168945 4.176155090332031 53.50878524780273 3 47.5 3 M 47.5 0 C 73.7335205078125 0 95 21.2664794921875 95 47.5 C 95 73.7335205078125 73.7335205078125 95 47.5 95 C 21.2664794921875 95 0 73.7335205078125 0 47.5 C 0 21.2664794921875 21.2664794921875 0 47.5 0 Z" stroke="none" fill="#7958fb"/>
                              </g>
                            </g>
                          </g>
                        </g>
                      </g>
                    </g>
                  </g>
                </g>
              </g>
            </g>
          </g>
        </g>
      </g>
    </g>
    <g id="veterinario" transform="translate(1245.683 4123.683)">
      <g id="Grupo_1235214" data-name="Grupo 1235214" transform="translate(0.895 0.895)">
        <g id="Grupo_1235209" data-name="Grupo 1235209">
          <path id="Trazado_1253414" data-name="Trazado 1253414" d="M81.646,51.932H46.634V25.006a17.506,17.506,0,0,1,35.012,0V51.932Z" transform="translate(-41.964 -7.5)" fill="#695d69"/>
          <path id="Trazado_1253415" data-name="Trazado 1253415" d="M180.108,7.5a17.71,17.71,0,0,0-1.79.09,17.508,17.508,0,0,1,15.716,17.415V51.932h3.58V25.006A17.506,17.506,0,0,0,180.108,7.5Z" transform="translate(-157.932 -7.5)" fill="#564e57"/>
          <path id="Trazado_1253416" data-name="Trazado 1253416" d="M51.852,309.483l-.562-9.551c0-3.075-1.195-4.409-4.109-5.389L36.3,289.976c-.971-.327-2.579-1.872-2.579-2.9l.683-4.092-9.191.165-.205,3.9a2.871,2.871,0,0,1-1.988,2.35l-.359-.06-5.985,2.014-1.257,1.116-.927-.381-2.114.711A7.16,7.16,0,0,0,7.5,299.59v9.893a.835.835,0,0,0,.835.835H51.017A.835.835,0,0,0,51.852,309.483Z" transform="translate(-7.5 -250.109)" fill="#e5edfc"/>
          <path id="Trazado_1253417" data-name="Trazado 1253417" d="M223.386,292.8l-10.1-3.4-.838.1c-.971-.327-2.313-1.4-2.313-2.428l.683-4.092-3,.181v5.677a2.387,2.387,0,0,0,1.626,2.262l4.5,1.516a.839.839,0,0,1,.552.96,16.3,16.3,0,0,0,7.05,16.736h5.879a.835.835,0,0,0,.835-.835v-9.893A7.16,7.16,0,0,0,223.386,292.8Z" transform="translate(-183.911 -250.109)" fill="#d1d9fc"/>
          <path id="Trazado_1253418" data-name="Trazado 1253418" d="M134.524,290.675l6.8,6.8a.477.477,0,0,0,.675,0l6.738-6.738-.838.1A2.9,2.9,0,0,1,146,288.385l.2-3.667-9.971-.22v3.887a2.387,2.387,0,0,1-1.626,2.262Z" transform="translate(-119.365 -251.441)" fill="#f1b0a2"/>
          <path id="Trazado_1253419" data-name="Trazado 1253419" d="M209.445,292.439l1.6.538,2.241-2.241-.259-.087a2.406,2.406,0,0,1-1.618-2.072q-.008-.094-.008-.191V284.5h-3.58v5.677A2.386,2.386,0,0,0,209.445,292.439Z" transform="translate(-183.913 -251.442)" fill="#eb9c8d"/>
          <path id="Trazado_1253420" data-name="Trazado 1253420" d="M297.4,146.33h-1.813v-6.975H297.4a3.488,3.488,0,1,1,0,6.975Z" transform="translate(-261.207 -123.619)" fill="#f1b0a2"/>
          <path id="Trazado_1253421" data-name="Trazado 1253421" d="M50.122,146.33h1.813v-6.975H50.122a3.488,3.488,0,1,0,0,6.975Z" transform="translate(-41.964 -123.619)" fill="#eb9c8d"/>
          <g id="Grupo_1235208" data-name="Grupo 1235208" transform="translate(8.777 10.756)">
            <path id="Trazado_1253422" data-name="Trazado 1253422" d="M94.813,122.858a15.177,15.177,0,0,1-5.624-.793,13.585,13.585,0,0,1-8.141-12.458v-6.526a.477.477,0,0,1,.472-.477,29.488,29.488,0,0,0,10.651-2.115,29.106,29.106,0,0,0,5.219-2.748.7.7,0,0,1,.937.158,12.128,12.128,0,0,0,9.063,4.7c.255.012.139.472.139.727l.315,6.259v.172a13.4,13.4,0,0,1-8.088,12.3,11.3,11.3,0,0,1-4.945.8Z" transform="translate(-81.048 -97.625)" fill="#f1b0a2"/>
          </g>
          <path id="Trazado_1253423" data-name="Trazado 1253423" d="M163.948,142.525a12.642,12.642,0,0,1-3.346,8.858c-4.644,4.853-11.372,3.521-11.784,3.432a13.386,13.386,0,0,0,4.3,1.071s.492.037.967.038a13.4,13.4,0,0,0,13.446-13.4v-6.681a.476.476,0,0,0-.454-.477,12.278,12.278,0,0,1-3.042-.528Z" transform="translate(-131.953 -119.643)" fill="#eb9c8d"/>
        </g>
        <g id="Grupo_1235213" data-name="Grupo 1235213" transform="translate(33.868 33.868)">
          <circle id="Elipse_14658" data-name="Elipse 14658" cx="12.723" cy="12.723" r="12.723" transform="translate(0 0)" fill="#bef8a8"/>
          <path id="Trazado_1253424" data-name="Trazado 1253424" d="M384.684,291.287a12.818,12.818,0,0,0-1.79.126,12.724,12.724,0,0,1,0,25.194,12.723,12.723,0,1,0,1.79-25.32Z" transform="translate(-371.961 -291.287)" fill="#a0e38b"/>
          <g id="Grupo_1235212" data-name="Grupo 1235212" transform="translate(3.37 4.605)">
            <g id="Grupo_1235210" data-name="Grupo 1235210" transform="translate(0 4.832)">
              <ellipse id="Elipse_14659" data-name="Elipse 14659" cx="1.484" cy="1.967" rx="1.484" ry="1.967" fill="#695d69"/>
              <ellipse id="Elipse_14660" data-name="Elipse 14660" cx="1.484" cy="1.967" rx="1.484" ry="1.967" transform="translate(15.738)" fill="#695d69"/>
            </g>
            <g id="Grupo_1235211" data-name="Grupo 1235211" transform="translate(4.454)">
              <ellipse id="Elipse_14661" data-name="Elipse 14661" cx="1.734" cy="2.299" rx="1.734" ry="2.299" fill="#695d69"/>
              <ellipse id="Elipse_14662" data-name="Elipse 14662" cx="1.734" cy="2.299" rx="1.734" ry="2.299" transform="translate(6.329)" fill="#695d69"/>
            </g>
            <path id="Trazado_1253425" data-name="Trazado 1253425" d="M351.781,396.418a5.341,5.341,0,0,1,9.953,0l.034.09c.477,1.284.97,3.02.034,4.217a2.687,2.687,0,0,1-3.511.6,3.363,3.363,0,0,0-3.067,0,2.687,2.687,0,0,1-3.511-.6c-.936-1.2-.443-2.933.034-4.217Z" transform="translate(-347.405 -385.481)" fill="#695d69"/>
          </g>
        </g>
      </g>
      <path id="Trazado_1253426" data-name="Trazado 1253426" d="M46.362,56.01a2.459,2.459,0,0,1,2.248,0,4.19,4.19,0,0,0,1.916.49,3.381,3.381,0,0,0,2.71-1.335c1.194-1.528.681-3.518.1-5.079-.013-.035-.026-.07-.04-.1a6.236,6.236,0,0,0-11.621,0c-.013.035-.027.069-.039.1-.581,1.562-1.094,3.552.1,5.08A3.566,3.566,0,0,0,46.362,56.01Zm-3.047-5.3.029-.075h0a4.445,4.445,0,0,1,8.285,0l.029.076c.419,1.126.816,2.525.167,3.354a1.782,1.782,0,0,1-2.4.356,4.252,4.252,0,0,0-3.887,0,1.781,1.781,0,0,1-2.4-.356C42.5,53.232,42.9,51.834,43.315,50.707Zm-13.982-29.8a.9.9,0,0,0-.9.9v1.727a.9.9,0,1,0,1.79,0V21.8A.9.9,0,0,0,29.333,20.909Zm-12.524,0a.9.9,0,0,0-.9.9v1.727a.9.9,0,0,0,1.79,0V21.8A.9.9,0,0,0,16.809,20.909ZM44.321,44.862c1.474,0,2.629-1.4,2.629-3.194s-1.155-3.194-2.629-3.194-2.629,1.4-2.629,3.194S42.847,44.862,44.321,44.862Zm0-4.6c.4,0,.839.6.839,1.4s-.443,1.4-.839,1.4-.839-.6-.839-1.4S43.925,40.263,44.321,40.263Zm14.8.14a.9.9,0,1,0-1.528.932A11.836,11.836,0,1,1,55.055,38.4.9.9,0,0,0,56.2,37.022a13.611,13.611,0,0,0-14.73-1.751V18.4a18.4,18.4,0,0,0-36.8,0v7.793a.9.9,0,0,0,1.79,0V23.653a4.344,4.344,0,0,0,2.344.841,14.48,14.48,0,0,0,8.062,12.142v1.2a1.488,1.488,0,0,1-1.016,1.413l-9.39,3.16V30.37a.9.9,0,1,0-1.79,0v12.7A8.049,8.049,0,0,0,0,50.376v9.833a.9.9,0,0,0,1.79,0V50.376a6.261,6.261,0,0,1,4.268-5.939L7.644,43.9a12.18,12.18,0,0,0,.079,5.926A4.224,4.224,0,0,0,5.6,54.446l.776,3.559a1.633,1.633,0,0,0,1.945,1.248l.98-.214a.9.9,0,1,0-.382-1.749l-.828.181-.743-3.407a2.431,2.431,0,1,1,4.75-1.036l.743,3.407-.828.181a.9.9,0,1,0,.382,1.749l.98-.214a1.634,1.634,0,0,0,1.248-1.945l-.776-3.559a4.228,4.228,0,0,0-4.407-3.312,10.383,10.383,0,0,1,.273-6.129l6.1-2.052,6.406,6.406a1.374,1.374,0,0,0,1.941,0l6.346-6.346,4.251,1.43A13.617,13.617,0,1,0,59.119,40.4ZM8.777,22.7a2.592,2.592,0,0,1,0-5.155Zm1.343-6.96H9.053a4.358,4.358,0,0,0-2.485.775,16.611,16.611,0,0,1,33.007,0,4.356,4.356,0,0,0-2.485-.776s-1-.008-1.033-.01a11.347,11.347,0,0,1-4.963-1.4,11.2,11.2,0,0,1-3.434-2.949,1.6,1.6,0,0,0-2.139-.356,28.291,28.291,0,0,1-5.059,2.664,28.485,28.485,0,0,1-10.328,2.051h-.013Zm29.561,4.383A2.592,2.592,0,0,1,37.365,22.7V17.54A2.6,2.6,0,0,1,39.682,20.119ZM10.568,23.632v-.022s0,0,0,0,0,0,0,0V17.517a30.234,30.234,0,0,0,10.563-2.172,30.086,30.086,0,0,0,5.225-2.731,12.978,12.978,0,0,0,3.869,3.276,13.138,13.138,0,0,0,5.35,1.6v6.288a12.5,12.5,0,0,1-12.548,12.5A12.6,12.6,0,0,1,10.568,23.632ZM23.191,46l-5.674-5.674a3.277,3.277,0,0,0,1.139-2.486v-.476a14.078,14.078,0,0,0,4.365.707h.051a14.325,14.325,0,0,0,4.415-.692v.461a3.277,3.277,0,0,0,1.271,2.592Zm7.1-6.746a1.488,1.488,0,0,1-1.015-1.413V36.661a14.331,14.331,0,0,0,8.07-12.168,4.339,4.339,0,0,0,2.334-.84V36.333a13.719,13.719,0,0,0-4.172,4.676Zm27.441,6.915a2.42,2.42,0,1,0-4.757,0,2.42,2.42,0,1,0,4.757,0Zm-2.967,0c0-.654.348-1.072.588-1.072s.588.418.588,1.072-.348,1.072-.588,1.072S54.766,46.822,54.766,46.168ZM29.453,20.112a3.1,3.1,0,0,1,1.344.369.9.9,0,0,0,.852-1.575,4.856,4.856,0,0,0-4.628,0,.941.941,0,0,0-.239,1.285.93.93,0,0,0,1.088.291,2.725,2.725,0,0,1,1.584-.37ZM53.279,41.668c0-1.791-1.155-3.194-2.629-3.194s-2.629,1.4-2.629,3.194,1.155,3.194,2.629,3.194S53.279,43.459,53.279,41.668Zm-3.468,0c0-.8.443-1.4.839-1.4s.839.6.839,1.4-.443,1.4-.839,1.4-.839-.6-.839-1.4Zm-23.955-9.18a.9.9,0,1,0-.932-1.528,3.622,3.622,0,0,1-1.929.522,3.565,3.565,0,0,1-1.776-.522.9.9,0,0,0-.933,1.528,5.357,5.357,0,0,0,2.67.783h.117a5.347,5.347,0,0,0,2.784-.785ZM19.124,18.907a4.855,4.855,0,0,0-4.628,0,.9.9,0,1,0,.849,1.576,3.065,3.065,0,0,1,2.927,0,.9.9,0,1,0,.851-1.575Zm20.493,24.4a2.626,2.626,0,0,0-2.379,2.862,2.626,2.626,0,0,0,2.379,2.862A2.626,2.626,0,0,0,42,46.168,2.626,2.626,0,0,0,39.617,43.305Zm0,3.935c-.24,0-.588-.418-.588-1.072s.348-1.072.588-1.072.588.418.588,1.072S39.857,47.24,39.617,47.24ZM23.16,50.363a.9.9,0,1,0,.9.9A.9.9,0,0,0,23.16,50.363Zm0,5.37a.9.9,0,1,0,.9.9A.9.9,0,0,0,23.16,55.733Z" transform="translate(0 0)"/>
    </g>
  </g>
</svg>
