<svg xmlns="http://www.w3.org/2000/svg" xmlns:xlink="http://www.w3.org/1999/xlink" width="113" height="113" viewBox="0 0 113 113">
  <defs>
    <filter id="Trazado_982547" x="0" y="0" width="113" height="113" filterUnits="userSpaceOnUse">
      <feOffset dy="3" input="SourceAlpha"/>
      <feGaussianBlur stdDeviation="3" result="blur"/>
      <feFlood flood-opacity="0.161"/>
      <feComposite operator="in" in2="blur"/>
      <feComposite in="SourceGraphic"/>
    </filter>
  </defs>
  <g id="Grupo_1235295" data-name="Grupo 1235295" transform="translate(-796.001 -5436.945)">
    <g id="Grupo_1234676" data-name="Grupo 1234676" transform="translate(805.001 5442.945)">
      <g id="Grupo_1232515" data-name="Grupo 1232515" transform="translate(0 0)">
        <g id="Grupo_1208028" data-name="Grupo 1208028">
          <g id="Grupo_1177675" data-name="Grupo 1177675">
            <g id="Grupo_1176928" data-name="Grupo 1176928" transform="translate(0)">
              <g id="Grupo_1172322" data-name="Grupo 1172322">
                <g id="Grupo_1164700" data-name="Grupo 1164700">
                  <g id="Grupo_1160931" data-name="Grupo 1160931">
                    <g id="Grupo_1160749" data-name="Grupo 1160749">
                      <g id="Grupo_1158891" data-name="Grupo 1158891">
                        <g id="Grupo_1157406" data-name="Grupo 1157406">
                          <g id="Grupo_1155793" data-name="Grupo 1155793">
                            <g id="Grupo_1154704" data-name="Grupo 1154704">
                              <g id="Grupo_1150790" data-name="Grupo 1150790">
                                <g id="Grupo_1154214" data-name="Grupo 1154214" transform="translate(0)">
                                  <g id="Grupo_1152583" data-name="Grupo 1152583">
                                    <g id="Grupo_1146973" data-name="Grupo 1146973">
                                      <g id="Grupo_1146954" data-name="Grupo 1146954">
                                        <g transform="matrix(1, 0, 0, 1, -9, -6)" filter="url(#Trazado_982547)">
                                          <g id="Trazado_982547-2" data-name="Trazado 982547" transform="translate(9 6)" fill="#fed0b4">
                                            <path d="M 47.49999618530273 93.49983978271484 C 41.28938293457031 93.49983978271484 35.26533126831055 92.2838134765625 29.59519577026367 89.88555908203125 C 24.11772918701172 87.56878662109375 19.19814300537109 84.25181579589844 14.97310256958008 80.02677154541016 C 10.74804973602295 75.80173492431641 7.431076049804688 70.88215637207031 5.114302635192871 65.40470886230469 C 2.716036081314087 59.73457336425781 1.500009536743164 53.71053314208984 1.500009536743164 47.49991989135742 C 1.500009536743164 41.289306640625 2.716036081314087 35.26526641845703 5.114302635192871 29.59513282775879 C 7.431076049804688 24.11767959594727 10.74804973602295 19.19810676574707 14.97310256958008 14.97306632995605 C 19.19814300537109 10.74802684783936 24.11772918701172 7.431053161621094 29.59519577026367 5.114279747009277 C 35.26533126831055 2.716026544570923 41.28938293457031 1.49999988079071 47.49999618530273 1.49999988079071 C 53.71060943603516 1.49999988079071 59.73466110229492 2.716026544570923 65.40479278564453 5.114279747009277 C 70.88226318359375 7.431053161621094 75.80184936523438 10.74802684783936 80.02688598632812 14.97306632995605 C 84.25194549560547 19.19810676574707 87.56891632080078 24.11767959594727 89.88568878173828 29.59513282775879 C 92.28395843505859 35.26526641845703 93.49998474121094 41.289306640625 93.49998474121094 47.49991989135742 C 93.49998474121094 53.71053314208984 92.28395843505859 59.73457336425781 89.88568878173828 65.40470886230469 C 87.56891632080078 70.88215637207031 84.25194549560547 75.80173492431641 80.02688598632812 80.02677154541016 C 75.80184936523438 84.25181579589844 70.88226318359375 87.56878662109375 65.40479278564453 89.88555908203125 C 59.73466110229492 92.2838134765625 53.71060943603516 93.49983978271484 47.49999618530273 93.49983978271484 Z" stroke="none"/>
                                            <path d="M 47.49999618530273 3 C 41.4912109375 3 35.66376495361328 4.1761474609375 30.17951965332031 6.495796203613281 C 24.88084411621094 8.7369384765625 20.12153625488281 11.94596862792969 16.03375244140625 16.03372192382812 C 11.94598388671875 20.12149047851562 8.736968994140625 24.88081359863281 6.495811462402344 30.17947387695312 C 4.176162719726562 35.66370391845703 3.000015258789062 41.49114990234375 3.000015258789062 47.49991989135742 C 3.000015258789062 53.50868988037109 4.176162719726562 59.33613586425781 6.495811462402344 64.82036590576172 C 8.736968994140625 70.11902618408203 11.94598388671875 74.87834930419922 16.03375244140625 78.96611785888672 C 20.12153625488281 83.05387115478516 24.88084411621094 86.26290130615234 30.17951965332031 88.50404357910156 C 35.66376495361328 90.82369232177734 41.4912109375 91.99983978271484 47.49999618530273 91.99983978271484 C 53.50878143310547 91.99983978271484 59.33622741699219 90.82369232177734 64.82047271728516 88.50404357910156 C 70.11914825439453 86.26290130615234 74.87845611572266 83.05387115478516 78.96623992919922 78.96611785888672 C 83.05400848388672 74.87834930419922 86.26303100585938 70.11902618408203 88.50418090820312 64.82036590576172 C 90.82382965087891 59.33613586425781 91.99997711181641 53.50868988037109 91.99997711181641 47.49991989135742 C 91.99997711181641 41.49114990234375 90.82382965087891 35.66370391845703 88.50418090820312 30.17947387695312 C 86.26303100585938 24.88081359863281 83.05400848388672 20.12149047851562 78.96623992919922 16.03372192382812 C 74.87845611572266 11.94596862792969 70.11914825439453 8.7369384765625 64.82047271728516 6.495796203613281 C 59.33622741699219 4.1761474609375 53.50878143310547 3 47.49999618530273 3 M 47.49999618530273 0 C 73.73350524902344 0 94.99997711181641 21.26644134521484 94.99997711181641 47.49991989135742 C 94.99997711181641 73.7333984375 73.73350524902344 94.99983978271484 47.49999618530273 94.99983978271484 C 21.26648712158203 94.99983978271484 1.52587890625e-05 73.7333984375 1.52587890625e-05 47.49991989135742 C 1.52587890625e-05 21.26644134521484 21.26648712158203 0 47.49999618530273 0 Z" stroke="none" fill="#fd660a"/>
                                          </g>
                                        </g>
                                      </g>
                                    </g>
                                  </g>
                                </g>
                              </g>
                            </g>
                          </g>
                        </g>
                      </g>
                    </g>
                  </g>
                </g>
              </g>
            </g>
          </g>
        </g>
      </g>
    </g>
    <g id="jeringuilla" transform="translate(818.626 5454.941)">
      <g id="Grupo_1235278" data-name="Grupo 1235278" transform="translate(46.322 10.053)">
        <path id="Trazado_1253532" data-name="Trazado 1253532" d="M350.076,70.85l.629,4.929,4.928.632,7.2-7.2-.713-4.941-4.848-.616Z" transform="translate(-350.076 -63.658)" fill="#e0dfe1" fill-rule="evenodd"/>
      </g>
      <g id="Grupo_1235279" data-name="Grupo 1235279" transform="translate(40.192 27.101)">
        <path id="Trazado_1253533" data-name="Trazado 1253533" d="M311.138,192.5l-4.94,1.831-2.453,5.561.542,3.267,3.065.34,7.392-7.389L314.2,192.5Z" transform="translate(-303.745 -192.5)" fill="#eff6ff" fill-rule="evenodd"/>
      </g>
      <g id="Grupo_1235280" data-name="Grupo 1235280" transform="translate(31.024 17.937)">
        <path id="Trazado_1253534" data-name="Trazado 1253534" d="M234.459,130.629l.289,3.206,3.318.4,4.828-2.5,2.565-4.886L244.9,123.7l-3.052-.461Z" transform="translate(-234.459 -123.24)" fill="#eff6ff" fill-rule="evenodd"/>
      </g>
      <g id="Grupo_1235281" data-name="Grupo 1235281" transform="translate(34.631 21.544)">
        <path id="Trazado_1253535" data-name="Trazado 1253535" d="M261.718,157.889l1.327,4.953,4.234.609,7.393-7.393-.633-4.928-4.928-.63Z" transform="translate(-261.718 -150.5)" fill="#e0dfe1" fill-rule="evenodd"/>
      </g>
      <g id="Grupo_1235282" data-name="Grupo 1235282" transform="translate(10.898 48.836)">
        <path id="Trazado_1253536" data-name="Trazado 1253536" d="M83.426,359.927a3.648,3.648,0,0,0,5.159,5.159l3.168-3.164-.612-4.832-4.547-.331Z" transform="translate(-82.363 -356.759)" fill="#eff6ff" fill-rule="evenodd"/>
      </g>
      <g id="Grupo_1235283" data-name="Grupo 1235283" transform="translate(15.13 29.666)">
        <path id="Trazado_1253537" data-name="Trazado 1253537" d="M114.341,231.053l5.159,5.163,8.025-.413,2.1-2.092,4.441-4.441,4.608-4.608-4.828-9.2-7.947-3.575L114.75,223.028Z" transform="translate(-114.341 -211.883)" fill="#fe8d94" fill-rule="evenodd"/>
      </g>
      <g id="Grupo_1235284" data-name="Grupo 1235284" transform="translate(26.684 25.326)">
        <path id="Trazado_1253538" data-name="Trazado 1253538" d="M201.659,183.421,214.434,196.2l4.34-4.344-3.607-3.607-5.561-5.561L206,179.081Z" transform="translate(-201.659 -179.081)" fill="#7e707d" fill-rule="evenodd"/>
      </g>
      <g id="Grupo_1235285" data-name="Grupo 1235285" transform="translate(37.036 12.258)">
        <path id="Trazado_1253539" data-name="Trazado 1253539" d="M284.884,89.612l5.561,5.557,3.607,3.611.893.893a1.665,1.665,0,0,0,2.345,0l1.954-1.954a1.66,1.66,0,0,0,0-2.341l-4.5-4.5-5.557-5.561-4.5-4.5a1.658,1.658,0,0,0-2.345,0l-1.954,1.954a1.66,1.66,0,0,0,0,2.341l.9.9Z" transform="translate(-279.897 -80.327)" fill="#a1d4ff" fill-rule="evenodd"/>
      </g>
      <g id="Grupo_1235286" data-name="Grupo 1235286" transform="translate(50.642 2.87)">
        <path id="Trazado_1253540" data-name="Trazado 1253540" d="M383.063,14.025l2.531,2.535,5.561,5.557,3.034,3.034a1.168,1.168,0,0,0,1.649,0l2.658-2.658a1.168,1.168,0,0,0,0-1.649L387.366,9.719a1.168,1.168,0,0,0-1.649,0l-2.654,2.658a1.168,1.168,0,0,0,0,1.649Z" transform="translate(-382.722 -9.378)" fill="#a1d4ff" fill-rule="evenodd"/>
      </g>
      <g id="Grupo_1235287" data-name="Grupo 1235287" transform="translate(11.076 51.665)">
        <path id="Trazado_1253541" data-name="Trazado 1253541" d="M83.706,382.194a3.646,3.646,0,0,0,6.045,1.444l3.168-3.164-2.33-2.334-2.583,2.583-.584.584a3.659,3.659,0,0,1-3.715.886Z" transform="translate(-83.706 -378.14)" fill="#d9eeff" fill-rule="evenodd"/>
      </g>
      <g id="Grupo_1235288" data-name="Grupo 1235288" transform="translate(17.959 40.111)">
        <path id="Trazado_1253542" data-name="Trazado 1253542" d="M138.05,304.708l8.025-.413,2.1-2.092,4.441-4.441,4.608-4.608-2.33-2.334-4.608,4.612-4.441,4.441-2.1,2.092-8.025.409Z" transform="translate(-135.72 -290.82)" fill="#ff6d75" fill-rule="evenodd"/>
      </g>
      <g id="Grupo_1235289" data-name="Grupo 1235289" transform="translate(37.128 35.771)">
        <path id="Trazado_1253543" data-name="Trazado 1253543" d="M280.593,262.358l2.33,2.334,4.34-4.344-2.33-2.33Z" transform="translate(-280.593 -258.018)" fill="#6a5c69" fill-rule="evenodd"/>
      </g>
      <g id="Grupo_1235290" data-name="Grupo 1235290" transform="translate(41.469 28.382)">
        <path id="Trazado_1253544" data-name="Trazado 1253544" d="M313.394,209.566l2.33,2.33,7.393-7.389-1.429-1.429-.007-.007-.893-.893Z" transform="translate(-313.394 -202.177)" fill="#d9eeff" fill-rule="evenodd"/>
      </g>
      <g id="Grupo_1235291" data-name="Grupo 1235291" transform="translate(49.762 24.976)">
        <path id="Trazado_1253545" data-name="Trazado 1253545" d="M378.392,183.067a1.665,1.665,0,0,0,2.345,0l1.954-1.954a1.66,1.66,0,0,0,0-2.341l-2.33-2.334a1.665,1.665,0,0,1,0,2.345l-1.958,1.954a1.661,1.661,0,0,1-2.334.007l1.429,1.429Z" transform="translate(-376.069 -176.437)" fill="#86beec" fill-rule="evenodd"/>
      </g>
      <g id="Grupo_1235292" data-name="Grupo 1235292" transform="translate(38.111 25.021)">
        <path id="Trazado_1253546" data-name="Trazado 1253546" d="M295.409,176.775l-7.389,7.393,2.081,2.081,7.393-7.393Z" transform="translate(-288.02 -176.775)" fill="#d3cfd2" fill-rule="evenodd"/>
      </g>
      <g id="Grupo_1235293" data-name="Grupo 1235293" transform="translate(49.799 13.53)">
        <path id="Trazado_1253547" data-name="Trazado 1253547" d="M376.35,97.125l2.081,2.084,7.2-7.2-2.084-2.081Z" transform="translate(-376.35 -89.933)" fill="#d3cfd2" fill-rule="evenodd"/>
      </g>
      <g id="Grupo_1235294" data-name="Grupo 1235294" transform="translate(59.86 12.093)">
        <path id="Trazado_1253548" data-name="Trazado 1253548" d="M452.388,83.377l2.248,2.248a1.168,1.168,0,0,0,1.649,0l2.658-2.658a1.168,1.168,0,0,0,0-1.649l-2.248-2.245a1.168,1.168,0,0,1,0,1.649l-2.658,2.654A1.168,1.168,0,0,1,452.388,83.377Z" transform="translate(-452.388 -79.074)" fill="#86beec" fill-rule="evenodd"/>
      </g>
      <path id="Trazado_1253549" data-name="Trazado 1253549" d="M67.117,13.635,62.468,8.99a.992.992,0,0,0-1.4,1.4l4.649,4.645a.172.172,0,0,1,.05.125.166.166,0,0,1-.05.121l-2.658,2.658a.176.176,0,0,1-.245,0l-3.034-3.034h0L51.685,6.816a.176.176,0,0,1,0-.246l2.654-2.657a.172.172,0,0,1,.124-.05h0a.166.166,0,0,1,.121.05l3.264,3.264a.992.992,0,0,0,1.4-1.4L55.99,2.512a2.136,2.136,0,0,0-1.523-.634h0a2.145,2.145,0,0,0-1.528.632L50.281,5.167a2.161,2.161,0,0,0,0,3.052l1.831,1.831L46.32,15.843l-3.8-3.8a2.626,2.626,0,0,0-1.871-.779h0a2.634,2.634,0,0,0-1.876.776L36.817,14a2.651,2.651,0,0,0,0,3.745l.2.2-6.671,6.669-.02.018-4.34,4.34-.009.01L22.2,32.746a.992.992,0,1,0,1.4,1.4l3.08-3.08,11.37,11.374-3.205,3.2-1.623-1.623a.992.992,0,0,0-1.4,1.4l1.623,1.623-3.037,3.037-1.623-1.623a.992.992,0,0,0-1.4,1.4L29,51.492l-1.122,1.122-7.2.371-4.535-4.539.367-7.2,3.877-3.877a.992.992,0,0,0-1.4-1.4l-4.147,4.147a.992.992,0,0,0-.289.651l-.39,7.644-2.9,2.9a4.648,4.648,0,0,0-.625,5.785L.29,67.435a.992.992,0,1,0,1.4,1.4L12.038,58.491a4.649,4.649,0,0,0,5.785-.626l2.9-2.895,7.645-.394a.993.993,0,0,0,.651-.289L40.14,43.165l.021-.019,1.917-1.918,9.114-9.113.192.192a2.657,2.657,0,0,0,3.749,0l1.954-1.954a2.652,2.652,0,0,0,0-3.745l-3.8-3.8,5.792-5.792,2.332,2.332a2.161,2.161,0,0,0,3.053,0l2.655-2.655a2.16,2.16,0,0,0,0-3.055Zm-50.7,42.827a2.661,2.661,0,0,1-3.754,0h0a2.659,2.659,0,0,1,0-3.756l2.466-2.466L18.885,54Zm22-37.122,2.2,2.2-5.989,5.986-2.2-2.2Zm3.607,3.607L46.179,27.1,40.192,33.09l-2.079-2.079-2.079-2.079ZM40.674,39.825l-1.216,1.216L28.087,29.667l2.937-2.937L42.4,38.1ZM43.8,36.7l-2.2-2.2,5.987-5.987,2.205,2.205Zm11.882-8.687a.668.668,0,0,1,0,.938L53.728,30.9a.672.672,0,0,1-.941,0L38.221,16.338a.664.664,0,0,1,0-.938l1.954-1.954a.663.663,0,0,1,.472-.2h0a.655.655,0,0,1,.468.2ZM51.88,21.4l-4.156-4.156,5.792-5.792,4.156,4.156Z" transform="translate(0)"/>
    </g>
  </g>
</svg>
