<svg xmlns="http://www.w3.org/2000/svg" xmlns:xlink="http://www.w3.org/1999/xlink" width="113" height="113" viewBox="0 0 113 113">
  <defs>
    <filter id="Trazado_982547" x="0" y="0" width="113" height="113" filterUnits="userSpaceOnUse">
      <feOffset dy="3" input="SourceAlpha"/>
      <feGaussianBlur stdDeviation="3" result="blur"/>
      <feFlood flood-opacity="0.161"/>
      <feComposite operator="in" in2="blur"/>
      <feComposite in="SourceGraphic"/>
    </filter>
  </defs>
  <g id="Grupo_1235366" data-name="Grupo 1235366" transform="translate(-1111 -5436.944)">
    <g id="Grupo_1234677" data-name="Grupo 1234677" transform="translate(1120 5442.944)">
      <g id="Grupo_1232516" data-name="Grupo 1232516" transform="translate(0 0)">
        <g id="Grupo_1208038" data-name="Grupo 1208038">
          <g id="Grupo_1202104" data-name="Grupo 1202104">
            <g id="Grupo_1201923" data-name="Grupo 1201923">
              <g id="Grupo_1176928" data-name="Grupo 1176928" transform="translate(0)">
                <g id="Grupo_1172322" data-name="Grupo 1172322">
                  <g id="Grupo_1164700" data-name="Grupo 1164700">
                    <g id="Grupo_1160931" data-name="Grupo 1160931">
                      <g id="Grupo_1160749" data-name="Grupo 1160749">
                        <g id="Grupo_1158891" data-name="Grupo 1158891">
                          <g id="Grupo_1157406" data-name="Grupo 1157406">
                            <g id="Grupo_1155793" data-name="Grupo 1155793">
                              <g id="Grupo_1154704" data-name="Grupo 1154704">
                                <g id="Grupo_1150790" data-name="Grupo 1150790">
                                  <g id="Grupo_1154214" data-name="Grupo 1154214" transform="translate(0)">
                                    <g id="Grupo_1152583" data-name="Grupo 1152583">
                                      <g id="Grupo_1146973" data-name="Grupo 1146973">
                                        <g id="Grupo_1146954" data-name="Grupo 1146954">
                                          <g transform="matrix(1, 0, 0, 1, -9, -6)" filter="url(#Trazado_982547)">
                                            <g id="Trazado_982547-2" data-name="Trazado 982547" transform="translate(9 6)" fill="#fed0b4">
                                              <path d="M 47.49999618530273 93.49983978271484 C 41.28938293457031 93.49983978271484 35.26533126831055 92.2838134765625 29.59519577026367 89.88555908203125 C 24.11772918701172 87.56878662109375 19.19814300537109 84.25181579589844 14.97310256958008 80.02677154541016 C 10.74804973602295 75.80173492431641 7.431076049804688 70.88215637207031 5.114302635192871 65.40470886230469 C 2.716036081314087 59.73457336425781 1.500009536743164 53.71053314208984 1.500009536743164 47.49991989135742 C 1.500009536743164 41.289306640625 2.716036081314087 35.26526641845703 5.114302635192871 29.59513282775879 C 7.431076049804688 24.11767959594727 10.74804973602295 19.19810676574707 14.97310256958008 14.97306632995605 C 19.19814300537109 10.74802684783936 24.11772918701172 7.431053161621094 29.59519577026367 5.114279747009277 C 35.26533126831055 2.716026544570923 41.28938293457031 1.49999988079071 47.49999618530273 1.49999988079071 C 53.71060943603516 1.49999988079071 59.73466110229492 2.716026544570923 65.40479278564453 5.114279747009277 C 70.88226318359375 7.431053161621094 75.80184936523438 10.74802684783936 80.02688598632812 14.97306632995605 C 84.25194549560547 19.19810676574707 87.56891632080078 24.11767959594727 89.88568878173828 29.59513282775879 C 92.28395843505859 35.26526641845703 93.49998474121094 41.289306640625 93.49998474121094 47.49991989135742 C 93.49998474121094 53.71053314208984 92.28395843505859 59.73457336425781 89.88568878173828 65.40470886230469 C 87.56891632080078 70.88215637207031 84.25194549560547 75.80173492431641 80.02688598632812 80.02677154541016 C 75.80184936523438 84.25181579589844 70.88226318359375 87.56878662109375 65.40479278564453 89.88555908203125 C 59.73466110229492 92.2838134765625 53.71060943603516 93.49983978271484 47.49999618530273 93.49983978271484 Z" stroke="none"/>
                                              <path d="M 47.49999618530273 3 C 41.4912109375 3 35.66376495361328 4.1761474609375 30.17951965332031 6.495796203613281 C 24.88084411621094 8.7369384765625 20.12153625488281 11.94596862792969 16.03375244140625 16.03372192382812 C 11.94598388671875 20.12149047851562 8.736968994140625 24.88081359863281 6.495811462402344 30.17947387695312 C 4.176162719726562 35.66370391845703 3.000015258789062 41.49114990234375 3.000015258789062 47.49991989135742 C 3.000015258789062 53.50868988037109 4.176162719726562 59.33613586425781 6.495811462402344 64.82036590576172 C 8.736968994140625 70.11902618408203 11.94598388671875 74.87834930419922 16.03375244140625 78.96611785888672 C 20.12153625488281 83.05387115478516 24.88084411621094 86.26290130615234 30.17951965332031 88.50404357910156 C 35.66376495361328 90.82369232177734 41.4912109375 91.99983978271484 47.49999618530273 91.99983978271484 C 53.50878143310547 91.99983978271484 59.33622741699219 90.82369232177734 64.82047271728516 88.50404357910156 C 70.11914825439453 86.26290130615234 74.87845611572266 83.05387115478516 78.96623992919922 78.96611785888672 C 83.05400848388672 74.87834930419922 86.26303100585938 70.11902618408203 88.50418090820312 64.82036590576172 C 90.82382965087891 59.33613586425781 91.99997711181641 53.50868988037109 91.99997711181641 47.49991989135742 C 91.99997711181641 41.49114990234375 90.82382965087891 35.66370391845703 88.50418090820312 30.17947387695312 C 86.26303100585938 24.88081359863281 83.05400848388672 20.12149047851562 78.96623992919922 16.03372192382812 C 74.87845611572266 11.94596862792969 70.11914825439453 8.7369384765625 64.82047271728516 6.495796203613281 C 59.33622741699219 4.1761474609375 53.50878143310547 3 47.49999618530273 3 M 47.49999618530273 0 C 73.73350524902344 0 94.99997711181641 21.26644134521484 94.99997711181641 47.49991989135742 C 94.99997711181641 73.7333984375 73.73350524902344 94.99983978271484 47.49999618530273 94.99983978271484 C 21.26648712158203 94.99983978271484 1.52587890625e-05 73.7333984375 1.52587890625e-05 47.49991989135742 C 1.52587890625e-05 21.26644134521484 21.26648712158203 0 47.49999618530273 0 Z" stroke="none" fill="#fd660a"/>
                                            </g>
                                          </g>
                                        </g>
                                      </g>
                                    </g>
                                  </g>
                                </g>
                              </g>
                            </g>
                          </g>
                        </g>
                      </g>
                    </g>
                  </g>
                </g>
              </g>
            </g>
          </g>
        </g>
      </g>
    </g>
    <g id="refuerzo-inmunologico" transform="translate(1138.765 5451.974)">
      <g id="Grupo_1235297" data-name="Grupo 1235297" transform="translate(10.85 12.152)">
        <g id="Grupo_1235296" data-name="Grupo 1235296" transform="translate(0 0)">
          <path id="Trazado_1253550" data-name="Trazado 1253550" d="M124.441,19.24A100.264,100.264,0,0,1,106.771,17,98.934,98.934,0,0,1,92.1,19.074L90.831,27.2a51.812,51.812,0,0,0,16.059,46.351,48.416,48.416,0,0,0,8.983-5.949c-2.382-2.37-.415-3.864,1.73-1.517.628-.581,1.268-1.185,1.849-1.8-7.336-7.075.593-18.844,9.9-14.755A48.523,48.523,0,0,0,133.33,30.25V19.193C130.663,19.323,127.688,19.37,124.441,19.24Zm2.038,26.808c-1.09.308-3.247-.178-3.164-1.067,0-.64,1.019-1.15,2.287-1.15,1.9-.095,3.6,1.529.877,2.216Z" transform="translate(-90.203 -17)" fill="#a3e72e"/>
        </g>
      </g>
      <g id="Grupo_1235299" data-name="Grupo 1235299" transform="translate(0.859 14.238)">
        <g id="Grupo_1235298" data-name="Grupo 1235298">
          <path id="Trazado_1253551" data-name="Trazado 1253551" d="M32.577,89.069c-.036.024-.071.036-.107.059A48.688,48.688,0,0,1,5.9,45.764V34.707A101.091,101.091,0,0,0,17.8,34.6l-1.268,8.13A51.762,51.762,0,0,0,32.577,89.069Z" transform="translate(-5.9 -34.6)" fill="#80cf00"/>
        </g>
      </g>
      <g id="Grupo_1235301" data-name="Grupo 1235301" transform="translate(4.923 18.575)">
        <g id="Grupo_1235300" data-name="Grupo 1235300" transform="translate(0 0)">
          <path id="Trazado_1253552" data-name="Trazado 1253552" d="M62.8,116.946c-.036.024-.071.036-.107.059A44.636,44.636,0,0,1,40.189,78.252V71.366q3.52.036,7.063-.166A50.564,50.564,0,0,0,62.8,116.946Z" transform="translate(-40.188 -71.2)" fill="#f2f1eb"/>
        </g>
      </g>
      <g id="Grupo_1235303" data-name="Grupo 1235303" transform="translate(11.249 16.537)">
        <g id="Grupo_1235302" data-name="Grupo 1235302" transform="translate(0 0)">
          <path id="Trazado_1253553" data-name="Trazado 1253553" d="M132.241,56.2V63.09a44.7,44.7,0,0,1-2.121,13.665c-1.007-.593-3.864-.284-3.84.841-.083.889,2.074,1.387,3.164,1.067-.32.913-.687,1.79-1.078,2.667A9.039,9.039,0,0,0,120.188,93.6a44.732,44.732,0,0,1-10.334,8.177A50.531,50.531,0,0,1,94.3,56.038,103.748,103.748,0,0,0,109.747,54a104.725,104.725,0,0,0,22.494,2.2Z" transform="translate(-93.566 -54)" fill="#f9f9f7"/>
        </g>
      </g>
      <g id="Grupo_1235305" data-name="Grupo 1235305" transform="translate(17.558 26.468)">
        <g id="Grupo_1235304" data-name="Grupo 1235304" transform="translate(0 0)">
          <path id="Trazado_1253554" data-name="Trazado 1253554" d="M166.248,144.532H159.5V137.8h-5.961v6.732H146.8V150.5h6.743v6.732H159.5V150.5h6.743Z" transform="translate(-146.8 -137.8)" fill="#ff7a7a"/>
        </g>
      </g>
      <g id="Grupo_1235307" data-name="Grupo 1235307" transform="translate(37.295 43.878)">
        <g id="Grupo_1235306" data-name="Grupo 1235306">
          <path id="Trazado_1253555" data-name="Trazado 1253555" d="M331.3,293.7a9,9,0,0,1-9.007,9.007c-11.946-.474-11.934-17.528,0-18A8.985,8.985,0,0,1,331.3,293.7Z" transform="translate(-313.337 -284.7)" fill="#ff7a7a"/>
        </g>
      </g>
      <g id="Grupo_1235332" data-name="Grupo 1235332" transform="translate(34.017 40.619)">
        <g id="Grupo_1235310" data-name="Grupo 1235310" transform="translate(3.381 16.707)">
          <g id="Grupo_1235309" data-name="Grupo 1235309">
            <g id="Grupo_1235308" data-name="Grupo 1235308">
              <path id="Trazado_1253556" data-name="Trazado 1253556" d="M314.876,402.584a.675.675,0,0,1-.474-1.15l3.058-3.058a.679.679,0,0,1,.96.96l-3.058,3.058A.758.758,0,0,1,314.876,402.584Z" transform="translate(-314.201 -398.172)" fill="#f72c2c"/>
            </g>
          </g>
        </g>
        <g id="Grupo_1235313" data-name="Grupo 1235313" transform="translate(16.69 3.386)">
          <g id="Grupo_1235312" data-name="Grupo 1235312">
            <g id="Grupo_1235311" data-name="Grupo 1235311">
              <path id="Trazado_1253557" data-name="Trazado 1253557" d="M427.176,290.184a.675.675,0,0,1-.474-1.15l3.058-3.058a.679.679,0,0,1,.96.96l-3.058,3.058A.68.68,0,0,1,427.176,290.184Z" transform="translate(-426.501 -285.772)" fill="#f72c2c"/>
            </g>
          </g>
        </g>
        <g id="Grupo_1235316" data-name="Grupo 1235316" transform="translate(0 11.579)">
          <g id="Grupo_1235315" data-name="Grupo 1235315">
            <g id="Grupo_1235314" data-name="Grupo 1235314">
              <path id="Trazado_1253558" data-name="Trazado 1253558" d="M290.667,356.251h-4.326a.676.676,0,0,1,0-1.351h4.326A.676.676,0,0,1,290.667,356.251Z" transform="translate(-285.675 -354.9)" fill="#f72c2c"/>
            </g>
          </g>
        </g>
        <g id="Grupo_1235319" data-name="Grupo 1235319" transform="translate(18.832 11.579)">
          <g id="Grupo_1235318" data-name="Grupo 1235318">
            <g id="Grupo_1235317" data-name="Grupo 1235317">
              <path id="Trazado_1253559" data-name="Trazado 1253559" d="M449.567,356.251h-4.326a.676.676,0,0,1,0-1.351h4.326A.676.676,0,0,1,449.567,356.251Z" transform="translate(-444.575 -354.9)" fill="#f72c2c"/>
            </g>
          </g>
        </g>
        <g id="Grupo_1235322" data-name="Grupo 1235322" transform="translate(3.377 3.379)">
          <g id="Grupo_1235321" data-name="Grupo 1235321">
            <g id="Grupo_1235320" data-name="Grupo 1235320">
              <path id="Trazado_1253560" data-name="Trazado 1253560" d="M317.909,290.132a.664.664,0,0,1-.474-.2l-3.058-3.058a.679.679,0,0,1,.96-.96l3.058,3.058A.687.687,0,0,1,317.909,290.132Z" transform="translate(-314.172 -285.713)" fill="#f72c2c"/>
            </g>
          </g>
        </g>
        <g id="Grupo_1235325" data-name="Grupo 1235325" transform="translate(16.686 16.7)">
          <g id="Grupo_1235324" data-name="Grupo 1235324">
            <g id="Grupo_1235323" data-name="Grupo 1235323">
              <path id="Trazado_1253561" data-name="Trazado 1253561" d="M430.209,402.532a.665.665,0,0,1-.474-.2l-3.058-3.058a.679.679,0,0,1,.96-.96l3.058,3.058A.689.689,0,0,1,430.209,402.532Z" transform="translate(-426.472 -398.113)" fill="#f72c2c"/>
            </g>
          </g>
        </g>
        <g id="Grupo_1235328" data-name="Grupo 1235328" transform="translate(11.558)">
          <g id="Grupo_1235327" data-name="Grupo 1235327">
            <g id="Grupo_1235326" data-name="Grupo 1235326">
              <path id="Trazado_1253562" data-name="Trazado 1253562" d="M383.875,262.877a.675.675,0,0,1-.676-.676v-4.326a.676.676,0,0,1,1.351,0V262.2A.668.668,0,0,1,383.875,262.877Z" transform="translate(-383.2 -257.2)" fill="#f72c2c"/>
            </g>
          </g>
        </g>
        <g id="Grupo_1235331" data-name="Grupo 1235331" transform="translate(11.558 18.832)">
          <g id="Grupo_1235330" data-name="Grupo 1235330">
            <g id="Grupo_1235329" data-name="Grupo 1235329">
              <path id="Trazado_1253563" data-name="Trazado 1253563" d="M383.875,421.777a.675.675,0,0,1-.676-.676v-4.326a.676.676,0,1,1,1.351,0V421.1A.668.668,0,0,1,383.875,421.777Z" transform="translate(-383.2 -416.1)" fill="#f72c2c"/>
            </g>
          </g>
        </g>
      </g>
      <g id="Grupo_1235349" data-name="Grupo 1235349" transform="translate(32.384 38.995)">
        <g id="Grupo_1235334" data-name="Grupo 1235334" transform="translate(3.04 21.041)">
          <g id="Grupo_1235333" data-name="Grupo 1235333">
            <path id="Trazado_1253564" data-name="Trazado 1253564" d="M301.006,424.5c-1.114,1.043-4.29-2.169-3.247-3.247C298.8,420.207,302.049,423.359,301.006,424.5Z" transform="translate(-297.551 -421.042)" fill="#ff7a7a"/>
          </g>
        </g>
        <g id="Grupo_1235336" data-name="Grupo 1235336" transform="translate(21.043 3.041)">
          <g id="Grupo_1235335" data-name="Grupo 1235335">
            <path id="Trazado_1253565" data-name="Trazado 1253565" d="M449.663,269.363c-1.043,1.1,2.145,4.29,3.247,3.247C453.953,271.508,450.765,268.32,449.663,269.363Z" transform="translate(-449.456 -269.156)" fill="#ff7a7a"/>
          </g>
        </g>
        <g id="Grupo_1235338" data-name="Grupo 1235338" transform="translate(0 11.579)">
          <g id="Grupo_1235337" data-name="Grupo 1235337">
            <path id="Trazado_1253566" data-name="Trazado 1253566" d="M273.038,341.2c1.517.036,1.517,4.551,0,4.586C271.521,345.751,271.521,341.236,273.038,341.2Z" transform="translate(-271.9 -341.2)" fill="#ff7a7a"/>
          </g>
        </g>
        <g id="Grupo_1235340" data-name="Grupo 1235340" transform="translate(25.469 11.579)">
          <g id="Grupo_1235339" data-name="Grupo 1235339">
            <path id="Trazado_1253567" data-name="Trazado 1253567" d="M487.938,341.2c-1.517.036-1.517,4.551,0,4.586C489.455,345.751,489.455,341.236,487.938,341.2Z" transform="translate(-486.8 -341.2)" fill="#ff7a7a"/>
          </g>
        </g>
        <g id="Grupo_1235342" data-name="Grupo 1235342" transform="translate(3.041 3.041)">
          <g id="Grupo_1235341" data-name="Grupo 1235341">
            <path id="Trazado_1253568" data-name="Trazado 1253568" d="M301.01,269.363c1.043,1.1-2.145,4.29-3.247,3.247C296.72,271.508,299.908,268.32,301.01,269.363Z" transform="translate(-297.556 -269.156)" fill="#ff7a7a"/>
          </g>
        </g>
        <g id="Grupo_1235344" data-name="Grupo 1235344" transform="translate(21.043 21.043)">
          <g id="Grupo_1235343" data-name="Grupo 1235343">
            <path id="Trazado_1253569" data-name="Trazado 1253569" d="M452.91,421.263c-1.1-1.043-4.29,2.145-3.247,3.247C450.765,425.553,453.953,422.365,452.91,421.263Z" transform="translate(-449.456 -421.056)" fill="#ff7a7a"/>
          </g>
        </g>
        <g id="Grupo_1235346" data-name="Grupo 1235346" transform="translate(11.579)">
          <g id="Grupo_1235345" data-name="Grupo 1235345">
            <path id="Trazado_1253570" data-name="Trazado 1253570" d="M374.186,244.638c-.036,1.517-4.551,1.517-4.586,0C369.636,243.121,374.151,243.121,374.186,244.638Z" transform="translate(-369.6 -243.5)" fill="#ff7a7a"/>
          </g>
        </g>
        <g id="Grupo_1235348" data-name="Grupo 1235348" transform="translate(11.579 25.469)">
          <g id="Grupo_1235347" data-name="Grupo 1235347">
            <path id="Trazado_1253571" data-name="Trazado 1253571" d="M374.186,459.538c-.036-1.517-4.551-1.517-4.586,0C369.636,461.055,374.151,461.055,374.186,459.538Z" transform="translate(-369.6 -458.4)" fill="#ff7a7a"/>
          </g>
        </g>
      </g>
      <g id="Grupo_1235351" data-name="Grupo 1235351" transform="translate(41.521 50.144)">
        <g id="Grupo_1235350" data-name="Grupo 1235350" transform="translate(0 0)">
          <path id="Trazado_1253572" data-name="Trazado 1253572" d="M351.441,338.775a1.221,1.221,0,0,1-2.441,0A1.221,1.221,0,0,1,351.441,338.775Z" transform="translate(-349 -337.575)" fill="#f72c2c"/>
        </g>
      </g>
      <g id="Grupo_1235353" data-name="Grupo 1235353" transform="translate(47.483 48.989)">
        <g id="Grupo_1235352" data-name="Grupo 1235352">
          <path id="Trazado_1253573" data-name="Trazado 1253573" d="M403.2,329.754a1.95,1.95,0,0,1-3.9,0A1.95,1.95,0,0,1,403.2,329.754Z" transform="translate(-399.3 -327.825)" fill="#f72c2c"/>
        </g>
      </g>
      <g id="Grupo_1235355" data-name="Grupo 1235355" transform="translate(44.401 55.181)">
        <g id="Grupo_1235354" data-name="Grupo 1235354">
          <path id="Trazado_1253574" data-name="Trazado 1253574" d="M376.512,381.666a1.606,1.606,0,0,1-3.212,0A1.606,1.606,0,0,1,376.512,381.666Z" transform="translate(-373.3 -380.075)" fill="#f72c2c"/>
        </g>
      </g>
      <g id="Grupo_1235357" data-name="Grupo 1235357" transform="translate(16.894 25.793)">
        <g id="Grupo_1235356" data-name="Grupo 1235356">
          <path id="Trazado_1253575" data-name="Trazado 1253575" d="M161.312,138.832h-6.056v-6.056a.675.675,0,0,0-.676-.676h-5.973a.675.675,0,0,0-.676.676v6.056h-6.056a.675.675,0,0,0-.676.676v5.973a.675.675,0,0,0,.676.676h6.056v6.056a.675.675,0,0,0,.676.676h5.973a.675.675,0,0,0,.676-.676v-6.056h6.056a.675.675,0,0,0,.676-.676v-5.973A.675.675,0,0,0,161.312,138.832Zm-.676,5.973H154.58a.675.675,0,0,0-.676.676v6.056h-4.622V145.48a.675.675,0,0,0-.676-.676h-6.056v-4.622h6.056a.675.675,0,0,0,.676-.676v-6.056H153.9v6.056a.675.675,0,0,0,.676.676h6.056Z" transform="translate(-141.2 -132.1)" fill="#231f20"/>
        </g>
      </g>
      <g id="Grupo_1235359" data-name="Grupo 1235359" transform="translate(0.182 11.5)">
        <g id="Grupo_1235358" data-name="Grupo 1235358" transform="translate(0 0)">
          <path id="Trazado_1253576" data-name="Trazado 1253576" d="M59,49.91c-.9,0-1.612.948-1.79,2.3h-1.3a9.665,9.665,0,0,0-2.347-5.665l.924-.924c2.987,2.157,4.444-.806,2.074-3.034-2.24-2.382-5.215-.877-3.034,2.074l-.924.924a10.359,10.359,0,0,0-1.73-1.221A49.059,49.059,0,0,0,54.665,25.4V14.344a.676.676,0,0,0-.711-.676,102.6,102.6,0,0,1-14.139-.284c-3.709-.249-8.782-1.209-12.539-1.884a102.171,102.171,0,0,1-12.231,1.884,100.9,100.9,0,0,1-14.151.284.643.643,0,0,0-.5.19.7.7,0,0,0-.213.486V25.4A49.414,49.414,0,0,0,27.122,69.37a.7.7,0,0,0,.616,0,49.716,49.716,0,0,0,8.782-5.736c2.062,1.683,4.338.213,2.643-2.311.332-.32.664-.628,1-.948a9.66,9.66,0,0,0,5.428,2.145v1.3c-3.472.5-2.75,3.674.676,3.615,3.425.059,4.148-3.129.676-3.615v-1.3A9.665,9.665,0,0,0,52.6,60.174l.924.924c-1.3,1.47-.877,3.84,1.387,3.152,1.553-.486,3.745-2.927,2.453-4.468-.64-.64-1.813-.462-2.892.367l-.924-.924A9.591,9.591,0,0,0,55.9,53.561h1.3c.178,1.339.889,2.287,1.79,2.287,2.43-.012,2.43-5.938.012-5.938Zm-4.871-7.17a2.154,2.154,0,0,1,1.481.794A2.306,2.306,0,0,1,56.431,45a2.055,2.055,0,0,1-1.493-.794A2.233,2.233,0,0,1,54.131,42.74ZM27.43,68.019A48.08,48.08,0,0,1,1.547,25.414V15.067a102.047,102.047,0,0,0,25.9-2.2,101.405,101.405,0,0,0,12.266,1.873,100.675,100.675,0,0,0,13.617.32V25.4A47.741,47.741,0,0,1,49.663,43.8a10.612,10.612,0,0,0-2.584-.581c.213-.5.4-.984.581-1.458,1.375-.344,2.228-1.79.96-2.785a45.247,45.247,0,0,0,2-13.357V18.753c-.047-.889-1.031-.64-1.647-.676a112.6,112.6,0,0,1-21.664-2.2,101.471,101.471,0,0,1-11.875,1.766,95.927,95.927,0,0,1-10.477.427.712.712,0,0,0-.486.19.671.671,0,0,0-.2.486v6.886A45.29,45.29,0,0,0,27.122,64.962a.664.664,0,0,0,.664,0,44.54,44.54,0,0,0,9.908-7.644A9.829,9.829,0,0,0,38.985,59.2l-.924.924c-2.453-1.908-4.421.154-2.5,2.56a48.039,48.039,0,0,1-8.13,5.333ZM47.874,40.145c-.521.64-2.726.6-3.224.024C44.875,39.635,47.269,39.422,47.874,40.145Zm-.5-1.707c-1.316-.356-3.662.036-4.018,1.327s1.138,2.062,2.228,2.169v1.292a9.768,9.768,0,0,0-5.665,2.358L39,44.66c2.2-3.129-.936-4.361-3.034-2.086-2.358,2.228-.9,5.2,2.074,3.034l.924.924A9.616,9.616,0,0,0,36.615,52.2H35.323c-.5-3.472-3.674-2.75-3.615.676-.059,3.425,3.117,4.148,3.615.676h1.292A10.743,10.743,0,0,0,37.1,55.99a43.822,43.822,0,0,1-9.671,7.62A43.961,43.961,0,0,1,5.6,25.639v-6.2a106.17,106.17,0,0,0,21.83-2.2,107.222,107.222,0,0,0,21.818,2.2c.107,6.222.083,13.084-1.873,19ZM37.6,44.21a2.347,2.347,0,0,1-1.47.818c-.2-.676,1.481-2.43,2.264-2.3A2.134,2.134,0,0,1,37.6,44.21Zm-3.591,8.675a2.3,2.3,0,0,1-.462,1.612c-.64-.344-.652-2.821-.024-3.224A2.1,2.1,0,0,1,34.008,52.885Zm4.4,10.133c-.593.154-2.347-1.375-2.3-2.264C37.054,60.648,38.523,62.378,38.4,63.018Zm9.469,2.6a2.2,2.2,0,0,1-1.612.474,2.34,2.34,0,0,1-1.624-.462,2.087,2.087,0,0,1,1.624-.5A2.208,2.208,0,0,1,47.874,65.613Zm8.474-4.871h.059a2.27,2.27,0,0,1-.794,1.481,2.374,2.374,0,0,1-1.47.818c-.059-.142.083-.794.782-1.493A2.344,2.344,0,0,1,56.348,60.742ZM52.6,58.266c-.438-.391-1.031-1.351-1.695-.735-.628.664.344,1.244.735,1.695a8.312,8.312,0,0,1-4.7,1.955V60.138a.675.675,0,0,0-.676-.676.683.683,0,0,0-.676.676v1.043a8.232,8.232,0,0,1-4.705-1.955c.391-.439,1.351-1.031.735-1.695-.664-.628-1.244.344-1.695.735a8.306,8.306,0,0,1-1.955-4.705h1.043a.676.676,0,1,0,0-1.351H37.966a8.14,8.14,0,0,1,1.967-4.693c.439.391,1.019,1.339,1.683.723.616-.664-.332-1.244-.723-1.683A8.184,8.184,0,0,1,45.587,44.6v1.031a.675.675,0,0,0,.676.676.683.683,0,0,0,.676-.676V44.589a8.226,8.226,0,0,1,4.7,1.955c-.391.45-1.351,1.031-.735,1.695.664.628,1.244-.344,1.695-.735a8.312,8.312,0,0,1,1.955,4.705H53.515a.676.676,0,0,0,0,1.351h1.043A8.266,8.266,0,0,1,52.6,58.266ZM59.014,54.5a2.039,2.039,0,0,1-.5-1.624,2.223,2.223,0,0,1,.474-1.612,2.2,2.2,0,0,1,.474,1.612A2.271,2.271,0,0,1,59.014,54.5Z" transform="translate(-0.182 -11.5)" fill="#231f20"/>
        </g>
      </g>
      <g id="Grupo_1235361" data-name="Grupo 1235361" transform="translate(40.846 49.481)">
        <g id="Grupo_1235360" data-name="Grupo 1235360">
          <path id="Trazado_1253577" data-name="Trazado 1253577" d="M347.1,333.85a1.9,1.9,0,0,0-3.8,0A1.9,1.9,0,0,0,347.1,333.85Zm-1.9.545a.545.545,0,0,1,0-1.09A.545.545,0,0,1,345.208,334.4Z" transform="translate(-343.3 -331.975)" fill="#231f20"/>
        </g>
      </g>
      <g id="Grupo_1235363" data-name="Grupo 1235363" transform="translate(46.834 48.299)">
        <g id="Grupo_1235362" data-name="Grupo 1235362">
          <path id="Trazado_1253578" data-name="Trazado 1253578" d="M396.429,322a2.631,2.631,0,0,0,0,5.262A2.631,2.631,0,0,0,396.429,322Zm0,3.9a1.274,1.274,0,0,1,0-2.548A1.274,1.274,0,0,1,396.429,325.9Z" transform="translate(-393.825 -322)" fill="#231f20"/>
        </g>
      </g>
      <g id="Grupo_1235365" data-name="Grupo 1235365" transform="translate(43.755 54.497)">
        <g id="Grupo_1235364" data-name="Grupo 1235364" transform="translate(0 0)">
          <path id="Trazado_1253579" data-name="Trazado 1253579" d="M370.108,374.3a2.282,2.282,0,0,0,0,4.563A2.282,2.282,0,0,0,370.108,374.3Zm0,3.212a.93.93,0,0,1,0-1.861A.93.93,0,0,1,370.108,377.512Z" transform="translate(-367.85 -374.3)" fill="#231f20"/>
        </g>
      </g>
    </g>
  </g>
</svg>
