<svg xmlns="http://www.w3.org/2000/svg" xmlns:xlink="http://www.w3.org/1999/xlink" width="113" height="113" viewBox="0 0 113 113">
  <defs>
    <filter id="Trazado_982547" x="0" y="0" width="113" height="113" filterUnits="userSpaceOnUse">
      <feOffset dy="3" input="SourceAlpha"/>
      <feGaussianBlur stdDeviation="3" result="blur"/>
      <feFlood flood-opacity="0.161"/>
      <feComposite operator="in" in2="blur"/>
      <feComposite in="SourceGraphic"/>
    </filter>
  </defs>
  <g id="Grupo_1235371" data-name="Grupo 1235371" transform="translate(-981 -5431.042)">
    <g id="Grupo_1234679" data-name="Grupo 1234679" transform="translate(605 1488.042)">
      <g id="Grupo_1232515" data-name="Grupo 1232515" transform="translate(385 3949)">
        <g id="Grupo_1208028" data-name="Grupo 1208028" transform="translate(0)">
          <g id="Grupo_1177675" data-name="Grupo 1177675" transform="translate(0 0)">
            <g id="Grupo_1176928" data-name="Grupo 1176928" transform="translate(0)">
              <g id="Grupo_1172322" data-name="Grupo 1172322">
                <g id="Grupo_1164700" data-name="Grupo 1164700">
                  <g id="Grupo_1160931" data-name="Grupo 1160931">
                    <g id="Grupo_1160749" data-name="Grupo 1160749">
                      <g id="Grupo_1158891" data-name="Grupo 1158891">
                        <g id="Grupo_1157406" data-name="Grupo 1157406">
                          <g id="Grupo_1155793" data-name="Grupo 1155793">
                            <g id="Grupo_1154704" data-name="Grupo 1154704">
                              <g id="Grupo_1150790" data-name="Grupo 1150790">
                                <g id="Grupo_1154214" data-name="Grupo 1154214" transform="translate(0)">
                                  <g id="Grupo_1152583" data-name="Grupo 1152583">
                                    <g id="Grupo_1146973" data-name="Grupo 1146973">
                                      <g id="Grupo_1146954" data-name="Grupo 1146954">
                                        <g transform="matrix(1, 0, 0, 1, -9, -6)" filter="url(#Trazado_982547)">
                                          <g id="Trazado_982547-2" data-name="Trazado 982547" transform="translate(9 6)" fill="#fed0b4">
                                            <path d="M 47.50000762939453 93.49986267089844 C 41.28937911987305 93.49986267089844 35.26534271240234 92.28383636474609 29.59519386291504 89.88558197021484 C 24.11772727966309 87.56880950927734 19.19814109802246 84.25183868408203 14.97310066223145 80.02679443359375 C 10.74804782867432 75.8017578125 7.431074142456055 70.88218688964844 5.114300727844238 65.40471649169922 C 2.716034412384033 59.73458480834961 1.500007629394531 53.71054458618164 1.500007629394531 47.49993133544922 C 1.500007629394531 41.2893180847168 2.716034412384033 35.26527786254883 5.114300727844238 29.59514427185059 C 7.431074142456055 24.11767768859863 10.74804782867432 19.19810485839844 14.97310066223145 14.97306442260742 C 19.19814109802246 10.74802494049072 24.11772727966309 7.431051254272461 29.59519386291504 5.114277839660645 C 35.26534271240234 2.71602463722229 41.28937911987305 1.499997973442078 47.50000762939453 1.499997973442078 C 53.71063613891602 1.499997973442078 59.73467254638672 2.71602463722229 65.40482330322266 5.114277839660645 C 70.88228607177734 7.431051254272461 75.80187225341797 10.74802494049072 80.02691650390625 14.97306442260742 C 84.25196838378906 19.19810485839844 87.56893920898438 24.11767768859863 89.88571166992188 29.59514427185059 C 92.28398132324219 35.26527786254883 93.50000762939453 41.2893180847168 93.50000762939453 47.49993133544922 C 93.50000762939453 53.71054458618164 92.28398132324219 59.73458480834961 89.88571166992188 65.40471649169922 C 87.56893920898438 70.88218688964844 84.25196838378906 75.8017578125 80.02691650390625 80.02679443359375 C 75.80187225341797 84.25183868408203 70.88228607177734 87.56880950927734 65.40482330322266 89.88558197021484 C 59.73467254638672 92.28383636474609 53.71063613891602 93.49986267089844 47.50000762939453 93.49986267089844 Z" stroke="none"/>
                                            <path d="M 47.50000762939453 2.999992370605469 C 41.4912223815918 2.999992370605469 35.66377639770508 4.1761474609375 30.17951202392578 6.495796203613281 C 24.88085174560547 8.736930847167969 20.12152862548828 11.94596099853516 16.03376007080078 16.03372955322266 C 11.94597625732422 20.12148284912109 8.736961364746094 24.88080596923828 6.495803833007812 30.17946624755859 C 4.176162719726562 35.66371536254883 3.000007629394531 41.49116134643555 3.000007629394531 47.49993133544922 C 3.000007629394531 53.50870132446289 4.176162719726562 59.33614730834961 6.495803833007812 64.82038879394531 C 8.736961364746094 70.11905670166016 11.94597625732422 74.87836456298828 16.03376007080078 78.96613311767578 C 20.12152862548828 83.05390167236328 24.88085174560547 86.26291656494141 30.17951202392578 88.50406646728516 C 35.66377639770508 90.82369995117188 41.4912223815918 91.99985504150391 47.50000762939453 91.99985504150391 C 53.50879287719727 91.99985504150391 59.33623886108398 90.82369995117188 64.82049560546875 88.50406646728516 C 70.11916351318359 86.26291656494141 74.87848663330078 83.05390167236328 78.96625518798828 78.96613311767578 C 83.05403900146484 74.87836456298828 86.26305389404297 70.11905670166016 88.50421142578125 64.82038879394531 C 90.8238525390625 59.33614730834961 92.00000762939453 53.50870132446289 92.00000762939453 47.49993133544922 C 92.00000762939453 41.49116134643555 90.8238525390625 35.66371536254883 88.50421142578125 30.17946624755859 C 86.26305389404297 24.88080596923828 83.05403900146484 20.12148284912109 78.96625518798828 16.03372955322266 C 74.87848663330078 11.94596099853516 70.11916351318359 8.736930847167969 64.82049560546875 6.495796203613281 C 59.33623886108398 4.1761474609375 53.50879287719727 2.999992370605469 47.50000762939453 2.999992370605469 M 47.50000762939453 -7.62939453125e-06 C 73.73352813720703 -7.62939453125e-06 95.00000762939453 21.26644134521484 95.00000762939453 47.49993133544922 C 95.00000762939453 73.73342132568359 73.73352813720703 94.99985504150391 47.50000762939453 94.99985504150391 C 21.26648712158203 94.99985504150391 7.62939453125e-06 73.73342132568359 7.62939453125e-06 47.49993133544922 C 7.62939453125e-06 21.26644134521484 21.26648712158203 -7.62939453125e-06 47.50000762939453 -7.62939453125e-06 Z" stroke="none" fill="#fd660a"/>
                                          </g>
                                        </g>
                                      </g>
                                    </g>
                                  </g>
                                </g>
                              </g>
                            </g>
                          </g>
                        </g>
                      </g>
                    </g>
                  </g>
                </g>
              </g>
            </g>
          </g>
        </g>
      </g>
    </g>
    <g id="no-drogas" transform="translate(1003.747 5451.29)">
      <g id="Grupo_1235369" data-name="Grupo 1235369" transform="translate(0.974 0.974)">
        <g id="Grupo_1235368" data-name="Grupo 1235368">
          <path id="Trazado_1253580" data-name="Trazado 1253580" d="M209.072,168.578,194.2,181.488l-2.991-4.765,6.145-6.145c.761-.761,10.429-9.195,11.189-8.434l3.231,3.231C212.53,166.136,209.833,167.817,209.072,168.578Z" transform="translate(-167.342 -142.015)" fill="#6cf5c2"/>
          <path id="Trazado_1253581" data-name="Trazado 1253581" d="M222.945,174.363l-2.993-2.993a1.948,1.948,0,0,1,0,2.755L205.1,188.974l4.181,1.805,12.132-12.132C222.176,177.887,223.706,175.124,222.945,174.363Z" transform="translate(-179.436 -150.084)" fill="#05e39c"/>
          <path id="Trazado_1253582" data-name="Trazado 1253582" d="M247.867,151.575l-9.352,9.352H244.5l8.434-4.285a1.948,1.948,0,0,0,0-2.755l-2.312-2.312A1.948,1.948,0,0,0,247.867,151.575Z" transform="translate(-208.508 -132.364)" fill="#f2fbff"/>
          <path id="Trazado_1253583" data-name="Trazado 1253583" d="M290.96,159.983l-6.359,6.359h5.986l3.366-3.366a1.948,1.948,0,0,0,0-2.755l-2.993-2.993A1.948,1.948,0,0,1,290.96,159.983Z" transform="translate(-248.608 -137.779)" fill="#c8effe"/>
          <path id="Trazado_1253584" data-name="Trazado 1253584" d="M0,0H9.076V3.754H0Z" transform="translate(15.984 45.024) rotate(-45)" fill="#f2fbff"/>
          <path id="Trazado_1253585" data-name="Trazado 1253585" d="M0,0H9.076V2.5H0Z" transform="translate(17.753 46.794) rotate(-45)" fill="#c8effe"/>
          <path id="Trazado_1253586" data-name="Trazado 1253586" d="M111.473,344.462a2.166,2.166,0,0,1-3.064,0l-4.042-4.042a2.167,2.167,0,0,1,3.064-3.064l4.042,4.042A2.167,2.167,0,0,1,111.473,344.462Z" transform="translate(-91.233 -293.958)" fill="#6354b1"/>
          <path id="Trazado_1253587" data-name="Trazado 1253587" d="M165.466,272.56a2.166,2.166,0,0,1-3.064,0l-7.184-7.184a2.167,2.167,0,1,1,3.064-3.064l7.184,7.184A2.166,2.166,0,0,1,165.466,272.56Z" transform="translate(-135.478 -228.662)" fill="#6354b1"/>
          <path id="Trazado_1253588" data-name="Trazado 1253588" d="M131.411,361.336l-2.755-2.755a2.167,2.167,0,1,1-3.064,3.064l2.755,2.755a2.167,2.167,0,0,0,3.064-3.064Z" transform="translate(-110.253 -312.978)" fill="#463b84"/>
          <path id="Trazado_1253589" data-name="Trazado 1253589" d="M206.456,310.484l-2.755-2.755a2.167,2.167,0,0,1-3.064,3.064l2.755,2.755a2.167,2.167,0,0,0,3.064-3.064Z" transform="translate(-175.55 -268.731)" fill="#463b84"/>
          <path id="Trazado_1253590" data-name="Trazado 1253590" d="M39.778,7.961c-.653,0-1.3-.111-1.949-.072A32.279,32.279,0,0,0,16.954,62.933a32.041,32.041,0,0,0,20.876,9.4c.646.038,1.3-.072,1.949-.072,8.622,0,15.429-3.228,21.525-9.324a32.066,32.066,0,0,0,9.454-22.824c0-8.622-2.188-16.6-8.285-22.694A31.769,31.769,0,0,0,39.778,7.961ZM20.354,59.533A27.47,27.47,0,0,1,18.728,22.46l38.7,38.7a27.47,27.47,0,0,1-37.073-1.626ZM67.248,40.109a27.263,27.263,0,0,1-6.42,17.65l-38.7-38.7a27.47,27.47,0,0,1,45.119,21.05Z" transform="translate(-7.5 -7.831)" fill="#fd3581"/>
          <g id="Grupo_1235367" data-name="Grupo 1235367" transform="translate(30.33)">
            <path id="Trazado_1253591" data-name="Trazado 1253591" d="M265.773,16.954A32.066,32.066,0,0,0,242.948,7.5c-.653,0-1.3.022-1.948.06A32.278,32.278,0,0,1,261.876,62.6,32.04,32.04,0,0,1,241,72c.646.038,1.3.06,1.948.06a32.278,32.278,0,0,0,22.824-55.1Z" transform="translate(-241 -7.5)" fill="#e30256"/>
          </g>
          <path id="Trazado_1253592" data-name="Trazado 1253592" d="M360.05,225.412c2.212,2.212,2.357,4.743.144,6.955a5.276,5.276,0,0,1-7.134.89c-.263-.185-.065-.99-.3-1.225s-.893.11-1.078-.153a5.668,5.668,0,0,1,3.142-8.723c1.9-.517,3.736.766,5.226,2.256Z" transform="translate(-306.08 -195.042)" fill="#fec165"/>
          <path id="Trazado_1253593" data-name="Trazado 1253593" d="M387.994,224.342c-.235-.235-.211-.719-.474-.9a5.671,5.671,0,0,0-4.751-.828,5.664,5.664,0,0,1,0,10.928,5.665,5.665,0,0,0,6.13-8.722c-.185-.263-.669-.239-.9-.474Z" transform="translate(-334.023 -194.495)" fill="#fea613"/>
          <path id="Trazado_1253594" data-name="Trazado 1253594" d="M212.946,76.747c0,3.129-1.237,5.535-4.366,5.535A5.093,5.093,0,0,1,203,77.721c-.055-.317,1.215-.642,1.215-.975s-1.271-.646-1.218-.958a5.094,5.094,0,0,1,5.584-4.577C211.708,71.212,212.946,73.618,212.946,76.747Z" transform="translate(-177.6 -62.924)" fill="#fec165"/>
          <path id="Trazado_1253595" data-name="Trazado 1253595" d="M235.994,70.306a5.666,5.666,0,0,0-1.494.2,5.665,5.665,0,0,1,0,10.929,5.666,5.666,0,0,0,7.075-4.49c.055-.317-1.215-.642-1.215-.975s1.27-.658,1.215-.974A5.667,5.667,0,0,0,235.994,70.306Z" transform="translate(-205.014 -62.148)" fill="#fea613"/>
        </g>
      </g>
      <g id="Grupo_1235370" data-name="Grupo 1235370" transform="translate(0)">
        <path id="Trazado_1253596" data-name="Trazado 1253596" d="M56.766,9.739a33.256,33.256,0,0,0-45.431-1.5.974.974,0,0,0,1.286,1.464,31.3,31.3,0,1,1-2.914,2.913.974.974,0,1,0-1.464-1.286,33.254,33.254,0,1,0,48.522-1.6Z" transform="translate(0 0)"/>
        <path id="Trazado_1253597" data-name="Trazado 1253597" d="M142.531,74.726l9.077,9.077a.974.974,0,0,0,.689.285h.042a.975.975,0,0,0,.7-.346A28.444,28.444,0,0,0,112.97,43.67a.974.974,0,0,0-.062,1.434l26.679,26.679a.974.974,0,1,0,1.378-1.378l-3.647-3.647L145,59.073a2.926,2.926,0,0,0,0-4.133l-.927-.927,4.065-4.065a.974.974,0,0,0-1.378-1.378L142.7,52.635l-.927-.927a2.926,2.926,0,0,0-4.133,0L135.347,54a.974.974,0,0,0,1.378,1.378l2.292-2.292a.975.975,0,0,1,1.378,0l3.231,3.231a.975.975,0,0,1,0,1.378l-3.081,3.081h-9.209l0,0,2.391-2.391A.974.974,0,0,0,132.345,57l-2.391,2.391-14.9-14.9A26.5,26.5,0,0,1,152.22,81.66l-8.311-8.312a.974.974,0,0,0-1.378,1.378Zm-3.934-12L135.94,65.38l-2.656-2.656Z" transform="translate(-97.994 -32.212)"/>
        <path id="Trazado_1253598" data-name="Trazado 1253598" d="M44.372,112.621a.975.975,0,0,0-.7.346A28.444,28.444,0,0,0,83.74,153.04a.974.974,0,0,0,.062-1.434l-38.7-38.7a.968.968,0,0,0-.731-.284ZM65.464,157.74a26.5,26.5,0,0,1-20.973-42.691l14.9,14.9L57.047,132.3l-.369-.369a3.141,3.141,0,0,0-4.442,4.442l1.593,1.593L50.094,141.7l-.021-.021a3.141,3.141,0,0,0-4.442,4.442l4.96,4.96a3.141,3.141,0,1,0,4.442-4.442l-.021-.021,3.735-3.735,1.593,1.593a3.141,3.141,0,1,0,4.442-4.442l-.369-.369,2.345-2.345,14.9,14.9a26.1,26.1,0,0,1-16.2,5.522Zm-.085-21.8-2.345,2.346-4.609-4.609,2.345-2.345ZM53.655,148.013a1.192,1.192,0,0,1-1.686,1.686l-4.96-4.96a1.192,1.192,0,0,1,1.686-1.686Zm-2.183-4.939,3.735-3.735,2.162,2.162-3.735,3.735Zm2.142-8.083a1.192,1.192,0,0,1,1.686-1.686l8.1,8.1a1.192,1.192,0,1,1-1.686,1.686Z" transform="translate(-32.211 -97.992)"/>
        <path id="Trazado_1253599" data-name="Trazado 1253599" d="M349.814,228.2a6.636,6.636,0,1,0-4.695-1.941A6.619,6.619,0,0,0,349.814,228.2Zm3.317-3.319a4.7,4.7,0,0,1-5.873.617L353.747,219A4.7,4.7,0,0,1,353.13,224.877Zm-6.634-6.634a4.7,4.7,0,0,1,5.873-.617l-6.489,6.489A4.7,4.7,0,0,1,346.5,218.243Z" transform="translate(-298.601 -187.007)"/>
        <path id="Trazado_1253600" data-name="Trazado 1253600" d="M194.886,69.446a6.639,6.639,0,1,0,6.639-6.639A6.647,6.647,0,0,0,194.886,69.446Zm6.639,4.691a4.7,4.7,0,0,1-4.589-3.717h9.177A4.7,4.7,0,0,1,201.525,74.137Zm4.589-5.665h-9.177a4.691,4.691,0,0,1,9.177,0Z" transform="translate(-169.572 -54.649)"/>
      </g>
    </g>
  </g>
</svg>
