<svg xmlns="http://www.w3.org/2000/svg" xmlns:xlink="http://www.w3.org/1999/xlink" width="113" height="113" viewBox="0 0 113 113">
  <defs>
    <filter id="Trazado_982547" x="0" y="0" width="113" height="113" filterUnits="userSpaceOnUse">
      <feOffset dy="3" input="SourceAlpha"/>
      <feGaussianBlur stdDeviation="3" result="blur"/>
      <feFlood flood-opacity="0.161"/>
      <feComposite operator="in" in2="blur"/>
      <feComposite in="SourceGraphic"/>
    </filter>
  </defs>
  <g id="Grupo_1235374" data-name="Grupo 1235374" transform="translate(-1295.51 -5431.042)">
    <g id="Grupo_1234680" data-name="Grupo 1234680" transform="translate(604.509 1488.042)">
      <g id="Grupo_1232516" data-name="Grupo 1232516" transform="translate(700 3949)">
        <g id="Grupo_1208038" data-name="Grupo 1208038" transform="translate(0)">
          <g id="Grupo_1202104" data-name="Grupo 1202104">
            <g id="Grupo_1201923" data-name="Grupo 1201923" transform="translate(0 0)">
              <g id="Grupo_1176928" data-name="Grupo 1176928" transform="translate(0)">
                <g id="Grupo_1172322" data-name="Grupo 1172322">
                  <g id="Grupo_1164700" data-name="Grupo 1164700">
                    <g id="Grupo_1160931" data-name="Grupo 1160931">
                      <g id="Grupo_1160749" data-name="Grupo 1160749">
                        <g id="Grupo_1158891" data-name="Grupo 1158891">
                          <g id="Grupo_1157406" data-name="Grupo 1157406">
                            <g id="Grupo_1155793" data-name="Grupo 1155793">
                              <g id="Grupo_1154704" data-name="Grupo 1154704">
                                <g id="Grupo_1150790" data-name="Grupo 1150790">
                                  <g id="Grupo_1154214" data-name="Grupo 1154214" transform="translate(0)">
                                    <g id="Grupo_1152583" data-name="Grupo 1152583">
                                      <g id="Grupo_1146973" data-name="Grupo 1146973">
                                        <g id="Grupo_1146954" data-name="Grupo 1146954">
                                          <g transform="matrix(1, 0, 0, 1, -9, -6)" filter="url(#Trazado_982547)">
                                            <g id="Trazado_982547-2" data-name="Trazado 982547" transform="translate(9 6)" fill="#fed0b4">
                                              <path d="M 47.50000762939453 93.49986267089844 C 41.28937911987305 93.49986267089844 35.26534271240234 92.28383636474609 29.59519386291504 89.88558197021484 C 24.11772727966309 87.56880950927734 19.19814109802246 84.25183868408203 14.97310066223145 80.02679443359375 C 10.74804782867432 75.8017578125 7.431074142456055 70.88218688964844 5.114300727844238 65.40471649169922 C 2.716034412384033 59.73458480834961 1.500007629394531 53.71054458618164 1.500007629394531 47.49993133544922 C 1.500007629394531 41.2893180847168 2.716034412384033 35.26527786254883 5.114300727844238 29.59514427185059 C 7.431074142456055 24.11767768859863 10.74804782867432 19.19810485839844 14.97310066223145 14.97306442260742 C 19.19814109802246 10.74802494049072 24.11772727966309 7.431051254272461 29.59519386291504 5.114277839660645 C 35.26534271240234 2.71602463722229 41.28937911987305 1.499997973442078 47.50000762939453 1.499997973442078 C 53.71063613891602 1.499997973442078 59.73467254638672 2.71602463722229 65.40482330322266 5.114277839660645 C 70.88228607177734 7.431051254272461 75.80187225341797 10.74802494049072 80.02691650390625 14.97306442260742 C 84.25196838378906 19.19810485839844 87.56893920898438 24.11767768859863 89.88571166992188 29.59514427185059 C 92.28398132324219 35.26527786254883 93.50000762939453 41.2893180847168 93.50000762939453 47.49993133544922 C 93.50000762939453 53.71054458618164 92.28398132324219 59.73458480834961 89.88571166992188 65.40471649169922 C 87.56893920898438 70.88218688964844 84.25196838378906 75.8017578125 80.02691650390625 80.02679443359375 C 75.80187225341797 84.25183868408203 70.88228607177734 87.56880950927734 65.40482330322266 89.88558197021484 C 59.73467254638672 92.28383636474609 53.71063613891602 93.49986267089844 47.50000762939453 93.49986267089844 Z" stroke="none"/>
                                              <path d="M 47.50000762939453 2.999992370605469 C 41.4912223815918 2.999992370605469 35.66377639770508 4.1761474609375 30.17951202392578 6.495796203613281 C 24.88085174560547 8.736930847167969 20.12152862548828 11.94596099853516 16.03376007080078 16.03372955322266 C 11.94597625732422 20.12148284912109 8.736961364746094 24.88080596923828 6.495803833007812 30.17946624755859 C 4.176162719726562 35.66371536254883 3.000007629394531 41.49116134643555 3.000007629394531 47.49993133544922 C 3.000007629394531 53.50870132446289 4.176162719726562 59.33614730834961 6.495803833007812 64.82038879394531 C 8.736961364746094 70.11905670166016 11.94597625732422 74.87836456298828 16.03376007080078 78.96613311767578 C 20.12152862548828 83.05390167236328 24.88085174560547 86.26291656494141 30.17951202392578 88.50406646728516 C 35.66377639770508 90.82369995117188 41.4912223815918 91.99985504150391 47.50000762939453 91.99985504150391 C 53.50879287719727 91.99985504150391 59.33623886108398 90.82369995117188 64.82049560546875 88.50406646728516 C 70.11916351318359 86.26291656494141 74.87848663330078 83.05390167236328 78.96625518798828 78.96613311767578 C 83.05403900146484 74.87836456298828 86.26305389404297 70.11905670166016 88.50421142578125 64.82038879394531 C 90.8238525390625 59.33614730834961 92.00000762939453 53.50870132446289 92.00000762939453 47.49993133544922 C 92.00000762939453 41.49116134643555 90.8238525390625 35.66371536254883 88.50421142578125 30.17946624755859 C 86.26305389404297 24.88080596923828 83.05403900146484 20.12148284912109 78.96625518798828 16.03372955322266 C 74.87848663330078 11.94596099853516 70.11916351318359 8.736930847167969 64.82049560546875 6.495796203613281 C 59.33623886108398 4.1761474609375 53.50879287719727 2.999992370605469 47.50000762939453 2.999992370605469 M 47.50000762939453 -7.62939453125e-06 C 73.73352813720703 -7.62939453125e-06 95.00000762939453 21.26644134521484 95.00000762939453 47.49993133544922 C 95.00000762939453 73.73342132568359 73.73352813720703 94.99985504150391 47.50000762939453 94.99985504150391 C 21.26648712158203 94.99985504150391 7.62939453125e-06 73.73342132568359 7.62939453125e-06 47.49993133544922 C 7.62939453125e-06 21.26644134521484 21.26648712158203 -7.62939453125e-06 47.50000762939453 -7.62939453125e-06 Z" stroke="none" fill="#fd660a"/>
                                            </g>
                                          </g>
                                        </g>
                                      </g>
                                    </g>
                                  </g>
                                </g>
                              </g>
                            </g>
                          </g>
                        </g>
                      </g>
                    </g>
                  </g>
                </g>
              </g>
            </g>
          </g>
        </g>
      </g>
    </g>
    <g id="sida" transform="translate(1317.998 5430.944)">
      <g id="Grupo_1235372" data-name="Grupo 1235372" transform="translate(1.003 23.582)">
        <path id="Trazado_1253601" data-name="Trazado 1253601" d="M229.353,78.44c-46.267-3.545-18.231-40.026-18.231-40.026,3.277.543,4.672,2.522,6.186,4.307l14.358,23.264A21.931,21.931,0,0,1,229.353,78.44Z" transform="translate(-176.777 -37.306)" fill="#ff8a98"/>
        <path id="Trazado_1253602" data-name="Trazado 1253602" d="M139.877,77.732a22.009,22.009,0,0,1-20.034,11.881L99.52,60.472a21.916,21.916,0,0,1,3.324-6.146q5.463-7.1,11.313-13.908a8.11,8.11,0,0,1,7.488-2.712C118.014,46.052,111.824,67.774,139.877,77.732Z" transform="translate(-87.3 -36.597)" fill="#fd5c6f"/>
        <path id="Trazado_1253603" data-name="Trazado 1253603" d="M328.06,51.483a3.886,3.886,0,0,0-.732,2.73,4.033,4.033,0,0,1-2.368,4.1,3.893,3.893,0,0,0-2,2,4.032,4.032,0,0,1-4.1,2.369,3.894,3.894,0,0,0-2.73.731,3.909,3.909,0,0,1-.88.486,14.659,14.659,0,0,1,.644-29.242,4.1,4.1,0,0,0,2.965.892,4.031,4.031,0,0,1,4.1,2.368,3.893,3.893,0,0,0,2,2,4.036,4.036,0,0,1,2.368,4.1,3.883,3.883,0,0,0,.732,2.729A4.035,4.035,0,0,1,328.06,51.483Z" transform="translate(-262.803 -34.048)" fill="#36d49b"/>
        <path id="Trazado_1253604" data-name="Trazado 1253604" d="M294.245,59.923a4.033,4.033,0,0,1-3.856-.486,3.894,3.894,0,0,0-2.73-.731,4.032,4.032,0,0,1-4.1-2.369,3.9,3.9,0,0,0-2-2,4.032,4.032,0,0,1-2.369-4.1,3.892,3.892,0,0,0-.731-2.73,4.03,4.03,0,0,1,0-4.737,3.889,3.889,0,0,0,.731-2.729,4.035,4.035,0,0,1,2.369-4.1,3.9,3.9,0,0,0,2-2,4.031,4.031,0,0,1,4.1-2.368,3.9,3.9,0,0,0,2.73-.732,4.033,4.033,0,0,1,4.5-.159c-4.9,2.433-8.348,8.139-8.348,14.792C286.541,51.83,289.686,57.324,294.245,59.923Z" transform="translate(-241.798 -30.072)" fill="#00b762"/>
        <path id="Trazado_1253605" data-name="Trazado 1253605" d="M76.168,221.641a6.61,6.61,0,0,0-1.06,3.961,5.1,5.1,0,0,1-2.754,4.77c-3.331,1.7-2.476,4.25-5.781,5.386a4.993,4.993,0,0,1-1.888.267,6.624,6.624,0,0,0-3.962,1.062c-.093.061-.189.118-.284.171a18.458,18.458,0,0,1,0-36.74,6.931,6.931,0,0,0,4.248,1.233,5.1,5.1,0,0,1,4.77,2.753,6.637,6.637,0,0,0,2.9,2.9,5.094,5.094,0,0,1,2.754,4.768,6.612,6.612,0,0,0,1.06,3.962A5.1,5.1,0,0,1,76.168,221.641Z" transform="translate(-38.962 -177.871)" fill="#36d49b"/>
        <path id="Trazado_1253606" data-name="Trazado 1253606" d="M29.024,233.1a5.1,5.1,0,0,1-5.223-.171,6.62,6.62,0,0,0-3.961-1.062,5.1,5.1,0,0,1-4.77-2.754,6.617,6.617,0,0,0-2.9-2.9,5.1,5.1,0,0,1-2.754-4.77,6.62,6.62,0,0,0-1.062-3.961,5.1,5.1,0,0,1,0-5.507,6.622,6.622,0,0,0,1.062-3.962,5.094,5.094,0,0,1,2.754-4.768,6.62,6.62,0,0,0,2.9-2.9,5.092,5.092,0,0,1,4.77-2.753,6.62,6.62,0,0,0,3.961-1.062,5.1,5.1,0,0,1,5.221-.171c-6.773.656-12.125,8.629-12.125,18.37S22.249,232.45,29.024,233.1Z" transform="translate(-7.548 -173.718)" fill="#00b762"/>
      </g>
      <g id="Grupo_1235373" data-name="Grupo 1235373" transform="translate(0 22.587)">
        <path id="Trazado_1253607" data-name="Trazado 1253607" d="M314.754,112.9l-2.807-.495a1,1,0,0,0-.346,1.963l2.807.495a1,1,0,0,0,.346-1.963Z" transform="translate(-269.487 -100.456)"/>
        <path id="Trazado_1253608" data-name="Trazado 1253608" d="M438.908,112.4l-2.807.495a1,1,0,0,0,.346,1.963l2.807-.495a1,1,0,0,0-.346-1.963Z" transform="translate(-377.446 -100.456)"/>
        <path id="Trazado_1253609" data-name="Trazado 1253609" d="M363.359,145.1a1,1,0,0,0-1,1,.924.924,0,1,1-1.848,0,1,1,0,0,0-1.993,0,.924.924,0,1,1-1.848,0,1,1,0,0,0-1.993,0,2.92,2.92,0,0,0,4.838,2.193,2.919,2.919,0,0,0,4.838-2.193A1,1,0,0,0,363.359,145.1Z" transform="translate(-307.556 -128.823)"/>
        <path id="Trazado_1253610" data-name="Trazado 1253610" d="M321.156,131.234a1,1,0,0,0-1,1v1.594a1,1,0,1,0,1.993,0V132.23A1,1,0,0,0,321.156,131.234Z" transform="translate(-277.623 -116.799)"/>
        <path id="Trazado_1253611" data-name="Trazado 1253611" d="M448.018,131.234a1,1,0,0,0-1,1v1.594a1,1,0,1,0,1.993,0V132.23A1,1,0,0,0,448.018,131.234Z" transform="translate(-387.629 -116.799)"/>
        <path id="Trazado_1253612" data-name="Trazado 1253612" d="M67.062,35.69a2.885,2.885,0,0,1-.544-2.031,5.037,5.037,0,0,0-2.958-5.124,2.885,2.885,0,0,1-1.486-1.486,5.038,5.038,0,0,0-5.124-2.958,2.884,2.884,0,0,1-2.031-.544,5.037,5.037,0,0,0-5.916,0,2.885,2.885,0,0,1-2.03.544,5.037,5.037,0,0,0-5.124,2.958,2.9,2.9,0,0,1-.263.474c-.22-.257-.439-.515-.659-.771a9.127,9.127,0,0,0-13.822,0c-3.893,4.526-7.71,9.219-11.347,13.951a22.9,22.9,0,0,0-3.237,5.775,6.062,6.062,0,0,0-4.883,3.283,5.6,5.6,0,0,1-2.464,2.464,6.058,6.058,0,0,0-3.3,5.71,5.6,5.6,0,0,1-.9,3.366,6.058,6.058,0,0,0,0,6.593,5.6,5.6,0,0,1,.9,3.366,6.058,6.058,0,0,0,3.3,5.71,5.6,5.6,0,0,1,2.464,2.464,6.06,6.06,0,0,0,5.71,3.3,5.6,5.6,0,0,1,3.366.9,6.057,6.057,0,0,0,6.593,0,5.6,5.6,0,0,1,3.366-.9,6.061,6.061,0,0,0,5.71-3.3,5.6,5.6,0,0,1,1.5-1.837A22.96,22.96,0,0,0,54.529,65.049a1,1,0,1,0-1.776-.9,21,21,0,0,1-15.99,11.287,6.055,6.055,0,0,0,1.38-4.172,5.6,5.6,0,0,1,.9-3.366,6.058,6.058,0,0,0,0-6.593,5.6,5.6,0,0,1-.9-3.366,6.058,6.058,0,0,0-3.3-5.71,5.6,5.6,0,0,1-2.464-2.464,6.054,6.054,0,0,0-5.71-3.3,5.642,5.642,0,0,1-1.456-.112,1,1,0,1,0-.409,1.95,7.635,7.635,0,0,0,1.97.152,4.112,4.112,0,0,1,3.829,2.211A7.583,7.583,0,0,0,33.942,54a4.117,4.117,0,0,1,2.211,3.83,7.582,7.582,0,0,0,1.221,4.556,4.116,4.116,0,0,1,0,4.422,7.583,7.583,0,0,0-1.221,4.556,4.117,4.117,0,0,1-2.211,3.83,7.582,7.582,0,0,0-3.335,3.335,4.117,4.117,0,0,1-3.829,2.211,7.588,7.588,0,0,0-4.556,1.221,4.116,4.116,0,0,1-4.422,0,7.587,7.587,0,0,0-4.556-1.221,4.116,4.116,0,0,1-3.83-2.211,7.583,7.583,0,0,0-3.335-3.335,4.117,4.117,0,0,1-2.211-3.83,7.582,7.582,0,0,0-1.221-4.556,4.116,4.116,0,0,1,0-4.422A7.584,7.584,0,0,0,3.868,57.83,4.116,4.116,0,0,1,6.079,54a7.582,7.582,0,0,0,3.335-3.335,4.116,4.116,0,0,1,3.83-2.211A7.588,7.588,0,0,0,17.8,47.234a4.112,4.112,0,0,1,3.017-.568,1,1,0,0,0,.388-1.955,6.121,6.121,0,0,0-4.491.852,5.61,5.61,0,0,1-2,.807,20.944,20.944,0,0,1,2.621-4.452c3.615-4.7,7.409-9.368,11.278-13.866a7.134,7.134,0,0,1,10.8,0c.191.222.381.446.571.669a5.042,5.042,0,0,0-2.583,4.939,2.885,2.885,0,0,1-.544,2.031,5.037,5.037,0,0,0,0,5.916,2.885,2.885,0,0,1,.544,2.031,5.037,5.037,0,0,0,2.958,5.124,2.884,2.884,0,0,1,1.486,1.486,5.038,5.038,0,0,0,5.124,2.958,2.883,2.883,0,0,1,2.03.544,5.05,5.05,0,0,0,6-.057,20.847,20.847,0,0,1-.759,6.633,1,1,0,1,0,1.918.539,22.826,22.826,0,0,0,.811-7.658,5.038,5.038,0,0,0,5.1-2.96,2.885,2.885,0,0,1,1.486-1.486,5.038,5.038,0,0,0,2.958-5.124,2.884,2.884,0,0,1,.544-2.03,5.038,5.038,0,0,0,0-5.917Zm-1.606,4.736a4.871,4.871,0,0,0-.919,3.43,3.028,3.028,0,0,1-1.778,3.079,4.872,4.872,0,0,0-2.511,2.511,3.028,3.028,0,0,1-3.079,1.778,4.872,4.872,0,0,0-3.43.919,3.028,3.028,0,0,1-3.556,0,4.872,4.872,0,0,0-3.43-.919,3.027,3.027,0,0,1-3.079-1.778,4.872,4.872,0,0,0-2.511-2.511,3.028,3.028,0,0,1-1.778-3.08,4.871,4.871,0,0,0-.919-3.43,3.028,3.028,0,0,1,0-3.556,4.872,4.872,0,0,0,.919-3.43,3.028,3.028,0,0,1,1.778-3.079,4.871,4.871,0,0,0,2.511-2.511,3.029,3.029,0,0,1,3.079-1.778,4.872,4.872,0,0,0,3.43-.919,3.027,3.027,0,0,1,3.556,0,4.87,4.87,0,0,0,3.43.919,3.027,3.027,0,0,1,3.079,1.778,4.873,4.873,0,0,0,2.511,2.511,3.028,3.028,0,0,1,1.778,3.079,4.87,4.87,0,0,0,.919,3.43,3.028,3.028,0,0,1,0,3.556Z" transform="translate(0 -22.587)"/>
        <path id="Trazado_1253613" data-name="Trazado 1253613" d="M68.283,305.628a1,1,0,0,0,1-1v-10a1,1,0,0,0-1.993,0v4.005h-5.01v-4.005a1,1,0,0,0-1.993,0v10a1,1,0,1,0,1.993,0v-4.005h5.01v4.005A1,1,0,0,0,68.283,305.628Z" transform="translate(-52.275 -257.619)"/>
        <path id="Trazado_1253614" data-name="Trazado 1253614" d="M144.1,293.631a1,1,0,0,0-1,1v10a1,1,0,1,0,1.993,0v-10A1,1,0,0,0,144.1,293.631Z" transform="translate(-124.093 -257.619)"/>
        <path id="Trazado_1253615" data-name="Trazado 1253615" d="M173.294,295l3.96,9.992a1,1,0,0,0,1.85.006l4.044-10a1,1,0,0,0-1.848-.747l-3.11,7.7-3.042-7.677a1,1,0,0,0-1.853.734Z" transform="translate(-150.209 -257.618)"/>
      </g>
    </g>
  </g>
</svg>
