<svg xmlns="http://www.w3.org/2000/svg" xmlns:xlink="http://www.w3.org/1999/xlink" width="113" height="113" viewBox="0 0 113 113">
  <defs>
    <filter id="Trazado_982547" x="0" y="0" width="113" height="113" filterUnits="userSpaceOnUse">
      <feOffset dy="3" input="SourceAlpha"/>
      <feGaussianBlur stdDeviation="3" result="blur"/>
      <feFlood flood-opacity="0.161"/>
      <feComposite operator="in" in2="blur"/>
      <feComposite in="SourceGraphic"/>
    </filter>
  </defs>
  <g id="Grupo_1235375" data-name="Grupo 1235375" transform="translate(-981 -5789.042)">
    <g id="Grupo_1234681" data-name="Grupo 1234681" transform="translate(605 1846.042)">
      <g id="Grupo_1232515" data-name="Grupo 1232515" transform="translate(385 3949)">
        <g id="Grupo_1208028" data-name="Grupo 1208028" transform="translate(0)">
          <g id="Grupo_1177675" data-name="Grupo 1177675" transform="translate(0 0)">
            <g id="Grupo_1176928" data-name="Grupo 1176928" transform="translate(0)">
              <g id="Grupo_1172322" data-name="Grupo 1172322">
                <g id="Grupo_1164700" data-name="Grupo 1164700">
                  <g id="Grupo_1160931" data-name="Grupo 1160931">
                    <g id="Grupo_1160749" data-name="Grupo 1160749">
                      <g id="Grupo_1158891" data-name="Grupo 1158891">
                        <g id="Grupo_1157406" data-name="Grupo 1157406">
                          <g id="Grupo_1155793" data-name="Grupo 1155793">
                            <g id="Grupo_1154704" data-name="Grupo 1154704">
                              <g id="Grupo_1150790" data-name="Grupo 1150790">
                                <g id="Grupo_1154214" data-name="Grupo 1154214" transform="translate(0)">
                                  <g id="Grupo_1152583" data-name="Grupo 1152583">
                                    <g id="Grupo_1146973" data-name="Grupo 1146973">
                                      <g id="Grupo_1146954" data-name="Grupo 1146954">
                                        <g transform="matrix(1, 0, 0, 1, -9, -6)" filter="url(#Trazado_982547)">
                                          <g id="Trazado_982547-2" data-name="Trazado 982547" transform="translate(9 6)" fill="#fed0b4">
                                            <path d="M 47.50000762939453 93.49986267089844 C 41.28937911987305 93.49986267089844 35.26534271240234 92.28383636474609 29.59519386291504 89.88558197021484 C 24.11772727966309 87.56880950927734 19.19814109802246 84.25183868408203 14.97310066223145 80.02679443359375 C 10.74804782867432 75.8017578125 7.431074142456055 70.88218688964844 5.114300727844238 65.40471649169922 C 2.716034412384033 59.73458480834961 1.500007629394531 53.71054458618164 1.500007629394531 47.49993133544922 C 1.500007629394531 41.2893180847168 2.716034412384033 35.26527786254883 5.114300727844238 29.59514427185059 C 7.431074142456055 24.11767768859863 10.74804782867432 19.19810485839844 14.97310066223145 14.97306442260742 C 19.19814109802246 10.74802494049072 24.11772727966309 7.431051254272461 29.59519386291504 5.114277839660645 C 35.26534271240234 2.71602463722229 41.28937911987305 1.499997973442078 47.50000762939453 1.499997973442078 C 53.71063613891602 1.499997973442078 59.73467254638672 2.71602463722229 65.40482330322266 5.114277839660645 C 70.88228607177734 7.431051254272461 75.80187225341797 10.74802494049072 80.02691650390625 14.97306442260742 C 84.25196838378906 19.19810485839844 87.56893920898438 24.11767768859863 89.88571166992188 29.59514427185059 C 92.28398132324219 35.26527786254883 93.50000762939453 41.2893180847168 93.50000762939453 47.49993133544922 C 93.50000762939453 53.71054458618164 92.28398132324219 59.73458480834961 89.88571166992188 65.40471649169922 C 87.56893920898438 70.88218688964844 84.25196838378906 75.8017578125 80.02691650390625 80.02679443359375 C 75.80187225341797 84.25183868408203 70.88228607177734 87.56880950927734 65.40482330322266 89.88558197021484 C 59.73467254638672 92.28383636474609 53.71063613891602 93.49986267089844 47.50000762939453 93.49986267089844 Z" stroke="none"/>
                                            <path d="M 47.50000762939453 2.999992370605469 C 41.4912223815918 2.999992370605469 35.66377639770508 4.1761474609375 30.17951202392578 6.495796203613281 C 24.88085174560547 8.736930847167969 20.12152862548828 11.94596099853516 16.03376007080078 16.03372955322266 C 11.94597625732422 20.12148284912109 8.736961364746094 24.88080596923828 6.495803833007812 30.17946624755859 C 4.176162719726562 35.66371536254883 3.000007629394531 41.49116134643555 3.000007629394531 47.49993133544922 C 3.000007629394531 53.50870132446289 4.176162719726562 59.33614730834961 6.495803833007812 64.82038879394531 C 8.736961364746094 70.11905670166016 11.94597625732422 74.87836456298828 16.03376007080078 78.96613311767578 C 20.12152862548828 83.05390167236328 24.88085174560547 86.26291656494141 30.17951202392578 88.50406646728516 C 35.66377639770508 90.82369995117188 41.4912223815918 91.99985504150391 47.50000762939453 91.99985504150391 C 53.50879287719727 91.99985504150391 59.33623886108398 90.82369995117188 64.82049560546875 88.50406646728516 C 70.11916351318359 86.26291656494141 74.87848663330078 83.05390167236328 78.96625518798828 78.96613311767578 C 83.05403900146484 74.87836456298828 86.26305389404297 70.11905670166016 88.50421142578125 64.82038879394531 C 90.8238525390625 59.33614730834961 92.00000762939453 53.50870132446289 92.00000762939453 47.49993133544922 C 92.00000762939453 41.49116134643555 90.8238525390625 35.66371536254883 88.50421142578125 30.17946624755859 C 86.26305389404297 24.88080596923828 83.05403900146484 20.12148284912109 78.96625518798828 16.03372955322266 C 74.87848663330078 11.94596099853516 70.11916351318359 8.736930847167969 64.82049560546875 6.495796203613281 C 59.33623886108398 4.1761474609375 53.50879287719727 2.999992370605469 47.50000762939453 2.999992370605469 M 47.50000762939453 -7.62939453125e-06 C 73.73352813720703 -7.62939453125e-06 95.00000762939453 21.26644134521484 95.00000762939453 47.49993133544922 C 95.00000762939453 73.73342132568359 73.73352813720703 94.99985504150391 47.50000762939453 94.99985504150391 C 21.26648712158203 94.99985504150391 7.62939453125e-06 73.73342132568359 7.62939453125e-06 47.49993133544922 C 7.62939453125e-06 21.26644134521484 21.26648712158203 -7.62939453125e-06 47.50000762939453 -7.62939453125e-06 Z" stroke="none" fill="#fd660a"/>
                                          </g>
                                        </g>
                                      </g>
                                    </g>
                                  </g>
                                </g>
                              </g>
                            </g>
                          </g>
                        </g>
                      </g>
                    </g>
                  </g>
                </g>
              </g>
            </g>
          </g>
        </g>
      </g>
    </g>
    <g id="cancer_2_" data-name="cancer (2)" transform="translate(993.464 5812.193)">
      <path id="Trazado_1253616" data-name="Trazado 1253616" d="M215.327,376.284l16.6,4.449a.6.6,0,0,1,.122,1.1l-5.343,2.793a.6.6,0,0,0-.227.848l3.231,5.09a.6.6,0,0,1-.658.9l-29.642-7.943Z" transform="translate(-162.084 -331.676)" fill="#ee6161"/>
      <path id="Trazado_1253617" data-name="Trazado 1253617" d="M60.816,7.5A25.918,25.918,0,0,0,44.1,53.23l-9.1,2.438a.6.6,0,0,0-.122,1.1l5.343,2.793a.6.6,0,0,1,.228.848L37.224,65.5a.6.6,0,0,0,.658.894l29.1-7.8h0A25.922,25.922,0,0,0,60.816,7.5Zm3.835,40.23q-.156.041-.311.079l-.014,0a14.756,14.756,0,1,1,.325-.082Z" transform="translate(-16.78 -6.611)" fill="#f79595"/>
      <path id="Trazado_1253618" data-name="Trazado 1253618" d="M89.028,21.5a25.926,25.926,0,0,1-7.722,47.069h0L58.257,74.745l-1.967,3.1a.6.6,0,0,0,.658.894l29.1-7.8h0a25.928,25.928,0,0,0,2.98-49.44Z" transform="translate(-35.846 -18.951)" fill="#f37c7c"/>
      <path id="Trazado_1253619" data-name="Trazado 1253619" d="M76.357,147.281H24.94a1.91,1.91,0,0,0-1.91,1.91V160.1a1.91,1.91,0,0,0,1.91,1.91h21.78a.593.593,0,0,1,.419.174l3.09,3.09a.593.593,0,0,0,.838,0l3.09-3.09a.593.593,0,0,1,.419-.174h21.78a1.91,1.91,0,0,0,1.91-1.91v-10.91A1.91,1.91,0,0,0,76.357,147.281Z" transform="translate(-6.612 -129.821)" fill="#dcf5f8"/>
      <path id="Trazado_1253620" data-name="Trazado 1253620" d="M446.411,147.281h-3.556a1.91,1.91,0,0,1,1.91,1.91V160.1a1.91,1.91,0,0,1-1.91,1.91h3.556a1.91,1.91,0,0,0,1.91-1.91v-10.91A1.91,1.91,0,0,0,446.411,147.281Z" transform="translate(-376.667 -129.821)" fill="#a6e7f0"/>
      <path id="Trazado_1253621" data-name="Trazado 1253621" d="M142.51,170.844a2.733,2.733,0,0,0-2.73,2.73V179.1a.889.889,0,1,0,1.778,0V176.3h1.9V179.1a.889.889,0,1,0,1.778,0v-5.524A2.733,2.733,0,0,0,142.51,170.844Zm-.952,3.682v-.952a.952.952,0,0,1,1.9,0v.952Z" transform="translate(-109.521 -150.59)"/>
      <path id="Trazado_1253622" data-name="Trazado 1253622" d="M391.01,170.844h-1.841a.889.889,0,0,0-.889.889V179.1a.889.889,0,1,0,1.778,0V176.3h.952a.953.953,0,0,1,.952.952V179.1a.889.889,0,1,0,1.778,0v-1.841a2.72,2.72,0,0,0-.716-1.841,2.729,2.729,0,0,0-2.014-4.572Zm-.952,3.682v-1.9h.952a.952.952,0,0,1,0,1.9Z" transform="translate(-328.561 -150.59)"/>
      <path id="Trazado_1253623" data-name="Trazado 1253623" d="M330.728,172.622a.889.889,0,0,0,0-1.778h-3.682a.889.889,0,0,0-.889.889V179.1a.889.889,0,0,0,.889.889h3.682a.889.889,0,0,0,0-1.778h-2.793v-1.9h.952a.889.889,0,0,0,0-1.778h-.952v-1.9h2.793Z" transform="translate(-273.802 -150.59)"/>
      <path id="Trazado_1253624" data-name="Trazado 1253624" d="M80.385,172.622a.953.953,0,0,1,.952.952.889.889,0,1,0,1.778,0,2.73,2.73,0,0,0-5.461,0v3.682a2.73,2.73,0,0,0,5.461,0,.889.889,0,0,0-1.778,0,.952.952,0,0,1-1.9,0v-3.682A.953.953,0,0,1,80.385,172.622Z" transform="translate(-54.761 -150.59)"/>
      <path id="Trazado_1253625" data-name="Trazado 1253625" d="M266.76,172.622a.953.953,0,0,1,.952.952.889.889,0,1,0,1.778,0,2.73,2.73,0,1,0-5.461,0v3.682a2.73,2.73,0,1,0,5.461,0,.889.889,0,1,0-1.778,0,.952.952,0,0,1-1.9,0v-3.682A.953.953,0,0,1,266.76,172.622Z" transform="translate(-219.041 -150.59)"/>
      <path id="Trazado_1253626" data-name="Trazado 1253626" d="M206.478,170.844a.889.889,0,0,0-.889.889v3.6l-2-4a.889.889,0,0,0-1.684.4V179.1a.889.889,0,0,0,1.778,0v-3.6l2,4a.889.889,0,0,0,1.684-.4v-7.365A.889.889,0,0,0,206.478,170.844Z" transform="translate(-164.282 -150.59)"/>
      <path id="Trazado_1253627" data-name="Trazado 1253627" d="M69.745,16.571h-.924A26.817,26.817,0,0,0,27.491,5.713a.889.889,0,1,0,1.1,1.4A24.776,24.776,0,0,1,44.036,1.778,25.211,25.211,0,0,1,66.884,16.571H55.94a15.7,15.7,0,0,0-23.808,0H21.188A24.939,24.939,0,0,1,25.62,9.857a.889.889,0,0,0-1.308-1.2,26.7,26.7,0,0,0-5.06,7.918h-.924a2.8,2.8,0,0,0-2.8,2.8V30.28a2.8,2.8,0,0,0,2.431,2.775,26.933,26.933,0,0,0,7.552,13.129L18,48.2a1.485,1.485,0,0,0-.3,2.751l5.061,2.645-3.06,4.821a1.485,1.485,0,0,0,1.638,2.23l22.7-6.083,5.13,1.375a.889.889,0,1,0,.46-1.718l-2.155-.577,2.958-.792h0A26.7,26.7,0,0,0,60.965,47.6l7.925,2.123-4.677,2.445a1.485,1.485,0,0,0-.566,2.112l2.828,4.455-12.695-3.4a.889.889,0,1,0-.46,1.718l13.421,3.6a1.5,1.5,0,0,0,.389.052,1.486,1.486,0,0,0,1.249-2.282l-3.06-4.821,5.061-2.645a1.485,1.485,0,0,0-.3-2.751l-7.513-2.013a26.754,26.754,0,0,0,7.55-13.13,2.8,2.8,0,0,0,2.431-2.775V19.37A2.8,2.8,0,0,0,69.745,16.571ZM44.036,12.887a13.865,13.865,0,0,1,9.437,3.684H34.6A13.864,13.864,0,0,1,44.036,12.887ZM19.8,33.079h9.84A15.727,15.727,0,0,0,40.62,42.137l-13.072,3.5A25.158,25.158,0,0,1,19.8,33.079Zm24.238,7.651A13.832,13.832,0,0,1,31.6,33.079h8.385l3,3a1.482,1.482,0,0,0,2.1,0l3-3h8.385A13.833,13.833,0,0,1,44.036,40.731ZM70.766,30.28A1.022,1.022,0,0,1,69.745,31.3H63.551a.889.889,0,0,0,0,1.778h4.724A25.138,25.138,0,0,1,49.992,51.126L21.6,58.733l2.829-4.457a1.486,1.486,0,0,0-.568-2.11l-4.676-2.445,28.564-7.653a15.708,15.708,0,0,0,10.686-8.988H59.4a.889.889,0,0,0,0-1.778H47.965a1.472,1.472,0,0,0-1.048.434l-2.88,2.88-2.88-2.88a1.472,1.472,0,0,0-1.048-.434H18.328a1.022,1.022,0,0,1-1.021-1.021V19.37a1.022,1.022,0,0,1,1.021-1.021H69.745a1.022,1.022,0,0,1,1.021,1.021V30.28Z" transform="translate(0 0)"/>
    </g>
  </g>
</svg>
