<svg xmlns="http://www.w3.org/2000/svg" xmlns:xlink="http://www.w3.org/1999/xlink" width="106.16" height="106.16" viewBox="0 0 106.16 106.16">
  <defs>
    <filter id="Trazado_982547" x="0" y="0" width="106.16" height="106.16" filterUnits="userSpaceOnUse">
      <feOffset dy="3" input="SourceAlpha"/>
      <feGaussianBlur stdDeviation="3" result="blur"/>
      <feFlood flood-opacity="0.161"/>
      <feComposite operator="in" in2="blur"/>
      <feComposite in="SourceGraphic"/>
    </filter>
  </defs>
  <g id="Grupo_1235186" data-name="Grupo 1235186" transform="translate(-215 -1029)">
    <g id="Grupo_1234666" data-name="Grupo 1234666" transform="translate(224 1035)">
      <g id="Grupo_1232498" data-name="Grupo 1232498" transform="translate(0)">
        <g id="Grupo_1230692" data-name="Grupo 1230692">
          <g id="Grupo_1224852" data-name="Grupo 1224852">
            <g id="Grupo_1206130" data-name="Grupo 1206130">
              <g id="Grupo_1203672" data-name="Grupo 1203672">
                <g id="Grupo_1203344" data-name="Grupo 1203344">
                  <g id="Grupo_1177900" data-name="Grupo 1177900">
                    <g id="Grupo_1172010" data-name="Grupo 1172010">
                      <g id="Grupo_1171046" data-name="Grupo 1171046">
                        <g id="Grupo_1148525" data-name="Grupo 1148525">
                          <g transform="matrix(1, 0, 0, 1, -9, -6)" filter="url(#Trazado_982547)">
                            <g id="Trazado_982547-2" data-name="Trazado 982547" transform="translate(9 6)" fill="#f0edfe">
                              <path d="M 44.0802001953125 86.660400390625 C 38.33124923706055 86.660400390625 32.75506210327148 85.53479766845703 27.50652503967285 83.31484985351562 C 22.43628692626953 81.17032623291016 17.88242530822754 78.09992218017578 13.97144985198975 74.18894958496094 C 10.06047534942627 70.27797698974609 6.99007511138916 65.72411346435547 4.845550060272217 60.65387344360352 C 2.625600099563599 55.40533828735352 1.500000238418579 49.82915115356445 1.500000238418579 44.0802001953125 C 1.500000238418579 38.33124923706055 2.625600099563599 32.75506210327148 4.845550060272217 27.50652503967285 C 6.99007511138916 22.43628692626953 10.06047534942627 17.88242530822754 13.97144985198975 13.97144985198975 C 17.88242530822754 10.06047534942627 22.43628692626953 6.99007511138916 27.50652503967285 4.845550060272217 C 32.75506210327148 2.625600099563599 38.33124923706055 1.500000238418579 44.0802001953125 1.500000238418579 C 49.82915115356445 1.500000238418579 55.40533828735352 2.625600099563599 60.65387344360352 4.845550060272217 C 65.72411346435547 6.99007511138916 70.27797698974609 10.06047534942627 74.18894958496094 13.97144985198975 C 78.09992218017578 17.88242530822754 81.17032623291016 22.43628692626953 83.31484985351562 27.50652503967285 C 85.53479766845703 32.75506210327148 86.660400390625 38.33124923706055 86.660400390625 44.0802001953125 C 86.660400390625 49.82915115356445 85.53479766845703 55.40533828735352 83.31484985351562 60.65387344360352 C 81.17032623291016 65.72411346435547 78.09992218017578 70.27797698974609 74.18894958496094 74.18894958496094 C 70.27797698974609 78.09992218017578 65.72411346435547 81.17032623291016 60.65387344360352 83.31484985351562 C 55.40533828735352 85.53479766845703 49.82915115356445 86.660400390625 44.0802001953125 86.660400390625 Z" stroke="none"/>
                              <path d="M 44.0802001953125 3 C 38.53308486938477 3 33.15349960327148 4.085746765136719 28.09085845947266 6.227058410644531 C 23.19941711425781 8.29595947265625 18.80581665039062 11.25841522216797 15.03211212158203 15.03211212158203 C 11.25841522216797 18.80581665039062 8.29595947265625 23.19941711425781 6.227058410644531 28.09085845947266 C 4.085746765136719 33.15349960327148 3 38.53308486938477 3 44.0802001953125 C 3 49.62731552124023 4.085746765136719 55.00691604614258 6.227058410644531 60.06954193115234 C 8.29595947265625 64.96098327636719 11.25841522216797 69.35458374023438 15.03211212158203 73.12828826904297 C 18.80581665039062 76.90198516845703 23.19941711425781 79.86444091796875 28.09085845947266 81.93334197998047 C 33.15349960327148 84.07466125488281 38.53308486938477 85.160400390625 44.0802001953125 85.160400390625 C 49.62731552124023 85.160400390625 55.00691604614258 84.07466125488281 60.06954193115234 81.93334197998047 C 64.96099853515625 79.86444091796875 69.35458374023438 76.90198516845703 73.12828826904297 73.12828826904297 C 76.90198516845703 69.35458374023438 79.86444091796875 64.96099853515625 81.93334197998047 60.06954193115234 C 84.07466125488281 55.00691604614258 85.160400390625 49.62731552124023 85.160400390625 44.0802001953125 C 85.160400390625 38.53308486938477 84.07466125488281 33.15349960327148 81.93334197998047 28.09085845947266 C 79.86444091796875 23.19941711425781 76.90198516845703 18.80581665039062 73.12828826904297 15.03211212158203 C 69.35458374023438 11.25841522216797 64.96098327636719 8.29595947265625 60.06954193115234 6.227058410644531 C 55.00691604614258 4.085746765136719 49.62731552124023 3 44.0802001953125 3 M 44.0802001953125 0 C 68.42502593994141 0 88.160400390625 19.73538970947266 88.160400390625 44.0802001953125 C 88.160400390625 68.42502593994141 68.42502593994141 88.160400390625 44.0802001953125 88.160400390625 C 19.73538970947266 88.160400390625 0 68.42502593994141 0 44.0802001953125 C 0 19.73538970947266 19.73538970947266 0 44.0802001953125 0 Z" stroke="none" fill="#d6ccfe"/>
                            </g>
                          </g>
                        </g>
                      </g>
                    </g>
                  </g>
                </g>
              </g>
            </g>
          </g>
        </g>
      </g>
    </g>
    <g id="traje-de-seguridad" transform="translate(225.345 1048.672)">
      <g id="Grupo_1235184" data-name="Grupo 1235184" transform="translate(17.524 0.816)">
        <g id="Grupo_1235169" data-name="Grupo 1235169" transform="translate(12.53 0)">
          <path id="Trazado_1253305" data-name="Trazado 1253305" d="M172.407,39.857h-3.583V20.128A12.628,12.628,0,0,0,156.2,7.5h-1.773a12.628,12.628,0,0,0-12.628,12.628V39.857h-2.345v6.848l1.465-1.5a1.677,1.677,0,0,1,1.193-.494,1.659,1.659,0,0,1,1.181.489,1.681,1.681,0,0,1-.007,2.375l-3.873,3.873V61.557h36.8a1.088,1.088,0,0,0,1.088-1.088V44.751a4.895,4.895,0,0,0-4.895-4.894Z" transform="translate(-139.409 -7.5)" fill="#f3f0f3"/>
        </g>
        <g id="Grupo_1235170" data-name="Grupo 1235170" transform="translate(12.679)">
          <path id="Trazado_1253306" data-name="Trazado 1253306" d="M161.34,23.564a10.029,10.029,0,0,1,4.832-8.573,12.635,12.635,0,0,1,10.554-7.453q-.487-.038-.985-.038h-1.773A12.628,12.628,0,0,0,161.34,20.128Z" transform="translate(-159.104 -7.5)" fill="#e2dee2"/>
          <path id="Trazado_1253307" data-name="Trazado 1253307" d="M143.016,209.075v10.432H140.78V223.4a4.871,4.871,0,0,1,2.4-.627h1.951a1.632,1.632,0,0,0,1.631-1.631V217.4A11.119,11.119,0,0,1,143.016,209.075Z" transform="translate(-140.78 -187.15)" fill="#e2dee2"/>
        </g>
        <path id="Trazado_1253308" data-name="Trazado 1253308" d="M268.373,311.533h3.746v20.988h-3.746Z" transform="translate(-241.816 -278.464)" fill="#e2dee2"/>
        <g id="Grupo_1235171" data-name="Grupo 1235171" transform="translate(14.915 6.039)">
          <path id="Trazado_1253309" data-name="Trazado 1253309" d="M172.484,90.052A11.157,11.157,0,0,1,161.34,78.908v-5.86a10.037,10.037,0,0,1,10.025-10.025h6.979A10.037,10.037,0,0,1,188.37,73.047v5.86a11.157,11.157,0,0,1-11.144,11.144Z" transform="translate(-161.34 -63.022)" fill="#b5adb6"/>
        </g>
        <path id="Trazado_1253310" data-name="Trazado 1253310" d="M168.038,85.459a8.024,8.024,0,0,1-3.5-6.634V73.17a6.946,6.946,0,0,1,3.151-5.82,10.021,10.021,0,0,1,8.244-4.327h-4.564a10.037,10.037,0,0,0-10.025,10.025v5.86a11.157,11.157,0,0,0,11.144,11.144h4.564A11.136,11.136,0,0,1,168.038,85.459Z" transform="translate(-146.424 -56.983)" fill="#a79ba7"/>
        <g id="Grupo_1235178" data-name="Grupo 1235178" transform="translate(18.11 9.233)">
          <g id="Grupo_1235172" data-name="Grupo 1235172">
            <path id="Trazado_1253311" data-name="Trazado 1253311" d="M203.316,113.032h-4.575A8.033,8.033,0,0,1,190.708,105V99.345a6.954,6.954,0,0,1,6.954-6.954H204.4a6.954,6.954,0,0,1,6.954,6.954V105A8.033,8.033,0,0,1,203.316,113.032Z" transform="translate(-190.708 -92.391)" fill="#fed2a4"/>
          </g>
          <path id="Trazado_1253312" data-name="Trazado 1253312" d="M202.335,179h-2.61l-1.632,2.067h-7.384v1.121a8.033,8.033,0,0,0,8.033,8.033h4.575a8.033,8.033,0,0,0,8.033-8.033v-1.121h-7.384Z" transform="translate(-190.709 -169.58)" fill="#fff"/>
          <g id="Grupo_1235174" data-name="Grupo 1235174" transform="translate(1.31 0)">
            <g id="Grupo_1235173" data-name="Grupo 1235173">
              <path id="Trazado_1253313" data-name="Trazado 1253313" d="M206.133,95.286a6.943,6.943,0,0,1,5.644-2.894h-3.383a6.942,6.942,0,0,0-5.644,2.894Z" transform="translate(-202.75 -92.392)" fill="#ffbd86"/>
            </g>
          </g>
          <g id="Grupo_1235175" data-name="Grupo 1235175" transform="translate(0 11.487)">
            <path id="Trazado_1253314" data-name="Trazado 1253314" d="M194.093,199.121V198H190.71v1.121a8.033,8.033,0,0,0,8.033,8.033h3.383A8.033,8.033,0,0,1,194.093,199.121Z" transform="translate(-190.71 -198)" fill="#f3f0f3"/>
          </g>
          <g id="Grupo_1235176" data-name="Grupo 1235176" transform="translate(0 2.894)">
            <path id="Trazado_1253315" data-name="Trazado 1253315" d="M210.04,119H192.019a6.92,6.92,0,0,0-1.31,4.059v4.533h7.384l1.632-2.067h2.61l1.632,2.067h7.384v-4.533A6.92,6.92,0,0,0,210.04,119Z" transform="translate(-190.709 -119)" fill="#8ac9fe"/>
          </g>
          <g id="Grupo_1235177" data-name="Grupo 1235177" transform="translate(0 2.894)">
            <path id="Trazado_1253316" data-name="Trazado 1253316" d="M190.709,123.059v4.533h3.383v-4.533A6.919,6.919,0,0,1,195.4,119h-3.383A6.919,6.919,0,0,0,190.709,123.059Z" transform="translate(-190.709 -119)" fill="#60b7ff"/>
          </g>
        </g>
        <g id="Grupo_1235180" data-name="Grupo 1235180" transform="translate(37.023 40.189)">
          <g id="Grupo_1235179" data-name="Grupo 1235179" transform="translate(0)">
            <path id="Trazado_1253317" data-name="Trazado 1253317" d="M371.882,379.447h-1.795a.326.326,0,0,1-.326-.326v-1.795a.326.326,0,0,0-.326-.326h-2.067a.326.326,0,0,0-.326.326v1.795a.326.326,0,0,1-.326.326h-1.795a.326.326,0,0,0-.326.326v2.067a.326.326,0,0,0,.326.326h1.795a.326.326,0,0,1,.326.326v1.795a.326.326,0,0,0,.326.326h2.067a.326.326,0,0,0,.326-.326v-1.795a.326.326,0,0,1,.326-.326h1.795a.326.326,0,0,0,.326-.326v-2.067A.326.326,0,0,0,371.882,379.447Z" transform="translate(-364.595 -377)" fill="#05e39c"/>
          </g>
        </g>
        <g id="Grupo_1235181" data-name="Grupo 1235181" transform="translate(0 26.675)">
          <path id="Trazado_1253318" data-name="Trazado 1253318" d="M40.695,263.7a1.788,1.788,0,0,0-2.529.007l-1.279,1.306V254.892a1.114,1.114,0,0,0-1.115-1.115h-.491a1.128,1.128,0,0,0-1.121,1.12v7.764l-.588,0v-8.8a1.114,1.114,0,0,0-1.115-1.115h-.491a1.128,1.128,0,0,0-1.121,1.121v8.8h-.591v-8.8a1.114,1.114,0,0,0-1.115-1.115l-.491,0a1.128,1.128,0,0,0-1.12,1.12v8.8h-.6v-7.29a1.113,1.113,0,0,0-1.115-1.115h-.491a1.128,1.128,0,0,0-1.121,1.121v23.642a1.053,1.053,0,0,0,1.046,1.09H36.847V270.071l3.841-3.841A1.788,1.788,0,0,0,40.695,263.7Z" transform="translate(-24.208 -252.75)" fill="#05e39c"/>
        </g>
        <g id="Grupo_1235183" data-name="Grupo 1235183" transform="translate(0 28.203)">
          <g id="Grupo_1235182" data-name="Grupo 1235182">
            <path id="Trazado_1253319" data-name="Trazado 1253319" d="M27.21,291.563V275.2h-.276v-7.29a1.113,1.113,0,0,0-1.115-1.115h-.491a1.128,1.128,0,0,0-1.121,1.121v23.642a1.053,1.053,0,0,0,1.046,1.09h3A1.053,1.053,0,0,1,27.21,291.563Z" transform="translate(-24.208 -266.799)" fill="#0ed290"/>
          </g>
        </g>
      </g>
      <g id="Grupo_1235185" data-name="Grupo 1235185" transform="translate(16.708 0)">
        <path id="Trazado_1253320" data-name="Trazado 1253320" d="M237.116,137.038a.816.816,0,0,0-.816.816v2.334a.816.816,0,0,0,1.632,0v-2.334A.816.816,0,0,0,237.116,137.038Z" transform="translate(-212.416 -122.133)"/>
        <path id="Trazado_1253321" data-name="Trazado 1253321" d="M320.706,137.038a.816.816,0,0,0-.816.816v2.334a.816.816,0,1,0,1.631,0v-2.334A.816.816,0,0,0,320.706,137.038Z" transform="translate(-286.914 -122.133)"/>
        <path id="Trazado_1253322" data-name="Trazado 1253322" d="M197.712,84.892h-6.734a7.778,7.778,0,0,0-7.769,7.769v5.654a8.859,8.859,0,0,0,8.849,8.849h2.963a.816.816,0,1,0,0-1.631h-2.963a7.225,7.225,0,0,1-7.217-7.217V98.01h6.041a1.893,1.893,0,0,0,1.494-.724l.978-1.239a.27.27,0,0,1,.213-.1h1.556a.27.27,0,0,1,.213.1l.978,1.239a1.893,1.893,0,0,0,1.494.724h6.041v.305a7.243,7.243,0,0,1-5.244,6.942.816.816,0,1,0,.445,1.57,8.881,8.881,0,0,0,6.431-8.512V92.661a7.778,7.778,0,0,0-7.769-7.769Zm-6.734,1.632h6.734a6.105,6.105,0,0,1,3.723,1.263h-14.18A6.105,6.105,0,0,1,190.978,86.523Zm12.872,9.855h-6.041a.27.27,0,0,1-.213-.1l-.978-1.239a1.893,1.893,0,0,0-1.494-.724h-1.556a1.893,1.893,0,0,0-1.494.724l-.978,1.239a.27.27,0,0,1-.213.1H184.84V92.661a6.1,6.1,0,0,1,.93-3.244h17.148a6.1,6.1,0,0,1,.931,3.244Z" transform="translate(-165.099 -75.659)"/>
        <path id="Trazado_1253323" data-name="Trazado 1253323" d="M242.917,213.007a.816.816,0,0,0,0-1.632H232.911a.816.816,0,1,0,0,1.632Z" transform="translate(-208.668 -188.385)"/>
        <path id="Trazado_1253324" data-name="Trazado 1253324" d="M237.292,239.131h9.053a.816.816,0,1,0,0-1.631h-9.053a.816.816,0,0,0,0,1.631Z" transform="translate(-212.573 -211.668)"/>
        <path id="Trazado_1253325" data-name="Trazado 1253325" d="M360.684,378.745h2.067a1.143,1.143,0,0,0,1.142-1.142V376.3H365.2a1.143,1.143,0,0,0,1.142-1.142v-2.067a1.143,1.143,0,0,0-1.142-1.142h-1.305v-1.305a1.143,1.143,0,0,0-1.142-1.142h-2.067a1.143,1.143,0,0,0-1.142,1.142v1.305h-1.305a1.143,1.143,0,0,0-1.142,1.142v2.067a1.143,1.143,0,0,0,1.142,1.142h1.305V377.6A1.143,1.143,0,0,0,360.684,378.745Zm-1.958-4.079v-1.088h1.305a1.143,1.143,0,0,0,1.142-1.142v-1.305h1.088v1.305a1.143,1.143,0,0,0,1.142,1.142h1.305v1.088H363.4a1.143,1.143,0,0,0-1.142,1.142v1.305h-1.088v-1.305a1.143,1.143,0,0,0-1.142-1.142Z" transform="translate(-320.072 -329.311)"/>
        <path id="Trazado_1253326" data-name="Trazado 1253326" d="M67.946,41.6a.816.816,0,0,0,.816-.816v-2.72a5.717,5.717,0,0,0-5.71-5.71H60.284V13.444A13.459,13.459,0,0,0,46.84,0H45.067A13.459,13.459,0,0,0,31.623,13.444V32.357h-.6V29.635A1.929,1.929,0,0,0,29.092,27.7h-.5a1.923,1.923,0,0,0-.993.278,1.934,1.934,0,0,0-1.825-1.307h-.5a1.934,1.934,0,0,0-1.413.62l-.045-.047a1.932,1.932,0,0,0-1.368-.565l-.49,0a1.944,1.944,0,0,0-1.924,1.741,1.939,1.939,0,0,0-.907-.223h-.491a1.944,1.944,0,0,0-1.934,1.936V53.782a1.915,1.915,0,0,0,.555,1.368,1.833,1.833,0,0,0,1.307.539H66.859a1.906,1.906,0,0,0,1.9-1.9V44.594a.816.816,0,1,0-1.631,0v9.191a.272.272,0,0,1-.272.272H48.643V34.695a11.967,11.967,0,0,0,10.01-5.933v4.411a.816.816,0,0,0,.816.816h3.583a4.083,4.083,0,0,1,4.079,4.079v2.72a.816.816,0,0,0,.816.816ZM45.067,1.632H46.84a11.833,11.833,0,0,1,11.482,9.037,10.835,10.835,0,0,0-8.879-4.629H42.464a10.835,10.835,0,0,0-8.879,4.629A11.833,11.833,0,0,1,45.067,1.632Zm-1.8,52.425H30.978v-2.5a.816.816,0,1,0-1.631,0v2.5H18.57a.2.2,0,0,1-.152-.06.3.3,0,0,1-.078-.214V30.143a.312.312,0,0,1,.307-.307h.492a.3.3,0,0,1,.3.3v7.29a.816.816,0,0,0,.816.816h.6a.816.816,0,0,0,.814-.816v-8.8a.312.312,0,0,1,.307-.307l.491,0h0a.3.3,0,0,1,.3.3v8.8a.816.816,0,0,0,.816.816h0l.591,0a.816.816,0,0,0,.814-.816v-8.8a.312.312,0,0,1,.307-.307h.492a.3.3,0,0,1,.3.3v8.8a.816.816,0,0,0,.818.816l.589,0a.816.816,0,0,0,.813-.816V29.642a.312.312,0,0,1,.307-.307h.492a.3.3,0,0,1,.3.3V39.754a.816.816,0,0,0,1.4.571l1.273-1.3a.975.975,0,0,1,.691-.288h0a.957.957,0,0,1,.682.281.973.973,0,0,1-.007,1.375l-3.841,3.841a.815.815,0,0,0-.239.577v2.937a.816.816,0,0,0,1.631,0v-2.6l3.6-3.6a2.6,2.6,0,0,0-3.562-3.782V33.988h1.42a.816.816,0,0,0,.816-.816V28.762a11.967,11.967,0,0,0,10.01,5.933V54.057Zm3.746,0H44.9V34.7h2.115ZM58.653,22.74A10.34,10.34,0,0,1,48.325,33.069H43.583A10.34,10.34,0,0,1,33.255,22.74V16.88a9.22,9.22,0,0,1,9.209-9.209h6.979a9.22,9.22,0,0,1,9.209,9.209v5.86Z" transform="translate(-16.708 0)"/>
      </g>
    </g>
  </g>
</svg>
