<svg xmlns="http://www.w3.org/2000/svg" xmlns:xlink="http://www.w3.org/1999/xlink" width="106.16" height="106.16" viewBox="0 0 106.16 106.16">
  <defs>
    <filter id="Trazado_982547" x="0" y="0" width="106.16" height="106.16" filterUnits="userSpaceOnUse">
      <feOffset dy="3" input="SourceAlpha"/>
      <feGaussianBlur stdDeviation="3" result="blur"/>
      <feFlood flood-opacity="0.161"/>
      <feComposite operator="in" in2="blur"/>
      <feComposite in="SourceGraphic"/>
    </filter>
  </defs>
  <g id="Grupo_1236494" data-name="Grupo 1236494" transform="translate(-825 -7393.158)">
    <g id="Grupo_1234683" data-name="Grupo 1234683" transform="translate(634.5 2969.245)">
      <g id="Grupo_1232498" data-name="Grupo 1232498" transform="translate(-629.75 -2849.501)">
        <g id="Grupo_1230692" data-name="Grupo 1230692" transform="translate(-0.25 3811.95)">
          <g id="Grupo_1224852" data-name="Grupo 1224852" transform="translate(629.5 1738.464)">
            <g id="Grupo_1206130" data-name="Grupo 1206130" transform="translate(0 -59)">
              <g id="Grupo_1203672" data-name="Grupo 1203672" transform="translate(0.08 -4797.878)">
                <g id="Grupo_1203344" data-name="Grupo 1203344" transform="translate(-81.08 5174.875)">
                  <g id="Grupo_1177900" data-name="Grupo 1177900" transform="translate(281 1411.003)">
                    <g id="Grupo_1172010" data-name="Grupo 1172010" transform="translate(0)">
                      <g id="Grupo_1171046" data-name="Grupo 1171046">
                        <g id="Grupo_1148525" data-name="Grupo 1148525">
                          <g transform="matrix(1, 0, 0, 1, -9, -6)" filter="url(#Trazado_982547)">
                            <g id="Trazado_982547-2" data-name="Trazado 982547" transform="translate(9 6)" fill="#e5ebfb">
                              <path d="M 44.0802001953125 86.660400390625 C 38.33124923706055 86.660400390625 32.75506210327148 85.53479766845703 27.50652503967285 83.31484985351562 C 22.43628692626953 81.17032623291016 17.88242530822754 78.09992218017578 13.97144985198975 74.18894958496094 C 10.06047534942627 70.27797698974609 6.99007511138916 65.72411346435547 4.845550060272217 60.65387344360352 C 2.625600099563599 55.40533828735352 1.500000238418579 49.82915115356445 1.500000238418579 44.0802001953125 C 1.500000238418579 38.33124923706055 2.625600099563599 32.75506210327148 4.845550060272217 27.50652503967285 C 6.99007511138916 22.43628692626953 10.06047534942627 17.88242530822754 13.97144985198975 13.97144985198975 C 17.88242530822754 10.06047534942627 22.43628692626953 6.99007511138916 27.50652503967285 4.845550060272217 C 32.75506210327148 2.625600099563599 38.33124923706055 1.500000238418579 44.0802001953125 1.500000238418579 C 49.82915115356445 1.500000238418579 55.40533828735352 2.625600099563599 60.65387344360352 4.845550060272217 C 65.72411346435547 6.99007511138916 70.27797698974609 10.06047534942627 74.18894958496094 13.97144985198975 C 78.09992218017578 17.88242530822754 81.17032623291016 22.43628692626953 83.31484985351562 27.50652503967285 C 85.53479766845703 32.75506210327148 86.660400390625 38.33124923706055 86.660400390625 44.0802001953125 C 86.660400390625 49.82915115356445 85.53479766845703 55.40533828735352 83.31484985351562 60.65387344360352 C 81.17032623291016 65.72411346435547 78.09992218017578 70.27797698974609 74.18894958496094 74.18894958496094 C 70.27797698974609 78.09992218017578 65.72411346435547 81.17032623291016 60.65387344360352 83.31484985351562 C 55.40533828735352 85.53479766845703 49.82915115356445 86.660400390625 44.0802001953125 86.660400390625 Z" stroke="none"/>
                              <path d="M 44.0802001953125 3 C 38.53308486938477 3 33.15349960327148 4.085746765136719 28.09085845947266 6.227058410644531 C 23.19941711425781 8.29595947265625 18.80581665039062 11.25841522216797 15.03211212158203 15.03211212158203 C 11.25841522216797 18.80581665039062 8.29595947265625 23.19941711425781 6.227058410644531 28.09085845947266 C 4.085746765136719 33.15349960327148 3 38.53308486938477 3 44.0802001953125 C 3 49.62731552124023 4.085746765136719 55.00691604614258 6.227058410644531 60.06954193115234 C 8.29595947265625 64.96098327636719 11.25841522216797 69.35458374023438 15.03211212158203 73.12828826904297 C 18.80581665039062 76.90198516845703 23.19941711425781 79.86444091796875 28.09085845947266 81.93334197998047 C 33.15349960327148 84.07466125488281 38.53308486938477 85.160400390625 44.0802001953125 85.160400390625 C 49.62731552124023 85.160400390625 55.00691604614258 84.07466125488281 60.06954193115234 81.93334197998047 C 64.96099853515625 79.86444091796875 69.35458374023438 76.90198516845703 73.12828826904297 73.12828826904297 C 76.90198516845703 69.35458374023438 79.86444091796875 64.96099853515625 81.93334197998047 60.06954193115234 C 84.07466125488281 55.00691604614258 85.160400390625 49.62731552124023 85.160400390625 44.0802001953125 C 85.160400390625 38.53308486938477 84.07466125488281 33.15349960327148 81.93334197998047 28.09085845947266 C 79.86444091796875 23.19941711425781 76.90198516845703 18.80581665039062 73.12828826904297 15.03211212158203 C 69.35458374023438 11.25841522216797 64.96098327636719 8.29595947265625 60.06954193115234 6.227058410644531 C 55.00691604614258 4.085746765136719 49.62731552124023 3 44.0802001953125 3 M 44.0802001953125 0 C 68.42502593994141 0 88.160400390625 19.73538970947266 88.160400390625 44.0802001953125 C 88.160400390625 68.42502593994141 68.42502593994141 88.160400390625 44.0802001953125 88.160400390625 C 19.73538970947266 88.160400390625 0 68.42502593994141 0 44.0802001953125 C 0 19.73538970947266 19.73538970947266 0 44.0802001953125 0 Z" stroke="none" fill="#98b4f2"/>
                            </g>
                          </g>
                        </g>
                      </g>
                    </g>
                  </g>
                </g>
              </g>
            </g>
          </g>
        </g>
      </g>
    </g>
    <g id="patogeno" transform="translate(839.294 7404.5)">
      <path id="Trazado_1254348" data-name="Trazado 1254348" d="M365.383,63.2a5.431,5.431,0,1,0-5.431-5.431A5.441,5.441,0,0,0,365.383,63.2Z" transform="translate(-309.377 -36.701)" fill="#eb5463" fill-rule="evenodd"/>
      <path id="Trazado_1254349" data-name="Trazado 1254349" d="M269.5,279.073c-5.6,2.644-1.62,8.73,1.745,10.858,3.111,1.992,8.422,3.28,10.993-.879,2.248-3.637,2.117-6.63,6.434-9.445,3.3-2.154,1.932-7.251-.894-9.721-3.035-2.586-7.227-2.936-9.742.637C274.99,274.734,276.656,275.691,269.5,279.073Z" transform="translate(-226.701 -227.807)" fill="#b3a4ee" fill-rule="evenodd"/>
      <circle id="Elipse_14740" data-name="Elipse 14740" cx="2.905" cy="2.905" r="2.905" transform="translate(47.026 55.215) rotate(-13.3)" fill="#9579da"/>
      <circle id="Elipse_14741" data-name="Elipse 14741" cx="1.975" cy="1.975" r="1.975" transform="translate(52.013 49.627) rotate(-13.3)" fill="#9579da"/>
      <path id="Trazado_1254350" data-name="Trazado 1254350" d="M43.387,46.226c-6.477-3.06-1.875-10.1,2.02-12.568,3.6-2.305,9.748-3.8,12.723,1.018,2.6,4.21,2.451,7.674,7.447,10.931C69.4,48.1,67.813,54,64.543,56.858c-3.513,2.993-8.365,3.4-11.275-.738-3.524-4.872-1.6-5.981-9.88-9.9Z" transform="translate(-25.843 -18.217)" fill="#b3a4ee" fill-rule="evenodd"/>
      <circle id="Elipse_14742" data-name="Elipse 14742" cx="3.26" cy="3.26" r="3.26" transform="translate(23.271 17.841)" fill="#9579da"/>
      <path id="Trazado_1254351" data-name="Trazado 1254351" d="M168.921,147.521A2.217,2.217,0,1,0,166.7,145.3,2.221,2.221,0,0,0,168.921,147.521Z" transform="translate(-138.046 -117.154)" fill="#9579da" fill-rule="evenodd"/>
      <path id="Trazado_1254352" data-name="Trazado 1254352" d="M59.506,365.844a5.652,5.652,0,1,0-5.652-5.652A5.663,5.663,0,0,0,59.506,365.844Z" transform="translate(-37.994 -304.626)" fill="#eb5463" fill-rule="evenodd"/>
      <path id="Trazado_1254353" data-name="Trazado 1254353" d="M32.113,39.688a5.788,5.788,0,0,1-4.025-2.578,23.019,23.019,0,0,1-1.927-3.2c-1.233-2.381-1.977-3.818-7.958-6.644a4.032,4.032,0,0,1-2.677-3.382c-.162-2.633,2.325-5.9,4.725-7.417a12.131,12.131,0,0,1,6.177-1.976,7.062,7.062,0,0,1,1.563.168A5.412,5.412,0,0,1,31.485,17.2a26.934,26.934,0,0,1,1.785,3.578c1.115,2.562,2.168,4.981,5.677,7.27a3.907,3.907,0,0,1,1.79,3.171,8.479,8.479,0,0,1-2.874,6.469A7.618,7.618,0,0,1,32.113,39.688Zm3.634,1.079a10.361,10.361,0,0,0,2.478-1.345l1.022,1.347a.794.794,0,0,0,1.265-.96l-1.08-1.424A10.428,10.428,0,0,0,41.112,36.1l1.623.606a.794.794,0,1,0,.555-1.487l-1.522-.568a8.747,8.747,0,0,0,.556-3.452l1.352-.035a.794.794,0,1,0-.041-1.587l-1.6.041a5.332,5.332,0,0,0-2.031-2.771l1.344-.673a.794.794,0,1,0-.71-1.42L38.559,25.8a10.842,10.842,0,0,1-1.746-1.79l1.824-1.11a.794.794,0,0,0-.825-1.357l-1.873,1.14a22.375,22.375,0,0,1-1-2.06l1.59-1.447A.794.794,0,1,0,35.456,18l-1.195,1.088a23.34,23.34,0,0,0-1.427-2.728c-.019-.031-.04-.06-.059-.091L34.025,14.9a.794.794,0,0,0-1.174-1.069l-1.072,1.177a6.726,6.726,0,0,0-2.21-1.506l.349-1.489a.794.794,0,1,0-1.546-.362l-.327,1.395a9.7,9.7,0,0,0-3.385.013L24.167,11.5a.794.794,0,0,0-1.514.479l.458,1.446a15.115,15.115,0,0,0-3.039,1.294l-.94-1.45a.794.794,0,1,0-1.332.863l.938,1.447a13.548,13.548,0,0,0-2.522,2.471l-1.756-1.044a.794.794,0,0,0-.811,1.366l1.659.985a9.86,9.86,0,0,0-1.194,2.81L11.887,21.9a.794.794,0,0,0-.187,1.577l2.233.265c0,.077,0,.154.007.23a4.986,4.986,0,0,0,1.253,3.034L13.819,28.1a.794.794,0,1,0,.988,1.243l1.606-1.276a8.381,8.381,0,0,0,1.112.628c.951.449,1.755.856,2.442,1.234l-1.339,1.622a.794.794,0,1,0,1.225,1.011l1.5-1.812a7.878,7.878,0,0,1,2.86,2.875l-1.684,1.079a.794.794,0,0,0,.856,1.337l1.576-1.01a23.752,23.752,0,0,0,1.491,2.508L25.22,39.1a.794.794,0,1,0,1.248.98l.974-1.238a7.42,7.42,0,0,0,2.566,1.893l-.319,1.836a.794.794,0,0,0,1.564.272l.285-1.641c.124.023.249.042.374.058a7.315,7.315,0,0,0,.906.057,7.92,7.92,0,0,0,1.388-.128l.671,1.7a.794.794,0,0,0,.739.5.777.777,0,0,0,.291-.057.793.793,0,0,0,.447-1.03Zm1.6-9.731a1.021,1.021,0,1,0-1.021,1.021A1.022,1.022,0,0,0,37.35,31.036Zm-4.764,4.1a1.134,1.134,0,1,0-1.134,1.134A1.136,1.136,0,0,0,32.586,35.138Zm-11.462-12.2a1.312,1.312,0,1,0-1.312,1.312A1.314,1.314,0,0,0,21.124,22.936Zm9.751,6.637a1.423,1.423,0,1,0-1.423-1.423A1.425,1.425,0,0,0,30.874,29.573Zm0-4.434a3.011,3.011,0,1,0,3.011,3.011A3.014,3.014,0,0,0,30.874,25.139Zm-4.344-1.571A2.466,2.466,0,1,0,24.064,21.1,2.469,2.469,0,0,0,26.531,23.568ZM30.585,21.1a4.054,4.054,0,1,0-4.054,4.053A4.058,4.058,0,0,0,30.585,21.1ZM63.09,48.376a3.4,3.4,0,0,1-1.555,2.76c-3.148,2.053-4.092,4.22-5.091,6.514a23.93,23.93,0,0,1-1.585,3.178A4.736,4.736,0,0,1,51.8,63.055c-2.358.536-5.075-.474-6.835-1.6-2.115-1.337-4.309-4.213-4.167-6.528a3.512,3.512,0,0,1,2.336-2.941c5.128-2.424,5.932-3.644,7.131-5.959a20.5,20.5,0,0,1,1.716-2.852A5.067,5.067,0,0,1,55.5,40.921a6.69,6.69,0,0,1,5.049,1.757A7.464,7.464,0,0,1,63.09,48.376Zm2.709-.035-1.116-.03a7.881,7.881,0,0,0-.477-2.94l1.277-.476a.794.794,0,0,0-.556-1.488l-1.378.515a9.4,9.4,0,0,0-1.423-1.932l.918-1.21a.794.794,0,1,0-1.265-.96l-.86,1.133a9.293,9.293,0,0,0-2.076-1.13l.51-1.293a.794.794,0,0,0-1.477-.583L57.305,39.4a6.83,6.83,0,0,0-2-.05c-.085.01-.169.025-.252.039l-.239-1.379a.794.794,0,0,0-1.564.272l.273,1.57a6.674,6.674,0,0,0-2.186,1.6l-.8-1.023a.794.794,0,1,0-1.248.981l1.056,1.344a21.266,21.266,0,0,0-1.255,2.106l-1.325-.848a.794.794,0,0,0-.856,1.337l1.43.916a6.926,6.926,0,0,1-2.414,2.418l-1.283-1.555a.794.794,0,1,0-1.225,1.009L44.536,49.5c-.59.321-1.274.667-2.079,1.047a7.7,7.7,0,0,0-.949.531l-1.382-1.1a.794.794,0,0,0-.988,1.243l1.154.918a4.525,4.525,0,0,0-1.078,2.686c0,.045,0,.09,0,.134l-1.916.228a.794.794,0,0,0,.093,1.582.656.656,0,0,0,.095-.006l1.907-.226A8.917,8.917,0,0,0,40.4,58.919l-1.4.833a.794.794,0,0,0,.406,1.477.786.786,0,0,0,.4-.111l1.5-.892a12.172,12.172,0,0,0,2.15,2.111l-.792,1.22A.794.794,0,0,0,44,64.421l.794-1.225a13.542,13.542,0,0,0,2.571,1.1L46.981,65.5a.8.8,0,0,0,.517,1,.8.8,0,0,0,.24.036.794.794,0,0,0,.757-.555l.418-1.32a9.573,9.573,0,0,0,1.537.13,7.848,7.848,0,0,0,1.353-.114l.272,1.165a.8.8,0,0,0,.772.612.783.783,0,0,0,.182-.021.793.793,0,0,0,.592-.954l-.294-1.255a6.07,6.07,0,0,0,1.866-1.267l.892.98a.794.794,0,1,0,1.174-1.068l-1.068-1.174.017-.026a20.622,20.622,0,0,0,1.227-2.333l.977.89a.794.794,0,1,0,1.069-1.174L58.113,57.8c.257-.583.516-1.145.822-1.692l1.592.969a.794.794,0,1,0,.825-1.357l-1.541-.937a9.591,9.591,0,0,1,1.438-1.47l1.806.9a.781.781,0,0,0,.354.084.794.794,0,0,0,.356-1.5l-1.07-.535A4.816,4.816,0,0,0,64.4,49.892l1.358.035h.021a.794.794,0,0,0,.02-1.587Zm-5.641.2a.909.909,0,1,0-.909.91A.911.911,0,0,0,60.158,48.545ZM53.892,44.89A1.011,1.011,0,1,0,54.9,43.879,1.012,1.012,0,0,0,53.892,44.89ZM45.7,55.761a1.169,1.169,0,1,0-1.169,1.169A1.171,1.171,0,0,0,45.7,55.761ZM54.389,52.3a1.181,1.181,0,1,0-1.181-1.182A1.183,1.183,0,0,0,54.389,52.3Zm0-3.95a2.769,2.769,0,1,0,2.769,2.768,2.772,2.772,0,0,0-2.769-2.768Zm-3.87,11.16A2.111,2.111,0,1,0,48.407,57.4,2.113,2.113,0,0,0,50.518,59.507Zm0-5.81a3.7,3.7,0,1,0,3.7,3.7A3.7,3.7,0,0,0,50.518,53.7Zm-27.076,3.92a1.18,1.18,0,1,1-1.18-1.181A1.182,1.182,0,0,1,23.442,57.617Zm-3.465-2.16a.826.826,0,1,1-.826-.826A.829.829,0,0,1,19.978,55.457Zm3.56-1.622A.935.935,0,1,1,22.6,52.9.938.938,0,0,1,23.538,53.835ZM21.51,60.424a4.857,4.857,0,1,0-4.858-4.857A4.863,4.863,0,0,0,21.51,60.424Zm9.232-6.909c-.389,0-.724.52-.866,1.258H27.905a6.411,6.411,0,0,0-1.314-3.164l1.4-1.4c.623.422,1.226.552,1.5.277.367-.366.014-1.313-.787-2.114s-1.748-1.154-2.115-.787c-.275.276-.145.879.277,1.5l-1.4,1.4A6.4,6.4,0,0,0,22.3,49.172V47.2c.738-.143,1.258-.478,1.258-.865,0-.517-.922-.939-2.052-.939s-2.052.422-2.052.939c0,.388.52.722,1.258.865v1.972a6.4,6.4,0,0,0-3.165,1.313l-1.4-1.4c.422-.623.553-1.226.277-1.5-.367-.367-1.313-.015-2.115.787s-1.154,1.748-.787,2.114c.275.276.879.145,1.5-.277l1.4,1.4a6.412,6.412,0,0,0-1.314,3.164H13.144c-.142-.738-.476-1.258-.866-1.258-.518,0-.938.919-.938,2.052s.42,2.052.938,2.052c.39,0,.724-.519.866-1.258h1.972a6.416,6.416,0,0,0,1.314,3.165l-1.4,1.4c-.623-.423-1.226-.554-1.5-.278-.366.366-.014,1.313.787,2.114s1.748,1.155,2.115.788c.275-.276.145-.879-.277-1.5l1.4-1.395a6.412,6.412,0,0,0,3.165,1.313v1.971c-.739.142-1.258.476-1.258.865,0,.52.919.939,2.052.939s2.052-.42,2.052-.939c0-.389-.519-.724-1.258-.865V61.962a6.41,6.41,0,0,0,3.165-1.313l1.4,1.395c-.422.624-.553,1.227-.277,1.5.366.366,1.313.013,2.115-.788s1.154-1.748.787-2.114c-.275-.276-.879-.145-1.5.278l-1.4-1.4a6.417,6.417,0,0,0,1.314-3.165h1.971c.142.739.476,1.258.866,1.258.519,0,.939-.919.939-2.052s-.42-2.052-.939-2.052Zm24.85-30.473a1.134,1.134,0,1,1,1.134,1.134A1.136,1.136,0,0,1,55.593,23.042Zm-2.649-2.074a.794.794,0,1,1,.794.794A.8.8,0,0,1,52.944,20.967Zm3.211-1.558a.9.9,0,1,1,.9.9A.9.9,0,0,1,56.155,19.409ZM56,16.435a4.637,4.637,0,1,0,4.637,4.636A4.642,4.642,0,0,0,56,16.435Zm-8.871,6.608c.369,0,.685-.484.825-1.178h1.874a6.193,6.193,0,0,0,1.248,3.008L49.754,26.2c-.589-.391-1.155-.51-1.416-.25-.352.353-.013,1.262.757,2.032s1.68,1.108,2.032.757c.261-.261.142-.828-.249-1.417L52.2,26a6.2,6.2,0,0,0,3.007,1.249v1.873c-.693.139-1.178.456-1.178.825,0,.5.883.9,1.972.9s1.972-.4,1.972-.9c0-.369-.485-.685-1.178-.825V27.245A6.2,6.2,0,0,0,59.806,26l1.327,1.327c-.392.589-.51,1.156-.249,1.417.352.352,1.262.012,2.032-.757s1.109-1.68.756-2.032c-.261-.261-.827-.142-1.416.25l-1.326-1.327a6.193,6.193,0,0,0,1.248-3.008h1.874c.14.694.456,1.178.825,1.178.5,0,.9-.883.9-1.972s-.4-1.971-.9-1.971c-.369,0-.685.484-.825,1.177H62.177a6.186,6.186,0,0,0-1.248-3.006l1.327-1.327c.589.391,1.156.51,1.416.25.352-.353.014-1.262-.756-2.032s-1.68-1.108-2.032-.757c-.261.261-.142.828.249,1.417l-1.327,1.327A6.2,6.2,0,0,0,56.8,14.9V13.025c.692-.139,1.178-.457,1.178-.825,0-.5-.886-.9-1.972-.9s-1.972.4-1.972.9c0,.368.486.685,1.178.825V14.9A6.2,6.2,0,0,0,52.2,16.148l-1.327-1.327c.391-.589.51-1.156.249-1.417-.352-.352-1.262-.013-2.032.757s-1.109,1.68-.757,2.032c.261.261.827.142,1.417-.25l1.327,1.327a6.187,6.187,0,0,0-1.248,3.006H47.959c-.14-.693-.456-1.177-.825-1.177-.5,0-.9.882-.9,1.971s.4,1.972.9,1.972Z" transform="translate(0 0)" fill-rule="evenodd"/>
    </g>
  </g>
</svg>
