<svg xmlns="http://www.w3.org/2000/svg" xmlns:xlink="http://www.w3.org/1999/xlink" width="106.16" height="106.16" viewBox="0 0 106.16 106.16">
  <defs>
    <filter id="Trazado_982547" x="0" y="0" width="106.16" height="106.16" filterUnits="userSpaceOnUse">
      <feOffset dy="3" input="SourceAlpha"/>
      <feGaussianBlur stdDeviation="3" result="blur"/>
      <feFlood flood-opacity="0.161"/>
      <feComposite operator="in" in2="blur"/>
      <feComposite in="SourceGraphic"/>
    </filter>
  </defs>
  <g id="Grupo_1236552" data-name="Grupo 1236552" transform="translate(-195 -7551.158)">
    <g id="Grupo_1234684" data-name="Grupo 1234684" transform="translate(4.5 3127.245)">
      <g id="Grupo_1232498" data-name="Grupo 1232498" transform="translate(-629.75 -2849.501)">
        <g id="Grupo_1230692" data-name="Grupo 1230692" transform="translate(-0.25 3811.95)">
          <g id="Grupo_1224852" data-name="Grupo 1224852" transform="translate(629.5 1738.464)">
            <g id="Grupo_1206130" data-name="Grupo 1206130" transform="translate(0 -59)">
              <g id="Grupo_1203672" data-name="Grupo 1203672" transform="translate(0.08 -4797.878)">
                <g id="Grupo_1203344" data-name="Grupo 1203344" transform="translate(-81.08 5174.875)">
                  <g id="Grupo_1177900" data-name="Grupo 1177900" transform="translate(281 1411.003)">
                    <g id="Grupo_1172010" data-name="Grupo 1172010" transform="translate(0)">
                      <g id="Grupo_1171046" data-name="Grupo 1171046">
                        <g id="Grupo_1148525" data-name="Grupo 1148525">
                          <g transform="matrix(1, 0, 0, 1, -9, -6)" filter="url(#Trazado_982547)">
                            <g id="Trazado_982547-2" data-name="Trazado 982547" transform="translate(9 6)" fill="#e5ebfb">
                              <path d="M 44.0802001953125 86.660400390625 C 38.33124923706055 86.660400390625 32.75506210327148 85.53479766845703 27.50652503967285 83.31484985351562 C 22.43628692626953 81.17032623291016 17.88242530822754 78.09992218017578 13.97144985198975 74.18894958496094 C 10.06047534942627 70.27797698974609 6.99007511138916 65.72411346435547 4.845550060272217 60.65387344360352 C 2.625600099563599 55.40533828735352 1.500000238418579 49.82915115356445 1.500000238418579 44.0802001953125 C 1.500000238418579 38.33124923706055 2.625600099563599 32.75506210327148 4.845550060272217 27.50652503967285 C 6.99007511138916 22.43628692626953 10.06047534942627 17.88242530822754 13.97144985198975 13.97144985198975 C 17.88242530822754 10.06047534942627 22.43628692626953 6.99007511138916 27.50652503967285 4.845550060272217 C 32.75506210327148 2.625600099563599 38.33124923706055 1.500000238418579 44.0802001953125 1.500000238418579 C 49.82915115356445 1.500000238418579 55.40533828735352 2.625600099563599 60.65387344360352 4.845550060272217 C 65.72411346435547 6.99007511138916 70.27797698974609 10.06047534942627 74.18894958496094 13.97144985198975 C 78.09992218017578 17.88242530822754 81.17032623291016 22.43628692626953 83.31484985351562 27.50652503967285 C 85.53479766845703 32.75506210327148 86.660400390625 38.33124923706055 86.660400390625 44.0802001953125 C 86.660400390625 49.82915115356445 85.53479766845703 55.40533828735352 83.31484985351562 60.65387344360352 C 81.17032623291016 65.72411346435547 78.09992218017578 70.27797698974609 74.18894958496094 74.18894958496094 C 70.27797698974609 78.09992218017578 65.72411346435547 81.17032623291016 60.65387344360352 83.31484985351562 C 55.40533828735352 85.53479766845703 49.82915115356445 86.660400390625 44.0802001953125 86.660400390625 Z" stroke="none"/>
                              <path d="M 44.0802001953125 3 C 38.53308486938477 3 33.15349960327148 4.085746765136719 28.09085845947266 6.227058410644531 C 23.19941711425781 8.29595947265625 18.80581665039062 11.25841522216797 15.03211212158203 15.03211212158203 C 11.25841522216797 18.80581665039062 8.29595947265625 23.19941711425781 6.227058410644531 28.09085845947266 C 4.085746765136719 33.15349960327148 3 38.53308486938477 3 44.0802001953125 C 3 49.62731552124023 4.085746765136719 55.00691604614258 6.227058410644531 60.06954193115234 C 8.29595947265625 64.96098327636719 11.25841522216797 69.35458374023438 15.03211212158203 73.12828826904297 C 18.80581665039062 76.90198516845703 23.19941711425781 79.86444091796875 28.09085845947266 81.93334197998047 C 33.15349960327148 84.07466125488281 38.53308486938477 85.160400390625 44.0802001953125 85.160400390625 C 49.62731552124023 85.160400390625 55.00691604614258 84.07466125488281 60.06954193115234 81.93334197998047 C 64.96099853515625 79.86444091796875 69.35458374023438 76.90198516845703 73.12828826904297 73.12828826904297 C 76.90198516845703 69.35458374023438 79.86444091796875 64.96099853515625 81.93334197998047 60.06954193115234 C 84.07466125488281 55.00691604614258 85.160400390625 49.62731552124023 85.160400390625 44.0802001953125 C 85.160400390625 38.53308486938477 84.07466125488281 33.15349960327148 81.93334197998047 28.09085845947266 C 79.86444091796875 23.19941711425781 76.90198516845703 18.80581665039062 73.12828826904297 15.03211212158203 C 69.35458374023438 11.25841522216797 64.96098327636719 8.29595947265625 60.06954193115234 6.227058410644531 C 55.00691604614258 4.085746765136719 49.62731552124023 3 44.0802001953125 3 M 44.0802001953125 0 C 68.42502593994141 0 88.160400390625 19.73538970947266 88.160400390625 44.0802001953125 C 88.160400390625 68.42502593994141 68.42502593994141 88.160400390625 44.0802001953125 88.160400390625 C 19.73538970947266 88.160400390625 0 68.42502593994141 0 44.0802001953125 C 0 19.73538970947266 19.73538970947266 0 44.0802001953125 0 Z" stroke="none" fill="#98b4f2"/>
                            </g>
                          </g>
                        </g>
                      </g>
                    </g>
                  </g>
                </g>
              </g>
            </g>
          </g>
        </g>
      </g>
    </g>
    <g id="Layer_2" transform="translate(207.245 7570.336)">
      <g id="Grupo_1236551" data-name="Grupo 1236551" transform="translate(13.097 0.002)">
        <g id="Grupo_1236495" data-name="Grupo 1236495" transform="translate(28.253 10.132)">
          <path id="Trazado_1254354" data-name="Trazado 1254354" d="M139.739,41.97a12.557,12.557,0,0,0-9.065,3.853,1.941,1.941,0,0,0,0,2.69,12.629,12.629,0,0,0,3.984,2.783l8.773-8.773a12.57,12.57,0,0,0-3.692-.553Z" transform="translate(-130.132 -41.97)" fill="#818182"/>
        </g>
        <g id="Grupo_1236496" data-name="Grupo 1236496" transform="translate(35.409 11.717)">
          <path id="Trazado_1254355" data-name="Trazado 1254355" d="M174.86,49.013a12.672,12.672,0,0,0-2.108,1.727,1.072,1.072,0,0,1-1.533-.006,12.652,12.652,0,0,0-2.879-2.2L159.772,57.1a12.583,12.583,0,0,0,11.448-3.541,1.072,1.072,0,0,1,1.533-.006,12.683,12.683,0,0,0,2.14,1.749A12.454,12.454,0,0,0,174.86,49.013Z" transform="translate(-159.772 -48.536)" fill="#818182"/>
        </g>
        <g id="Grupo_1236497" data-name="Grupo 1236497" transform="translate(28.254 10.943)">
          <path id="Trazado_1254356" data-name="Trazado 1254356" d="M136.709,49.717a7.447,7.447,0,0,0-1.422-4.386,12.615,12.615,0,0,0-4.612,3.042,1.941,1.941,0,0,0,0,2.69,12.625,12.625,0,0,0,3.984,2.783l1.609-1.609A7.457,7.457,0,0,0,136.709,49.717Z" transform="translate(-130.135 -45.331)" fill="#5b5d60"/>
        </g>
        <g id="Grupo_1236499" data-name="Grupo 1236499" transform="translate(35.409 16.686)">
          <g id="Grupo_1236498" data-name="Grupo 1236498">
            <path id="Trazado_1254357" data-name="Trazado 1254357" d="M162.224,72.96a12.555,12.555,0,0,0,9-3.783c.022-.022.047-.039.07-.058a22.189,22.189,0,0,1-6.787,1.058q-1.058,0-2.091-.1l-2.64,2.64A12.634,12.634,0,0,0,162.224,72.96Z" transform="translate(-159.773 -69.119)" fill="#aaaaaf"/>
          </g>
        </g>
        <g id="Grupo_1236502" data-name="Grupo 1236502" transform="translate(28.19 58.735)">
          <g id="Grupo_1236501" data-name="Grupo 1236501">
            <g id="Grupo_1236500" data-name="Grupo 1236500">
              <path id="Trazado_1254358" data-name="Trazado 1254358" d="M132.976,244.8a1.88,1.88,0,0,1-1.508-1.474c0-.034-.068-.034-.068,0a1.88,1.88,0,0,1-1.508,1.474c-.034,0-.034.051,0,.068a1.88,1.88,0,0,1,1.508,1.474c0,.034.068.034.068,0a1.88,1.88,0,0,1,1.508-1.474C133.01,244.851,133.01,244.8,132.976,244.8Z" transform="translate(-129.868 -243.301)" fill="#70d6f9"/>
            </g>
          </g>
        </g>
        <g id="Grupo_1236505" data-name="Grupo 1236505" transform="translate(20.626 0.89)">
          <g id="Grupo_1236504" data-name="Grupo 1236504">
            <g id="Grupo_1236503" data-name="Grupo 1236503">
              <path id="Trazado_1254359" data-name="Trazado 1254359" d="M99.308,6.562h.555v.555a.778.778,0,0,0,.773.773.763.763,0,0,0,.773-.773V6.562h.555a.778.778,0,0,0,.773-.773.763.763,0,0,0-.773-.773h-.555V4.462a.778.778,0,0,0-.773-.773.763.763,0,0,0-.773.773v.555h-.555a.778.778,0,0,0-.773.773A.763.763,0,0,0,99.308,6.562Z" transform="translate(-98.535 -3.689)" fill="#fc657e"/>
            </g>
          </g>
        </g>
        <g id="Grupo_1236508" data-name="Grupo 1236508" transform="translate(51.091 35.374)">
          <g id="Grupo_1236507" data-name="Grupo 1236507">
            <g id="Grupo_1236506" data-name="Grupo 1236506">
              <circle id="Elipse_14743" data-name="Elipse 14743" cx="0.821" cy="0.821" r="0.821" fill="#87d147"/>
            </g>
          </g>
        </g>
        <g id="Grupo_1236511" data-name="Grupo 1236511" transform="translate(16.328 6.646)">
          <g id="Grupo_1236510" data-name="Grupo 1236510">
            <g id="Grupo_1236509" data-name="Grupo 1236509">
              <circle id="Elipse_14744" data-name="Elipse 14744" cx="0.821" cy="0.821" r="0.821" fill="#f5c84c"/>
            </g>
          </g>
        </g>
        <g id="Grupo_1236514" data-name="Grupo 1236514" transform="translate(51.011 41.602)">
          <g id="Grupo_1236513" data-name="Grupo 1236513">
            <g id="Grupo_1236512" data-name="Grupo 1236512">
              <path id="Trazado_1254360" data-name="Trazado 1254360" d="M224.438,174.467a2.679,2.679,0,0,0,2.149-2.1c0-.048.1-.048.1,0a2.679,2.679,0,0,0,2.149,2.1c.048,0,.048.072,0,.1a2.679,2.679,0,0,0-2.149,2.1c0,.048-.1.048-.1,0a2.679,2.679,0,0,0-2.149-2.1C224.39,174.54,224.39,174.467,224.438,174.467Z" transform="translate(-224.402 -172.331)" fill="#f5c84c"/>
            </g>
          </g>
        </g>
        <g id="Grupo_1236515" data-name="Grupo 1236515" transform="translate(30.841 48.035)">
          <ellipse id="Elipse_14745" data-name="Elipse 14745" cx="2.242" cy="3.95" rx="2.242" ry="3.95" fill="#fce4be"/>
        </g>
        <g id="Grupo_1236516" data-name="Grupo 1236516" transform="translate(30.841 48.035)">
          <ellipse id="Elipse_14746" data-name="Elipse 14746" cx="2.242" cy="3.95" rx="2.242" ry="3.95" fill="#916547"/>
        </g>
        <g id="Grupo_1236517" data-name="Grupo 1236517" transform="translate(37.332 49.442)">
          <ellipse id="Elipse_14747" data-name="Elipse 14747" cx="3.95" cy="2.242" rx="3.95" ry="2.242" transform="translate(0 5.902) rotate(-48.324)" fill="#916547"/>
        </g>
        <g id="Grupo_1236518" data-name="Grupo 1236518" transform="translate(17.909 36.776)">
          <path id="Trazado_1254361" data-name="Trazado 1254361" d="M100.215,167.551c0-1.867.736-3.428,1.724-3.84,0-.015,0-.029,0-.044,0-4.931-3.281-11.326-7.328-11.326s-7.328,6.4-7.328,11.326,3.281,7.861,7.328,7.861a7.073,7.073,0,0,0,5.724-2.708A6.706,6.706,0,0,1,100.215,167.551Z" transform="translate(-87.283 -152.341)" fill="#fce4be"/>
        </g>
        <g id="Grupo_1236519" data-name="Grupo 1236519" transform="translate(35.325 48.035)">
          <path id="Trazado_1254362" data-name="Trazado 1254362" d="M163.879,203.567c.019-.207.032-.419.032-.636,0-2.182-1-3.95-2.242-3.95s-2.242,1.769-2.242,3.95,1,3.95,2.242,3.95a1.486,1.486,0,0,0,.943-.37A5.032,5.032,0,0,1,163.879,203.567Z" transform="translate(-159.426 -198.981)" fill="#916547"/>
        </g>
        <g id="Grupo_1236520" data-name="Grupo 1236520" transform="translate(35.19 34.221)">
          <path id="Trazado_1254363" data-name="Trazado 1254363" d="M172.766,148.38a6.957,6.957,0,0,0-13.9.009v.013a1.271,1.271,0,0,0,1.281,1.25h11.335a1.279,1.279,0,0,0,1.283-1.273Z" transform="translate(-158.867 -141.756)" fill="#916547"/>
        </g>
        <g id="Grupo_1236521" data-name="Grupo 1236521" transform="translate(38.232 42.118)">
          <path id="Trazado_1254364" data-name="Trazado 1254364" d="M178.938,179.215a20.717,20.717,0,0,1-1.149-4.746h-4.83a20.744,20.744,0,0,1-1.149,4.746,5.806,5.806,0,0,0-.344,1.348c.914.5,1.578,2,1.578,3.774,0,.217-.013.428-.032.636.057-.069.112-.138.173-.205,1.451-1.629,3.377-2.282,4.3-1.458a1.809,1.809,0,0,1,.46,1.649,2.489,2.489,0,0,0,.474-.54A5.764,5.764,0,0,0,178.938,179.215Z" transform="translate(-171.466 -174.469)" fill="#feb872"/>
        </g>
        <g id="Grupo_1236522" data-name="Grupo 1236522" transform="translate(0.604 11.178)">
          <path id="Trazado_1254365" data-name="Trazado 1254365" d="M32.9,83.23a15.2,15.2,0,0,1,2.942-8.684V63.088a6.52,6.52,0,0,0-1.869-4.57l-2.437-2.48a6.52,6.52,0,0,1-1.869-4.57V50.333a.455.455,0,0,1,.284-.414,1.883,1.883,0,0,0,1.124-1.95,1.931,1.931,0,0,0-1.942-1.663H22.308a1.931,1.931,0,0,0-1.942,1.663,1.883,1.883,0,0,0,1.124,1.95.455.455,0,0,1,.284.414v1.135a6.52,6.52,0,0,1-1.869,4.57l-2.437,2.48a6.52,6.52,0,0,0-1.869,4.57V88.524a2.568,2.568,0,0,0,2.568,2.568H33.278a2.568,2.568,0,0,0,2.359-1.553A7.811,7.811,0,0,1,32.9,83.23Z" transform="translate(-15.598 -46.306)" fill="#9be5f9"/>
        </g>
        <g id="Grupo_1236523" data-name="Grupo 1236523" transform="translate(0.604 24.13)">
          <path id="Trazado_1254366" data-name="Trazado 1254366" d="M32.9,123.929a15.2,15.2,0,0,1,2.942-8.684V103.787a6.516,6.516,0,0,0-1.152-3.692c-1.415.357-1.809,1.29-3.855,1.29-2.529,0-2.529-1.428-5.058-1.428s-2.529,1.428-5.058,1.428c-2.094,0-2.458-.976-3.955-1.313a6.514,6.514,0,0,0-1.169,3.715v25.436a2.568,2.568,0,0,0,2.568,2.568H33.277a2.568,2.568,0,0,0,2.359-1.553A7.811,7.811,0,0,1,32.9,123.929Z" transform="translate(-15.597 -99.957)" fill="#dae6f1"/>
        </g>
        <g id="Grupo_1236524" data-name="Grupo 1236524" transform="translate(0.604 52.021)">
          <path id="Trazado_1254367" data-name="Trazado 1254367" d="M34.422,216.612a2.646,2.646,0,0,1-.843.142H17.864a2.665,2.665,0,0,1-2.266-1.263v1.375a2.568,2.568,0,0,0,2.568,2.568H33.278a2.568,2.568,0,0,0,2.359-1.553A6.8,6.8,0,0,1,34.422,216.612Z" transform="translate(-15.598 -215.491)" fill="#c7d7e5"/>
        </g>
        <g id="Grupo_1236525" data-name="Grupo 1236525" transform="translate(20.734 23.882)">
          <path id="Trazado_1254368" data-name="Trazado 1254368" d="M112.891,109.108a4.34,4.34,0,0,0,.883-4.176,14.721,14.721,0,0,1-9.091-6,4.358,4.358,0,0,0-3.8,2.476.507.507,0,0,1-.525.287h0a3.352,3.352,0,0,0-1.37.114,6.444,6.444,0,0,1,.117,1.2v11.458a5.82,5.82,0,0,1,4.386-2.642c3.42,0,6.292,4.565,7.1,8.955a4.49,4.49,0,0,0,.75-4.123.659.659,0,0,1,.323-.73c3.276-1.863,1.921-4.7,1.176-5.849A.825.825,0,0,1,112.891,109.108Z" transform="translate(-98.984 -98.931)" fill="#87d147"/>
        </g>
        <g id="Grupo_1236526" data-name="Grupo 1236526" transform="translate(25.962 28.727)">
          <path id="Trazado_1254369" data-name="Trazado 1254369" d="M121.244,127.761a.6.6,0,0,1-.6-.6V119.6a.6.6,0,1,1,1.207,0v7.554A.6.6,0,0,1,121.244,127.761Z" transform="translate(-120.64 -119)"/>
        </g>
        <g id="Grupo_1236527" data-name="Grupo 1236527" transform="translate(26.123 32.062)">
          <path id="Trazado_1254370" data-name="Trazado 1254370" d="M121.911,136.042a.6.6,0,0,1-.135-1.192,5.909,5.909,0,0,0,2.74-1.816.6.6,0,0,1,.935.762,7.055,7.055,0,0,1-3.4,2.23A.6.6,0,0,1,121.911,136.042Z" transform="translate(-121.308 -132.813)"/>
        </g>
        <g id="Grupo_1236528" data-name="Grupo 1236528" transform="translate(28.781 36.072)">
          <path id="Trazado_1254371" data-name="Trazado 1254371" d="M132.923,152.846a.6.6,0,0,1-.336-1.105,12.139,12.139,0,0,0,2.369-2.1.6.6,0,0,1,.934.764,13.148,13.148,0,0,1-2.632,2.336A.6.6,0,0,1,132.923,152.846Z" transform="translate(-132.318 -149.423)"/>
        </g>
        <g id="Grupo_1236529" data-name="Grupo 1236529" transform="translate(22.657 30.372)">
          <path id="Trazado_1254372" data-name="Trazado 1254372" d="M110.628,129.041a.613.613,0,0,1-.136-.015,7.057,7.057,0,0,1-3.4-2.23.6.6,0,0,1,.935-.763,5.908,5.908,0,0,0,2.74,1.816.6.6,0,0,1-.135,1.192Z" transform="translate(-106.952 -125.811)"/>
        </g>
        <g id="Grupo_1236530" data-name="Grupo 1236530" transform="translate(31.795 29.412)">
          <path id="Trazado_1254373" data-name="Trazado 1254373" d="M145.407,138.692a.6.6,0,0,1-.453-1,3.916,3.916,0,0,0,.557-3.51,1.267,1.267,0,0,1,.61-1.4,3.262,3.262,0,0,0,1.72-1.984,4.123,4.123,0,0,0-.752-3.011,1.423,1.423,0,0,1,.092-1.681,3.724,3.724,0,0,0,.81-3.5.6.6,0,1,1,1.161-.33,4.964,4.964,0,0,1-1.036,4.59.22.22,0,0,0-.014.26,5.292,5.292,0,0,1,.912,3.955,4.405,4.405,0,0,1-2.3,2.748.06.06,0,0,0-.036.058,5.074,5.074,0,0,1-.822,4.6A.6.6,0,0,1,145.407,138.692Z" transform="translate(-144.804 -121.837)"/>
        </g>
        <g id="Grupo_1236531" data-name="Grupo 1236531" transform="translate(20.247 23.287)">
          <path id="Trazado_1254374" data-name="Trazado 1254374" d="M97.572,100.507a.6.6,0,0,1-.147-1.189,3.924,3.924,0,0,1,1.414-.1,4.97,4.97,0,0,1,4.112-2.751.6.6,0,1,1,.081,1.2A3.762,3.762,0,0,0,99.9,99.8a1.109,1.109,0,0,1-1.15.624,2.7,2.7,0,0,0-1.028.069A.6.6,0,0,1,97.572,100.507ZM98.9,99.223h0Z" transform="translate(-96.969 -96.463)"/>
        </g>
        <g id="Grupo_1236532" data-name="Grupo 1236532" transform="translate(23.765 0.603)">
          <path id="Trazado_1254375" data-name="Trazado 1254375" d="M136.809,6.829a14.805,14.805,0,1,0,0,20.938,14.822,14.822,0,0,0,0-20.938ZM117.6,8.558A12.378,12.378,0,0,1,133.462,7.2a.763.763,0,0,1,.09,1.161L117.4,24.51a.763.763,0,0,1-1.161-.09A12.38,12.38,0,0,1,117.6,8.558Zm17.48,17.48A12.38,12.38,0,0,1,119.217,27.4a.763.763,0,0,1-.09-1.161l16.154-16.154a.763.763,0,0,1,1.161.09A12.38,12.38,0,0,1,135.08,26.038Z" transform="translate(-111.542 -2.499)" fill="#fc657e"/>
        </g>
        <g id="Grupo_1236533" data-name="Grupo 1236533" transform="translate(10.519 14.328)">
          <path id="Trazado_1254376" data-name="Trazado 1254376" d="M60.87,60.559h-3.6a.6.6,0,1,1,0-1.207h3.6a.6.6,0,1,1,0,1.207Z" transform="translate(-56.671 -59.352)"/>
        </g>
        <g id="Grupo_1236534" data-name="Grupo 1236534" transform="translate(23.162 0)">
          <path id="Trazado_1254377" data-name="Trazado 1254377" d="M124.445,30.8a15.4,15.4,0,1,1,10.9-4.506A15.361,15.361,0,0,1,124.445,30.8Zm0-29.6a14.195,14.195,0,1,0,10.042,4.153,14.157,14.157,0,0,0-10.042-4.153Zm0,27.168A12.926,12.926,0,0,1,116.974,26a1.349,1.349,0,0,1-.566-.991,1.373,1.373,0,0,1,.4-1.09L132.959,7.764a1.373,1.373,0,0,1,1.09-.4,1.35,1.35,0,0,1,.991.566,12.975,12.975,0,0,1-10.594,20.444Zm9.486-19.808a.165.165,0,0,0-.119.049L117.659,24.771a.167.167,0,0,0-.049.133.142.142,0,0,0,.06.107A11.757,11.757,0,0,0,134.054,8.628a.142.142,0,0,0-.107-.06Zm-.747,15.575h0Zm-18.226-.7q-.059,0-.118-.005a1.35,1.35,0,0,1-.991-.566A12.964,12.964,0,0,1,131.915,4.808a1.35,1.35,0,0,1,.566.991,1.372,1.372,0,0,1-.4,1.09L115.93,23.042A1.371,1.371,0,0,1,114.958,23.445Zm9.486-19.808a11.767,11.767,0,0,0-9.609,18.541.143.143,0,0,0,.107.06.166.166,0,0,0,.133-.049L131.23,6.035a.167.167,0,0,0,.049-.133.142.142,0,0,0-.06-.107,11.721,11.721,0,0,0-6.775-2.157ZM115.7,6.663h0Z" transform="translate(-109.044 -0.002)"/>
        </g>
        <g id="Grupo_1236535" data-name="Grupo 1236535" transform="translate(30.238 47.432)">
          <path id="Trazado_1254378" data-name="Trazado 1254378" d="M141.2,205.589c-1.6,0-2.846-2-2.846-4.554s1.25-4.554,2.846-4.554,2.846,2,2.846,4.554S142.792,205.589,141.2,205.589Zm0-7.9c-.775,0-1.639,1.375-1.639,3.347s.864,3.347,1.639,3.347,1.639-1.375,1.639-3.347S141.972,197.688,141.2,197.688Z" transform="translate(-138.351 -196.481)"/>
        </g>
        <g id="Grupo_1236536" data-name="Grupo 1236536" transform="translate(30.238 47.432)">
          <path id="Trazado_1254379" data-name="Trazado 1254379" d="M141.2,205.589c-1.6,0-2.846-2-2.846-4.554s1.25-4.554,2.846-4.554,2.846,2,2.846,4.554S142.792,205.589,141.2,205.589Zm0-7.9c-.775,0-1.639,1.375-1.639,3.347s.864,3.347,1.639,3.347,1.639-1.375,1.639-3.347S141.972,197.688,141.2,197.688Z" transform="translate(-138.351 -196.481)"/>
        </g>
        <g id="Grupo_1236537" data-name="Grupo 1236537" transform="translate(37.904 50.002)">
          <path id="Trazado_1254380" data-name="Trazado 1254380" d="M172.231,214.939a2.1,2.1,0,0,1-1.432-.505,2.5,2.5,0,0,1-.6-2.5,6.365,6.365,0,0,1,1.507-2.8c1.7-1.907,3.963-2.569,5.154-1.508s.794,3.386-.9,5.293A5.389,5.389,0,0,1,172.231,214.939Zm3.182-6.61a4.26,4.26,0,0,0-2.808,1.614,5.225,5.225,0,0,0-1.228,2.248,1.4,1.4,0,0,0,.226,1.341c.578.516,2.137.064,3.45-1.409s1.581-3.073,1-3.589A.945.945,0,0,0,175.413,208.329Zm.09,4.2h0Z" transform="translate(-170.108 -207.128)"/>
        </g>
        <g id="Grupo_1236538" data-name="Grupo 1236538" transform="translate(17.306 36.173)">
          <path id="Trazado_1254381" data-name="Trazado 1254381" d="M92.715,170.236c-4.67,0-7.932-3.481-7.932-8.465a15.938,15.938,0,0,1,2.232-7.822c1.586-2.649,3.61-4.108,5.7-4.108s4.114,1.459,5.7,4.108a15.938,15.938,0,0,1,2.232,7.822.6.6,0,0,1-1.207,0c0-4.726-3.166-10.722-6.725-10.722s-6.725,6-6.725,10.722c0,4.341,2.7,7.258,6.725,7.258a6.444,6.444,0,0,0,5.228-2.449.6.6,0,0,1,.953.74A7.728,7.728,0,0,1,92.715,170.236Z" transform="translate(-84.783 -149.841)"/>
        </g>
        <g id="Grupo_1236539" data-name="Grupo 1236539" transform="translate(34.722 47.432)">
          <path id="Trazado_1254382" data-name="Trazado 1254382" d="M159.772,205.589c-1.6,0-2.846-2-2.846-4.554s1.25-4.554,2.846-4.554,2.846,2,2.846,4.554c0,.192-.009.392-.027.61a.6.6,0,0,1-1.2-.1c.015-.185.023-.352.023-.51,0-1.972-.864-3.347-1.639-3.347s-1.639,1.375-1.639,3.347.864,3.347,1.639,3.347a.872.872,0,0,0,.527-.207.6.6,0,0,1,.737.955A2.069,2.069,0,0,1,159.772,205.589Z" transform="translate(-156.926 -196.481)"/>
        </g>
        <g id="Grupo_1236540" data-name="Grupo 1236540" transform="translate(34.586 33.617)">
          <path id="Trazado_1254383" data-name="Trazado 1254383" d="M169.586,148.36H158.251a1.874,1.874,0,0,1-1.885-1.853,7.329,7.329,0,0,1,7.526-7.251h.03a7.236,7.236,0,0,1,7.55,7.227,1.856,1.856,0,0,1-.548,1.322A1.88,1.88,0,0,1,169.586,148.36Zm-5.663-7.9H163.9a6.061,6.061,0,0,0-6.323,6.03.667.667,0,0,0,.678.66h11.335a.682.682,0,0,0,.485-.2.656.656,0,0,0,.195-.468,6.03,6.03,0,0,0-6.344-6.021Z" transform="translate(-156.366 -139.256)"/>
        </g>
        <g id="Grupo_1236541" data-name="Grupo 1236541" transform="translate(43.98 41.75)">
          <path id="Trazado_1254384" data-name="Trazado 1254384" d="M196.058,184.362a.6.6,0,0,1-.4-1.052,1.878,1.878,0,0,0,.323-.376,5.18,5.18,0,0,0,.463-4.659,21.272,21.272,0,0,1-1.156-4.651.6.6,0,0,1,1.2-.156,20.294,20.294,0,0,0,1.085,4.371,6.391,6.391,0,0,1-.573,5.748,3.08,3.08,0,0,1-.53.619A.6.6,0,0,1,196.058,184.362Z" transform="translate(-195.278 -172.943)"/>
        </g>
        <g id="Grupo_1236542" data-name="Grupo 1236542" transform="translate(37.642 41.751)">
          <path id="Trazado_1254385" data-name="Trazado 1254385" d="M169.627,179.915a.621.621,0,0,1-.089-.007.6.6,0,0,1-.508-.686,6.417,6.417,0,0,1,.364-1.378,20.3,20.3,0,0,0,1.084-4.369.6.6,0,0,1,1.2.156,21.278,21.278,0,0,1-1.156,4.649,5.213,5.213,0,0,0-.3,1.119A.6.6,0,0,1,169.627,179.915Z" transform="translate(-169.023 -172.95)"/>
        </g>
        <g id="Grupo_1236543" data-name="Grupo 1236543" transform="translate(0 10.575)">
          <path id="Trazado_1254386" data-name="Trazado 1254386" d="M31.381,89.8H16.268A3.175,3.175,0,0,1,13.1,86.628V61.192A7.083,7.083,0,0,1,15.14,56.2l2.437-2.48a5.883,5.883,0,0,0,1.7-4.147V48.541a2.479,2.479,0,0,1-1.4-2.536,2.523,2.523,0,0,1,2.542-2.2h6.827a2.523,2.523,0,0,1,2.542,2.2,2.478,2.478,0,0,1-1.4,2.536v1.032a5.884,5.884,0,0,0,1.7,4.147l2.437,2.48a7.083,7.083,0,0,1,2.043,4.993V72.625a.6.6,0,1,1-1.207,0V61.193a5.884,5.884,0,0,0-1.7-4.147l-2.437-2.48a7.082,7.082,0,0,1-2.042-4.993V48.437a1.061,1.061,0,0,1,.648-.968,1.278,1.278,0,0,0,.764-1.327,1.334,1.334,0,0,0-1.342-1.128H20.411a1.334,1.334,0,0,0-1.342,1.128,1.278,1.278,0,0,0,.764,1.327,1.061,1.061,0,0,1,.648.968v1.135a7.083,7.083,0,0,1-2.043,4.993L16,57.045a5.883,5.883,0,0,0-1.7,4.147V86.628a1.966,1.966,0,0,0,1.964,1.964H31.381a1.975,1.975,0,0,0,1.774-1.121.6.6,0,0,1,1.09.519A3.188,3.188,0,0,1,31.381,89.8Z" transform="translate(-13.097 -43.807)"/>
        </g>
        <g id="Grupo_1236544" data-name="Grupo 1236544" transform="translate(1.344 23.527)">
          <path id="Trazado_1254387" data-name="Trazado 1254387" d="M33.165,100.094a5.066,5.066,0,0,1-2.826-.792,4.235,4.235,0,0,0-4.464,0,5.447,5.447,0,0,1-5.654,0,4.725,4.725,0,0,0-1.11-.5.6.6,0,1,1,.318-1.164,5.832,5.832,0,0,1,1.384.613,4.245,4.245,0,0,0,4.469,0,5.436,5.436,0,0,1,5.651,0,4.243,4.243,0,0,0,4.468,0,6.24,6.24,0,0,1,1.17-.549.6.6,0,1,1,.376,1.147,5.207,5.207,0,0,0-.954.454A5.086,5.086,0,0,1,33.165,100.094Z" transform="translate(-18.666 -97.459)"/>
        </g>
        <g id="Grupo_1236545" data-name="Grupo 1236545" transform="translate(0.016 51.442)">
          <path id="Trazado_1254388" data-name="Trazado 1254388" d="M31.731,215.538H16.016a3.26,3.26,0,0,1-2.76-1.518.6.6,0,0,1,1.018-.649,2.057,2.057,0,0,0,1.742.959H31.731a2.026,2.026,0,0,0,.572-.086.6.6,0,1,1,.342,1.157A3.217,3.217,0,0,1,31.731,215.538Z" transform="translate(-13.162 -213.093)"/>
        </g>
        <g id="Grupo_1236546" data-name="Grupo 1236546" transform="translate(27.645 9.528)">
          <path id="Trazado_1254389" data-name="Trazado 1254389" d="M132.6,49.938a.6.6,0,0,1-.25-.055,13.176,13.176,0,0,1-4.025-2.849,2.531,2.531,0,0,1,0-3.527,13.2,13.2,0,0,1,13.247-3.495.6.6,0,1,1-.342,1.157A11.994,11.994,0,0,0,129.2,44.345a1.345,1.345,0,0,0,0,1.851,11.973,11.973,0,0,0,3.657,2.589.6.6,0,0,1-.251,1.153Z" transform="translate(-127.613 -39.47)"/>
        </g>
        <g id="Grupo_1236547" data-name="Grupo 1236547" transform="translate(43.476 11.171)">
          <path id="Trazado_1254390" data-name="Trazado 1254390" d="M197.342,49.947a1.672,1.672,0,0,1-1.2-.506,12.045,12.045,0,0,0-2.644-2.038.6.6,0,1,1,.6-1.049A13.247,13.247,0,0,1,197,48.6a.48.48,0,0,0,.67.006,13.267,13.267,0,0,1,2.1-1.737.6.6,0,1,1,.671,1,12.041,12.041,0,0,0-1.909,1.579A1.657,1.657,0,0,1,197.342,49.947Z" transform="translate(-193.19 -46.275)"/>
        </g>
        <g id="Grupo_1236548" data-name="Grupo 1236548" transform="translate(34.95 15.815)">
          <path id="Trazado_1254391" data-name="Trazado 1254391" d="M160.782,70.828a13.258,13.258,0,0,1-2.417-.224.6.6,0,0,1,.221-1.187,12.052,12.052,0,0,0,2.2.2,11.9,11.9,0,0,0,8.565-3.6,1.672,1.672,0,0,1,1.2-.506,1.656,1.656,0,0,1,1.192.5,12.086,12.086,0,0,0,1.832,1.528.6.6,0,0,1-.679,1,13.271,13.271,0,0,1-2.016-1.681.458.458,0,0,0-.33-.138.475.475,0,0,0-.341.144A13.1,13.1,0,0,1,160.782,70.828Z" transform="translate(-157.872 -65.513)"/>
        </g>
        <g id="Grupo_1236549" data-name="Grupo 1236549" transform="translate(31.328 13.76)">
          <path id="Trazado_1254392" data-name="Trazado 1254392" d="M143.955,58.207h-.483a.6.6,0,1,1,0-1.207h.483a.6.6,0,1,1,0,1.207Z" transform="translate(-142.869 -57)"/>
        </g>
        <g id="Grupo_1236550" data-name="Grupo 1236550" transform="translate(32.875 10.441)">
          <path id="Trazado_1254393" data-name="Trazado 1254393" d="M150.8,51.241a.6.6,0,0,1-.2-.035.6.6,0,0,1-.367-.771,6.852,6.852,0,0,0-.842-6.233.6.6,0,1,1,.989-.692,8.059,8.059,0,0,1,.99,7.33.6.6,0,0,1-.569.4Z" transform="translate(-149.278 -43.252)"/>
        </g>
      </g>
    </g>
  </g>
</svg>
