<svg xmlns="http://www.w3.org/2000/svg" xmlns:xlink="http://www.w3.org/1999/xlink" width="106.16" height="106.16" viewBox="0 0 106.16 106.16">
  <defs>
    <filter id="Trazado_982547" x="0" y="0" width="106.16" height="106.16" filterUnits="userSpaceOnUse">
      <feOffset dy="3" input="SourceAlpha"/>
      <feGaussianBlur stdDeviation="3" result="blur"/>
      <feFlood flood-opacity="0.161"/>
      <feComposite operator="in" in2="blur"/>
      <feComposite in="SourceGraphic"/>
    </filter>
  </defs>
  <g id="Grupo_1236559" data-name="Grupo 1236559" transform="translate(-825 -7551.158)">
    <g id="Grupo_1234685" data-name="Grupo 1234685" transform="translate(634.5 3127.245)">
      <g id="Grupo_1232498" data-name="Grupo 1232498" transform="translate(-629.75 -2849.501)">
        <g id="Grupo_1230692" data-name="Grupo 1230692" transform="translate(-0.25 3811.95)">
          <g id="Grupo_1224852" data-name="Grupo 1224852" transform="translate(629.5 1738.464)">
            <g id="Grupo_1206130" data-name="Grupo 1206130" transform="translate(0 -59)">
              <g id="Grupo_1203672" data-name="Grupo 1203672" transform="translate(0.08 -4797.878)">
                <g id="Grupo_1203344" data-name="Grupo 1203344" transform="translate(-81.08 5174.875)">
                  <g id="Grupo_1177900" data-name="Grupo 1177900" transform="translate(281 1411.003)">
                    <g id="Grupo_1172010" data-name="Grupo 1172010" transform="translate(0)">
                      <g id="Grupo_1171046" data-name="Grupo 1171046">
                        <g id="Grupo_1148525" data-name="Grupo 1148525">
                          <g transform="matrix(1, 0, 0, 1, -9, -6)" filter="url(#Trazado_982547)">
                            <g id="Trazado_982547-2" data-name="Trazado 982547" transform="translate(9 6)" fill="#e5ebfb">
                              <path d="M 44.0802001953125 86.660400390625 C 38.33124923706055 86.660400390625 32.75506210327148 85.53479766845703 27.50652503967285 83.31484985351562 C 22.43628692626953 81.17032623291016 17.88242530822754 78.09992218017578 13.97144985198975 74.18894958496094 C 10.06047534942627 70.27797698974609 6.99007511138916 65.72411346435547 4.845550060272217 60.65387344360352 C 2.625600099563599 55.40533828735352 1.500000238418579 49.82915115356445 1.500000238418579 44.0802001953125 C 1.500000238418579 38.33124923706055 2.625600099563599 32.75506210327148 4.845550060272217 27.50652503967285 C 6.99007511138916 22.43628692626953 10.06047534942627 17.88242530822754 13.97144985198975 13.97144985198975 C 17.88242530822754 10.06047534942627 22.43628692626953 6.99007511138916 27.50652503967285 4.845550060272217 C 32.75506210327148 2.625600099563599 38.33124923706055 1.500000238418579 44.0802001953125 1.500000238418579 C 49.82915115356445 1.500000238418579 55.40533828735352 2.625600099563599 60.65387344360352 4.845550060272217 C 65.72411346435547 6.99007511138916 70.27797698974609 10.06047534942627 74.18894958496094 13.97144985198975 C 78.09992218017578 17.88242530822754 81.17032623291016 22.43628692626953 83.31484985351562 27.50652503967285 C 85.53479766845703 32.75506210327148 86.660400390625 38.33124923706055 86.660400390625 44.0802001953125 C 86.660400390625 49.82915115356445 85.53479766845703 55.40533828735352 83.31484985351562 60.65387344360352 C 81.17032623291016 65.72411346435547 78.09992218017578 70.27797698974609 74.18894958496094 74.18894958496094 C 70.27797698974609 78.09992218017578 65.72411346435547 81.17032623291016 60.65387344360352 83.31484985351562 C 55.40533828735352 85.53479766845703 49.82915115356445 86.660400390625 44.0802001953125 86.660400390625 Z" stroke="none"/>
                              <path d="M 44.0802001953125 3 C 38.53308486938477 3 33.15349960327148 4.085746765136719 28.09085845947266 6.227058410644531 C 23.19941711425781 8.29595947265625 18.80581665039062 11.25841522216797 15.03211212158203 15.03211212158203 C 11.25841522216797 18.80581665039062 8.29595947265625 23.19941711425781 6.227058410644531 28.09085845947266 C 4.085746765136719 33.15349960327148 3 38.53308486938477 3 44.0802001953125 C 3 49.62731552124023 4.085746765136719 55.00691604614258 6.227058410644531 60.06954193115234 C 8.29595947265625 64.96098327636719 11.25841522216797 69.35458374023438 15.03211212158203 73.12828826904297 C 18.80581665039062 76.90198516845703 23.19941711425781 79.86444091796875 28.09085845947266 81.93334197998047 C 33.15349960327148 84.07466125488281 38.53308486938477 85.160400390625 44.0802001953125 85.160400390625 C 49.62731552124023 85.160400390625 55.00691604614258 84.07466125488281 60.06954193115234 81.93334197998047 C 64.96099853515625 79.86444091796875 69.35458374023438 76.90198516845703 73.12828826904297 73.12828826904297 C 76.90198516845703 69.35458374023438 79.86444091796875 64.96099853515625 81.93334197998047 60.06954193115234 C 84.07466125488281 55.00691604614258 85.160400390625 49.62731552124023 85.160400390625 44.0802001953125 C 85.160400390625 38.53308486938477 84.07466125488281 33.15349960327148 81.93334197998047 28.09085845947266 C 79.86444091796875 23.19941711425781 76.90198516845703 18.80581665039062 73.12828826904297 15.03211212158203 C 69.35458374023438 11.25841522216797 64.96098327636719 8.29595947265625 60.06954193115234 6.227058410644531 C 55.00691604614258 4.085746765136719 49.62731552124023 3 44.0802001953125 3 M 44.0802001953125 0 C 68.42502593994141 0 88.160400390625 19.73538970947266 88.160400390625 44.0802001953125 C 88.160400390625 68.42502593994141 68.42502593994141 88.160400390625 44.0802001953125 88.160400390625 C 19.73538970947266 88.160400390625 0 68.42502593994141 0 44.0802001953125 C 0 19.73538970947266 19.73538970947266 0 44.0802001953125 0 Z" stroke="none" fill="#98b4f2"/>
                            </g>
                          </g>
                        </g>
                      </g>
                    </g>
                  </g>
                </g>
              </g>
            </g>
          </g>
        </g>
      </g>
    </g>
    <g id="_x32_4_stomach" transform="translate(846.081 7567.287)">
      <g id="Grupo_1236558" data-name="Grupo 1236558">
        <g id="Grupo_1236553" data-name="Grupo 1236553">
          <path id="Trazado_1254394" data-name="Trazado 1254394" d="M21.315,35.808c-3.122-.7-5.044.57-6.088,2.458l-1.013-.284A8.4,8.4,0,0,0,3.3,46.3l.024,13.109a2.33,2.33,0,1,0,4.646.245V46.293c0-3.032,2.451-4.363,5.244-3.751l1,.221s.028.588.038.695c.27,2.987,2.772,5.324,4.975,7.139,12.9,10.627,35.716,5.832,40.587-13.745-11.086-5.462-17,7.813-30.331-1.117-1.749.881-4.273.944-8.165.072Z" fill="#ffd54f" fill-rule="evenodd"/>
        </g>
        <g id="Grupo_1236554" data-name="Grupo 1236554">
          <path id="Trazado_1254395" data-name="Trazado 1254395" d="M47.144,16.287c-5.548-.118-11.1,3.056-12.929,10.219-1.2,4.691-2.084,7.9-4.736,9.23,13.333,8.929,19.244-4.345,30.331,1.117a31.684,31.684,0,0,0,.854-5.552,13.481,13.481,0,0,0-7.712-13.645V4.9a2.9,2.9,0,1,0-5.808,0Z" fill="#ff1744" fill-rule="evenodd"/>
        </g>
        <g id="Grupo_1236555" data-name="Grupo 1236555">
          <path id="Trazado_1254396" data-name="Trazado 1254396" d="M54.971,35.511a12.6,12.6,0,0,1,4.84,1.341,31.684,31.684,0,0,0,.854-5.552,13.481,13.481,0,0,0-7.712-13.645V4.9a2.912,2.912,0,0,0-2.9-2.9V19.968c0,1.22-.152.944.65,1.825,5.109,5.618,4.885,9.68,4.273,13.717Z" fill="#e3103a" fill-rule="evenodd"/>
        </g>
        <g id="Grupo_1236556" data-name="Grupo 1236556">
          <path id="Trazado_1254397" data-name="Trazado 1254397" d="M54.971,35.511C51.337,50.092,37.752,56.474,25.725,54.389c12.946,5.026,29.957-.951,34.085-17.537-.048-.024-.093-.048-.142-.069a12.542,12.542,0,0,0-4.7-1.272Z" fill="#ffc107" fill-rule="evenodd"/>
        </g>
        <g id="Grupo_1236557" data-name="Grupo 1236557">
          <path id="Trazado_1254398" data-name="Trazado 1254398" d="M33.1,43.919a1.013,1.013,0,0,0-1,1.016,1,1,0,1,0,2,0V44.9A.987.987,0,0,0,33.1,43.919Z"/>
          <path id="Trazado_1254399" data-name="Trazado 1254399" d="M25.874,44.455a1.013,1.013,0,0,0-1,1.016,1,1,0,0,0,2,0v-.031A.987.987,0,0,0,25.874,44.455Z"/>
          <path id="Trazado_1254400" data-name="Trazado 1254400" d="M47.442,40.894a1.013,1.013,0,0,0-1,1.016,1,1,0,1,0,2,0v-.031A.986.986,0,0,0,47.442,40.894Z"/>
          <path id="Trazado_1254401" data-name="Trazado 1254401" d="M40.047,48.451a1.013,1.013,0,0,0-1,1.016,1,1,0,0,0,2,0v-.031A.987.987,0,0,0,40.047,48.451Z"/>
          <path id="Trazado_1254402" data-name="Trazado 1254402" d="M53.952,17.035V4.9a3.9,3.9,0,1,0-7.808,0V15.3c-5.121.25-10.921,3.215-12.9,10.957-1.913,7.489-2.706,10.593-11.714,8.575-2.894-.644-5.261.158-6.755,2.27l-.295-.083a9.617,9.617,0,0,0-8.491,1.5A9.613,9.613,0,0,0,2.3,46.3l.024,13.1A3.487,3.487,0,0,0,3.967,62.56,3.343,3.343,0,0,0,5.638,63a3.437,3.437,0,0,0,1.712-.452,3.237,3.237,0,0,0,1.618-2.892V46.293a2.791,2.791,0,0,1,.941-2.273,3.669,3.669,0,0,1,3.086-.5l.26.057c.3,3.237,2.742,5.658,5.332,7.793A26.688,26.688,0,0,0,45.92,54.89C55.2,50.884,60.934,42.31,61.662,31.367c.419-6.28-2.453-11.589-7.71-14.331ZM35.185,26.752c1.819-7.126,7.328-9.565,11.938-9.466A1.024,1.024,0,0,0,47.843,17a1,1,0,0,0,.3-.714V4.9a1.9,1.9,0,1,1,3.808,0V17.656a1,1,0,0,0,.574.9c4.848,2.283,7.517,7.021,7.14,12.673a30.724,30.724,0,0,1-.579,4.209c-4.857-1.923-8.82-.558-12.659.772-4.593,1.591-8.945,3.1-15.144-.527,2.076-1.848,2.906-5.043,3.9-8.935Zm9.942,26.3a24.664,24.664,0,0,1-25.268-3.229c-2.262-1.865-4.387-3.938-4.614-6.457-.01-.112-.035-.652-.035-.653a1,1,0,0,0-.783-.928l-1-.222a5.631,5.631,0,0,0-4.769.9,4.678,4.678,0,0,0-1.689,3.832V59.654a1.244,1.244,0,0,1-.616,1.159,1.421,1.421,0,0,1-1.381.016,1.558,1.558,0,0,1-.649-1.422L4.3,46.3A7.631,7.631,0,0,1,7.2,40.115a7.367,7.367,0,0,1,4.49-1.482,8.4,8.4,0,0,1,2.251.313l1.013.283A1,1,0,0,0,16.1,38.75c1.007-1.819,2.684-2.482,4.994-1.965,3.774.845,6.376.786,8.267.058a17.187,17.187,0,0,0,9.443,3.067,24.838,24.838,0,0,0,8.276-1.8c3.708-1.286,7.224-2.5,11.522-.7A23.562,23.562,0,0,1,45.126,53.054Z"/>
        </g>
      </g>
    </g>
  </g>
</svg>
