<svg xmlns="http://www.w3.org/2000/svg" xmlns:xlink="http://www.w3.org/1999/xlink" width="106" height="106" viewBox="0 0 106 106">
  <defs>
    <filter id="Trazado_982547" x="0" y="0" width="106" height="106" filterUnits="userSpaceOnUse">
      <feOffset dy="3" input="SourceAlpha"/>
      <feGaussianBlur stdDeviation="3" result="blur"/>
      <feFlood flood-opacity="0.161"/>
      <feComposite operator="in" in2="blur"/>
      <feComposite in="SourceGraphic"/>
    </filter>
  </defs>
  <g id="Grupo_1235187" data-name="Grupo 1235187" transform="translate(9 6)">
    <g id="Grupo_1234665" data-name="Grupo 1234665" transform="translate(0 0)">
      <g id="Grupo_1173169" data-name="Grupo 1173169">
        <g id="Grupo_1172017" data-name="Grupo 1172017">
          <g id="Grupo_1167337" data-name="Grupo 1167337">
            <g id="Grupo_1166720" data-name="Grupo 1166720">
              <g id="Grupo_1164305" data-name="Grupo 1164305">
                <g id="Grupo_1163948" data-name="Grupo 1163948">
                  <g id="Grupo_1158168" data-name="Grupo 1158168">
                    <g id="Grupo_1152576" data-name="Grupo 1152576">
                      <g id="Grupo_1148633" data-name="Grupo 1148633">
                        <g id="Grupo_1148525" data-name="Grupo 1148525">
                          <g transform="matrix(1, 0, 0, 1, -9, -6)" filter="url(#Trazado_982547)">
                            <g id="Trazado_982547-2" data-name="Trazado 982547" transform="translate(9 6)" fill="#eafafe">
                              <path d="M 44 86.5 C 38.26187515258789 86.5 32.69618606567383 85.37651062011719 27.45755004882812 83.16075897216797 C 22.3968505859375 81.020263671875 17.85157585144043 77.95565032958984 13.94796276092529 74.05204010009766 C 10.04434967041016 70.1484375 6.979737281799316 65.6031494140625 4.839250087738037 60.54246139526367 C 2.62348747253418 55.30381393432617 1.5 49.73812484741211 1.5 44 C 1.5 38.26187515258789 2.62348747253418 32.69618606567383 4.839250087738037 27.45755004882812 C 6.979737281799316 22.3968505859375 10.04434967041016 17.85157585144043 13.94796276092529 13.94796276092529 C 17.85157585144043 10.04434967041016 22.3968505859375 6.979737281799316 27.45755004882812 4.839250087738037 C 32.69618606567383 2.62348747253418 38.26187515258789 1.5 44 1.5 C 49.73812484741211 1.5 55.30381393432617 2.62348747253418 60.54246139526367 4.839250087738037 C 65.6031494140625 6.979737281799316 70.1484375 10.04434967041016 74.05204010009766 13.94796276092529 C 77.95565032958984 17.85157585144043 81.020263671875 22.3968505859375 83.16075897216797 27.45755004882812 C 85.37651062011719 32.69618606567383 86.5 38.26187515258789 86.5 44 C 86.5 49.73812484741211 85.37651062011719 55.30381393432617 83.16075897216797 60.54246139526367 C 81.020263671875 65.6031494140625 77.95565032958984 70.1484375 74.05204010009766 74.05204010009766 C 70.1484375 77.95565032958984 65.6031494140625 81.020263671875 60.54246139526367 83.16075897216797 C 55.30381393432617 85.37651062011719 49.73812484741211 86.5 44 86.5 Z" stroke="none"/>
                              <path d="M 44 3 C 38.46371459960938 3 33.09462738037109 4.083610534667969 28.0418701171875 6.220756530761719 C 23.15997314453125 8.285614013671875 18.77495574951172 11.24228668212891 15.00862884521484 15.00862884521484 C 11.24228668212891 18.77495574951172 8.285614013671875 23.15997314453125 6.220756530761719 28.0418701171875 C 4.083610534667969 33.09462738037109 3 38.46371459960938 3 44 C 3 49.53628540039062 4.083610534667969 54.9053840637207 6.220756530761719 59.9581298828125 C 8.285614013671875 64.84002685546875 11.24228668212891 69.22504425048828 15.00862884521484 72.99138641357422 C 18.77495574951172 76.75771331787109 23.15997314453125 79.71438598632812 28.0418701171875 81.77925872802734 C 33.09462738037109 83.9163818359375 38.46371459960938 85 44 85 C 49.53628540039062 85 54.9053840637207 83.9163818359375 59.95814514160156 81.77925872802734 C 64.84002685546875 79.71438598632812 69.22504425048828 76.75771331787109 72.99138641357422 72.99138641357422 C 76.75771331787109 69.22504425048828 79.71438598632812 64.84002685546875 81.77925872802734 59.95814514160156 C 83.9163818359375 54.9053840637207 85 49.53628540039062 85 44 C 85 38.46371459960938 83.9163818359375 33.09462738037109 81.77925872802734 28.0418701171875 C 79.71438598632812 23.15997314453125 76.75771331787109 18.77495574951172 72.99138641357422 15.00862884521484 C 69.22504425048828 11.24228668212891 64.84002685546875 8.285614013671875 59.9581298828125 6.220756530761719 C 54.9053840637207 4.083610534667969 49.53628540039062 3 44 3 M 44 0 C 68.30054473876953 0 88 19.69947052001953 88 44 C 88 68.30054473876953 68.30054473876953 88 44 88 C 19.69947052001953 88 0 68.30054473876953 0 44 C 0 19.69947052001953 19.69947052001953 0 44 0 Z" stroke="none" fill="#207389"/>
                            </g>
                          </g>
                        </g>
                      </g>
                    </g>
                  </g>
                </g>
              </g>
            </g>
          </g>
        </g>
      </g>
    </g>
    <g id="Virus_danger_death" transform="translate(13.362 13.366)">
      <path id="Trazado_1253327" data-name="Trazado 1253327" d="M66.06,148.893a2.776,2.776,0,0,0-2.314.99,2.036,2.036,0,0,1-1.557.741H60.733a.708.708,0,0,1-.7-.628,13.829,13.829,0,0,0-2.867-6.909.7.7,0,0,1,.061-.931l1.069-1.069a1.931,1.931,0,0,1,1.562-.539,2.782,2.782,0,1,0-2.5-2.483,1.968,1.968,0,0,1-.581,1.584l-1.029,1.029a.7.7,0,0,1-.931.061,13.829,13.829,0,0,0-6.909-2.867.708.708,0,0,1-.628-.7v-1.456a2.036,2.036,0,0,1,.741-1.557,2.782,2.782,0,1,0-3.541.026,1.968,1.968,0,0,1,.709,1.531v1.456a.708.708,0,0,1-.628.7,13.829,13.829,0,0,0-6.909,2.867.7.7,0,0,1-.931-.061l-1.069-1.069a1.931,1.931,0,0,1-.539-1.562,2.782,2.782,0,1,0-2.483,2.5,1.968,1.968,0,0,1,1.584.581l1.029,1.029a.7.7,0,0,1,.061.931A13.829,13.829,0,0,0,32.437,150a.708.708,0,0,1-.7.628H30.28a2.036,2.036,0,0,1-1.557-.741,2.782,2.782,0,1,0,.026,3.541,1.968,1.968,0,0,1,1.531-.709h1.456a.708.708,0,0,1,.7.628,13.829,13.829,0,0,0,2.867,6.909.7.7,0,0,1-.061.931l-1.069,1.069a1.931,1.931,0,0,1-1.562.539,2.782,2.782,0,1,0,2.5,2.483,1.968,1.968,0,0,1,.581-1.584l1.029-1.029a.7.7,0,0,1,.931-.061,13.829,13.829,0,0,0,6.909,2.867.708.708,0,0,1,.628.7v1.456a2.036,2.036,0,0,1-.741,1.557,2.782,2.782,0,1,0,3.541-.026,1.968,1.968,0,0,1-.709-1.531v-1.456a.708.708,0,0,1,.628-.7,13.829,13.829,0,0,0,6.909-2.867.7.7,0,0,1,.931.061l1.069,1.069a1.931,1.931,0,0,1,.539,1.562,2.782,2.782,0,1,0,2.483-2.5,1.968,1.968,0,0,1-1.584-.581l-1.029-1.029a.7.7,0,0,1-.061-.931,13.829,13.829,0,0,0,2.867-6.909.708.708,0,0,1,.7-.628h1.456a1.968,1.968,0,0,1,1.531.709,2.782,2.782,0,1,0,2.34-4.531Z" transform="translate(-22.183 -114.451)" fill="#f93882"/>
      <ellipse id="Elipse_14646" data-name="Elipse 14646" cx="1.38" cy="1.38" rx="1.38" ry="1.38" transform="translate(36.501 21.966)" fill="#ae1b4d"/>
      <path id="Trazado_1253328" data-name="Trazado 1253328" d="M95.1,140.725c-12.295-2.8-19.972,5.683-22.315,8.791a13.818,13.818,0,0,1,2.8-6.443.7.7,0,0,0-.061-.931l-1.028-1.03a1.969,1.969,0,0,0-1.584-.58,2.783,2.783,0,1,1,2.483-2.5,1.931,1.931,0,0,0,.539,1.562l1.07,1.068a.7.7,0,0,0,.931.061,13.829,13.829,0,0,1,6.909-2.867.708.708,0,0,0,.629-.7V135.7a1.971,1.971,0,0,0-.71-1.532,2.783,2.783,0,1,1,3.54-.026,2.04,2.04,0,0,0-.741,1.558v1.456a.708.708,0,0,0,.629.7A13.829,13.829,0,0,1,95.1,140.725Z" transform="translate(-62.468 -114.437)" fill="#fc8cb6"/>
      <path id="Trazado_1253329" data-name="Trazado 1253329" d="M106.171,251.407a2.774,2.774,0,0,1-2.158-1.028,1.969,1.969,0,0,0-1.531-.71h-1.457a.709.709,0,0,0-.7.629,13.827,13.827,0,0,1-2.867,6.91.7.7,0,0,0,.061.93l1.028,1.03a1.97,1.97,0,0,0,1.584.581,2.782,2.782,0,1,1-2.483,2.5,1.928,1.928,0,0,0-.539-1.561l-1.07-1.07a.7.7,0,0,0-.931-.061,13.832,13.832,0,0,1-6.909,2.868.707.707,0,0,0-.629.7v1.457a1.969,1.969,0,0,0,.71,1.531,2.783,2.783,0,1,1-3.54.026,2.039,2.039,0,0,0,.741-1.557v-1.457a.707.707,0,0,0-.629-.7,13.831,13.831,0,0,1-6.909-2.868.7.7,0,0,0-.931.061l-1.03,1.03a1.97,1.97,0,0,0-.581,1.583,2.782,2.782,0,1,1-2.5-2.483,1.93,1.93,0,0,0,1.562-.539l1.068-1.07a.7.7,0,0,0,.061-.93,13.9,13.9,0,0,1-2.073-3.669,27.411,27.411,0,0,1,12.931.289,9.792,9.792,0,0,0,8.475-1.672c5.609-4.352,2.579-11.987,2.529-12.112a13.824,13.824,0,0,1,2.865,6.908.709.709,0,0,0,.7.629h1.457a2.039,2.039,0,0,0,1.557-.741,2.782,2.782,0,1,1,2.132,4.569Z" transform="translate(-62.477 -211.406)" fill="#ae1b4d"/>
      <path id="Trazado_1253330" data-name="Trazado 1253330" d="M34.857,117.873c.059,0,.118,0,.178.006a2.782,2.782,0,0,1,1.608,4.909,2.036,2.036,0,0,0-.741,1.557V125.8a.708.708,0,0,0,.628.7,13.829,13.829,0,0,1,6.909,2.867.69.69,0,0,0,.428.148.71.71,0,0,0,.5-.208l1.029-1.029a1.968,1.968,0,0,0,.581-1.584,2.782,2.782,0,1,1,2.768,2.5c-.09,0-.18,0-.269-.013q-.1-.01-.2-.01a1.911,1.911,0,0,0-1.361.549l-1.069,1.069a.7.7,0,0,0-.061.931,13.829,13.829,0,0,1,2.867,6.909.708.708,0,0,0,.7.628h1.456a2.036,2.036,0,0,0,1.557-.741,2.775,2.775,0,0,1,2.132-1q.09,0,.182.006a2.782,2.782,0,1,1-2.34,4.531,1.968,1.968,0,0,0-1.531-.71H49.355a.708.708,0,0,0-.7.628,13.829,13.829,0,0,1-2.867,6.909.7.7,0,0,0,.061.931l1.029,1.029a1.984,1.984,0,0,0,1.395.591,1.849,1.849,0,0,0,.19-.01,2.782,2.782,0,1,1-2.483,2.5,1.931,1.931,0,0,0-.539-1.562L44.37,151.29a.71.71,0,0,0-.5-.208.691.691,0,0,0-.428.148A13.829,13.829,0,0,1,36.53,154.1a.708.708,0,0,0-.628.7v1.456a1.968,1.968,0,0,0,.709,1.531,2.782,2.782,0,0,1-1.754,4.941c-.059,0-.118,0-.178-.006a2.782,2.782,0,0,1-1.608-4.909,2.036,2.036,0,0,0,.741-1.557V154.8a.708.708,0,0,0-.628-.7,13.829,13.829,0,0,1-6.909-2.867.69.69,0,0,0-.428-.148.71.71,0,0,0-.5.208l-1.029,1.029a1.968,1.968,0,0,0-.581,1.584,2.782,2.782,0,1,1-2.768-2.5c.09,0,.18,0,.269.013q.1.01.2.01a1.911,1.911,0,0,0,1.361-.549l1.069-1.069a.7.7,0,0,0,.061-.931,13.83,13.83,0,0,1-2.867-6.909.708.708,0,0,0-.7-.628H18.9a1.968,1.968,0,0,0-1.531.709,2.782,2.782,0,1,1-2.34-4.531q.092-.006.182-.006a2.775,2.775,0,0,1,2.132,1,2.036,2.036,0,0,0,1.557.741h1.456a.708.708,0,0,0,.7-.628,13.829,13.829,0,0,1,2.867-6.909.7.7,0,0,0-.061-.931l-1.029-1.029a1.984,1.984,0,0,0-1.394-.591,1.85,1.85,0,0,0-.19.01,2.782,2.782,0,1,1,2.483-2.5,1.931,1.931,0,0,0,.539,1.562l1.069,1.069a.71.71,0,0,0,.5.208.691.691,0,0,0,.428-.148,13.829,13.829,0,0,1,6.909-2.867.708.708,0,0,0,.628-.7v-1.456a1.968,1.968,0,0,0-.709-1.531,2.782,2.782,0,0,1,1.754-4.941Zm0-1.624h0a4.406,4.406,0,0,0-2.779,7.825.352.352,0,0,1,.11.271v.662a15.469,15.469,0,0,0-6.255,2.592l-.509-.509a.322.322,0,0,1-.071-.257,4.406,4.406,0,1,0-3.933,3.958h.023a.365.365,0,0,1,.246.115l.469.469a15.47,15.47,0,0,0-2.592,6.255H18.9a.416.416,0,0,1-.312-.16,4.4,4.4,0,0,0-3.377-1.577c-.095,0-.19,0-.285.009a4.407,4.407,0,1,0,3.7,7.177.352.352,0,0,1,.271-.11h.662a15.469,15.469,0,0,0,2.592,6.255l-.509.509a.3.3,0,0,1-.212.073l-.045,0c-.141-.014-.284-.02-.426-.021a4.407,4.407,0,1,0,4.384,3.954.352.352,0,0,1,.114-.269l.469-.469a15.469,15.469,0,0,0,6.255,2.592v.662a.416.416,0,0,1-.16.312,4.406,4.406,0,0,0,2.551,7.775c.093.006.187.009.279.009a4.406,4.406,0,0,0,2.779-7.826.352.352,0,0,1-.11-.271v-.662A15.469,15.469,0,0,0,43.781,153l.509.509a.322.322,0,0,1,.071.257,4.406,4.406,0,1,0,3.934-3.958h-.024a.365.365,0,0,1-.246-.115l-.469-.469a15.469,15.469,0,0,0,2.592-6.255h.662a.352.352,0,0,1,.271.11,4.406,4.406,0,1,0,3.7-7.177c-.095-.006-.19-.009-.285-.009a4.4,4.4,0,0,0-3.377,1.577.416.416,0,0,1-.312.16h-.662a15.469,15.469,0,0,0-2.592-6.255l.509-.509a.305.305,0,0,1,.212-.073l.045,0c.141.014.284.021.426.021a4.407,4.407,0,1,0-4.384-3.954.352.352,0,0,1-.114.269l-.469.469a15.469,15.469,0,0,0-6.255-2.592v-.662a.416.416,0,0,1,.16-.312,4.406,4.406,0,0,0-2.55-7.775c-.092-.006-.186-.009-.279-.009Z" transform="translate(-10.805 -103.081)"/>
      <ellipse id="Elipse_14647" data-name="Elipse 14647" cx="1.38" cy="1.38" rx="1.38" ry="1.38" transform="translate(8.722 21.966)" fill="#c10b54"/>
      <ellipse id="Elipse_14648" data-name="Elipse 14648" cx="1.38" cy="1.38" rx="1.38" ry="1.38" transform="translate(22.672 55.506)" fill="#630004"/>
      <ellipse id="Elipse_14649" data-name="Elipse 14649" cx="1.38" cy="1.38" rx="1.38" ry="1.38" transform="translate(42.3 35.838)" fill="#630004"/>
      <ellipse id="Elipse_14650" data-name="Elipse 14650" cx="1.38" cy="1.38" rx="1.38" ry="1.38" transform="translate(2.995 35.838)" fill="#c10b54"/>
      <ellipse id="Elipse_14651" data-name="Elipse 14651" cx="1.38" cy="1.38" rx="1.38" ry="1.38" transform="translate(22.672 16.263)" fill="#c10b54"/>
      <ellipse id="Elipse_14652" data-name="Elipse 14652" cx="1.38" cy="1.38" rx="1.38" ry="1.38" transform="translate(36.501 49.688)" fill="#630004"/>
      <ellipse id="Elipse_14653" data-name="Elipse 14653" cx="1.38" cy="1.38" rx="1.38" ry="1.38" transform="translate(8.722 49.688)" fill="#630004"/>
      <path id="Trazado_1253331" data-name="Trazado 1253331" d="M210.045,315.394c-.145.13-.3.255-.456.379a9.608,9.608,0,0,1-5.325,1.982,3.181,3.181,0,0,1-.279-.5,2.119,2.119,0,1,1,.324-3.551c.059.046.115.1.169.146a3.195,3.195,0,0,1,5.567,1.541Z" transform="translate(-177.135 -275.023)" fill="#ffcd2c"/>
      <path id="Trazado_1253332" data-name="Trazado 1253332" d="M233.063,336.452a3.2,3.2,0,0,1-5.155-.15,9.608,9.608,0,0,0,5.325-1.982c.159-.124.311-.249.456-.379A3.182,3.182,0,0,1,233.063,336.452Z" transform="translate(-200.779 -293.571)" fill="#ffa22c"/>
      <path id="Trazado_1253333" data-name="Trazado 1253333" d="M201.185,314.247a4,4,0,0,1-3.275-1.7,2.931,2.931,0,1,1,.786-5.444,4.008,4.008,0,1,1,2.489,7.146Zm-2.908-3.5a.812.812,0,0,1,.74.478,2.356,2.356,0,0,0,.707.9,2.384,2.384,0,1,0-.34-3.439.812.812,0,0,1-1.179.055,1.307,1.307,0,1,0-1.71,1.973h0a1.312,1.312,0,0,0,1.407.126A.811.811,0,0,1,198.277,310.746Z" transform="translate(-171.428 -269.323)"/>
      <ellipse id="Elipse_14654" data-name="Elipse 14654" cx="2.436" cy="2.436" rx="2.436" ry="2.436" transform="translate(16.396 30.322)" fill="#ffcd2c"/>
      <path id="Trazado_1253334" data-name="Trazado 1253334" d="M138.763,253.524a3.248,3.248,0,1,1,3.248-3.248A3.248,3.248,0,0,1,138.763,253.524Zm0-4.872a1.624,1.624,0,1,0,1.624,1.624A1.624,1.624,0,0,0,138.763,248.652Z" transform="translate(-119.931 -217.518)"/>
      <ellipse id="Elipse_14655" data-name="Elipse 14655" cx="12.783" cy="12.783" rx="12.783" ry="12.783" transform="translate(34.959 0.707)" fill="#ffda65"/>
      <path id="Trazado_1253335" data-name="Trazado 1253335" d="M328.267,41.443a12.784,12.784,0,0,1-23.835,6.428,12.786,12.786,0,0,0,17.479-17.479A12.774,12.774,0,0,1,328.267,41.443Z" transform="translate(-267.741 -27.953)" fill="#ffa22c"/>
      <path id="Trazado_1253336" data-name="Trazado 1253336" d="M298.16,37.936a13.534,13.534,0,1,1,9.345-3.765.75.75,0,1,1-1.036-1.083,12.032,12.032,0,1,0-3.508,2.339.75.75,0,1,1,.6,1.374A13.432,13.432,0,0,1,298.16,37.936Z" transform="translate(-250.398 -10.871)"/>
      <path id="Trazado_1253337" data-name="Trazado 1253337" d="M340.327,51.615a7.5,7.5,0,0,0-7.5,7.5v4.7a2.135,2.135,0,0,0,2.135,2.135,1.647,1.647,0,0,1,1.6,1.253l.126.512a1.017,1.017,0,0,0,.988.774h5.311a1.017,1.017,0,0,0,.988-.774l.126-.512a1.647,1.647,0,0,1,1.6-1.253,2.135,2.135,0,0,0,2.135-2.135v-4.7A7.5,7.5,0,0,0,340.327,51.615Z" transform="translate(-292.585 -46.524)" fill="#86a9fd"/>
      <path id="Trazado_1253338" data-name="Trazado 1253338" d="M357.761,60.148v4.7a2.135,2.135,0,0,1-2.136,2.134,1.647,1.647,0,0,0-1.6,1.253l-.126.512a1.018,1.018,0,0,1-.988.775H347.6a1.016,1.016,0,0,1-.987-.775l-.126-.512a1.652,1.652,0,0,0-1.6-1.253,2.136,2.136,0,0,1-.717-.124c4.587-.731,8.115-5.16,8.115-10.513a11.758,11.758,0,0,0-.542-3.55A7.505,7.505,0,0,1,357.761,60.148Z" transform="translate(-302.515 -47.554)" fill="#3a72fc"/>
      <path id="Trazado_1253339" data-name="Trazado 1253339" d="M335.514,46.115a8.2,8.2,0,0,0-8.191,8.191V59a2.826,2.826,0,0,0,2.823,2.822.957.957,0,0,1,.932.73l.126.512a1.7,1.7,0,0,0,1.655,1.3h5.311a1.7,1.7,0,0,0,1.655-1.3l.126-.512a.957.957,0,0,1,.932-.73A2.826,2.826,0,0,0,343.705,59v-4.7A8.2,8.2,0,0,0,335.514,46.115ZM342.33,59a1.45,1.45,0,0,1-1.448,1.448,2.33,2.33,0,0,0-2.266,1.776l-.126.512a.33.33,0,0,1-.321.251h-.7v-1.6a.687.687,0,1,0-1.375,0v1.6h-1.154v-1.6a.687.687,0,1,0-1.375,0v1.6h-.7a.329.329,0,0,1-.32-.251l-.126-.512a2.329,2.329,0,0,0-2.266-1.776A1.45,1.45,0,0,1,328.7,59v-4.7a6.816,6.816,0,1,1,13.633,0Z" transform="translate(-287.771 -41.711)"/>
      <path id="Trazado_1253340" data-name="Trazado 1253340" d="M362.992,110.819a1.688,1.688,0,1,0,.745,1.92A1.481,1.481,0,0,0,362.992,110.819Z" transform="translate(-317.452 -98.295)"/>
      <path id="Trazado_1253341" data-name="Trazado 1253341" d="M403.837,110.819a1.688,1.688,0,1,0,1.665,1.212A1.481,1.481,0,0,0,403.837,110.819Z" transform="translate(-353.998 -98.295)"/>
      <path id="Trazado_1253342" data-name="Trazado 1253342" d="M384.332,133.536a3.322,3.322,0,0,1-.929-1.1.222.222,0,0,0-.39,0,3.321,3.321,0,0,1-.929,1.1.546.546,0,0,0,.327.953l-.007.007h1.551v0C384.469,134.465,384.734,133.823,384.332,133.536Z" transform="translate(-335.518 -117.148)"/>
    </g>
  </g>
</svg>
