<svg xmlns="http://www.w3.org/2000/svg" xmlns:xlink="http://www.w3.org/1999/xlink" width="106" height="106" viewBox="0 0 106 106">
  <defs>
    <filter id="Trazado_982547" x="0" y="0" width="106" height="106" filterUnits="userSpaceOnUse">
      <feOffset dy="3" input="SourceAlpha"/>
      <feGaussianBlur stdDeviation="3" result="blur"/>
      <feFlood flood-opacity="0.161"/>
      <feComposite operator="in" in2="blur"/>
      <feComposite in="SourceGraphic"/>
    </filter>
  </defs>
  <g id="Grupo_1236711" data-name="Grupo 1236711" transform="translate(-200 -9489.994)">
    <g id="Grupo_1234687" data-name="Grupo 1234687" transform="translate(29 8107.994)">
      <g id="Grupo_1173169" data-name="Grupo 1173169" transform="translate(0 -2329)">
        <g id="Grupo_1172017" data-name="Grupo 1172017" transform="translate(0 2654)">
          <g id="Grupo_1167337" data-name="Grupo 1167337" transform="translate(180 1063)">
            <g id="Grupo_1166720" data-name="Grupo 1166720" transform="translate(0)">
              <g id="Grupo_1164305" data-name="Grupo 1164305">
                <g id="Grupo_1163948" data-name="Grupo 1163948">
                  <g id="Grupo_1158168" data-name="Grupo 1158168">
                    <g id="Grupo_1152576" data-name="Grupo 1152576">
                      <g id="Grupo_1148633" data-name="Grupo 1148633">
                        <g id="Grupo_1148525" data-name="Grupo 1148525">
                          <g transform="matrix(1, 0, 0, 1, -9, -6)" filter="url(#Trazado_982547)">
                            <g id="Trazado_982547-2" data-name="Trazado 982547" transform="translate(9 6)" fill="#eafafe">
                              <path d="M 44 86.5 C 38.26187515258789 86.5 32.69618606567383 85.37651062011719 27.45755004882812 83.16075897216797 C 22.3968505859375 81.020263671875 17.85157585144043 77.95565032958984 13.94796276092529 74.05204010009766 C 10.04434967041016 70.1484375 6.979737281799316 65.6031494140625 4.839250087738037 60.54246139526367 C 2.62348747253418 55.30381393432617 1.5 49.73812484741211 1.5 44 C 1.5 38.26187515258789 2.62348747253418 32.69618606567383 4.839250087738037 27.45755004882812 C 6.979737281799316 22.3968505859375 10.04434967041016 17.85157585144043 13.94796276092529 13.94796276092529 C 17.85157585144043 10.04434967041016 22.3968505859375 6.979737281799316 27.45755004882812 4.839250087738037 C 32.69618606567383 2.62348747253418 38.26187515258789 1.5 44 1.5 C 49.73812484741211 1.5 55.30381393432617 2.62348747253418 60.54246139526367 4.839250087738037 C 65.6031494140625 6.979737281799316 70.1484375 10.04434967041016 74.05204010009766 13.94796276092529 C 77.95565032958984 17.85157585144043 81.020263671875 22.3968505859375 83.16075897216797 27.45755004882812 C 85.37651062011719 32.69618606567383 86.5 38.26187515258789 86.5 44 C 86.5 49.73812484741211 85.37651062011719 55.30381393432617 83.16075897216797 60.54246139526367 C 81.020263671875 65.6031494140625 77.95565032958984 70.1484375 74.05204010009766 74.05204010009766 C 70.1484375 77.95565032958984 65.6031494140625 81.020263671875 60.54246139526367 83.16075897216797 C 55.30381393432617 85.37651062011719 49.73812484741211 86.5 44 86.5 Z" stroke="none"/>
                              <path d="M 44 3 C 38.46371459960938 3 33.09462738037109 4.083610534667969 28.0418701171875 6.220756530761719 C 23.15997314453125 8.285614013671875 18.77495574951172 11.24228668212891 15.00862884521484 15.00862884521484 C 11.24228668212891 18.77495574951172 8.285614013671875 23.15997314453125 6.220756530761719 28.0418701171875 C 4.083610534667969 33.09462738037109 3 38.46371459960938 3 44 C 3 49.53628540039062 4.083610534667969 54.9053840637207 6.220756530761719 59.9581298828125 C 8.285614013671875 64.84002685546875 11.24228668212891 69.22504425048828 15.00862884521484 72.99138641357422 C 18.77495574951172 76.75771331787109 23.15997314453125 79.71438598632812 28.0418701171875 81.77925872802734 C 33.09462738037109 83.9163818359375 38.46371459960938 85 44 85 C 49.53628540039062 85 54.9053840637207 83.9163818359375 59.95814514160156 81.77925872802734 C 64.84002685546875 79.71438598632812 69.22504425048828 76.75771331787109 72.99138641357422 72.99138641357422 C 76.75771331787109 69.22504425048828 79.71438598632812 64.84002685546875 81.77925872802734 59.95814514160156 C 83.9163818359375 54.9053840637207 85 49.53628540039062 85 44 C 85 38.46371459960938 83.9163818359375 33.09462738037109 81.77925872802734 28.0418701171875 C 79.71438598632812 23.15997314453125 76.75771331787109 18.77495574951172 72.99138641357422 15.00862884521484 C 69.22504425048828 11.24228668212891 64.84002685546875 8.285614013671875 59.9581298828125 6.220756530761719 C 54.9053840637207 4.083610534667969 49.53628540039062 3 44 3 M 44 0 C 68.30054473876953 0 88 19.69947052001953 88 44 C 88 68.30054473876953 68.30054473876953 88 44 88 C 19.69947052001953 88 0 68.30054473876953 0 44 C 0 19.69947052001953 19.69947052001953 0 44 0 Z" stroke="none" fill="#207389"/>
                            </g>
                          </g>
                        </g>
                      </g>
                    </g>
                  </g>
                </g>
              </g>
            </g>
          </g>
        </g>
      </g>
    </g>
    <g id="intestino-grueso" transform="translate(220.996 9508.002)">
      <path id="Trazado_1254569" data-name="Trazado 1254569" d="M33.25,52.68a28.5,28.5,0,0,1-12.1-.78L17,51s.32-9.68.32-10.15A22.046,22.046,0,0,0,33.25,52.68Z" fill="#eeb9ad"/>
      <path id="Trazado_1254570" data-name="Trazado 1254570" d="M30.707,52.084a22.021,22.021,0,0,1-10.482-6.856c-.075,2.346-.171,5.281-.209,6.426l1.134.246a27.686,27.686,0,0,0,11.2.881c.3-.035.6-.057.9-.1A21.868,21.868,0,0,1,30.707,52.084Z" fill="#ffe2d5"/>
      <path id="Trazado_1254571" data-name="Trazado 1254571" d="M41,52.64V57l-8.14,3.26a10.437,10.437,0,0,1-7.72,0L17,57V51l4.15.9a28.5,28.5,0,0,0,12.1.78A22.271,22.271,0,0,0,41,52.64Z" fill="#e5e5e5"/>
      <path id="Trazado_1254572" data-name="Trazado 1254572" d="M41,57v5H17V57l8.14,3.26a10.437,10.437,0,0,0,7.72,0Z" fill="#eeb9ad"/>
      <path id="Trazado_1254573" data-name="Trazado 1254573" d="M53,46.1V62H50a2.015,2.015,0,0,1-2-2l-.94-9.43A22.138,22.138,0,0,0,53,46.1Z" fill="#eeb9ad"/>
      <path id="Trazado_1254574" data-name="Trazado 1254574" d="M51.8,14.71A22,22,0,0,0,15.09,29.03c-.06.65-.09,1.31-.09,1.97a26.413,26.413,0,0,1-1.54,7.6,26.38,26.38,0,0,0-1.92,7.07L11,50,10,60a2.015,2.015,0,0,1-2,2H5V44L6,32V29L5,19.22a9.177,9.177,0,0,1,7.108-8.94L20.7,8.3a4.69,4.69,0,0,0,2.24-1.24A3.119,3.119,0,0,0,24,5l.04-3h9.92L34,5a3.119,3.119,0,0,0,1.06,2.06A4.69,4.69,0,0,0,37.3,8.3l8.59,1.98a9.2,9.2,0,0,1,5.1,3.21,8.069,8.069,0,0,1,.81,1.22Z" fill="#eeb9ad"/>
      <path id="Trazado_1254575" data-name="Trazado 1254575" d="M50.99,13.49a9.2,9.2,0,0,0-5.1-3.21L37.3,8.3a4.69,4.69,0,0,1-2.24-1.24A3.119,3.119,0,0,1,34,5l-.04-3H24.04L24,5a3.119,3.119,0,0,1-1.06,2.06A4.69,4.69,0,0,1,20.7,8.3l-8.59,1.98A9.178,9.178,0,0,0,5,19.22L6,29v3L5,44V62H6a2.015,2.015,0,0,0,2-2L9,50l.54-4.33a26.38,26.38,0,0,1,1.92-7.07A26.413,26.413,0,0,0,13,31c0-.66.03-1.32.09-1.97A21.979,21.979,0,0,1,35,9c.312,0,.616.031.925.044C36.283,9.026,36.638,9,37,9c.567,0,1.125.037,1.681.079A21.925,21.925,0,0,1,51.8,14.71a8.069,8.069,0,0,0-.81-1.22Z" fill="#ffe2d5"/>
      <path id="Trazado_1254576" data-name="Trazado 1254576" d="M14.606,29.9a12.788,12.788,0,0,1-3.463-2.39l-3-5,1.714-1.03,2.964,4.939a20.43,20.43,0,0,0,2.747,1.726Z" fill="#eeb9ad"/>
      <rect id="Rectángulo_424102" data-name="Rectángulo 424102" width="2" height="6.058" transform="translate(17.783 12.976) rotate(-77.474)" fill="#eeb9ad"/>
      <circle id="Elipse_14750" data-name="Elipse 14750" cx="22" cy="22" r="22" transform="translate(15 9)" fill="#b2b2b2"/>
      <path id="Trazado_1254577" data-name="Trazado 1254577" d="M37,9a21.921,21.921,0,0,0-8.694,1.788A22,22,0,0,0,50.694,48.212,22,22,0,0,0,37,9Z" fill="#e5e5e5"/>
      <path id="Trazado_1254578" data-name="Trazado 1254578" d="M32.86,60.26a10.437,10.437,0,0,1-7.72,0L20,58.2V62H41V57Z" fill="#ffe2d5"/>
      <path id="Trazado_1254579" data-name="Trazado 1254579" d="M33.25,52.68a28.5,28.5,0,0,1-12.1-.78L20,51.651V58.2l5.14,2.059a10.437,10.437,0,0,0,7.72,0L41,57V52.64a22.271,22.271,0,0,1-7.75.04Z" fill="#f1f1f1"/>
      <path id="Trazado_1254580" data-name="Trazado 1254580" d="M29,9a1,1,0,0,1-.447-.105l-2-1,.894-1.79L29,6.882l1.553-.777.894,1.79-2,1A1,1,0,0,1,29,9Z" fill="#eeb9ad"/>
      <path id="Trazado_1254581" data-name="Trazado 1254581" d="M24,32.462V35.5A1.5,1.5,0,0,0,25.5,37h0A1.5,1.5,0,0,0,27,35.5V33h.586A1.414,1.414,0,0,0,29,31.586h0a1.415,1.415,0,0,0-.414-1L28,30l.1-.1a3.075,3.075,0,0,0,.9-2.175h0a3.07,3.07,0,0,0-.325-1.375L28,25h0a3.1,3.1,0,0,0,3.581-.581l.063-.063a3.1,3.1,0,0,0,.581-.806L33,22l1.149,1.149A2.906,2.906,0,0,0,36.2,24h0a2.9,2.9,0,0,0,2.6-1.607L39,22l.293.293A2.414,2.414,0,0,0,41,23h0a2.414,2.414,0,0,0,1.707-.707L43,22h1v1h0a3.415,3.415,0,0,0-1,2.414v.172A3.415,3.415,0,0,0,44,28h0a10.209,10.209,0,0,0-2.686,4.744L41,34l-.464-.929A1.94,1.94,0,0,0,38.8,32h0a1.938,1.938,0,0,0-1.37.567L36,34h0a2,2,0,0,0-2-2h0a2,2,0,0,0-2,2v2l-.658.329A2.426,2.426,0,0,0,30,38.5h0a2.426,2.426,0,0,0,1.342,2.171L32,41l-.433.433A1.938,1.938,0,0,0,31,42.8h0a1.94,1.94,0,0,0,1.071,1.733L33,45l.293.293A2.414,2.414,0,0,0,35,46h0a2.414,2.414,0,0,0,1.707-.707L37,45l1.106-.553A1.617,1.617,0,0,0,39,43h0a1.617,1.617,0,0,0-.894-1.447L37,41h0a3.415,3.415,0,0,1-1-2.414h0a2.488,2.488,0,0,1,.262-1.11L37,36l.553,1.106A1.617,1.617,0,0,0,39,38h0a1.617,1.617,0,0,0,1.447-.894L41,36l.2.393A2.9,2.9,0,0,0,43.8,38h0a2.906,2.906,0,0,0,2.055-.851L47,36l.929-.464A1.94,1.94,0,0,0,49,33.8h0a1.938,1.938,0,0,0-.567-1.37L47,31l1.586-1.586A4.828,4.828,0,0,0,50,26h0a4.828,4.828,0,0,0-1.414-3.414L48,22l.368-.735A1.964,1.964,0,0,0,48,19h0a1.964,1.964,0,0,0-2.265-.368L45,19l-1.293-1.293A2.414,2.414,0,0,0,42,17h0a2.414,2.414,0,0,0-1.707.707L39,19l-.293-.293A2.414,2.414,0,0,0,37,18h0a2.414,2.414,0,0,0-1.707.707L35,19l-.329-.658A2.426,2.426,0,0,0,32.5,17h0a2.426,2.426,0,0,0-2.171,1.342L30,19l-.721-.36a2.464,2.464,0,0,0-2.469.153h0a2.465,2.465,0,0,0-.837,3.153L26,22l-.957.319A2.989,2.989,0,0,0,23,25.154v.06A2.891,2.891,0,0,0,24.6,27.8l.4.2-.658.329A2.426,2.426,0,0,0,23,30.5h0a2.424,2.424,0,0,0,1,1.962Z" fill="#db3b43"/>
      <path id="Trazado_1254582" data-name="Trazado 1254582" d="M34,32a2,2,0,0,0-2,2v2l-.658.329a2.422,2.422,0,0,0-1.334,2.112c0,.02-.008.039-.008.059a2.478,2.478,0,0,0,1.342,2.171L32,41l-.432.432a1.936,1.936,0,0,0-.539,1.075c.015.008.027.021.042.029L32,43l.293.293a2.414,2.414,0,0,0,3.414,0L36,43l1.106-.553a1.616,1.616,0,0,0,.823-.982L37,41a3.4,3.4,0,0,1-.957-1.978L36,39a3.415,3.415,0,0,1-1-2.414,2.488,2.488,0,0,1,.262-1.11L36,34A2,2,0,0,0,34,32Z" fill="#fb5457"/>
      <path id="Trazado_1254583" data-name="Trazado 1254583" d="M47.493,30.507c-.021-.024-.038-.052-.061-.075L46,29l1.586-1.586A4.828,4.828,0,0,0,49,24a4.775,4.775,0,0,0-.131-1.069c-.095-.114-.177-.239-.283-.345L48,22l.267-.533.1-.2a1.967,1.967,0,0,0-2.633-2.633L45,19l-1.293-1.293a2.414,2.414,0,0,0-3.414,0L39,19l-.293-.293a2.414,2.414,0,0,0-3.414,0L35,19l-.274-.547a2.565,2.565,0,0,0-1.6-1.373,2.432,2.432,0,0,0-2.8,1.262L30,19l-.615-.307a2.591,2.591,0,0,0-2.183-.114,2.467,2.467,0,0,0-1.229,3.367L26,22l-.957.319A2.988,2.988,0,0,0,23,25.154v.06c0,.064.009.127.013.191A2.857,2.857,0,0,0,24.6,27.8l.4.2-.658.329A2.426,2.426,0,0,0,24,32.462v2.446a1.483,1.483,0,0,0,.5.092A1.5,1.5,0,0,0,26,33.5V31h.586a1.414,1.414,0,0,0,1-2.414L27,28l.1-.1a3.074,3.074,0,0,0,.576-3.55L27,23a3.1,3.1,0,0,0,3.581-.581l.063-.063a3.1,3.1,0,0,0,.581-.806L32,20l1.149,1.149a2.919,2.919,0,0,0,3.368.543,3,3,0,0,0,1.327-1.381L38,20l.293.293a2.414,2.414,0,0,0,3.414,0L42,20h1v1a3.413,3.413,0,0,0-.932,1.739,2.387,2.387,0,0,0,.639-.446L43,22h1v1a3.415,3.415,0,0,0-1,2.414v.172A3.415,3.415,0,0,0,44,28a10.209,10.209,0,0,0-2.686,4.744L41,34l-.464-.929a1.939,1.939,0,0,0-3.1-.5L36,34l.553,1.106a1.618,1.618,0,0,0,2.894,0L40,34l.156.311a3,3,0,0,0,1.327,1.381,2.919,2.919,0,0,0,3.368-.543L46,34l.929-.464.018-.01a1.456,1.456,0,0,0,.269-2.31L47,31Z" fill="#fb5457"/>
      <path id="Trazado_1254584" data-name="Trazado 1254584" d="M43.574,35.678c1.2-.39,2.072-1.666,1.865-2.38s-1.22-.471-2.265.075-1.8,1.085-1.753,1.644S42.371,36.068,43.574,35.678Z" fill="#ec8f90"/>
      <path id="Trazado_1254585" data-name="Trazado 1254585" d="M45.318,25.423c.371-1.207.859-1.967.618-2.494s-1.529-.5-2.329,1.047-.054,3.61.616,3.8S44.947,26.63,45.318,25.423Z" fill="#ec8f90"/>
      <path id="Trazado_1254586" data-name="Trazado 1254586" d="M24.73,25c.1-.841.228-1.563-.1-1.813s-1.178.312-1.358,1.5.518,2.175.92,2.082S24.626,25.842,24.73,25Z" fill="#ec8f90"/>
      <path id="Trazado_1254587" data-name="Trazado 1254587" d="M22,25.214a3.873,3.873,0,0,0,1.127,2.743A3.429,3.429,0,0,0,23,32.919V35.5a2.5,2.5,0,0,0,5,0V33.964a2.414,2.414,0,0,0,1.348-4.028,4.071,4.071,0,0,0,.4-3.628,4.231,4.231,0,0,0,2.605-1.244A4.1,4.1,0,0,0,33.12,24l.154-.309.167.168a3.909,3.909,0,0,0,5.821-.33,3.487,3.487,0,0,0,3.068.206A4.4,4.4,0,0,0,42,25.414v.172a4.376,4.376,0,0,0,.686,2.365A11.225,11.225,0,0,0,40.6,31.615a3.046,3.046,0,0,0-3.879.245l-.332.333A3,3,0,0,0,31,34v1.382l-.1.053a3.427,3.427,0,0,0-.472,5.846,2.941,2.941,0,0,0,1.2,4.149l.783.392.179.178a3.414,3.414,0,0,0,4.828,0l.179-.178.96-.48a2.619,2.619,0,0,0,0-4.684l-.949-.473a2.4,2.4,0,0,1-.6-1.6,1.481,1.481,0,0,1,.066-.438,2.619,2.619,0,0,0,4.043-.215,3.913,3.913,0,0,0,5.45-.077L47.6,36.821l.783-.392a2.937,2.937,0,0,0,.764-4.7L48.414,31l.879-.879a5.828,5.828,0,0,0,0-8.242l-.076-.077.045-.09a2.962,2.962,0,0,0-3.974-3.974l-.091.045L44.414,17a3.5,3.5,0,0,0-4.828,0l-.621.621a3.491,3.491,0,0,0-3.664-.17,3.427,3.427,0,0,0-5.741.216,3.456,3.456,0,0,0-4.8,3.692l-.034.011A4,4,0,0,0,22,25.214ZM40.1,35.553l-.552,1.1a.641.641,0,0,1-1.106,0l-.542-1.1a1,1,0,0,0-1.79,0l-.738,1.477A3.5,3.5,0,0,0,35,38.586a4.385,4.385,0,0,0,1.293,3.122,1.049,1.049,0,0,0,.26.187l1.1.552a.618.618,0,0,1,0,1.106l-1.1.552a1.028,1.028,0,0,0-.26.188L36,44.585a1.447,1.447,0,0,1-2,0l-.293-.293a1.028,1.028,0,0,0-.26-.188l-.928-.464a.937.937,0,0,1-.245-1.5l.433-.433a1,1,0,0,0-.26-1.6l-.658-.329a1.426,1.426,0,0,1,0-2.552l.658-.329A1,1,0,0,0,33,36V34a1,1,0,0,1,2,0,1,1,0,0,0,1.707.707l1.433-1.433a.971.971,0,0,1,1.5.244l.464.929a1,1,0,0,0,.889.553,1,1,0,0,0-.893.553ZM25.359,23.268l.957-.319a1.022,1.022,0,0,0,.594-.593,1.063,1.063,0,0,0-.043-.857,1.465,1.465,0,0,1,1.965-1.965l.721.361a1,1,0,0,0,1.342-.448l.329-.658a1.426,1.426,0,0,1,2.552,0l.329.658a1,1,0,0,0,1.6.26l.3-.292a1.447,1.447,0,0,1,2,0l.293.293a1,1,0,0,0,1.414,0L41,18.415a1.447,1.447,0,0,1,2,0l1.293,1.293a1,1,0,0,0,1.154.188l.736-.368a.962.962,0,0,1,1.29,1.291l-.368.735a1,1,0,0,0,.188,1.154l.586.586a3.829,3.829,0,0,1,0,5.414l-1.586,1.586a1,1,0,0,0,0,1.414l1.433,1.433a.937.937,0,0,1-.245,1.5l-.928.464a1.028,1.028,0,0,0-.26.188l-1.148,1.149a1.908,1.908,0,0,1-3.054-.495l-.2-.393A1,1,0,0,0,41,35a.907.907,0,0,0,.1-.006,1,1,0,0,0,.861-.751l.315-1.257A9.2,9.2,0,0,1,44.7,28.707a1,1,0,0,0,0-1.415,2.394,2.394,0,0,1-.7-1.706v-.172a2.394,2.394,0,0,1,.707-1.706A1,1,0,0,0,45,23V22a1,1,0,0,0-1-1H43a1,1,0,0,0-.707.293L42,21.585a1.447,1.447,0,0,1-2,0l-.293-.293a1,1,0,0,0-1.6.261l-.2.392a1.907,1.907,0,0,1-3.054.5L33.705,21.3a1,1,0,0,0-1.6.26L31.331,23.1a2.254,2.254,0,0,1-.457.61,2.1,2.1,0,0,1-2.427.393A1,1,0,0,0,27.1,25.445L27.78,26.8a2.078,2.078,0,0,1-.385,2.4l-.1.1a1,1,0,0,0,0,1.416l.585.585a.414.414,0,0,1-.292.708H27a1,1,0,0,0-1,1v2.5a.5.5,0,0,1-1,0V32.462a1,1,0,0,0-.413-.809,1.426,1.426,0,0,1,.2-2.429l.658-.329a1,1,0,0,0,0-1.79l-.4-.2A1.9,1.9,0,0,1,24,25.154a1.985,1.985,0,0,1,1.359-1.886Z"/>
      <path id="Trazado_1254588" data-name="Trazado 1254588" d="M18.217,11.024l-.434,1.952,3.917.87a22.984,22.984,0,0,0-7.418,13.562,12.226,12.226,0,0,1-1.461-.983l-2.964-4.94-1.714,1.03,3,5a10.5,10.5,0,0,0,2.905,2.078c-.027.443-.044.889-.045,1.339l-.039.358a24.178,24.178,0,0,1-1.425,6.919,27.139,27.139,0,0,0-1.989,7.338L10.005,49.9,9,60a1,1,0,0,1-1,1H7v2H9v-.17a2.943,2.943,0,0,0,2-2.73l1-9.976.541-4.331a25.156,25.156,0,0,1,1.843-6.8,14.947,14.947,0,0,0,.552-1.543,22.778,22.778,0,0,0,1.387,3.6c-.023,1.074-.2,6.349-.314,9.919V51H16V63h2V58.477l6.771,2.709A11.335,11.335,0,0,0,28,61.952V63h2V61.952a11.369,11.369,0,0,0,3.229-.766L40,58.477V63h2V53.446a22.813,22.813,0,0,0,4.2-1.373L47,60a3.006,3.006,0,0,0,2,2.829V63h2V61H50a1.034,1.034,0,0,1-1-1.1l-.878-8.774A23.122,23.122,0,0,0,52,48.414V63h2V46.476A22.984,22.984,0,0,0,23.712,12.245ZM40,56.323l-7.514,3.006a9.342,9.342,0,0,1-3.48.67h-.014a9.339,9.339,0,0,1-3.478-.67L18,56.323V52.239l2.879.623a29.293,29.293,0,0,0,2.946.681l.35-1.968a28.736,28.736,0,0,1-2.809-.651L18.027,50.2c.089-2.68.151-4.576.194-5.945A22.9,22.9,0,0,0,40,53.8ZM58,31A21,21,0,1,1,37,10,21,21,0,0,1,58,31Z"/>
      <path id="Trazado_1254589" data-name="Trazado 1254589" d="M6,44.083,7,32V29L6,19.167a8.166,8.166,0,0,1,6.33-7.909l8.593-1.983a5.652,5.652,0,0,0,2.728-1.512,4.1,4.1,0,0,0,1.335-2.6l.068-4.15-2-.028L23,4.909a2.122,2.122,0,0,1-.764,1.44,3.663,3.663,0,0,1-1.763.977L11.881,9.309A10.166,10.166,0,0,0,4,19.216l1,9.836v2.865L4,44V63H6Z"/>
      <path id="Trazado_1254590" data-name="Trazado 1254590" d="M33.014,5.163a4.951,4.951,0,0,0,.34,1.242l1.829-.81A2.943,2.943,0,0,1,35,4.909L34.946.986l-2,.028.054,4Z"/>
      <path id="Trazado_1254591" data-name="Trazado 1254591" d="M29,9a1,1,0,0,0,.447-.105l2-1-.894-1.79L29,6.882l-1.553-.777-.894,1.8,2,1A1,1,0,0,0,29,9Z"/>
    </g>
  </g>
</svg>
