<svg xmlns="http://www.w3.org/2000/svg" xmlns:xlink="http://www.w3.org/1999/xlink" width="113" height="113" viewBox="0 0 113 113">
  <defs>
    <filter id="Trazado_982547" x="0" y="0.001" width="113" height="113" filterUnits="userSpaceOnUse">
      <feOffset dy="3" input="SourceAlpha"/>
      <feGaussianBlur stdDeviation="3" result="blur"/>
      <feFlood flood-opacity="0.161"/>
      <feComposite operator="in" in2="blur"/>
      <feComposite in="SourceGraphic"/>
    </filter>
  </defs>
  <g id="Grupo_1236746" data-name="Grupo 1236746" transform="translate(-271.424 -9938.493)">
    <g id="Grupo_1234688" data-name="Grupo 1234688" transform="translate(0 -44.352)">
      <g id="Grupo_1231178" data-name="Grupo 1231178" transform="translate(0 4365)">
        <g id="Grupo_1230686" data-name="Grupo 1230686" transform="translate(0 -2146.377)">
          <g id="Grupo_1229014" data-name="Grupo 1229014" transform="translate(0 2131.042)">
            <g id="Grupo_1227502" data-name="Grupo 1227502" transform="translate(0 2048.198)">
              <g id="Grupo_1225350" data-name="Grupo 1225350" transform="translate(-0.575 -393.641)">
                <g id="Grupo_1208121" data-name="Grupo 1208121" transform="translate(0 -1922.377)">
                  <g id="Grupo_1202432" data-name="Grupo 1202432" transform="translate(0 1255.486)">
                    <g id="Grupo_1202055" data-name="Grupo 1202055" transform="translate(0 3240.511)">
                      <g id="Grupo_1177900" data-name="Grupo 1177900" transform="translate(281 1411.003)">
                        <g id="Grupo_1172010" data-name="Grupo 1172010" transform="translate(0)">
                          <g id="Grupo_1171046" data-name="Grupo 1171046">
                            <g id="Grupo_1148525" data-name="Grupo 1148525">
                              <g transform="matrix(1, 0, 0, 1, -9, -6)" filter="url(#Trazado_982547)">
                                <g id="Trazado_982547-2" data-name="Trazado 982547" transform="translate(9 6)" fill="#d6ccfe">
                                  <path d="M 47.5 93.5 C 41.28937149047852 93.5 35.26533508300781 92.28397369384766 29.59518623352051 89.88570404052734 C 24.11771965026855 87.56893157958984 19.19813346862793 84.25196075439453 14.97309303283691 80.02691650390625 C 10.74804019927979 75.80186462402344 7.431066513061523 70.88229370117188 5.114293098449707 65.40481567382812 C 2.716026782989502 59.73468017578125 1.5 53.71062850952148 1.5 47.5 C 1.5 41.28937149047852 2.716026782989502 35.26533508300781 5.114293098449707 29.59518623352051 C 7.431066513061523 24.11771965026855 10.74804019927979 19.19813346862793 14.97309303283691 14.97309303283691 C 19.19813346862793 10.74804019927979 24.11771965026855 7.431066513061523 29.59518623352051 5.114293098449707 C 35.26533508300781 2.716026782989502 41.28937149047852 1.5 47.5 1.5 C 53.71062850952148 1.5 59.73468017578125 2.716026782989502 65.40481567382812 5.114293098449707 C 70.88229370117188 7.431066513061523 75.80186462402344 10.74804019927979 80.02691650390625 14.97309303283691 C 84.25196075439453 19.19813346862793 87.56893157958984 24.11771965026855 89.88570404052734 29.59518623352051 C 92.28397369384766 35.26533508300781 93.5 41.28937149047852 93.5 47.5 C 93.5 53.71062850952148 92.28397369384766 59.73468017578125 89.88570404052734 65.40481567382812 C 87.56893157958984 70.88229370117188 84.25196075439453 75.80186462402344 80.02691650390625 80.02691650390625 C 75.80186462402344 84.25196075439453 70.88229370117188 87.56893157958984 65.40481567382812 89.88570404052734 C 59.73468017578125 92.28397369384766 53.71062850952148 93.5 47.5 93.5 Z" stroke="none"/>
                                  <path d="M 47.5 3 C 41.49121475219727 3 35.66376876831055 4.176155090332031 30.17950439453125 6.495796203613281 C 24.88084411621094 8.736953735351562 20.12152099609375 11.94598388671875 16.03375244140625 16.03375244140625 C 11.94598388671875 20.12152099609375 8.736953735351562 24.88084411621094 6.495796203613281 30.17950439453125 C 4.176155090332031 35.66376876831055 3 41.49121475219727 3 47.5 C 3 53.50878524780273 4.176155090332031 59.33623123168945 6.495796203613281 64.82049560546875 C 8.736953735351562 70.11915588378906 11.94598388671875 74.87847900390625 16.03375244140625 78.96624755859375 C 20.12152099609375 83.05401611328125 24.88084411621094 86.26304626464844 30.17950439453125 88.50419616699219 C 35.66376876831055 90.82384490966797 41.49121475219727 92 47.5 92 C 53.50878524780273 92 59.33623123168945 90.82384490966797 64.82049560546875 88.50419616699219 C 70.11915588378906 86.26304626464844 74.87847900390625 83.05401611328125 78.96624755859375 78.96624755859375 C 83.05401611328125 74.87847900390625 86.26304626464844 70.11915588378906 88.50419616699219 64.82049560546875 C 90.82384490966797 59.33623123168945 92 53.50878524780273 92 47.5 C 92 41.49121475219727 90.82384490966797 35.66376876831055 88.50419616699219 30.17950439453125 C 86.26304626464844 24.88084411621094 83.05401611328125 20.12152099609375 78.96624755859375 16.03375244140625 C 74.87847900390625 11.94598388671875 70.11915588378906 8.736953735351562 64.82049560546875 6.495796203613281 C 59.33623123168945 4.176155090332031 53.50878524780273 3 47.5 3 M 47.5 0 C 73.7335205078125 0 95 21.2664794921875 95 47.5 C 95 73.7335205078125 73.7335205078125 95 47.5 95 C 21.2664794921875 95 0 73.7335205078125 0 47.5 C 0 21.2664794921875 21.2664794921875 0 47.5 0 Z" stroke="none" fill="#7958fb"/>
                                </g>
                              </g>
                            </g>
                          </g>
                        </g>
                      </g>
                    </g>
                  </g>
                </g>
              </g>
            </g>
          </g>
        </g>
      </g>
    </g>
    <g id="fingers_7015360" transform="translate(298.99 9963.06)">
      <g id="Grupo_1236744" data-name="Grupo 1236744" transform="translate(0.933 0.933)">
        <g id="Grupo_1236712" data-name="Grupo 1236712" transform="translate(11.874 2.4)">
          <path id="Trazado_1254592" data-name="Trazado 1254592" d="M113.83,28.9a1.138,1.138,0,0,1,.142,1.436l-.978,1.468a3.956,3.956,0,0,0-.541-.037,3.3,3.3,0,0,0-.935.133h0a5.639,5.639,0,0,0-1.749-1.391l2.624-1.75A1.138,1.138,0,0,1,113.83,28.9Z" transform="translate(-109.77 -28.571)" fill="#a0d468"/>
        </g>
        <g id="Grupo_1236713" data-name="Grupo 1236713" transform="translate(7.599 0)">
          <path id="Trazado_1254593" data-name="Trazado 1254593" d="M75.981,8.915l.618,3.093a5.626,5.626,0,0,0-3.47,0l.618-3.093a1.139,1.139,0,0,1,2.233,0Z" transform="translate(-73.13 -8)" fill="#a0d468"/>
        </g>
        <g id="Grupo_1236714" data-name="Grupo 1236714" transform="translate(2.4 2.4)">
          <path id="Trazado_1254594" data-name="Trazado 1254594" d="M30.341,28.762l2.624,1.75a5.6,5.6,0,0,0-1.666,1.3h0a5.549,5.549,0,0,0-.785,1.156l-1.75-2.624a1.138,1.138,0,0,1,1.579-1.579Z" transform="translate(-28.571 -28.571)" fill="#a0d468"/>
        </g>
        <g id="Grupo_1236715" data-name="Grupo 1236715" transform="translate(0 7.599)">
          <path id="Trazado_1254595" data-name="Trazado 1254595" d="M8.915,73.748l3.093-.618a5.626,5.626,0,0,0,0,3.47l-3.093-.618a1.139,1.139,0,0,1,0-2.233Z" transform="translate(-8 -73.13)" fill="#a0d468"/>
        </g>
        <g id="Grupo_1236716" data-name="Grupo 1236716" transform="translate(2.4 11.874)">
          <path id="Trazado_1254596" data-name="Trazado 1254596" d="M32.965,112.222l-2.624,1.75a1.138,1.138,0,0,1-1.579-1.579l1.75-2.624A5.623,5.623,0,0,0,32.965,112.222Z" transform="translate(-28.571 -109.77)" fill="#a0d468"/>
        </g>
        <g id="Grupo_1236717" data-name="Grupo 1236717" transform="translate(7.599 14.66)">
          <path id="Trazado_1254597" data-name="Trazado 1254597" d="M76.6,133.65l-.618,3.093a1.139,1.139,0,0,1-2.233,0l-.618-3.093a5.626,5.626,0,0,0,3.47,0Z" transform="translate(-73.13 -133.65)" fill="#a0d468"/>
        </g>
        <g id="Grupo_1236718" data-name="Grupo 1236718" transform="translate(7.599 37.335)">
          <path id="Trazado_1254598" data-name="Trazado 1254598" d="M75.981,328.915l.618,3.093-.086-.028h0a5.631,5.631,0,0,0-3.382.028l.618-3.093a1.139,1.139,0,0,1,2.233,0Z" transform="translate(-73.13 -328)" fill="#a0d468"/>
        </g>
        <g id="Grupo_1236719" data-name="Grupo 1236719" transform="translate(2.4 39.735)">
          <path id="Trazado_1254599" data-name="Trazado 1254599" d="M30.341,348.762l2.624,1.75a5.623,5.623,0,0,0-2.452,2.452l-1.75-2.624a1.138,1.138,0,0,1,1.579-1.579Z" transform="translate(-28.571 -348.571)" fill="#a0d468"/>
        </g>
        <g id="Grupo_1236720" data-name="Grupo 1236720" transform="translate(0 44.934)">
          <path id="Trazado_1254600" data-name="Trazado 1254600" d="M11.859,396.054c.041.186.09.368.148.546l-3.093-.618a1.139,1.139,0,0,1,0-2.233l3.093-.618a5.644,5.644,0,0,0-.148,2.924Z" transform="translate(-8 -393.13)" fill="#a0d468"/>
        </g>
        <g id="Grupo_1236721" data-name="Grupo 1236721" transform="translate(2.4 49.209)">
          <path id="Trazado_1254601" data-name="Trazado 1254601" d="M32.965,432.222l-2.624,1.75a1.138,1.138,0,0,1-1.579-1.579l1.75-2.624a5.587,5.587,0,0,0,.758,1.126h0A5.588,5.588,0,0,0,32.965,432.222Z" transform="translate(-28.571 -429.77)" fill="#a0d468"/>
        </g>
        <g id="Grupo_1236722" data-name="Grupo 1236722" transform="translate(7.599 51.995)">
          <path id="Trazado_1254602" data-name="Trazado 1254602" d="M76.6,453.65l-.618,3.093a1.139,1.139,0,0,1-2.233,0l-.618-3.093a5.626,5.626,0,0,0,3.47,0Z" transform="translate(-73.13 -453.65)" fill="#a0d468"/>
        </g>
        <g id="Grupo_1236723" data-name="Grupo 1236723" transform="translate(11.874 49.209)">
          <path id="Trazado_1254603" data-name="Trazado 1254603" d="M113.973,432.394a1.138,1.138,0,0,1-1.579,1.579l-2.624-1.75a5.623,5.623,0,0,0,2.452-2.452Z" transform="translate(-109.77 -429.77)" fill="#a0d468"/>
        </g>
        <g id="Grupo_1236724" data-name="Grupo 1236724" transform="translate(14.66 44.934)">
          <path id="Trazado_1254604" data-name="Trazado 1254604" d="M133.65,393.13l3.093.618a1.139,1.139,0,0,1,0,2.233l-3.093.618a5.63,5.63,0,0,0,.028-3.382h0Z" transform="translate(-133.65 -393.13)" fill="#a0d468"/>
        </g>
        <g id="Grupo_1236725" data-name="Grupo 1236725" transform="translate(44.934 38.927)">
          <path id="Trazado_1254605" data-name="Trazado 1254605" d="M396.6,341.65l-.618,3.093a1.139,1.139,0,0,1-2.233,0l-.618-3.093a5.626,5.626,0,0,0,3.47,0Z" transform="translate(-393.13 -341.65)" fill="#a0d468"/>
        </g>
        <g id="Grupo_1236726" data-name="Grupo 1236726" transform="translate(49.209 36.141)">
          <path id="Trazado_1254606" data-name="Trazado 1254606" d="M433.973,320.394a1.138,1.138,0,0,1-1.579,1.579l-2.624-1.75a5.623,5.623,0,0,0,2.452-2.452Z" transform="translate(-429.77 -317.77)" fill="#a0d468"/>
        </g>
        <g id="Grupo_1236727" data-name="Grupo 1236727" transform="translate(51.995 31.867)">
          <path id="Trazado_1254607" data-name="Trazado 1254607" d="M456.743,281.748a1.139,1.139,0,0,1,0,2.233l-3.093.618a5.575,5.575,0,0,0,.274-1.735c0-.052,0-.106,0-.159a5.588,5.588,0,0,0-.272-1.576Z" transform="translate(-453.65 -281.13)" fill="#a0d468"/>
        </g>
        <g id="Grupo_1236728" data-name="Grupo 1236728" transform="translate(49.209 26.668)">
          <path id="Trazado_1254608" data-name="Trazado 1254608" d="M433.83,236.9a1.138,1.138,0,0,1,.142,1.436l-1.75,2.624a5.625,5.625,0,0,0-2.217-2.325c-.078-.044-.156-.088-.236-.127l2.624-1.75A1.138,1.138,0,0,1,433.83,236.9Z" transform="translate(-429.77 -236.571)" fill="#a0d468"/>
        </g>
        <g id="Grupo_1236729" data-name="Grupo 1236729" transform="translate(45.019 24.268)">
          <path id="Trazado_1254609" data-name="Trazado 1254609" d="M396.626,216.915l.618,3.093a5.626,5.626,0,0,0-3.385-.027q.026-.34.056-.678l.477-2.388a1.139,1.139,0,0,1,2.233,0Z" transform="translate(-393.86 -216)" fill="#a0d468"/>
        </g>
        <g id="Grupo_1236730" data-name="Grupo 1236730" transform="translate(4.026 3.733)">
          <path id="Trazado_1254610" data-name="Trazado 1254610" d="M49.552,50.926a5.626,5.626,0,0,1-3.47,0,5.413,5.413,0,0,1-.805-.334,5.623,5.623,0,0,1-2.452-2.452,5.55,5.55,0,0,1-.315-.747,2.83,2.83,0,0,0,.641.074,2.8,2.8,0,0,0,.461-5.563,5.6,5.6,0,0,1,1.666-1.3,5.413,5.413,0,0,1,.805-.334,5.626,5.626,0,0,1,3.47,0A5.6,5.6,0,0,1,52.106,42h0a3.354,3.354,0,0,0-2.338,3.968l1,4.394a5.541,5.541,0,0,1-1.215.565Z" transform="translate(-42.51 -40)" fill="#b4dd7f"/>
        </g>
        <g id="Grupo_1236731" data-name="Grupo 1236731" transform="translate(3.733 41.068)">
          <path id="Trazado_1254611" data-name="Trazado 1254611" d="M47.335,370.926a5.626,5.626,0,0,1-3.47,0,5.414,5.414,0,0,1-.805-.334,5.588,5.588,0,0,1-1.693-1.327,1.867,1.867,0,1,0-1.241-2.477,5.644,5.644,0,0,1,.148-2.924,5.412,5.412,0,0,1,.334-.805,5.623,5.623,0,0,1,2.452-2.452,5.414,5.414,0,0,1,.805-.334,5.631,5.631,0,0,1,3.382-.028,2.8,2.8,0,1,0,3.707,3.707,5.631,5.631,0,0,1-.028,3.382,5.413,5.413,0,0,1-.334.805,5.623,5.623,0,0,1-2.452,2.452,5.408,5.408,0,0,1-.805.334Z" transform="translate(-40 -360)" fill="#b4dd7f"/>
        </g>
        <g id="Grupo_1236732" data-name="Grupo 1236732" transform="translate(44.535 28.001)">
          <path id="Trazado_1254612" data-name="Trazado 1254612" d="M393.579,248.274a5.414,5.414,0,0,1,.805.334c.079.04.158.083.236.127a2.8,2.8,0,0,0,2.822,4.707c0,.053,0,.106,0,.159a5.574,5.574,0,0,1-.274,1.735,5.411,5.411,0,0,1-.334.805,5.623,5.623,0,0,1-2.452,2.452,5.414,5.414,0,0,1-.805.334,5.626,5.626,0,0,1-3.47,0c-.135-.044-.267-.093-.4-.147h0a12.527,12.527,0,0,0,.267-2.576v-2.459q0-2.753.217-5.5a5.626,5.626,0,0,1,3.385.027Z" transform="translate(-389.71 -248)" fill="#b4dd7f"/>
        </g>
        <g id="Grupo_1236733" data-name="Grupo 1236733" transform="translate(48.535 1.867)">
          <circle id="Elipse_14751" data-name="Elipse 14751" cx="2" cy="2" r="2" transform="translate(-0.469 0.2)" fill="#b4dd7f"/>
        </g>
        <g id="Grupo_1236734" data-name="Grupo 1236734" transform="translate(48.535 50.402)">
          <circle id="Elipse_14752" data-name="Elipse 14752" cx="2" cy="2" r="2" transform="translate(-0.469 -0.336)" fill="#b4dd7f"/>
        </g>
        <g id="Grupo_1236735" data-name="Grupo 1236735" transform="translate(12.601 37.335)">
          <path id="Trazado_1254613" data-name="Trazado 1254613" d="M123.934,333.675a2.486,2.486,0,0,1-1.7,2.359l-.384.127a10.75,10.75,0,0,1-5.554-6.977L116,328h2.627a1.572,1.572,0,0,1,1.573,1.573,1.574,1.574,0,0,0,1.191,1.525l.659.164A2.488,2.488,0,0,1,123.934,333.675Z" transform="translate(-116 -328)" fill="#b4dd7f"/>
        </g>
        <g id="Grupo_1236736" data-name="Grupo 1236736" transform="translate(30.801 3.733)">
          <path id="Trazado_1254614" data-name="Trazado 1254614" d="M278.534,42.87v15.8H272l.8-15.941a2.87,2.87,0,0,1,5.737.144Z" transform="translate(-272 -40)" fill="#f0d0b4"/>
        </g>
        <g id="Grupo_1236737" data-name="Grupo 1236737" transform="translate(20.533)">
          <path id="Trazado_1254615" data-name="Trazado 1254615" d="M191.613,11.73l.778,18.671h-6.534l0-10.785a13.546,13.546,0,0,0-1.43-6.066l-.041-.083a3.737,3.737,0,0,1-.4-1.678v-.056A3.736,3.736,0,0,1,187.725,8a3.891,3.891,0,0,1,3.889,3.73Z" transform="translate(-183.99 -8)" fill="#f0d0b4"/>
        </g>
        <g id="Grupo_1236738" data-name="Grupo 1236738" transform="translate(6.742 5.6)">
          <path id="Trazado_1254616" data-name="Trazado 1254616" d="M74.762,79.595l-3.431-15.1-1-4.394A3.357,3.357,0,0,1,73.6,56a3.963,3.963,0,0,1,3.867,3.1l3.044,13.7H96.63a1.865,1.865,0,0,0,1.848-1.6l1.271-8.889a3,3,0,0,1,2.968-2.575h.046a2.954,2.954,0,0,1,2.954,2.954v.036a13.117,13.117,0,0,1-.082,1.474l-1.357,12.217q-.086.777-.155,1.556-.03.338-.056.678-.217,2.742-.217,5.5V86.6a12.574,12.574,0,0,1-5.6,10.464V106.4H79.582V96.7a10.663,10.663,0,0,1-2.084-.8l.384-.127A2.487,2.487,0,0,0,77.7,91l-.659-.165a1.574,1.574,0,0,1-1.191-1.525,1.572,1.572,0,0,0-1.573-1.573H71.648L70.864,84.6a10.752,10.752,0,0,0-2.269-4.393l-1.707-1.992.494-.247a1.808,1.808,0,0,0,.47-2.9L65.79,73.01a2.034,2.034,0,0,1,.9-.209h.916a6.373,6.373,0,0,1,6.374,6.374v.16Z" transform="translate(-65.79 -56)" fill="#f0d0b4"/>
        </g>
        <g id="Grupo_1236739" data-name="Grupo 1236739" transform="translate(48.535 28.736)">
          <path id="Trazado_1254617" data-name="Trazado 1254617" d="M427.459,257.43a5.588,5.588,0,0,1,.272,1.576,2.8,2.8,0,0,1-2.822-4.707,5.625,5.625,0,0,1,2.217,2.325,5.407,5.407,0,0,1,.334.805Z" transform="translate(-424 -254.3)" fill="#8cc152"/>
        </g>
        <g id="Grupo_1236740" data-name="Grupo 1236740" transform="translate(3.733 5.638)">
          <path id="Trazado_1254618" data-name="Trazado 1254618" d="M40.274,61.751a5.626,5.626,0,0,1,0-3.47,5.413,5.413,0,0,1,.334-.805,5.549,5.549,0,0,1,.785-1.156h0a2.8,2.8,0,0,1-.461,5.563,2.83,2.83,0,0,1-.641-.074C40.287,61.79,40.28,61.77,40.274,61.751Z" transform="translate(-40 -56.32)" fill="#8cc152"/>
        </g>
        <g id="Grupo_1236741" data-name="Grupo 1236741" transform="translate(9.334 41.315)">
          <path id="Trazado_1254619" data-name="Trazado 1254619" d="M93.326,365.729l.028.086h0a2.8,2.8,0,1,1-3.707-3.707h0l.086.028A5.61,5.61,0,0,1,93.326,365.729Z" transform="translate(-88 -362.11)" fill="#8cc152"/>
        </g>
        <g id="Grupo_1236742" data-name="Grupo 1236742" transform="translate(3.859 46.669)">
          <path id="Trazado_1254620" data-name="Trazado 1254620" d="M41.562,410.54a5.413,5.413,0,0,1-.334-.805c-.058-.179-.107-.361-.148-.546a1.867,1.867,0,1,1,1.241,2.477h0A5.587,5.587,0,0,1,41.562,410.54Z" transform="translate(-41.08 -408)" fill="#8cc152"/>
        </g>
        <g id="Grupo_1236743" data-name="Grupo 1236743" transform="translate(5.6 22.61)">
          <path id="Trazado_1254621" data-name="Trazado 1254621" d="M59.2,203.852a1.808,1.808,0,0,1-.47,2.9l-.494.247-1.748-2.039a2.025,2.025,0,0,1-.365-.621,2.045,2.045,0,0,1,1.015-2.545Z" transform="translate(-56 -201.79)" fill="#ef7385"/>
        </g>
      </g>
      <g id="Grupo_1236745" data-name="Grupo 1236745" transform="translate(0 0)">
        <path id="Trazado_1254622" data-name="Trazado 1254622" d="M208,240h9.334v1.867H208Z" transform="translate(-183.732 -211.999)"/>
        <path id="Trazado_1254623" data-name="Trazado 1254623" d="M272.615,295.166l-.307,1.075,1.795.513.307-1.074a8.085,8.085,0,0,1,6.416-5.728l-.307-1.841A9.961,9.961,0,0,0,272.615,295.166Z" transform="translate(-240.537 -254.495)"/>
        <path id="Trazado_1254624" data-name="Trazado 1254624" d="M56.2,32.5,53.711,32l1.41-2.115a2.072,2.072,0,0,0-2.873-2.873l-2.115,1.41-.5-2.493A2.077,2.077,0,0,0,47.6,24.268c-.068,0-.136,0-.2.011l1.049-9.445a14.15,14.15,0,0,0,.087-1.577v-.036a3.887,3.887,0,0,0-3.888-3.887H44.6a3.952,3.952,0,0,0-3.892,3.376L39.44,21.6a.927.927,0,0,1-.238.5V7.537a3.8,3.8,0,0,0-7.6-.19L30.847,22.4h-.084L30.022,4.625A4.814,4.814,0,0,0,25.2,0a4.674,4.674,0,0,0-4.668,4.667v.056a4.644,4.644,0,0,0,.5,2.1l.041.082a12.679,12.679,0,0,1,1.332,5.648l0,6.493L20.268,9.432a4.865,4.865,0,0,0-2.755-3.4l.273-.409a2.072,2.072,0,0,0-2.873-2.873L12.8,4.159l-.5-2.493a2.072,2.072,0,0,0-4.064,0l-.5,2.493L5.621,2.748A2.072,2.072,0,0,0,2.748,5.621l1.41,2.115-2.493.5a2.072,2.072,0,0,0,0,4.063l2.493.5-1.41,2.115a2.072,2.072,0,0,0,2.873,2.873l2.115-1.41.5,2.493a2.072,2.072,0,0,0,4.063,0l.39-1.949,1.667,7.335A7.253,7.253,0,0,0,9.494,22.4H8.578a2.977,2.977,0,0,0-2.261,4.915l3.455,4.031a9.877,9.877,0,0,1,2.072,4.011l1.08,4.32a11.734,11.734,0,0,0,.918,2.459,6.521,6.521,0,0,0-1.027-.551L12.3,39a2.072,2.072,0,0,0-4.063,0l-.5,2.493-2.115-1.41a2.072,2.072,0,0,0-2.873,2.873l1.41,2.115-2.493.5a2.072,2.072,0,0,0,0,4.064l2.493.5-1.41,2.115a2.073,2.073,0,0,0,2.873,2.873l2.115-1.41.5,2.493a2.072,2.072,0,0,0,4.063,0l.5-2.493,2.115,1.41a2.072,2.072,0,0,0,2.873-2.873l-1.41-2.115,2.493-.5a2.078,2.078,0,0,0,1.64-1.717l.026.008v9.944H41.068V48.09a13.484,13.484,0,0,0,4.412-5.406l.09.452a2.072,2.072,0,0,0,4.063,0l.5-2.493,2.115,1.41a2.072,2.072,0,0,0,2.873-2.873l-1.41-2.115,2.493-.5a2.072,2.072,0,0,0,0-4.064Zm-8.6,6.7a4.68,4.68,0,0,1-1.073-.125,13.585,13.585,0,0,0,.14-1.939V34.679c0-1.577.055-3.164.164-4.745a4.7,4.7,0,0,1,.77-.065,4.652,4.652,0,0,1,1.33.194,3.731,3.731,0,0,0,3.243,5.4A4.675,4.675,0,0,1,47.6,39.2ZM52.174,33.6a1.865,1.865,0,0,1-1.6-2.654A4.671,4.671,0,0,1,52.174,33.6Zm1.109-5.027a.205.205,0,0,1,.284.285l-.978,1.467a6.591,6.591,0,0,0-.774-.774ZM47.6,26.134a.206.206,0,0,1,.2.165l.345,1.726c-.18-.015-.362-.025-.546-.025s-.365.008-.546.023L47.4,26.3A.206.206,0,0,1,47.6,26.134ZM44.6,11.2h.046a2.021,2.021,0,0,1,2.021,2.021v.036a12.275,12.275,0,0,1-.075,1.37L46.474,15.7l-4.219-.6.3-2.121A2.076,2.076,0,0,1,44.6,11.2Zm-7.267,5.6H33l.187-3.733h4.152ZM35.4,5.6a1.939,1.939,0,0,1,1.937,1.937V11.2H33.276l.188-3.76A1.935,1.935,0,0,1,35.4,5.6ZM32.9,18.667h4.432V22.4H32.716Zm-4.319-3.733H24.272V12.549a14.492,14.492,0,0,0-.363-3.215H28.35ZM24.271,16.8h4.391l.233,5.6H24.268ZM22.4,4.723V4.667a2.8,2.8,0,0,1,2.8-2.8A2.952,2.952,0,0,1,28.157,4.7l.115,2.765H23.352a14.357,14.357,0,0,0-.608-1.4L22.7,5.984a2.8,2.8,0,0,1-.3-1.261ZM11.2,9.89a4.3,4.3,0,0,0,.107.951l.841,3.7a4.665,4.665,0,0,1-5.685-1.574A3.736,3.736,0,0,0,7.8,6.31a4.658,4.658,0,0,1,5.144.133A4.286,4.286,0,0,0,11.2,9.89Zm-5.6.377a4.64,4.64,0,0,1,.806-2.619A1.866,1.866,0,0,1,5.693,11.2,4.668,4.668,0,0,1,5.6,10.267ZM15.948,4.3a.205.205,0,0,1,.284.285L15.556,5.6h-.065a4.307,4.307,0,0,0-.61.044c-.128-.128-.26-.251-.4-.367ZM10.267,1.867a.206.206,0,0,1,.2.165l.345,1.727c-.181-.015-.363-.025-.546-.025s-.366.01-.546.025l.345-1.726a.206.206,0,0,1,.2-.165Zm-5.94,2.46A.206.206,0,0,1,4.586,4.3l1.467.978a6.581,6.581,0,0,0-.774.774L4.3,4.586a.206.206,0,0,1,.026-.259Zm-2.46,5.94a.206.206,0,0,1,.165-.2l1.726-.345c-.015.18-.025.362-.025.546s.01.366.025.546l-1.726-.345A.206.206,0,0,1,1.867,10.267Zm2.719,5.966a.205.205,0,0,1-.285-.285l.978-1.467a6.581,6.581,0,0,0,.774.774Zm5.681,2.435a.206.206,0,0,1-.2-.165l-.345-1.726c.18.015.362.025.546.025s.365-.009.546-.024L10.468,18.5A.206.206,0,0,1,10.267,18.667Zm-2.8,6.711a1.1,1.1,0,0,1,.157-.567l1.453,1.453A.873.873,0,0,1,9,27.572L7.734,26.1A1.11,1.11,0,0,1,7.467,25.378Zm2.8,26.891a4.636,4.636,0,0,1-2.122-.512,2.8,2.8,0,0,0-1.612-5.088,2.826,2.826,0,0,0-.864.135,4.676,4.676,0,0,1,4.155-3.847,3.729,3.729,0,0,0,5.088,5.088,4.673,4.673,0,0,1-4.645,4.224ZM6.536,50.4a4.655,4.655,0,0,1-.748-1.493A.933.933,0,1,1,6.536,50.4Zm12.936-4.985-.005,0a9.808,9.808,0,0,1-4.731-6.192l-.006-.024h1.432a.64.64,0,0,1,.639.639,2.5,2.5,0,0,0,1.9,2.431l.659.165a1.553,1.553,0,0,1,.114,2.98Zm-4.874.451a1.866,1.866,0,1,1-2.6-2.6A4.691,4.691,0,0,1,14.6,45.868ZM10.267,39.2a.206.206,0,0,1,.2.165l.345,1.726c-.18-.015-.362-.025-.546-.025s-.366.01-.546.025l.345-1.727A.206.206,0,0,1,10.267,39.2Zm-5.94,2.46a.206.206,0,0,1,.259-.026l1.467.978a6.592,6.592,0,0,0-.774.774L4.3,41.921a.206.206,0,0,1,.026-.259ZM1.867,47.6a.206.206,0,0,1,.165-.2l1.726-.345c-.015.18-.025.362-.025.546s.01.366.025.546L2.032,47.8a.206.206,0,0,1-.165-.2Zm2.719,5.966a.205.205,0,0,1-.285-.285l.978-1.467a6.592,6.592,0,0,0,.774.774ZM10.267,56a.206.206,0,0,1-.2-.165l-.345-1.726c.18.015.362.025.546.025s.366-.01.546-.025l-.345,1.727A.206.206,0,0,1,10.267,56Zm5.94-2.46a.205.205,0,0,1-.259.026l-1.467-.978a6.581,6.581,0,0,0,.774-.774l.978,1.467a.206.206,0,0,1-.026.259ZM18.5,47.8l-1.726.345c.015-.18.025-.362.025-.546s-.01-.366-.025-.546L18.5,47.4a.205.205,0,0,1,0,.4ZM44.8,37.138a11.62,11.62,0,0,1-5.185,9.687L39.2,47.1V56H22.4V48.385a11.767,11.767,0,0,0,1.867.15h1.867V46.669H24.268a9.847,9.847,0,0,1-2.781-.4,3.418,3.418,0,0,0-1.676-5.643l-.659-.165a.638.638,0,0,1-.484-.62,2.509,2.509,0,0,0-2.506-2.506h-1.9l-.607-2.429a11.752,11.752,0,0,0-2.466-4.773l-.978-1.141a2.742,2.742,0,0,0,.186-4.047l-.671-.671a5.439,5.439,0,0,1,5.208,5.434v.833l1.47.49a9.885,9.885,0,0,1,6.064,5.717l1.733-.693a11.746,11.746,0,0,0-6.757-6.634L13.127,10.427a2.424,2.424,0,0,1,2.363-2.96,3.009,3.009,0,0,1,2.955,2.37l.9,4.065L15.611,14.97l.513,1.795,3.631-1.037,1.489,6.7a4.282,4.282,0,0,0-3.41,2.358l1.67.835a2.43,2.43,0,0,1,2.186-1.351H38.516a2.814,2.814,0,0,0,2.772-2.4l.7-4.922,4.277.611-1.032,9.292a71.2,71.2,0,0,0-.434,7.834v2.459Zm2.8,5.8a.206.206,0,0,1-.2-.165l-.345-1.726c.181.015.363.024.546.024s.366-.01.546-.025L47.8,42.77a.206.206,0,0,1-.2.165Zm5.94-2.46a.206.206,0,0,1-.259.026l-1.467-.978a6.581,6.581,0,0,0,.774-.774l.978,1.467A.206.206,0,0,1,53.542,40.475Zm2.3-5.739-1.726.345c.015-.18.025-.362.025-.546s-.01-.366-.025-.546l1.726.345a.205.205,0,0,1,0,.4Z" transform="translate(0 0)"/>
        <path id="Trazado_1254625" data-name="Trazado 1254625" d="M418.8,21.6a2.8,2.8,0,1,0-2.8-2.8A2.8,2.8,0,0,0,418.8,21.6Zm0-3.733a.933.933,0,1,1-.933.933A.934.934,0,0,1,418.8,17.867Z" transform="translate(-367.465 -14.133)"/>
        <path id="Trazado_1254626" data-name="Trazado 1254626" d="M418.8,432a2.8,2.8,0,1,0,2.8,2.8A2.8,2.8,0,0,0,418.8,432Zm0,3.734a.933.933,0,1,1,.933-.933A.934.934,0,0,1,418.8,435.734Z" transform="translate(-367.465 -381.598)"/>
        <circle id="Elipse_14753" data-name="Elipse 14753" cx="1" cy="1" r="1" transform="translate(24 4)"/>
        <circle id="Elipse_14754" data-name="Elipse 14754" cx="1" cy="1" r="1" transform="translate(15 9)"/>
      </g>
    </g>
  </g>
</svg>
