<svg xmlns="http://www.w3.org/2000/svg" xmlns:xlink="http://www.w3.org/1999/xlink" width="113" height="113" viewBox="0 0 113 113">
  <defs>
    <filter id="Trazado_982547" x="0" y="-0.001" width="113" height="113" filterUnits="userSpaceOnUse">
      <feOffset dy="3" input="SourceAlpha"/>
      <feGaussianBlur stdDeviation="3" result="blur"/>
      <feFlood flood-opacity="0.161"/>
      <feComposite operator="in" in2="blur"/>
      <feComposite in="SourceGraphic"/>
    </filter>
  </defs>
  <g id="Grupo_1236748" data-name="Grupo 1236748" transform="translate(-586 -9938.513)">
    <g id="Grupo_1234689" data-name="Grupo 1234689" transform="translate(0 -44.352)">
      <g id="Grupo_1231174" data-name="Grupo 1231174" transform="translate(0 4365)">
        <g id="Grupo_1230687" data-name="Grupo 1230687" transform="translate(0 -2146.377)">
          <g id="Grupo_1229015" data-name="Grupo 1229015" transform="translate(1 2131.042)">
            <g id="Grupo_1227503" data-name="Grupo 1227503" transform="translate(0 2048.198)">
              <g id="Grupo_1225351" data-name="Grupo 1225351" transform="translate(-1 -393.91)">
                <g id="Grupo_1208122" data-name="Grupo 1208122" transform="translate(0 -1922.377)">
                  <g id="Grupo_1202433" data-name="Grupo 1202433" transform="translate(-0.56 1255.773)">
                    <g id="Grupo_1202054" data-name="Grupo 1202054" transform="translate(0 3240.511)">
                      <g id="Grupo_1177897" data-name="Grupo 1177897" transform="translate(595.561 1411.003)">
                        <g id="Grupo_1172010" data-name="Grupo 1172010" transform="translate(0)">
                          <g id="Grupo_1171046" data-name="Grupo 1171046">
                            <g id="Grupo_1148525" data-name="Grupo 1148525">
                              <g transform="matrix(1, 0, 0, 1, -9, -6)" filter="url(#Trazado_982547)">
                                <g id="Trazado_982547-2" data-name="Trazado 982547" transform="translate(9 6)" fill="#d6ccfe">
                                  <path d="M 47.5 93.5 C 41.28937149047852 93.5 35.26533508300781 92.28397369384766 29.59518623352051 89.88570404052734 C 24.11771965026855 87.56893157958984 19.19813346862793 84.25196075439453 14.97309303283691 80.02691650390625 C 10.74804019927979 75.80186462402344 7.431066513061523 70.88229370117188 5.114293098449707 65.40481567382812 C 2.716026782989502 59.73468017578125 1.5 53.71062850952148 1.5 47.5 C 1.5 41.28937149047852 2.716026782989502 35.26533508300781 5.114293098449707 29.59518623352051 C 7.431066513061523 24.11771965026855 10.74804019927979 19.19813346862793 14.97309303283691 14.97309303283691 C 19.19813346862793 10.74804019927979 24.11771965026855 7.431066513061523 29.59518623352051 5.114293098449707 C 35.26533508300781 2.716026782989502 41.28937149047852 1.5 47.5 1.5 C 53.71062850952148 1.5 59.73468017578125 2.716026782989502 65.40481567382812 5.114293098449707 C 70.88229370117188 7.431066513061523 75.80186462402344 10.74804019927979 80.02691650390625 14.97309303283691 C 84.25196075439453 19.19813346862793 87.56893157958984 24.11771965026855 89.88570404052734 29.59518623352051 C 92.28397369384766 35.26533508300781 93.5 41.28937149047852 93.5 47.5 C 93.5 53.71062850952148 92.28397369384766 59.73468017578125 89.88570404052734 65.40481567382812 C 87.56893157958984 70.88229370117188 84.25196075439453 75.80186462402344 80.02691650390625 80.02691650390625 C 75.80186462402344 84.25196075439453 70.88229370117188 87.56893157958984 65.40481567382812 89.88570404052734 C 59.73468017578125 92.28397369384766 53.71062850952148 93.5 47.5 93.5 Z" stroke="none"/>
                                  <path d="M 47.5 3 C 41.49121475219727 3 35.66376876831055 4.176155090332031 30.17950439453125 6.495796203613281 C 24.88084411621094 8.736953735351562 20.12152099609375 11.94598388671875 16.03375244140625 16.03375244140625 C 11.94598388671875 20.12152099609375 8.736953735351562 24.88084411621094 6.495796203613281 30.17950439453125 C 4.176155090332031 35.66376876831055 3 41.49121475219727 3 47.5 C 3 53.50878524780273 4.176155090332031 59.33623123168945 6.495796203613281 64.82049560546875 C 8.736953735351562 70.11915588378906 11.94598388671875 74.87847900390625 16.03375244140625 78.96624755859375 C 20.12152099609375 83.05401611328125 24.88084411621094 86.26304626464844 30.17950439453125 88.50419616699219 C 35.66376876831055 90.82384490966797 41.49121475219727 92 47.5 92 C 53.50878524780273 92 59.33623123168945 90.82384490966797 64.82049560546875 88.50419616699219 C 70.11915588378906 86.26304626464844 74.87847900390625 83.05401611328125 78.96624755859375 78.96624755859375 C 83.05401611328125 74.87847900390625 86.26304626464844 70.11915588378906 88.50419616699219 64.82049560546875 C 90.82384490966797 59.33623123168945 92 53.50878524780273 92 47.5 C 92 41.49121475219727 90.82384490966797 35.66376876831055 88.50419616699219 30.17950439453125 C 86.26304626464844 24.88084411621094 83.05401611328125 20.12152099609375 78.96624755859375 16.03375244140625 C 74.87847900390625 11.94598388671875 70.11915588378906 8.736953735351562 64.82049560546875 6.495796203613281 C 59.33623123168945 4.176155090332031 53.50878524780273 3 47.5 3 M 47.5 0 C 73.7335205078125 0 95 21.2664794921875 95 47.5 C 95 73.7335205078125 73.7335205078125 95 47.5 95 C 21.2664794921875 95 0 73.7335205078125 0 47.5 C 0 21.2664794921875 21.2664794921875 0 47.5 0 Z" stroke="none" fill="#7958fb"/>
                                </g>
                              </g>
                            </g>
                          </g>
                        </g>
                      </g>
                    </g>
                  </g>
                </g>
              </g>
            </g>
          </g>
        </g>
      </g>
    </g>
    <g id="bacterias_1_" data-name="bacterias (1)" transform="translate(607 9955.955)">
      <path id="Trazado_1254627" data-name="Trazado 1254627" d="M70,42.5a35,35,0,1,1-35-35A35,35,0,0,1,70,42.5Zm0,0" transform="translate(0 -6.444)" fill="#00a5a9"/>
      <path id="Trazado_1254628" data-name="Trazado 1254628" d="M104.562,86.613A10.069,10.069,0,0,0,94.5,96.672a4.225,4.225,0,1,0,8.451,0,1.609,1.609,0,0,1,1.607-1.608,4.225,4.225,0,0,0,0-8.451Zm0,0" transform="translate(-81.193 -74.414)" fill="#60f375"/>
      <path id="Trazado_1254629" data-name="Trazado 1254629" d="M104.562,90.838a5.831,5.831,0,0,0-5.827,5.833H94.5a4.225,4.225,0,0,0,8.451,0,1.609,1.609,0,0,1,1.607-1.608,4.225,4.225,0,0,0,0-8.451h0Zm0,0" transform="translate(-81.193 -74.414)" fill="#28d05b"/>
      <path id="Trazado_1254630" data-name="Trazado 1254630" d="M38.725,286.629a4.225,4.225,0,0,0,0,8.451,1.609,1.609,0,0,1,1.608,1.607,4.225,4.225,0,0,0,8.451,0A10.069,10.069,0,0,0,38.725,286.629Zm0,0" transform="translate(-29.641 -246.259)" fill="#60f375"/>
      <path id="Trazado_1254631" data-name="Trazado 1254631" d="M70.333,300.912a4.225,4.225,0,0,0,4.225-4.225A10.069,10.069,0,0,0,64.5,286.629v.146a5.587,5.587,0,0,0,2.877,4.839,5.849,5.849,0,0,1,2.962,5.073h-.006Zm0,0" transform="translate(-55.415 -246.259)" fill="#28d05b"/>
      <path id="Trazado_1254632" data-name="Trazado 1254632" d="M348.566,318.988a4.225,4.225,0,0,0-4.225,4.225,1.609,1.609,0,0,1-1.607,1.608,4.225,4.225,0,0,0,0,8.451,10.07,10.07,0,0,0,10.058-10.058A4.225,4.225,0,0,0,348.566,318.988Zm0,0" transform="translate(-290.831 -274.06)" fill="#60f375"/>
      <path id="Trazado_1254633" data-name="Trazado 1254633" d="M348.566,323.213a5.839,5.839,0,0,1-5.832,5.833h-4.225a4.225,4.225,0,0,0,4.225,4.225,10.07,10.07,0,0,0,10.058-10.058,4.225,4.225,0,0,0-4.224-4.225h0Zm0,0" transform="translate(-290.831 -274.06)" fill="#28d05b"/>
      <path id="Trazado_1254634" data-name="Trazado 1254634" d="M177.035,367.541a1.609,1.609,0,0,1,0-2.273,4.225,4.225,0,1,0-5.975-5.975,10.069,10.069,0,0,0,0,14.224,4.225,4.225,0,0,0,5.975-5.975Zm0,0" transform="translate(-144.439 -307.624)" fill="#87f8f4"/>
      <path id="Trazado_1254635" data-name="Trazado 1254635" d="M189,381.068a4.225,4.225,0,0,0,5.975-5.975,1.609,1.609,0,0,1,0-2.273,4.224,4.224,0,0,0,0-5.975l-2.988,2.988a5.84,5.84,0,0,0,0,8.252l0,0Zm0,0" transform="translate(-162.384 -315.176)" fill="#00e7ec"/>
      <path id="Trazado_1254636" data-name="Trazado 1254636" d="M199.779,184.984a4.224,4.224,0,0,0-5.975,0l-7.28,7.28a4.225,4.225,0,1,0,5.975,5.975l7.28-7.28a4.224,4.224,0,0,0,0-5.975Zm0,0" transform="translate(-159.188 -157.866)" fill="#87f8f4"/>
      <path id="Trazado_1254637" data-name="Trazado 1254637" d="M201.355,184.984a4.225,4.225,0,0,1,0,5.975l-7.28,7.28a4.224,4.224,0,0,0,5.975,0l7.28-7.28a4.225,4.225,0,0,0-5.975-5.975Zm0,0" transform="translate(-166.74 -157.866)" fill="#00e7ec"/>
      <path id="Trazado_1254638" data-name="Trazado 1254638" d="M289.786,82.259l-7.281-7.28a4.225,4.225,0,0,0-5.975,5.975l7.281,7.281a4.225,4.225,0,0,0,5.975-5.976Zm0,0" transform="translate(-236.518 -63.355)" fill="#ffcf5d"/>
      <path id="Trazado_1254639" data-name="Trazado 1254639" d="M297.334,82.259l-7.281-7.28a4.225,4.225,0,0,0-5.975,0l2.987,2.988,4.291,4.286a4.228,4.228,0,0,1,0,5.982l0,0a4.225,4.225,0,0,0,5.972-5.98Zm0,0" transform="translate(-244.067 -63.355)" fill="#ffb545"/>
      <g id="Grupo_1236747" data-name="Grupo 1236747" transform="translate(30.07 4.983)">
        <path id="Trazado_1254640" data-name="Trazado 1254640" d="M217.725,37.492a2.113,2.113,0,1,1-2.113-2.113A2.113,2.113,0,0,1,217.725,37.492Zm0,0" transform="translate(-213.5 -35.379)" fill="#ffc98c"/>
        <path id="Trazado_1254641" data-name="Trazado 1254641" d="M440.788,187.547a2.113,2.113,0,1,1-2.113-2.113A2.113,2.113,0,0,1,440.788,187.547Zm0,0" transform="translate(-405.146 -164.299)" fill="#ffc98c"/>
        <path id="Trazado_1254642" data-name="Trazado 1254642" d="M317.729,437.515a2.113,2.113,0,1,1-2.113-2.113A2.113,2.113,0,0,1,317.729,437.515Zm0,0" transform="translate(-299.419 -379.061)" fill="#ffc98c"/>
        <path id="Trazado_1254643" data-name="Trazado 1254643" d="M310.4,252.5a2.113,2.113,0,1,1-2.113-2.113A2.113,2.113,0,0,1,310.4,252.5Zm0,0" transform="translate(-293.12 -220.108)" fill="#ffc98c"/>
      </g>
      <path id="Trazado_1254644" data-name="Trazado 1254644" d="M117.717,417.515A2.113,2.113,0,1,1,115.6,415.4,2.113,2.113,0,0,1,117.717,417.515Zm0,0" transform="translate(-97.507 -356.895)" fill="#ffcf5d"/>
      <path id="Trazado_1254645" data-name="Trazado 1254645" d="M37.714,197.5a2.113,2.113,0,1,1-2.113-2.113A2.113,2.113,0,0,1,37.714,197.5Zm0,0" transform="translate(-28.772 -167.868)" fill="#87f8f4"/>
      <path id="Trazado_1254646" data-name="Trazado 1254646" d="M266.654,375.32a2.113,2.113,0,0,0-2.113,2.113.8.8,0,0,1-.8.8,2.113,2.113,0,1,0,0,4.225,5.035,5.035,0,0,0,5.029-5.029A2.113,2.113,0,0,0,266.654,375.32Zm0,0" transform="translate(-224.776 -322.458)" fill="#ffcf5d"/>
      <path id="Trazado_1254647" data-name="Trazado 1254647" d="M118.137,223.778a.8.8,0,0,1,0-1.137,2.113,2.113,0,1,0-2.988-2.987,5.035,5.035,0,0,0,0,7.112,2.113,2.113,0,0,0,2.987-2.988Zm0,0" transform="translate(-97.668 -188.185)" fill="#ffcf5d"/>
      <path id="Trazado_1254648" data-name="Trazado 1254648" d="M366.309,201.732a2.113,2.113,0,0,0-2.988,0l-3.641,3.64a2.113,2.113,0,1,0,2.988,2.988l3.641-3.641A2.113,2.113,0,0,0,366.309,201.732Zm0,0" transform="translate(-308.49 -172.788)" fill="#87f8f4"/>
      <path id="Trazado_1254649" data-name="Trazado 1254649" d="M266.622,300.887l-3.641-3.641a2.113,2.113,0,1,0-2.987,2.988l3.641,3.641a2.113,2.113,0,0,0,2.987-2.988Zm0,0" transform="translate(-222.843 -254.849)" fill="#ffcf5d"/>
      <path id="Trazado_1254650" data-name="Trazado 1254650" d="M431.24,250.391a5.034,5.034,0,0,0-5.029,5.029,2.113,2.113,0,1,0,4.225,0,.8.8,0,0,1,.8-.8,2.113,2.113,0,0,0,0-4.225Zm0,0" transform="translate(-366.181 -215.125)" fill="#ffcf5d"/>
      <path id="Trazado_1254651" data-name="Trazado 1254651" d="M92.278,95.516a5.282,5.282,0,0,0,5.282-5.282.556.556,0,0,1,.552-.552,5.281,5.281,0,1,0,0-10.562,1.056,1.056,0,0,0,0,2.113v0a3.17,3.17,0,0,1,0,6.34,2.664,2.664,0,0,0-2.663,2.663,3.17,3.17,0,0,1-6.34,0,9.025,9.025,0,0,1,5.334-8.221,1.056,1.056,0,1,0-.865-1.927A11.128,11.128,0,0,0,87,90.234a5.285,5.285,0,0,0,5.282,5.282Zm0,0" transform="translate(-74.743 -67.977)"/>
      <path id="Trazado_1254652" data-name="Trazado 1254652" d="M43.4,290.243a11.114,11.114,0,0,0-11.114-11.114,1.056,1.056,0,1,0,0,2.113,9.012,9.012,0,0,1,9,9,3.169,3.169,0,1,1-6.338,0,2.665,2.665,0,0,0-2.663-2.663,3.169,3.169,0,0,1-2.666-4.882,1.057,1.057,0,1,0-1.778-1.143,5.282,5.282,0,0,0,4.444,8.138.553.553,0,0,1,.551.551,5.282,5.282,0,1,0,10.563,0Zm0,0" transform="translate(-23.197 -239.815)"/>
      <path id="Trazado_1254653" data-name="Trazado 1254653" d="M342.116,311.488a1.056,1.056,0,0,0,0,2.113h0a3.182,3.182,0,0,1,3.168,3.169,9.012,9.012,0,0,1-9,9,3.169,3.169,0,0,1,0-6.338,2.664,2.664,0,0,0,2.665-2.663,3.161,3.161,0,0,1,.5-1.713,1.056,1.056,0,1,0-1.776-1.143,5.234,5.234,0,0,0-.838,2.856.554.554,0,0,1-.552.551,5.282,5.282,0,1,0,0,10.563A11.118,11.118,0,0,0,347.4,316.77a5.283,5.283,0,0,0-5.282-5.282Zm0,0" transform="translate(-284.38 -267.616)"/>
      <path id="Trazado_1254654" data-name="Trazado 1254654" d="M172.887,364.082a5.259,5.259,0,0,0-1.547-3.734,1.056,1.056,0,0,0-1.493,1.493,3.169,3.169,0,0,1-4.483,4.482,9.015,9.015,0,0,1,0-12.73,3.17,3.17,0,0,1,5.182,3.425,1.056,1.056,0,1,0,1.959.789,5.283,5.283,0,0,0-4.9-7.256H167.6a5.283,5.283,0,0,0-3.732,1.548,11.122,11.122,0,0,0,0,15.719,5.264,5.264,0,0,0,3.731,1.547h.007a5.274,5.274,0,0,0,5.277-5.282Zm0,0" transform="translate(-137.998 -301.177)"/>
      <path id="Trazado_1254655" data-name="Trazado 1254655" d="M179.336,185.661a5.28,5.28,0,0,0,3.73,9.016h.01a5.267,5.267,0,0,0,3.73-1.546l7.282-7.282a5.28,5.28,0,0,0,0-7.469,1.057,1.057,0,0,0-1.494,1.494,3.169,3.169,0,0,1,0,4.482l-7.28,7.28a3.169,3.169,0,1,1-4.483-4.482l7.282-7.28a3.16,3.16,0,0,1,1.566-.856,1.056,1.056,0,0,0-.224-2.089.993.993,0,0,0-.224.024,5.259,5.259,0,0,0-2.612,1.427Zm0,0" transform="translate(-152.749 -152.01)"/>
      <path id="Trazado_1254656" data-name="Trazado 1254656" d="M269.34,75.256l7.28,7.28a5.264,5.264,0,0,0,3.731,1.547h.007a5.279,5.279,0,0,0,3.732-9.014s0,0,0,0A1.056,1.056,0,0,0,282.6,76.56a3.168,3.168,0,1,1-4.48,4.482l-7.282-7.28a3.169,3.169,0,1,1,4.482-4.481l4.292,4.292a1.057,1.057,0,0,0,1.495-1.494h0l-4.291-4.292a5.275,5.275,0,0,0-3.729-1.547h-.01a5.282,5.282,0,0,0-3.731,9.017Zm0,0" transform="translate(-230.075 -56.909)"/>
      <path id="Trazado_1254657" data-name="Trazado 1254657" d="M29.157,194.225a3.169,3.169,0,1,0-3.169-3.169A3.173,3.173,0,0,0,29.157,194.225Zm0-4.225a1.056,1.056,0,1,1-1.056,1.056A1.058,1.058,0,0,1,29.157,190Zm0,0" transform="translate(-22.328 -161.424)"/>
      <path id="Trazado_1254658" data-name="Trazado 1254658" d="M209.169,34.217A3.169,3.169,0,1,0,206,31.048,3.173,3.173,0,0,0,209.169,34.217Zm0-4.225a1.056,1.056,0,1,1-1.056,1.056A1.057,1.057,0,0,1,209.169,29.992Zm0,0" transform="translate(-176.986 -23.952)"/>
      <path id="Trazado_1254659" data-name="Trazado 1254659" d="M432.232,184.272a3.169,3.169,0,1,0-3.169-3.169A3.173,3.173,0,0,0,432.232,184.272Zm0-4.225a1.056,1.056,0,1,1-1.056,1.056A1.057,1.057,0,0,1,432.232,180.047Zm0,0" transform="translate(-368.632 -152.873)"/>
      <path id="Trazado_1254660" data-name="Trazado 1254660" d="M309.173,427.9a3.169,3.169,0,1,0,3.169,3.169A3.173,3.173,0,0,0,309.173,427.9Zm0,4.225a1.056,1.056,0,1,1,1.056-1.056A1.057,1.057,0,0,1,309.173,432.127Zm0,0" transform="translate(-262.905 -367.634)"/>
      <path id="Trazado_1254661" data-name="Trazado 1254661" d="M305.01,246.06a3.169,3.169,0,1,0-3.169,3.169A3.173,3.173,0,0,0,305.01,246.06Zm-3.169,1.056a1.056,1.056,0,1,1,1.056-1.056A1.057,1.057,0,0,1,301.841,247.116Zm0,0" transform="translate(-256.606 -208.681)"/>
      <path id="Trazado_1254662" data-name="Trazado 1254662" d="M109.161,407.9a3.169,3.169,0,1,0,3.169,3.169A3.173,3.173,0,0,0,109.161,407.9Zm0,4.225a1.056,1.056,0,1,1,1.056-1.056A1.057,1.057,0,0,1,109.161,412.127Zm0,0" transform="translate(-91.064 -350.451)"/>
      <path id="Trazado_1254663" data-name="Trazado 1254663" d="M424.8,242.891a6.092,6.092,0,0,0-6.085,6.085,3.169,3.169,0,0,0,6.329.243,3.169,3.169,0,0,0-.244-6.329Zm0,4.225a1.862,1.862,0,0,0-1.86,1.86,1.056,1.056,0,1,1-2.113,0A3.977,3.977,0,0,1,424.8,245a1.056,1.056,0,1,1,0,2.113Zm0,0" transform="translate(-359.738 -208.681)"/>
      <path id="Trazado_1254664" data-name="Trazado 1254664" d="M263.38,370.989a3.169,3.169,0,0,0-6.329-.244,3.169,3.169,0,0,0,.243,6.329A6.092,6.092,0,0,0,263.38,370.989Zm-7.142,2.917a1.057,1.057,0,0,1,1.056-1.056,1.862,1.862,0,0,0,1.86-1.86,1.056,1.056,0,1,1,2.113,0,3.977,3.977,0,0,1-3.973,3.973A1.058,1.058,0,0,1,256.238,373.906Zm0,0" transform="translate(-218.333 -316.014)"/>
      <path id="Trazado_1254665" data-name="Trazado 1254665" d="M112.442,212.472a3.172,3.172,0,0,0-4.482,0,6.092,6.092,0,0,0,0,8.606,3.169,3.169,0,0,0,4.647-4.3,3.173,3.173,0,0,0-.166-4.3Zm-1.494,7.112a1.057,1.057,0,0,1-1.494,0,3.978,3.978,0,0,1,0-5.618,1.056,1.056,0,0,1,1.494,1.494,1.862,1.862,0,0,0,0,2.63,1.058,1.058,0,0,1,0,1.494Zm0,0" transform="translate(-91.226 -181.75)"/>
      <path id="Trazado_1254666" data-name="Trazado 1254666" d="M352.49,198.182a3.169,3.169,0,1,0,4.482,4.481l3.64-3.64a3.169,3.169,0,0,0-4.482-4.482Zm5.881-2.456a1.056,1.056,0,0,1,.747,1.8l-3.641,3.641a1.056,1.056,0,0,1-1.494-1.494l3.641-3.641A1.05,1.05,0,0,1,358.371,195.726Zm0,0" transform="translate(-302.046 -166.344)"/>
      <path id="Trazado_1254667" data-name="Trazado 1254667" d="M257.285,290.057a3.169,3.169,0,0,0-4.482,4.482l3.641,3.641a3.169,3.169,0,0,0,4.482-4.482Zm2.146,6.628a1.057,1.057,0,0,1-1.494,0l-3.641-3.641a1.056,1.056,0,0,1,1.494-1.494l3.64,3.641h0a1.056,1.056,0,0,1,0,1.494Zm0,0" transform="translate(-216.399 -248.407)"/>
      <path id="Trazado_1254668" data-name="Trazado 1254668" d="M43.976,148.755A1.056,1.056,0,1,1,42.92,147.7,1.056,1.056,0,0,1,43.976,148.755Zm0,0" transform="translate(-35.967 -126.896)"/>
      <path id="Trazado_1254669" data-name="Trazado 1254669" d="M153.98,48.752a1.056,1.056,0,1,1-1.056-1.056A1.056,1.056,0,0,1,153.98,48.752Zm0,0" transform="translate(-130.477 -40.978)"/>
      <path id="Trazado_1254670" data-name="Trazado 1254670" d="M413.324,123.142a1.056,1.056,0,1,1-1.056-1.056A1.056,1.056,0,0,1,413.324,123.142Zm0,0" transform="translate(-353.294 -104.891)"/>
      <path id="Trazado_1254671" data-name="Trazado 1254671" d="M347.336,61.252a1.056,1.056,0,1,1-1.056-1.056A1.056,1.056,0,0,1,347.336,61.252Zm0,0" transform="translate(-296.6 -51.717)"/>
      <path id="Trazado_1254672" data-name="Trazado 1254672" d="M218.984,151.259a1.056,1.056,0,1,1-1.056-1.056A1.056,1.056,0,0,1,218.984,151.259Zm0,0" transform="translate(-186.326 -129.048)"/>
      <path id="Trazado_1254673" data-name="Trazado 1254673" d="M243.113,1.056A1.056,1.056,0,1,1,242.056,0,1.057,1.057,0,0,1,243.113,1.056Zm0,0" transform="translate(-207.056)"/>
      <path id="Trazado_1254674" data-name="Trazado 1254674" d="M243.113,498.056A1.056,1.056,0,1,1,242.056,497,1.057,1.057,0,0,1,243.113,498.056Zm0,0" transform="translate(-207.056 -427)"/>
      <path id="Trazado_1254675" data-name="Trazado 1254675" d="M268.988,461.279a1.056,1.056,0,1,1-1.056-1.056A1.057,1.057,0,0,1,268.988,461.279Zm0,0" transform="translate(-229.287 -395.403)"/>
      <path id="Trazado_1254676" data-name="Trazado 1254676" d="M161.48,343.529a1.056,1.056,0,1,1-1.056-1.056A1.056,1.056,0,0,1,161.48,343.529Zm0,0" transform="translate(-136.921 -294.237)"/>
    </g>
  </g>
</svg>
