<svg xmlns="http://www.w3.org/2000/svg" xmlns:xlink="http://www.w3.org/1999/xlink" width="106" height="106" viewBox="0 0 106 106">
  <defs>
    <filter id="Trazado_982547" x="0" y="0" width="106" height="106" filterUnits="userSpaceOnUse">
      <feOffset dy="3" input="SourceAlpha"/>
      <feGaussianBlur stdDeviation="3" result="blur"/>
      <feFlood flood-opacity="0.161"/>
      <feComposite operator="in" in2="blur"/>
      <feComposite in="SourceGraphic"/>
    </filter>
  </defs>
  <g id="Grupo_1237141" data-name="Grupo 1237141" transform="translate(-198 -2184.233)">
    <g id="Grupo_1234695" data-name="Grupo 1234695" transform="translate(0 -774.767)">
      <g id="Grupo_1230961" data-name="Grupo 1230961" transform="translate(27 1577)">
        <g id="Grupo_1173169" data-name="Grupo 1173169" transform="translate(0 -2329)">
          <g id="Grupo_1172017" data-name="Grupo 1172017" transform="translate(0 2654)">
            <g id="Grupo_1167337" data-name="Grupo 1167337" transform="translate(180 1063)">
              <g id="Grupo_1166720" data-name="Grupo 1166720" transform="translate(0)">
                <g id="Grupo_1164305" data-name="Grupo 1164305">
                  <g id="Grupo_1163948" data-name="Grupo 1163948">
                    <g id="Grupo_1158168" data-name="Grupo 1158168">
                      <g id="Grupo_1152576" data-name="Grupo 1152576">
                        <g id="Grupo_1148633" data-name="Grupo 1148633">
                          <g id="Grupo_1148525" data-name="Grupo 1148525">
                            <g transform="matrix(1, 0, 0, 1, -9, -6)" filter="url(#Trazado_982547)">
                              <g id="Trazado_982547-2" data-name="Trazado 982547" transform="translate(9 6)" fill="#e4ebfb">
                                <path d="M 44 86.5 C 38.26187515258789 86.5 32.69618606567383 85.37651062011719 27.45755004882812 83.16075897216797 C 22.3968505859375 81.020263671875 17.85157585144043 77.95565032958984 13.94796276092529 74.05204010009766 C 10.04434967041016 70.1484375 6.979737281799316 65.6031494140625 4.839250087738037 60.54246139526367 C 2.62348747253418 55.30381393432617 1.5 49.73812484741211 1.5 44 C 1.5 38.26187515258789 2.62348747253418 32.69618606567383 4.839250087738037 27.45755004882812 C 6.979737281799316 22.3968505859375 10.04434967041016 17.85157585144043 13.94796276092529 13.94796276092529 C 17.85157585144043 10.04434967041016 22.3968505859375 6.979737281799316 27.45755004882812 4.839250087738037 C 32.69618606567383 2.62348747253418 38.26187515258789 1.5 44 1.5 C 49.73812484741211 1.5 55.30381393432617 2.62348747253418 60.54246139526367 4.839250087738037 C 65.6031494140625 6.979737281799316 70.1484375 10.04434967041016 74.05204010009766 13.94796276092529 C 77.95565032958984 17.85157585144043 81.020263671875 22.3968505859375 83.16075897216797 27.45755004882812 C 85.37651062011719 32.69618606567383 86.5 38.26187515258789 86.5 44 C 86.5 49.73812484741211 85.37651062011719 55.30381393432617 83.16075897216797 60.54246139526367 C 81.020263671875 65.6031494140625 77.95565032958984 70.1484375 74.05204010009766 74.05204010009766 C 70.1484375 77.95565032958984 65.6031494140625 81.020263671875 60.54246139526367 83.16075897216797 C 55.30381393432617 85.37651062011719 49.73812484741211 86.5 44 86.5 Z" stroke="none"/>
                                <path d="M 44 3 C 38.46371459960938 3 33.09462738037109 4.083610534667969 28.0418701171875 6.220756530761719 C 23.15997314453125 8.285614013671875 18.77495574951172 11.24228668212891 15.00862884521484 15.00862884521484 C 11.24228668212891 18.77495574951172 8.285614013671875 23.15997314453125 6.220756530761719 28.0418701171875 C 4.083610534667969 33.09462738037109 3 38.46371459960938 3 44 C 3 49.53628540039062 4.083610534667969 54.9053840637207 6.220756530761719 59.9581298828125 C 8.285614013671875 64.84002685546875 11.24228668212891 69.22504425048828 15.00862884521484 72.99138641357422 C 18.77495574951172 76.75771331787109 23.15997314453125 79.71438598632812 28.0418701171875 81.77925872802734 C 33.09462738037109 83.9163818359375 38.46371459960938 85 44 85 C 49.53628540039062 85 54.9053840637207 83.9163818359375 59.95814514160156 81.77925872802734 C 64.84002685546875 79.71438598632812 69.22504425048828 76.75771331787109 72.99138641357422 72.99138641357422 C 76.75771331787109 69.22504425048828 79.71438598632812 64.84002685546875 81.77925872802734 59.95814514160156 C 83.9163818359375 54.9053840637207 85 49.53628540039062 85 44 C 85 38.46371459960938 83.9163818359375 33.09462738037109 81.77925872802734 28.0418701171875 C 79.71438598632812 23.15997314453125 76.75771331787109 18.77495574951172 72.99138641357422 15.00862884521484 C 69.22504425048828 11.24228668212891 64.84002685546875 8.285614013671875 59.9581298828125 6.220756530761719 C 54.9053840637207 4.083610534667969 49.53628540039062 3 44 3 M 44 0 C 68.30054473876953 0 88 19.69947052001953 88 44 C 88 68.30054473876953 68.30054473876953 88 44 88 C 19.69947052001953 88 0 68.30054473876953 0 44 C 0 19.69947052001953 19.69947052001953 0 44 0 Z" stroke="none" fill="#0045e0"/>
                              </g>
                            </g>
                          </g>
                        </g>
                      </g>
                    </g>
                  </g>
                </g>
              </g>
            </g>
          </g>
        </g>
      </g>
    </g>
    <g id="cuidado-de-la-salud" transform="translate(201.431 2203.128)">
      <path id="Trazado_1255307" data-name="Trazado 1255307" d="M0,0H7.731V24.636H0Z" transform="translate(21.925 43.87) rotate(-45)" fill="#99e6fc"/>
      <path id="Trazado_1255308" data-name="Trazado 1255308" d="M47.8,337.117l-1.832,1.831L28.552,321.523l5.466-5.468,1.831,1.832L34.8,318.935a3.661,3.661,0,0,0,0,5.177Z" transform="translate(-6.619 -277.653)" fill="#62dbfb"/>
      <path id="Trazado_1255309" data-name="Trazado 1255309" d="M0,0H3.676V18.663H0Z" transform="translate(29.044 40.05) rotate(-45)" fill="#f2fbff"/>
      <path id="Trazado_1255310" data-name="Trazado 1255310" d="M101.538,322.817l-1.22,1.22-13.2-13.2,2.6-2.6,1.22,1.22-.085.085a1.831,1.831,0,0,0,0,2.589Z" transform="translate(-58.071 -270.788)" fill="#dff6fd"/>
      <path id="Trazado_1255311" data-name="Trazado 1255311" d="M214.128,21.112a7.982,7.982,0,1,0-13.088-8.59,7.982,7.982,0,1,0-13.088,8.59h0l0,0,.081.081,13,12.98,13-12.98.081-.081,0,0Z" transform="translate(-144.634 -6.614)" fill="#fd8087"/>
      <path id="Trazado_1255312" data-name="Trazado 1255312" d="M191.7,21.2,202.87,32.354l-1.831,1.827-13-12.979-.081-.081,0,0a7.984,7.984,0,0,1,7.517-13.371,7.982,7.982,0,0,0-3.855,13.371l0,0,.081.081Z" transform="translate(-144.634 -6.619)" fill="#fe646f"/>
      <path id="Trazado_1255313" data-name="Trazado 1255313" d="M278.349,73.7h-3.791V69.909h-3.791V73.7h-3.791v3.791h3.791v3.791h3.791V77.491h3.791Z" transform="translate(-216.073 -61.415)" fill="#f2fbff"/>
      <path id="Trazado_1255314" data-name="Trazado 1255314" d="M130.371,252.694s3.741-7.875,11.086-7.875a11.37,11.37,0,0,1,4.1.765l2.908,1.124h5.757a2.437,2.437,0,0,1,2.437,2.437,4.664,4.664,0,0,1-.106.714h0l4.625-2.67,8.441-4.874a2.437,2.437,0,0,1,3.328.893,2.522,2.522,0,0,1-.891,3.328l-15.429,12.059a6.066,6.066,0,0,1-3.739,1.289H137.56Z" transform="translate(-96.066 -212.585)" fill="#fed2a4"/>
      <path id="Trazado_1255315" data-name="Trazado 1255315" d="M136.111,275.243l5.112,5.112h-3.661l-7.19-7.19s3.741-7.874,11.085-7.874a11.319,11.319,0,0,1,1.886.157,12.778,12.778,0,0,0-7.537,4.964A3.652,3.652,0,0,0,136.111,275.243Z" transform="translate(-96.067 -233.057)" fill="#ffbd86"/>
      <g id="Grupo_1237140" data-name="Grupo 1237140" transform="translate(21.018 0)">
        <path id="Trazado_1255316" data-name="Trazado 1255316" d="M180.691,15.15l5.042,5.032a.915.915,0,0,0,1.293-1.3l-5.041-5.031a7.066,7.066,0,1,1,11.587-7.6.915.915,0,0,0,.848.573h0a.915.915,0,0,0,.849-.572,7.067,7.067,0,1,1,11.589,7.6L194.422,26.269l-4.572-4.563a.915.915,0,1,0-1.293,1.3l5.219,5.209c.54.495.785.495,1.293,0L208.154,15.15l.01-.01A8.9,8.9,0,1,0,194.422,3.954a8.9,8.9,0,1,0-13.74,11.186l.01.01Z" transform="translate(-159.034 0)"/>
        <path id="Trazado_1255317" data-name="Trazado 1255317" d="M267.941,62.375H264.15a.915.915,0,0,0-.915.915v2.876h-2.876a.915.915,0,0,0-.915.915v3.791a.915.915,0,0,0,.915.915h2.876v2.876a.915.915,0,0,0,.915.915h3.791a.915.915,0,0,0,.915-.915V71.787h2.876a.915.915,0,0,0,.915-.915V67.081a.915.915,0,0,0-.915-.915h-2.876V63.29A.915.915,0,0,0,267.941,62.375ZM270.817,68v1.96h-2.876a.915.915,0,0,0-.915.915v2.876h-1.96V70.872a.915.915,0,0,0-.915-.915h-2.876V68h2.876a.915.915,0,0,0,.915-.915V64.206h1.96v2.876a.915.915,0,0,0,.915.915Z" transform="translate(-230.474 -54.796)"/>
        <path id="Trazado_1255318" data-name="Trazado 1255318" d="M77.672,236.115a3.367,3.367,0,0,0-4.579-1.229l-11.7,6.756a3.359,3.359,0,0,0-3.239-2.486H52.567a18.755,18.755,0,0,0-7.177-1.888,12.268,12.268,0,0,0-8.963,4.225,18.912,18.912,0,0,0-2.331,3.061l-1.8-1.8a.915.915,0,0,0-1.294,0l-1.952,1.952-1-1a.915.915,0,0,0-1.295,0l-5.466,5.467a.915.915,0,0,0,0,1.294l3.448,3.45a.915.915,0,0,0,1.295-1.294l-2.8-2.8,4.172-4.173,16.12,16.132-4.173,4.172-10.5-10.506a.915.915,0,1,0-1.295,1.294L38.7,267.893a.915.915,0,0,0,.647.268h0a.915.915,0,0,0,.647-.268l5.468-5.466a.915.915,0,0,0,0-1.294l-1.926-1.928,1.957-1.957a.915.915,0,0,0,0-1.294L43.7,254.164h5.205a.915.915,0,0,0,0-1.831H41.873l-6.44-6.44c.984-1.716,4.37-6.793,9.957-6.793a17.6,17.6,0,0,1,6.677,1.827.914.914,0,0,0,.33.061h5.757a1.522,1.522,0,1,1,0,3.043H47.1a.915.915,0,1,0,0,1.831H58.154a3.33,3.33,0,0,0,3.069-2.008l12.785-7.383a1.529,1.529,0,0,1,1.416,2.707l-15.429,12.06a5.174,5.174,0,0,1-3.175,1.094H52.9a.915.915,0,0,0,0,1.831H56.82a7.013,7.013,0,0,0,4.3-1.483l15.383-12.023A3.405,3.405,0,0,0,77.672,236.115Zm-35.425,21.79L30.344,246l1.3-1.3,11.9,11.9Z" transform="translate(-21.018 -205.951)"/>
      </g>
    </g>
  </g>
</svg>
