<svg xmlns="http://www.w3.org/2000/svg" xmlns:xlink="http://www.w3.org/1999/xlink" width="106" height="106" viewBox="0 0 106 106">
  <defs>
    <filter id="Trazado_982547" x="0" y="0" width="106" height="106" filterUnits="userSpaceOnUse">
      <feOffset dy="3" input="SourceAlpha"/>
      <feGaussianBlur stdDeviation="3" result="blur"/>
      <feFlood flood-opacity="0.161"/>
      <feComposite operator="in" in2="blur"/>
      <feComposite in="SourceGraphic"/>
    </filter>
  </defs>
  <g id="Grupo_1235193" data-name="Grupo 1235193" transform="translate(-620 -3094)">
    <g id="Grupo_1234670" data-name="Grupo 1234670" transform="translate(629 3100)">
      <g id="Grupo_1173169" data-name="Grupo 1173169">
        <g id="Grupo_1172017" data-name="Grupo 1172017">
          <g id="Grupo_1167337" data-name="Grupo 1167337">
            <g id="Grupo_1166720" data-name="Grupo 1166720">
              <g id="Grupo_1164305" data-name="Grupo 1164305">
                <g id="Grupo_1163948" data-name="Grupo 1163948">
                  <g id="Grupo_1158168" data-name="Grupo 1158168">
                    <g id="Grupo_1152576" data-name="Grupo 1152576">
                      <g id="Grupo_1148633" data-name="Grupo 1148633">
                        <g id="Grupo_1148525" data-name="Grupo 1148525">
                          <g transform="matrix(1, 0, 0, 1, -9, -6)" filter="url(#Trazado_982547)">
                            <g id="Trazado_982547-2" data-name="Trazado 982547" transform="translate(9 6)" fill="#e4ebfb">
                              <path d="M 44 86.5 C 38.26187515258789 86.5 32.69618606567383 85.37651062011719 27.45755004882812 83.16075897216797 C 22.3968505859375 81.020263671875 17.85157585144043 77.95565032958984 13.94796276092529 74.05204010009766 C 10.04434967041016 70.1484375 6.979737281799316 65.6031494140625 4.839250087738037 60.54246139526367 C 2.62348747253418 55.30381393432617 1.5 49.73812484741211 1.5 44 C 1.5 38.26187515258789 2.62348747253418 32.69618606567383 4.839250087738037 27.45755004882812 C 6.979737281799316 22.3968505859375 10.04434967041016 17.85157585144043 13.94796276092529 13.94796276092529 C 17.85157585144043 10.04434967041016 22.3968505859375 6.979737281799316 27.45755004882812 4.839250087738037 C 32.69618606567383 2.62348747253418 38.26187515258789 1.5 44 1.5 C 49.73812484741211 1.5 55.30381393432617 2.62348747253418 60.54246139526367 4.839250087738037 C 65.6031494140625 6.979737281799316 70.1484375 10.04434967041016 74.05204010009766 13.94796276092529 C 77.95565032958984 17.85157585144043 81.020263671875 22.3968505859375 83.16075897216797 27.45755004882812 C 85.37651062011719 32.69618606567383 86.5 38.26187515258789 86.5 44 C 86.5 49.73812484741211 85.37651062011719 55.30381393432617 83.16075897216797 60.54246139526367 C 81.020263671875 65.6031494140625 77.95565032958984 70.1484375 74.05204010009766 74.05204010009766 C 70.1484375 77.95565032958984 65.6031494140625 81.020263671875 60.54246139526367 83.16075897216797 C 55.30381393432617 85.37651062011719 49.73812484741211 86.5 44 86.5 Z" stroke="none"/>
                              <path d="M 44 3 C 38.46371459960938 3 33.09462738037109 4.083610534667969 28.0418701171875 6.220756530761719 C 23.15997314453125 8.285614013671875 18.77495574951172 11.24228668212891 15.00862884521484 15.00862884521484 C 11.24228668212891 18.77495574951172 8.285614013671875 23.15997314453125 6.220756530761719 28.0418701171875 C 4.083610534667969 33.09462738037109 3 38.46371459960938 3 44 C 3 49.53628540039062 4.083610534667969 54.9053840637207 6.220756530761719 59.9581298828125 C 8.285614013671875 64.84002685546875 11.24228668212891 69.22504425048828 15.00862884521484 72.99138641357422 C 18.77495574951172 76.75771331787109 23.15997314453125 79.71438598632812 28.0418701171875 81.77925872802734 C 33.09462738037109 83.9163818359375 38.46371459960938 85 44 85 C 49.53628540039062 85 54.9053840637207 83.9163818359375 59.95814514160156 81.77925872802734 C 64.84002685546875 79.71438598632812 69.22504425048828 76.75771331787109 72.99138641357422 72.99138641357422 C 76.75771331787109 69.22504425048828 79.71438598632812 64.84002685546875 81.77925872802734 59.95814514160156 C 83.9163818359375 54.9053840637207 85 49.53628540039062 85 44 C 85 38.46371459960938 83.9163818359375 33.09462738037109 81.77925872802734 28.0418701171875 C 79.71438598632812 23.15997314453125 76.75771331787109 18.77495574951172 72.99138641357422 15.00862884521484 C 69.22504425048828 11.24228668212891 64.84002685546875 8.285614013671875 59.9581298828125 6.220756530761719 C 54.9053840637207 4.083610534667969 49.53628540039062 3 44 3 M 44 0 C 68.30054473876953 0 88 19.69947052001953 88 44 C 88 68.30054473876953 68.30054473876953 88 44 88 C 19.69947052001953 88 0 68.30054473876953 0 44 C 0 19.69947052001953 19.69947052001953 0 44 0 Z" stroke="none" fill="#0045e0"/>
                            </g>
                          </g>
                        </g>
                      </g>
                    </g>
                  </g>
                </g>
              </g>
            </g>
          </g>
        </g>
      </g>
    </g>
    <g id="proteger_3_" data-name="proteger (3)" transform="translate(643.738 3111.5)">
      <g id="Grupo_1235191" data-name="Grupo 1235191" transform="translate(0.87 0.857)">
        <g id="Grupo_1235188" data-name="Grupo 1235188">
          <path id="Trazado_1253343" data-name="Trazado 1253343" d="M211.013,100.071v5.142h2.571v2.571h5.142v-2.571H221.3v-5.142h-2.571V97.5h-5.142v2.571Z" transform="translate(-187.762 -87.217)" fill="#ff5477" fill-rule="evenodd"/>
          <path id="Trazado_1253344" data-name="Trazado 1253344" d="M158.938,17.784v2.571h2.571V25.5h-2.571v2.571H153.8V25.5h-2.571V20.355H153.8V17.784Zm-2.571,18c12.066-2.057,12.854-14.568,12.854-23.137a32.928,32.928,0,0,1-12-5.141H155.51a32.923,32.923,0,0,1-12,5.141C143.513,21.212,144.3,33.723,156.367,35.78Z" transform="translate(-127.974 -7.501)" fill="#53d8f6" fill-rule="evenodd"/>
          <path id="Trazado_1253345" data-name="Trazado 1253345" d="M156.368,70.6c.448-.076.879-.169,1.3-.274-10.478-2.7-11.519-15.222-11.578-23.513-.91.27-1.777.486-2.574.65C143.514,56.034,144.3,68.545,156.368,70.6Z" transform="translate(-127.975 -42.323)" fill="#2d93f4" fill-rule="evenodd"/>
          <path id="Trazado_1253346" data-name="Trazado 1253346" d="M42.7,265.936l-.248-2.221L20.073,265.2,7.513,275.51v4.253L20.72,284.7l5.495-3.277,26.337-3.181,10.589-12.3c3.44-4-1.552-8.3-4.994-4.306l-7.78,9.023-11.753.87c2.425-.18,4.349-3.213,4.083-5.593Z" transform="translate(-7.513 -231.189)" fill="#00e4be" fill-rule="evenodd"/>
          <path id="Trazado_1253347" data-name="Trazado 1253347" d="M340.115,265.79,332.178,275l5.759-.426,7.78-9.023A3.86,3.86,0,0,0,340.115,265.79Z" transform="translate(-295.082 -235.099)" fill="#00ce86" fill-rule="evenodd"/>
          <path id="Trazado_1253348" data-name="Trazado 1253348" d="M7.513,432.632v8.211h7.712l5.495-3.277Z" transform="translate(-7.513 -384.057)" fill="#ffdaaa" fill-rule="evenodd"/>
          <path id="Trazado_1253349" data-name="Trazado 1253349" d="M7.513,467.587v2.571h7.712l5.495-3.277-3.086-1.153-3.117,1.859Z" transform="translate(-7.513 -413.372)" fill="#ffb680" fill-rule="evenodd"/>
          <path id="Trazado_1253350" data-name="Trazado 1253350" d="M99.183,294.687l5.495-3.277,26.337-3.181,10.589-12.3c1.466-1.7,1.4-3.461.576-4.609L129.717,285.8l-29.35,3.521,1.142.989L96.1,293.534Z" transform="translate(-85.976 -241.178)" fill="#00ce86" fill-rule="evenodd"/>
        </g>
        <g id="Grupo_1235189" data-name="Grupo 1235189" transform="translate(28.701 3.668)">
          <path id="Trazado_1253351" data-name="Trazado 1253351" d="M263.853,43.029h-1.714V41.315h1.714Zm-3.428-1.714h-1.714V39.6h1.714Z" transform="translate(-258.711 -39.601)" fill="#fff"/>
        </g>
        <g id="Grupo_1235190" data-name="Grupo 1235190" transform="translate(6.113 4.774)">
          <path id="Trazado_1253352" data-name="Trazado 1253352" d="M104.4,66.3l-4.285-1.714L100.751,63l4.285,1.714Zm-42.21,0-.636-1.591L65.837,63l.636,1.591Zm43.385-7.651h-5.142V56.938h5.142Zm-39.419,0H61.014V56.938h5.142Zm34.6-6.06L100.115,51l4.285-1.714.636,1.591Zm-34.914,0-4.285-1.714.636-1.591L66.474,51Z" transform="translate(-61.014 -49.287)" fill="#53d8f6"/>
        </g>
      </g>
      <g id="Grupo_1235192" data-name="Grupo 1235192" transform="translate(0.013 0)">
        <path id="Trazado_1253353" data-name="Trazado 1253353" d="M206.084,90v2.571h-2.571v6.855h2.571V102h6.855V99.426h2.571V92.571h-2.571V90Zm7.712,4.285v3.428h-2.571v2.571H207.8V97.712h-2.571V94.285H207.8V91.714h3.428v2.571Z" transform="translate(-180.262 -79.717)"/>
        <path id="Trazado_1253354" data-name="Trazado 1253354" d="M57.141,253.531a4.219,4.219,0,0,0-5.707.339,4.717,4.717,0,0,0-6.18.837l-7.705,8.937-2.1.155a6.47,6.47,0,0,0,1.453-4.571l-.339-3.035L13.1,257.753.013,268.492v13.727H8.818l11.037-6.582,10.436-1.26-.206-1.7-10.409,1.257-4.661-1.743-.6,1.605,3.185,1.191-3.609,2.153L1.727,272.557V269.3l12.034-9.876,21.284-1.415.157,1.407a4.791,4.791,0,0,1-1.139,3.371,3.218,3.218,0,0,1-2.156,1.272l-10.243.758.126,1.709,22.351-1.654,8.012-9.292c1.4-1.62,2.95-1.546,3.869-.754s1.223,2.319-.173,3.941L45.476,270.817,35.19,272.059l.206,1.7,10.946-1.322,10.806-12.55C59.209,257.495,58.7,254.878,57.141,253.531ZM12.106,278.264l-3.759,2.242H1.727v-6.12Zm31.2-15.045-3.342.247,6.586-7.639a2.961,2.961,0,0,1,2.135-1.031q.069,0,.137,0a2.97,2.97,0,0,1,1.434.364Z" transform="translate(-0.013 -223.719)"/>
        <path id="Trazado_1253355" data-name="Trazado 1253355" d="M0,0H1.714V1.714H0Z" transform="translate(31.784 48.759) rotate(-6.891)"/>
        <path id="Trazado_1253356" data-name="Trazado 1253356" d="M149.582,29.981l.144.025.144-.025a14.38,14.38,0,0,0,11.608-9.665C163.2,15.8,163.437,10.547,163.437,6V5.3l-.684-.141a32.368,32.368,0,0,1-11.668-5L150.86,0h-2.268l-.225.162a27.756,27.756,0,0,1-4.8,2.743l.706,1.562a29.739,29.739,0,0,0,4.874-2.753h1.165a34.136,34.136,0,0,0,11.413,4.973c-.025,4.226-.3,8.986-1.844,13.016-1.864,4.872-5.186,7.674-10.151,8.563-4.966-.889-8.287-3.691-10.151-8.563-1.542-4.029-1.819-8.789-1.844-13.015a35.255,35.255,0,0,0,4.889-1.525l-.626-1.6A32.908,32.908,0,0,1,136.7,5.159l-.684.141V6c0,4.548.233,9.806,1.959,14.317a14.38,14.38,0,0,0,11.608,9.665Z" transform="translate(-120.476 0)"/>
      </g>
    </g>
  </g>
</svg>
