<svg xmlns="http://www.w3.org/2000/svg" xmlns:xlink="http://www.w3.org/1999/xlink" width="113" height="113" viewBox="0 0 113 113">
  <defs>
    <filter id="Trazado_982547" x="0" y="0" width="113" height="113" filterUnits="userSpaceOnUse">
      <feOffset dy="3" input="SourceAlpha"/>
      <feGaussianBlur stdDeviation="3" result="blur"/>
      <feFlood flood-opacity="0.161"/>
      <feComposite operator="in" in2="blur"/>
      <feComposite in="SourceGraphic"/>
    </filter>
  </defs>
  <g id="Grupo_1235198" data-name="Grupo 1235198" transform="translate(-271.424 -4103.5)">
    <g id="Grupo_1234671" data-name="Grupo 1234671" transform="translate(0 -5879.346)">
      <g id="Grupo_1231178" data-name="Grupo 1231178" transform="translate(0 4365)">
        <g id="Grupo_1230686" data-name="Grupo 1230686" transform="translate(0 -2146.377)">
          <g id="Grupo_1229014" data-name="Grupo 1229014" transform="translate(0 2131.042)">
            <g id="Grupo_1227502" data-name="Grupo 1227502" transform="translate(0 2048.198)">
              <g id="Grupo_1225350" data-name="Grupo 1225350" transform="translate(-0.575 -393.641)">
                <g id="Grupo_1208121" data-name="Grupo 1208121" transform="translate(0 -1922.377)">
                  <g id="Grupo_1202432" data-name="Grupo 1202432" transform="translate(0 1255.486)">
                    <g id="Grupo_1202055" data-name="Grupo 1202055" transform="translate(0 3240.511)">
                      <g id="Grupo_1177900" data-name="Grupo 1177900" transform="translate(281 1411.003)">
                        <g id="Grupo_1172010" data-name="Grupo 1172010" transform="translate(0)">
                          <g id="Grupo_1171046" data-name="Grupo 1171046">
                            <g id="Grupo_1148525" data-name="Grupo 1148525">
                              <g transform="matrix(1, 0, 0, 1, -9, -6)" filter="url(#Trazado_982547)">
                                <g id="Trazado_982547-2" data-name="Trazado 982547" transform="translate(9 6)" fill="#d6ccfe">
                                  <path d="M 47.5 93.5 C 41.28937149047852 93.5 35.26533508300781 92.28397369384766 29.59518623352051 89.88570404052734 C 24.11771965026855 87.56893157958984 19.19813346862793 84.25196075439453 14.97309303283691 80.02691650390625 C 10.74804019927979 75.80186462402344 7.431066513061523 70.88229370117188 5.114293098449707 65.40481567382812 C 2.716026782989502 59.73468017578125 1.5 53.71062850952148 1.5 47.5 C 1.5 41.28937149047852 2.716026782989502 35.26533508300781 5.114293098449707 29.59518623352051 C 7.431066513061523 24.11771965026855 10.74804019927979 19.19813346862793 14.97309303283691 14.97309303283691 C 19.19813346862793 10.74804019927979 24.11771965026855 7.431066513061523 29.59518623352051 5.114293098449707 C 35.26533508300781 2.716026782989502 41.28937149047852 1.5 47.5 1.5 C 53.71062850952148 1.5 59.73468017578125 2.716026782989502 65.40481567382812 5.114293098449707 C 70.88229370117188 7.431066513061523 75.80186462402344 10.74804019927979 80.02691650390625 14.97309303283691 C 84.25196075439453 19.19813346862793 87.56893157958984 24.11771965026855 89.88570404052734 29.59518623352051 C 92.28397369384766 35.26533508300781 93.5 41.28937149047852 93.5 47.5 C 93.5 53.71062850952148 92.28397369384766 59.73468017578125 89.88570404052734 65.40481567382812 C 87.56893157958984 70.88229370117188 84.25196075439453 75.80186462402344 80.02691650390625 80.02691650390625 C 75.80186462402344 84.25196075439453 70.88229370117188 87.56893157958984 65.40481567382812 89.88570404052734 C 59.73468017578125 92.28397369384766 53.71062850952148 93.5 47.5 93.5 Z" stroke="none"/>
                                  <path d="M 47.5 3 C 41.49121475219727 3 35.66376876831055 4.176155090332031 30.17950439453125 6.495796203613281 C 24.88084411621094 8.736953735351562 20.12152099609375 11.94598388671875 16.03375244140625 16.03375244140625 C 11.94598388671875 20.12152099609375 8.736953735351562 24.88084411621094 6.495796203613281 30.17950439453125 C 4.176155090332031 35.66376876831055 3 41.49121475219727 3 47.5 C 3 53.50878524780273 4.176155090332031 59.33623123168945 6.495796203613281 64.82049560546875 C 8.736953735351562 70.11915588378906 11.94598388671875 74.87847900390625 16.03375244140625 78.96624755859375 C 20.12152099609375 83.05401611328125 24.88084411621094 86.26304626464844 30.17950439453125 88.50419616699219 C 35.66376876831055 90.82384490966797 41.49121475219727 92 47.5 92 C 53.50878524780273 92 59.33623123168945 90.82384490966797 64.82049560546875 88.50419616699219 C 70.11915588378906 86.26304626464844 74.87847900390625 83.05401611328125 78.96624755859375 78.96624755859375 C 83.05401611328125 74.87847900390625 86.26304626464844 70.11915588378906 88.50419616699219 64.82049560546875 C 90.82384490966797 59.33623123168945 92 53.50878524780273 92 47.5 C 92 41.49121475219727 90.82384490966797 35.66376876831055 88.50419616699219 30.17950439453125 C 86.26304626464844 24.88084411621094 83.05401611328125 20.12152099609375 78.96624755859375 16.03375244140625 C 74.87847900390625 11.94598388671875 70.11915588378906 8.736953735351562 64.82049560546875 6.495796203613281 C 59.33623123168945 4.176155090332031 53.50878524780273 3 47.5 3 M 47.5 0 C 73.7335205078125 0 95 21.2664794921875 95 47.5 C 95 73.7335205078125 73.7335205078125 95 47.5 95 C 21.2664794921875 95 0 73.7335205078125 0 47.5 C 0 21.2664794921875 21.2664794921875 0 47.5 0 Z" stroke="none" fill="#7958fb"/>
                                </g>
                              </g>
                            </g>
                          </g>
                        </g>
                      </g>
                    </g>
                  </g>
                </g>
              </g>
            </g>
          </g>
        </g>
      </g>
    </g>
    <g id="skin-rash_11009184" transform="translate(288.725 4095.11)">
      <g id="Grupo_1235195" data-name="Grupo 1235195" transform="translate(7.5 33.508)">
        <g id="Grupo_1235194" data-name="Grupo 1235194" transform="translate(0 0)">
          <path id="Trazado_1253357" data-name="Trazado 1253357" d="M66.523,58.884l-9.7,4.522a.663.663,0,0,1-.905-.353.649.649,0,0,1,.237-.755l13.538-9.479a2.821,2.821,0,0,0,.477-4.2L70.16,48.6a2.82,2.82,0,0,0-3.713-.422L54.263,56.714a.715.715,0,0,1-.973-.129.7.7,0,0,1,.058-.923l12.58-12.58a2.821,2.821,0,0,0,.022-3.968l-.011-.011a2.824,2.824,0,0,0-4.015-.022L49.274,51.73a.752.752,0,0,1-.835.169.728.728,0,0,1-.3-1.081l9.008-12.865a2.821,2.821,0,1,0-4.659-3.183l-10.431,14.9a15.521,15.521,0,0,1-5.225,4.692l-1.146.631L37.5,47.754a4.539,4.539,0,0,0-3.625-5.575h0a1.89,1.89,0,0,0-2.159,1.413l-3.733,15.28a4.131,4.131,0,0,0-.116.847l-.245,7.49A7.689,7.689,0,0,1,25.377,72.4L7.5,90.272H33.193l7.179-7.179L54.288,71.638a22.99,22.99,0,0,1,4.9-3.086l9.8-4.569A2.83,2.83,0,0,0,70.291,60.1,2.934,2.934,0,0,0,66.523,58.884Z" transform="translate(-7.5 -33.509)" fill="#ffdfd0"/>
          <path id="Trazado_1253358" data-name="Trazado 1253358" d="M167.455,182.734l-1.546,6.328a4.14,4.14,0,0,0-.116.847l-.2,6.23,3.331-1.177a1.276,1.276,0,0,0,.85-1.2v-3.734a1.276,1.276,0,0,1,.148-.6l1.062-2.006a1.275,1.275,0,0,0-.241-1.514Z" transform="translate(-145.423 -163.699)" fill="#fb8189"/>
          <path id="Trazado_1253359" data-name="Trazado 1253359" d="M255.288,239.117l-2.62,1.734a1.276,1.276,0,0,1-.7.212h-5.2a10.344,10.344,0,0,0-.54-8.984l-.421-.753,3.053-.217a1.275,1.275,0,0,1,1.213.667l1.13,2.094a1.275,1.275,0,0,0,.687.593l2.654.966a1.275,1.275,0,0,1,.772.789l.484,1.426A1.276,1.276,0,0,1,255.288,239.117Z" transform="translate(-215.402 -205.9)" fill="#fb8189"/>
          <path id="Trazado_1253360" data-name="Trazado 1253360" d="M215.438,238.467l-9.8,4.57a22.94,22.94,0,0,0-4.895,3.086l-13.916,11.455-7.179,7.179h-4.28l10.137-10.139,13.916-11.455a23.03,23.03,0,0,1,4.9-3.086l9.8-4.569a2.824,2.824,0,0,0,1.578-2,2.713,2.713,0,0,1,1.051,1.078A2.829,2.829,0,0,1,215.438,238.467Z" transform="translate(-153.956 -207.994)" fill="#ffcec0"/>
          <path id="Trazado_1253361" data-name="Trazado 1253361" d="M46.733,359.954l-5.855-2.964a1.275,1.275,0,0,0-1-.065l-5.189,1.829a1.277,1.277,0,0,0-.581.417l-4.006,5.12a1.276,1.276,0,0,1-.8.473l-3.247.53a1.275,1.275,0,0,1-1.238-.51l-1.8-2.48a1.276,1.276,0,0,0-1.114-.524l-4.074.259L7.5,372.369H33.193l7.179-7.179Z" transform="translate(-7.5 -315.606)" fill="#fb8189"/>
          <path id="Trazado_1253362" data-name="Trazado 1253362" d="M190.149,369.088l-4.638,3.818-10.137,10.138h4.279l7.179-7.179,6.361-5.236Z" transform="translate(-153.961 -326.281)" fill="#fb4a59"/>
        </g>
      </g>
      <g id="Grupo_1235197" data-name="Grupo 1235197" transform="translate(7.5 33.508)">
        <g id="Grupo_1235196" data-name="Grupo 1235196" transform="translate(0 0)">
          <path id="Trazado_1253363" data-name="Trazado 1253363" d="M165.588,196.137l3.33-1.177a1.276,1.276,0,0,0,.85-1.2v-3.734a1.276,1.276,0,0,1,.148-.6l1.062-2.006a1.275,1.275,0,0,0-.241-1.514l-3.284-3.174" transform="translate(-145.422 -163.698)" fill="none" stroke="#000" stroke-linecap="round" stroke-linejoin="round" stroke-miterlimit="10" stroke-width="1.5"/>
          <path id="Trazado_1253364" data-name="Trazado 1253364" d="M245.8,231.325l3.053-.217a1.275,1.275,0,0,1,1.213.667l1.13,2.094a1.275,1.275,0,0,0,.687.593l2.654.965a1.275,1.275,0,0,1,.772.789l.484,1.426a1.276,1.276,0,0,1-.5,1.474l-2.62,1.734a1.276,1.276,0,0,1-.7.212h-5.2" transform="translate(-215.402 -205.899)" fill="none" stroke="#000" stroke-linecap="round" stroke-linejoin="round" stroke-miterlimit="10" stroke-width="1.5"/>
          <path id="Trazado_1253365" data-name="Trazado 1253365" d="M228.491,201.9l2.629,4.7a10.345,10.345,0,0,1-.495,10.9h0" transform="translate(-200.301 -180.423)" fill="none" stroke="#000" stroke-linecap="round" stroke-linejoin="round" stroke-miterlimit="10" stroke-width="1.5"/>
          <path id="Trazado_1253366" data-name="Trazado 1253366" d="M208.918,380.392l7.179-7.179,8.7-7.164" transform="translate(-183.225 -323.63)" fill="none" stroke="#000" stroke-linecap="round" stroke-linejoin="round" stroke-miterlimit="10" stroke-width="1.5"/>
          <line id="Línea_839" data-name="Línea 839" x1="4.343" y2="4.343" transform="translate(0 52.419)" fill="none" stroke="#000" stroke-linecap="round" stroke-linejoin="round" stroke-miterlimit="10" stroke-width="1.5"/>
          <path id="Trazado_1253367" data-name="Trazado 1253367" d="M97.089,101.533l-5.069,7.239a15.521,15.521,0,0,1-5.225,4.692l-1.146.631,1.813-7.236a4.539,4.539,0,0,0-3.625-5.575h0a1.89,1.89,0,0,0-2.16,1.413l-3.733,15.28a4.139,4.139,0,0,0-.116.847l-.245,7.49a7.689,7.689,0,0,1-2.248,5.186L64.765,142.073" transform="translate(-57.46 -92.615)" fill="none" stroke="#000" stroke-linecap="round" stroke-linejoin="round" stroke-miterlimit="10" stroke-width="1.5"/>
          <path id="Trazado_1253368" data-name="Trazado 1253368" d="M329.364,73.275l1.99-1.638a22.99,22.99,0,0,1,4.9-3.086l9.8-4.569a2.83,2.83,0,0,0,1.308-3.883,2.934,2.934,0,0,0-3.768-1.216l-9.7,4.522a.663.663,0,0,1-.905-.353.649.649,0,0,1,.237-.755l13.538-9.479a2.821,2.821,0,0,0,.477-4.2l-.012-.014a2.82,2.82,0,0,0-3.713-.422l-12.183,8.531a.715.715,0,0,1-.973-.129.7.7,0,0,1,.058-.923l12.58-12.58a2.821,2.821,0,0,0,.022-3.968L343,39.1a2.824,2.824,0,0,0-4.015-.022L326.34,51.73a.752.752,0,0,1-.835.169.728.728,0,0,1-.3-1.081l9.008-12.865a2.821,2.821,0,1,0-4.659-3.183L326.6,38.994" transform="translate(-284.566 -33.508)" fill="none" stroke="#000" stroke-linecap="round" stroke-linejoin="round" stroke-miterlimit="10" stroke-width="1.5"/>
        </g>
        <path id="Trazado_1253369" data-name="Trazado 1253369" d="M117.39,359.954l-5.855-2.964a1.275,1.275,0,0,0-1-.065l-5.189,1.829a1.277,1.277,0,0,0-.581.417l-4.006,5.12a1.276,1.276,0,0,1-.8.473l-3.247.53a1.275,1.275,0,0,1-1.238-.51l-1.8-2.48a1.276,1.276,0,0,0-1.114-.524l-4.074.259" transform="translate(-78.157 -315.606)" fill="none" stroke="#000" stroke-linecap="round" stroke-linejoin="round" stroke-miterlimit="10" stroke-width="1.5"/>
        <line id="Línea_840" data-name="Línea 840" x2="0.737" transform="translate(23.673 38.787)" fill="none" stroke="#000" stroke-linecap="round" stroke-linejoin="round" stroke-miterlimit="10" stroke-width="1.5"/>
        <line id="Línea_841" data-name="Línea 841" x2="0.737" transform="translate(41.154 25.206)" fill="none" stroke="#000" stroke-linecap="round" stroke-linejoin="round" stroke-miterlimit="10" stroke-width="1.5"/>
        <line id="Línea_842" data-name="Línea 842" x2="0.737" transform="translate(9.962 52.303)" fill="none" stroke="#000" stroke-linecap="round" stroke-linejoin="round" stroke-miterlimit="10" stroke-width="1.5"/>
        <line id="Línea_843" data-name="Línea 843" x2="0.737" transform="translate(37.468 38.234)" fill="none" stroke="#000" stroke-linecap="round" stroke-linejoin="round" stroke-miterlimit="10" stroke-width="1.5"/>
        <line id="Línea_844" data-name="Línea 844" x2="0.737" transform="translate(39.233 22.262)" fill="none" stroke="#000" stroke-linecap="round" stroke-linejoin="round" stroke-miterlimit="10" stroke-width="1.5"/>
        <line id="Línea_845" data-name="Línea 845" x2="0.737" transform="translate(24.968 35.654)" fill="none" stroke="#000" stroke-linecap="round" stroke-linejoin="round" stroke-miterlimit="10" stroke-width="1.5"/>
      </g>
    </g>
  </g>
</svg>
