<svg xmlns="http://www.w3.org/2000/svg" xmlns:xlink="http://www.w3.org/1999/xlink" width="113" height="113" viewBox="0 0 113 113">
  <defs>
    <filter id="Trazado_982547" x="0" y="0" width="113" height="113" filterUnits="userSpaceOnUse">
      <feOffset dy="3" input="SourceAlpha"/>
      <feGaussianBlur stdDeviation="3" result="blur"/>
      <feFlood flood-opacity="0.161"/>
      <feComposite operator="in" in2="blur"/>
      <feComposite in="SourceGraphic"/>
    </filter>
  </defs>
  <g id="Grupo_1235200" data-name="Grupo 1235200" transform="translate(-586 -4103.518)">
    <g id="Grupo_1234672" data-name="Grupo 1234672" transform="translate(0 -5879.346)">
      <g id="Grupo_1231174" data-name="Grupo 1231174" transform="translate(0 4365)">
        <g id="Grupo_1230687" data-name="Grupo 1230687" transform="translate(0 -2146.377)">
          <g id="Grupo_1229015" data-name="Grupo 1229015" transform="translate(1 2131.042)">
            <g id="Grupo_1227503" data-name="Grupo 1227503" transform="translate(0 2048.198)">
              <g id="Grupo_1225351" data-name="Grupo 1225351" transform="translate(-1 -393.91)">
                <g id="Grupo_1208122" data-name="Grupo 1208122" transform="translate(0 -1922.377)">
                  <g id="Grupo_1202433" data-name="Grupo 1202433" transform="translate(-0.56 1255.773)">
                    <g id="Grupo_1202054" data-name="Grupo 1202054" transform="translate(0 3240.511)">
                      <g id="Grupo_1177897" data-name="Grupo 1177897" transform="translate(595.561 1411.003)">
                        <g id="Grupo_1172010" data-name="Grupo 1172010" transform="translate(0)">
                          <g id="Grupo_1171046" data-name="Grupo 1171046">
                            <g id="Grupo_1148525" data-name="Grupo 1148525">
                              <g transform="matrix(1, 0, 0, 1, -9, -6)" filter="url(#Trazado_982547)">
                                <g id="Trazado_982547-2" data-name="Trazado 982547" transform="translate(9 6)" fill="#d6ccfe">
                                  <path d="M 47.5 93.5 C 41.28937149047852 93.5 35.26533508300781 92.28397369384766 29.59518623352051 89.88570404052734 C 24.11771965026855 87.56893157958984 19.19813346862793 84.25196075439453 14.97309303283691 80.02691650390625 C 10.74804019927979 75.80186462402344 7.431066513061523 70.88229370117188 5.114293098449707 65.40481567382812 C 2.716026782989502 59.73468017578125 1.5 53.71062850952148 1.5 47.5 C 1.5 41.28937149047852 2.716026782989502 35.26533508300781 5.114293098449707 29.59518623352051 C 7.431066513061523 24.11771965026855 10.74804019927979 19.19813346862793 14.97309303283691 14.97309303283691 C 19.19813346862793 10.74804019927979 24.11771965026855 7.431066513061523 29.59518623352051 5.114293098449707 C 35.26533508300781 2.716026782989502 41.28937149047852 1.5 47.5 1.5 C 53.71062850952148 1.5 59.73468017578125 2.716026782989502 65.40481567382812 5.114293098449707 C 70.88229370117188 7.431066513061523 75.80186462402344 10.74804019927979 80.02691650390625 14.97309303283691 C 84.25196075439453 19.19813346862793 87.56893157958984 24.11771965026855 89.88570404052734 29.59518623352051 C 92.28397369384766 35.26533508300781 93.5 41.28937149047852 93.5 47.5 C 93.5 53.71062850952148 92.28397369384766 59.73468017578125 89.88570404052734 65.40481567382812 C 87.56893157958984 70.88229370117188 84.25196075439453 75.80186462402344 80.02691650390625 80.02691650390625 C 75.80186462402344 84.25196075439453 70.88229370117188 87.56893157958984 65.40481567382812 89.88570404052734 C 59.73468017578125 92.28397369384766 53.71062850952148 93.5 47.5 93.5 Z" stroke="none"/>
                                  <path d="M 47.5 3 C 41.49121475219727 3 35.66376876831055 4.176155090332031 30.17950439453125 6.495796203613281 C 24.88084411621094 8.736953735351562 20.12152099609375 11.94598388671875 16.03375244140625 16.03375244140625 C 11.94598388671875 20.12152099609375 8.736953735351562 24.88084411621094 6.495796203613281 30.17950439453125 C 4.176155090332031 35.66376876831055 3 41.49121475219727 3 47.5 C 3 53.50878524780273 4.176155090332031 59.33623123168945 6.495796203613281 64.82049560546875 C 8.736953735351562 70.11915588378906 11.94598388671875 74.87847900390625 16.03375244140625 78.96624755859375 C 20.12152099609375 83.05401611328125 24.88084411621094 86.26304626464844 30.17950439453125 88.50419616699219 C 35.66376876831055 90.82384490966797 41.49121475219727 92 47.5 92 C 53.50878524780273 92 59.33623123168945 90.82384490966797 64.82049560546875 88.50419616699219 C 70.11915588378906 86.26304626464844 74.87847900390625 83.05401611328125 78.96624755859375 78.96624755859375 C 83.05401611328125 74.87847900390625 86.26304626464844 70.11915588378906 88.50419616699219 64.82049560546875 C 90.82384490966797 59.33623123168945 92 53.50878524780273 92 47.5 C 92 41.49121475219727 90.82384490966797 35.66376876831055 88.50419616699219 30.17950439453125 C 86.26304626464844 24.88084411621094 83.05401611328125 20.12152099609375 78.96624755859375 16.03375244140625 C 74.87847900390625 11.94598388671875 70.11915588378906 8.736953735351562 64.82049560546875 6.495796203613281 C 59.33623123168945 4.176155090332031 53.50878524780273 3 47.5 3 M 47.5 0 C 73.7335205078125 0 95 21.2664794921875 95 47.5 C 95 73.7335205078125 73.7335205078125 95 47.5 95 C 21.2664794921875 95 0 73.7335205078125 0 47.5 C 0 21.2664794921875 21.2664794921875 0 47.5 0 Z" stroke="none" fill="#7958fb"/>
                                </g>
                              </g>
                            </g>
                          </g>
                        </g>
                      </g>
                    </g>
                  </g>
                </g>
              </g>
            </g>
          </g>
        </g>
      </g>
    </g>
    <g id="Monkey_Virus" data-name="Monkey Virus" transform="translate(610.835 4125.857)">
      <path id="Trazado_1253370" data-name="Trazado 1253370" d="M52.763,36.489C41.518,30,28.74,42.41,34.8,53.786,16.936,56.837.224,43.943,7.834,30.866c2.48-4.324,2.078-.39,2.078-7.791A19.479,19.479,0,0,1,23.263,4.583L24.2,3.6v3.9L30.688,1V6.194l6.493-3.9V5.22a19.556,19.556,0,0,1,11.1,13.141c.727,2.818.584,4.662.584,9.674A13.933,13.933,0,0,1,52.763,36.489Z" transform="translate(1.776 0.304)" fill="#a87e6b"/>
      <path id="Trazado_1253371" data-name="Trazado 1253371" d="M51.852,36.489a12.985,12.985,0,0,0-19.27,13.583A30.983,30.983,0,0,1,14.9,47.2,11.064,11.064,0,0,1,9,37.359c0-6.493,3.9-6.765,3.9-14.284A19.478,19.478,0,0,1,23.284,5.857V7.493L29.777,1V6.194l6.493-3.9V5.22a19.556,19.556,0,0,1,11.1,13.141c.727,2.818.584,4.662.584,9.674A13.946,13.946,0,0,1,51.852,36.489Z" transform="translate(2.687 0.304)" fill="#be927c"/>
      <path id="Trazado_1253372" data-name="Trazado 1253372" d="M33.463,50.67C16.582,54.566,3.4,40.191,13.855,30.387V18.142a7.142,7.142,0,0,1,14.284,0,7.142,7.142,0,1,1,14.284,0V30.387a12.763,12.763,0,0,1,1.3,1.454A12.985,12.985,0,0,0,33.463,50.67Z" transform="translate(3.026 3.289)" fill="#f6ccaf"/>
      <path id="Trazado_1253373" data-name="Trazado 1253373" d="M43.123,31.842A13.018,13.018,0,0,0,31.618,47.047c-7.791,1.3-19.478-1.584-19.478-8.713a10.843,10.843,0,0,1,3.714-7.947V18.142A7.142,7.142,0,0,1,21.7,11.117a7.142,7.142,0,0,1,5.843,7.025,7.142,7.142,0,1,1,14.284,0V30.387a12.765,12.765,0,0,1,1.3,1.454Z" transform="translate(3.624 3.289)" fill="#ffdec7"/>
      <path id="Trazado_1253374" data-name="Trazado 1253374" d="M13.9,10.824c-2.883,5.09-2.506,9.064-2.506,14.518a16.219,16.219,0,0,0-2.078,2.831A9.09,9.09,0,1,1,13.9,10.862Z" transform="translate(0.297 2.998)" fill="#a87e6b"/>
      <path id="Trazado_1253375" data-name="Trazado 1253375" d="M10.78,14.482a25.218,25.218,0,0,0-.584,7.077,3.9,3.9,0,1,1,.584-7.077Z" transform="translate(1.491 4.183)" fill="#a07765"/>
      <path id="Trazado_1253376" data-name="Trazado 1253376" d="M49.964,19.091a9.09,9.09,0,0,1-8.311,9.09,16.218,16.218,0,0,0-2.078-2.831c0-5.506.39-9.4-2.506-14.518a9.09,9.09,0,0,1,12.894,8.259Z" transform="translate(11.067 2.99)" fill="#a87e6b"/>
      <path id="Trazado_1253377" data-name="Trazado 1253377" d="M49.187,16.393c1.052,3.662-.364,7.57-2.078,8.778-2.48,1.779-4.493,1.493-5.83-.195-2.091-2.688.922-7.181-2.909-14.712a8.986,8.986,0,0,1,10.817,6.129Z" transform="translate(11.455 2.986)" fill="#be927c"/>
      <path id="Trazado_1253378" data-name="Trazado 1253378" d="M44.328,17.9a3.9,3.9,0,0,1-5.194,3.662,25.893,25.893,0,0,0-.584-7.077A3.9,3.9,0,0,1,44.328,17.9Z" transform="translate(11.509 4.183)" fill="#a07765"/>
      <path id="Trazado_1253379" data-name="Trazado 1253379" d="M42.985,18.894a4.013,4.013,0,0,1-.571,2.039,3.9,3.9,0,0,1-3.324.325,27.139,27.139,0,0,0-.39-6.233,3.9,3.9,0,0,1,4.285,3.87Z" transform="translate(11.553 4.485)" fill="#a87e6b"/>
      <path id="Trazado_1253380" data-name="Trazado 1253380" d="M52.971,39.985c0,13.336-18.18,18.1-24.477,6.038A12.778,12.778,0,0,1,27,39.985a12.985,12.985,0,0,1,25.971,0Z" transform="translate(8.061 8.066)" fill="#dad7e5"/>
      <path id="Trazado_1253381" data-name="Trazado 1253381" d="M52.971,39.985c0,13.336-18.18,18.1-24.477,6.038A12.778,12.778,0,0,1,27,39.985a12.985,12.985,0,0,1,25.971,0Z" transform="translate(8.061 8.066)" fill="#dad7e5"/>
      <path id="Trazado_1253382" data-name="Trazado 1253382" d="M29.09,42.512a28.047,28.047,0,0,1-3.519.39A12.985,12.985,0,0,1,25,39.071c4.623-.364,1.6-1.234,4.09,3.441Z" transform="translate(7.464 11.577)" fill="#a07765"/>
      <path id="Trazado_1253383" data-name="Trazado 1253383" d="M27.792,39.02A21.5,21.5,0,0,1,25,39.358a8.615,8.615,0,0,1,.065-1.3c3.233-.143,2.454-.545,2.6.091a8.142,8.142,0,0,0,.13.87Z" transform="translate(7.464 11.29)" fill="#a07765"/>
      <path id="Trazado_1253384" data-name="Trazado 1253384" d="M27.558,37.194c-.208-.065-.675.1-2.078.221A12.985,12.985,0,0,1,30.051,31a14.556,14.556,0,0,0-2.493,6.194Z" transform="translate(7.607 9.26)" fill="#a07765"/>
      <path id="Trazado_1253385" data-name="Trazado 1253385" d="M27.6,38.37a23.853,23.853,0,0,1-2.6.26,12.687,12.687,0,0,1,.558-2.6C28.9,35.708,27.259,35.072,27.6,38.37Z" transform="translate(7.464 10.681)" fill="#a07765"/>
      <path id="Trazado_1253386" data-name="Trazado 1253386" d="M52.374,39.985a12.985,12.985,0,0,1-2.6,7.791A12.985,12.985,0,0,1,31.6,29.6,12.985,12.985,0,0,1,52.374,39.985Z" transform="translate(8.658 8.066)" fill="#edebf2"/>
      <circle id="Elipse_14656" data-name="Elipse 14656" cx="5.194" cy="5.194" r="5.194" transform="translate(42.852 42.857)" fill="#9dcc6b"/>
      <g id="Grupo_1235199" data-name="Grupo 1235199" transform="translate(0 -0.017)">
        <path id="Trazado_1253387" data-name="Trazado 1253387" d="M26.3,25a1.3,1.3,0,1,0,1.3,1.3A1.3,1.3,0,0,0,26.3,25Z" transform="translate(7.464 7.485)" fill="#231f20"/>
        <path id="Trazado_1253388" data-name="Trazado 1253388" d="M22.3,25a1.3,1.3,0,1,0,1.3,1.3A1.3,1.3,0,0,0,22.3,25Z" transform="translate(6.27 7.485)" fill="#231f20"/>
        <path id="Trazado_1253389" data-name="Trazado 1253389" d="M23.791,21.3a1.3,1.3,0,1,0-2.6,0,1.3,1.3,0,1,1-2.6,0,1.3,1.3,0,1,0-2.6,0,3.9,3.9,0,1,0,7.791,0Z" transform="translate(4.777 5.993)" fill="#231f20"/>
        <path id="Trazado_1253390" data-name="Trazado 1253390" d="M33.791,21.3a1.3,1.3,0,1,0-2.6,0,1.3,1.3,0,1,1-2.6,0,1.3,1.3,0,1,0-2.6,0,3.9,3.9,0,1,0,7.791,0Z" transform="translate(7.762 5.993)" fill="#231f20"/>
        <path id="Trazado_1253391" data-name="Trazado 1253391" d="M55.733,36.027a14.1,14.1,0,0,0-1.078-3.9,10.394,10.394,0,1,0-5.986-19.907,20.491,20.491,0,0,0-8.415-7.506c0-2.117.169-2.779-.662-3.246S38.541,1.3,33.762,4.2c0-2.74.247-3.662-.805-4.09s-1.182.039-5.688,4.558V3.9a1.305,1.305,0,0,0-2.6-.26A20.608,20.608,0,0,0,13.6,12.211,10.381,10.381,0,1,0,7.674,32.1C1.636,46,18.66,57.933,35.879,55.479c7.545,12.3,26.451,6.856,26.451-7.428a14.284,14.284,0,0,0-6.6-12.024ZM51.578,19.483a2.609,2.609,0,1,1,.364,5.194,24.035,24.035,0,0,0-.364-5.194Zm8.155,2.6A7.7,7.7,0,0,1,53.357,29.7c-1.6-2.428-1.415-1.325-1.415-2.428a5.194,5.194,0,0,0,0-10.388c-1.61,0-.493.831-1.987-2.337a7.791,7.791,0,0,1,9.778,7.532Zm-49.344,2.6a2.61,2.61,0,1,1,.377-5.194,23.166,23.166,0,0,0-.377,5.194ZM2.6,22.08a7.791,7.791,0,0,1,9.765-7.532c-1.48,3.155-.377,2.337-1.974,2.337a5.194,5.194,0,0,0,0,10.388c0,1.065.117.117-1.415,2.428A7.7,7.7,0,0,1,2.6,22.08ZM9.09,37.663a12.985,12.985,0,0,1,3.649-8.6c.312-.493.247-.234.247-5.688A18.18,18.18,0,0,1,24.672,6.407V7.8a1.3,1.3,0,0,0,2.22.922l4.272-4.285V6.5a1.3,1.3,0,0,0,1.961,1.117L37.658,4.9v3.22a1.3,1.3,0,0,0,2.6,0V7.653c11.778,6.817,8.505,19.478,9.181,21.153.26.662,2.363,2.272,3.363,5.791a14.063,14.063,0,0,0-4.753-.831c-.974,0-.429.247-1.3-.623V21.457a8.44,8.44,0,0,0-15.582-4.48,8.44,8.44,0,0,0-15.582,4.454V33.118c-3.636,3.7-4.831,8.687-2.493,13.388a12.661,12.661,0,0,1-4-8.843Zm24.75,8.921a21.893,21.893,0,0,1-12.466-2.078,1.3,1.3,0,0,0-1.195,2.311,24.374,24.374,0,0,0,13.583,2.376,14.634,14.634,0,0,0,.844,3.792c-8.908,1.3-20.179-3.168-20.179-11.427a9.622,9.622,0,0,1,3.3-6.947c.571-.545.4-.1.4-13.18a5.843,5.843,0,0,1,11.687,0v.649a1.3,1.3,0,1,0,2.6,0v-.649a5.843,5.843,0,1,1,11.687,0c0,13.05,0,12.427.169,12.843A14.284,14.284,0,0,0,33.84,46.584ZM48.046,59.738A11.687,11.687,0,1,1,59.733,48.051,11.687,11.687,0,0,1,48.046,59.738Z" transform="translate(0 0.017)" fill="#231f20"/>
        <path id="Trazado_1253392" data-name="Trazado 1253392" d="M45.453,37.791c-.61-3.013-1.753-1.467.065-3.285a1.3,1.3,0,1,0-1.844-1.844c-1.844,1.844-.195.7-3.285.065V31.3a1.3,1.3,0,1,0-2.6,0v1.428c-3.013.61-1.467,1.753-3.285-.065a1.3,1.3,0,0,0-1.844,1.844c1.844,1.844.7.195.065,3.285H31.3a1.3,1.3,0,0,0,0,2.6h1.428c.61,3.013,1.753,1.467-.065,3.285a1.3,1.3,0,0,0,.922,2.221c.636,0,.805-.273,1.935-1.389,2.506,1.662,2.272-.117,2.272,2.376a1.3,1.3,0,1,0,2.6,0c0-2.6-.338-.649,2.272-2.376.948.948,1.3,1.389,1.935,1.389a1.3,1.3,0,0,0,.987-2.221c-1.844-1.844-.7-.195-.065-3.285h1.363a1.3,1.3,0,0,0,0-2.6ZM39.09,42.985a3.9,3.9,0,1,1,3.9-3.9A3.9,3.9,0,0,1,39.09,42.985Z" transform="translate(8.956 8.978)" fill="#231f20"/>
        <path id="Trazado_1253393" data-name="Trazado 1253393" d="M36.3,35a1.3,1.3,0,1,0,1.3,1.3A1.3,1.3,0,0,0,36.3,35Z" transform="translate(10.449 10.471)" fill="#231f20"/>
        <path id="Trazado_1253394" data-name="Trazado 1253394" d="M38.3,37a1.3,1.3,0,1,0,1.3,1.3A1.3,1.3,0,0,0,38.3,37Z" transform="translate(11.046 11.068)" fill="#231f20"/>
      </g>
    </g>
  </g>
</svg>
