<svg xmlns="http://www.w3.org/2000/svg" xmlns:xlink="http://www.w3.org/1999/xlink" width="113" height="113" viewBox="0 0 113 113">
  <defs>
    <filter id="Trazado_982547" x="0" y="0" width="113" height="113" filterUnits="userSpaceOnUse">
      <feOffset dy="3" input="SourceAlpha"/>
      <feGaussianBlur stdDeviation="3" result="blur"/>
      <feFlood flood-opacity="0.161"/>
      <feComposite operator="in" in2="blur"/>
      <feComposite in="SourceGraphic"/>
    </filter>
  </defs>
  <g id="Grupo_1235207" data-name="Grupo 1235207" transform="translate(-901 -4103.787)">
    <g id="Grupo_1234673" data-name="Grupo 1234673" transform="translate(0 -5879.346)">
      <g id="Grupo_1231168" data-name="Grupo 1231168" transform="translate(0 4365)">
        <g id="Grupo_1230688" data-name="Grupo 1230688" transform="translate(0 -2146.377)">
          <g id="Grupo_1229016" data-name="Grupo 1229016" transform="translate(0.575 2131.042)">
            <g id="Grupo_1227504" data-name="Grupo 1227504" transform="translate(0 2048.198)">
              <g id="Grupo_1225352" data-name="Grupo 1225352" transform="translate(-0.575 -393.641)">
                <g id="Grupo_1208123" data-name="Grupo 1208123" transform="translate(0 -1922.377)">
                  <g id="Grupo_1202434" data-name="Grupo 1202434" transform="translate(-0.56 1255.773)">
                    <g id="Grupo_1202053" data-name="Grupo 1202053" transform="translate(0 3240.511)">
                      <g id="Grupo_1177898" data-name="Grupo 1177898" transform="translate(910.561 1411.003)">
                        <g id="Grupo_1172010" data-name="Grupo 1172010" transform="translate(0)">
                          <g id="Grupo_1171046" data-name="Grupo 1171046">
                            <g id="Grupo_1148525" data-name="Grupo 1148525">
                              <g transform="matrix(1, 0, 0, 1, -9, -6)" filter="url(#Trazado_982547)">
                                <g id="Trazado_982547-2" data-name="Trazado 982547" transform="translate(9 6)" fill="#d6ccfe">
                                  <path d="M 47.5 93.5 C 41.28937149047852 93.5 35.26533508300781 92.28397369384766 29.59518623352051 89.88570404052734 C 24.11771965026855 87.56893157958984 19.19813346862793 84.25196075439453 14.97309303283691 80.02691650390625 C 10.74804019927979 75.80186462402344 7.431066513061523 70.88229370117188 5.114293098449707 65.40481567382812 C 2.716026782989502 59.73468017578125 1.5 53.71062850952148 1.5 47.5 C 1.5 41.28937149047852 2.716026782989502 35.26533508300781 5.114293098449707 29.59518623352051 C 7.431066513061523 24.11771965026855 10.74804019927979 19.19813346862793 14.97309303283691 14.97309303283691 C 19.19813346862793 10.74804019927979 24.11771965026855 7.431066513061523 29.59518623352051 5.114293098449707 C 35.26533508300781 2.716026782989502 41.28937149047852 1.5 47.5 1.5 C 53.71062850952148 1.5 59.73468017578125 2.716026782989502 65.40481567382812 5.114293098449707 C 70.88229370117188 7.431066513061523 75.80186462402344 10.74804019927979 80.02691650390625 14.97309303283691 C 84.25196075439453 19.19813346862793 87.56893157958984 24.11771965026855 89.88570404052734 29.59518623352051 C 92.28397369384766 35.26533508300781 93.5 41.28937149047852 93.5 47.5 C 93.5 53.71062850952148 92.28397369384766 59.73468017578125 89.88570404052734 65.40481567382812 C 87.56893157958984 70.88229370117188 84.25196075439453 75.80186462402344 80.02691650390625 80.02691650390625 C 75.80186462402344 84.25196075439453 70.88229370117188 87.56893157958984 65.40481567382812 89.88570404052734 C 59.73468017578125 92.28397369384766 53.71062850952148 93.5 47.5 93.5 Z" stroke="none"/>
                                  <path d="M 47.5 3 C 41.49121475219727 3 35.66376876831055 4.176155090332031 30.17950439453125 6.495796203613281 C 24.88084411621094 8.736953735351562 20.12152099609375 11.94598388671875 16.03375244140625 16.03375244140625 C 11.94598388671875 20.12152099609375 8.736953735351562 24.88084411621094 6.495796203613281 30.17950439453125 C 4.176155090332031 35.66376876831055 3 41.49121475219727 3 47.5 C 3 53.50878524780273 4.176155090332031 59.33623123168945 6.495796203613281 64.82049560546875 C 8.736953735351562 70.11915588378906 11.94598388671875 74.87847900390625 16.03375244140625 78.96624755859375 C 20.12152099609375 83.05401611328125 24.88084411621094 86.26304626464844 30.17950439453125 88.50419616699219 C 35.66376876831055 90.82384490966797 41.49121475219727 92 47.5 92 C 53.50878524780273 92 59.33623123168945 90.82384490966797 64.82049560546875 88.50419616699219 C 70.11915588378906 86.26304626464844 74.87847900390625 83.05401611328125 78.96624755859375 78.96624755859375 C 83.05401611328125 74.87847900390625 86.26304626464844 70.11915588378906 88.50419616699219 64.82049560546875 C 90.82384490966797 59.33623123168945 92 53.50878524780273 92 47.5 C 92 41.49121475219727 90.82384490966797 35.66376876831055 88.50419616699219 30.17950439453125 C 86.26304626464844 24.88084411621094 83.05401611328125 20.12152099609375 78.96624755859375 16.03375244140625 C 74.87847900390625 11.94598388671875 70.11915588378906 8.736953735351562 64.82049560546875 6.495796203613281 C 59.33623123168945 4.176155090332031 53.50878524780273 3 47.5 3 M 47.5 0 C 73.7335205078125 0 95 21.2664794921875 95 47.5 C 95 73.7335205078125 73.7335205078125 95 47.5 95 C 21.2664794921875 95 0 73.7335205078125 0 47.5 C 0 21.2664794921875 21.2664794921875 0 47.5 0 Z" stroke="none" fill="#7958fb"/>
                                </g>
                              </g>
                            </g>
                          </g>
                        </g>
                      </g>
                    </g>
                  </g>
                </g>
              </g>
            </g>
          </g>
        </g>
      </g>
    </g>
    <g id="residuos-biomedicos" transform="translate(927.812 4125.441)">
      <g id="Grupo_1235206" data-name="Grupo 1235206" transform="translate(0.855 0.855)">
        <g id="Grupo_1235202" data-name="Grupo 1235202" transform="translate(0 13.342)">
          <path id="Trazado_1253395" data-name="Trazado 1253395" d="M44.67,376.382h3.952v11.211H44.67Z" transform="translate(-40.432 -347.665)" fill="#00516a"/>
          <g id="Grupo_1235201" data-name="Grupo 1235201">
            <path id="Trazado_1253396" data-name="Trazado 1253396" d="M31.507,177.47H22.5V155.009a.8.8,0,0,1,.8-.8h7.411a.8.8,0,0,1,.8.8Z" transform="translate(-20.79 -150.825)" fill="#eaf6ff"/>
            <path id="Trazado_1253397" data-name="Trazado 1253397" d="M67.92,154.211H64.5a.8.8,0,0,1,.8.8V177.47h3.42V155.009A.8.8,0,0,0,67.92,154.211Z" transform="translate(-58.001 -150.825)" fill="#d8ecfe"/>
            <path id="Trazado_1253398" data-name="Trazado 1253398" d="M9.21,361.631h9.007a1.71,1.71,0,0,0,0-3.42H9.21a1.71,1.71,0,0,0,0,3.42Z" transform="translate(-7.5 -331.566)" fill="#60b7ff"/>
            <path id="Trazado_1253399" data-name="Trazado 1253399" d="M74.92,358.211H71.5a1.71,1.71,0,1,1,0,3.42h3.42a1.71,1.71,0,1,0,0-3.42Z" transform="translate(-64.203 -331.566)" fill="#26a6fe"/>
            <path id="Trazado_1253400" data-name="Trazado 1253400" d="M9.21,477.92h9.007a1.71,1.71,0,0,0,0-3.42H9.21a1.71,1.71,0,0,0,0,3.42Z" transform="translate(-7.5 -434.596)" fill="#60b7ff"/>
            <path id="Trazado_1253401" data-name="Trazado 1253401" d="M74.92,474.5H71.5a1.71,1.71,0,1,1,0,3.42h3.42a1.71,1.71,0,1,0,0-3.42Z" transform="translate(-64.203 -434.596)" fill="#26a6fe"/>
            <path id="Trazado_1253402" data-name="Trazado 1253402" d="M44.089,127.9H38.8v-2.93a.456.456,0,0,1,.456-.456h4.379a.456.456,0,0,1,.456.456Z" transform="translate(-35.23 -124.515)" fill="#60b7ff"/>
            <path id="Trazado_1253403" data-name="Trazado 1253403" d="M54.622,124.514H51.2a.456.456,0,0,1,.456.456v2.93h3.42v-2.93a.456.456,0,0,0-.456-.456Z" transform="translate(-46.219 -124.514)" fill="#26a6fe"/>
          </g>
        </g>
        <g id="Grupo_1235204" data-name="Grupo 1235204" transform="translate(10.333)">
          <path id="Trazado_1253404" data-name="Trazado 1253404" d="M121.626,50.7V34.629H110.633v16.1a3.433,3.433,0,0,1-2.016,3.113,18,18,0,1,0,14.994-.015,3.428,3.428,0,0,1-1.984-3.124Z" transform="translate(-98.13 -31.536)" fill="#eaf6ff"/>
          <path id="Trazado_1253405" data-name="Trazado 1253405" d="M250.329,53.827a3.429,3.429,0,0,1-1.984-3.124V34.629h-3.42V50.7a3.429,3.429,0,0,0,1.984,3.124,18,18,0,0,1-5.753,34.292,17.652,17.652,0,0,0,1.937.081,18,18,0,0,0,7.236-34.373Z" transform="translate(-224.849 -31.536)" fill="#d8ecfe"/>
          <path id="Trazado_1253406" data-name="Trazado 1253406" d="M190.644,11.9h-14.25a2.2,2.2,0,0,1,0-4.4h14.25a2.2,2.2,0,0,1,0,4.4Z" transform="translate(-165.52 -7.499)" fill="#60b7ff"/>
          <path id="Trazado_1253407" data-name="Trazado 1253407" d="M291.911,7.5h-3.42a2.2,2.2,0,0,1,0,4.4h3.42a2.2,2.2,0,1,0,0-4.4Z" transform="translate(-266.787 -7.5)" fill="#26a6fe"/>
          <g id="Grupo_1235203" data-name="Grupo 1235203" transform="translate(5.146 25.969)">
            <circle id="Elipse_14657" data-name="Elipse 14657" cx="12.854" cy="12.854" r="12.854" fill="#60b7ff"/>
            <path id="Trazado_1253408" data-name="Trazado 1253408" d="M242.71,235.265a12.962,12.962,0,0,0-1.71.114,12.854,12.854,0,0,1,0,25.48,12.854,12.854,0,1,0,1.71-25.594Z" transform="translate(-229.857 -235.265)" fill="#26a6fe"/>
          </g>
        </g>
        <g id="Grupo_1235205" data-name="Grupo 1235205" transform="translate(43.973 18.926)">
          <path id="Trazado_1253409" data-name="Trazado 1253409" d="M414.223,240.633a4.455,4.455,0,0,1-4.455-4.455v-29.5h8.909v29.5A4.455,4.455,0,0,1,414.223,240.633Z" transform="translate(-407.876 -202.893)" fill="#eaf6ff"/>
          <path id="Trazado_1253410" data-name="Trazado 1253410" d="M436.581,206.677v29.5a4.455,4.455,0,0,1-2.744,4.114A4.456,4.456,0,0,0,440,236.179v-29.5Z" transform="translate(-429.201 -202.893)" fill="#d8ecfe"/>
          <path id="Trazado_1253411" data-name="Trazado 1253411" d="M403.976,173.492h-8.909a1.892,1.892,0,1,0,0,3.784h8.909a1.892,1.892,0,1,0,0-3.784Z" transform="translate(-393.175 -173.492)" fill="#60b7ff"/>
          <path id="Trazado_1253412" data-name="Trazado 1253412" d="M461.327,173.492h-3.42a1.892,1.892,0,1,1,0,3.784h3.42a1.892,1.892,0,1,0,0-3.784Z" transform="translate(-450.527 -173.492)" fill="#26a6fe"/>
        </g>
      </g>
      <path id="Trazado_1253413" data-name="Trazado 1253413" d="M21.947,42.092a7.629,7.629,0,0,1,12.044-8.34h-.4a.855.855,0,0,0,0,1.71h2.391a.863.863,0,0,0,.855-.855V32.216a.855.855,0,0,0-1.71,0v.268A9.338,9.338,0,0,0,20.324,42.633a.855.855,0,1,0,1.622-.541Zm7.241-16.123A13.709,13.709,0,1,0,42.9,39.677,13.724,13.724,0,0,0,29.188,25.969Zm0,25.707a12,12,0,1,1,12-12A12.012,12.012,0,0,1,29.188,51.676Zm8.86-14.966a.855.855,0,1,0-1.622.543,7.629,7.629,0,0,1-12.04,8.35h.4a.855.855,0,1,0,0-1.71H22.392a.863.863,0,0,0-.855.855v2.391a.855.855,0,1,0,1.71,0v-.268a9.338,9.338,0,0,0,14.8-10.161ZM55.629,18.926H46.72a2.747,2.747,0,0,0-.855,5.357v6.466a18.883,18.883,0,0,0-8.84-8.38,2.576,2.576,0,0,1-1.485-2.346V6.115h.773a3.057,3.057,0,0,0,0-6.115H22.063a3.057,3.057,0,0,0,0,6.115h.773V20.048a2.589,2.589,0,0,1-1.519,2.336,18.888,18.888,0,0,0-8.89,8.525V18.38a1.655,1.655,0,0,0-1.653-1.653h-.2V14.653a1.313,1.313,0,0,0-1.311-1.311H7.924V.855a.855.855,0,0,0-1.71,0V13.341H4.88a1.313,1.313,0,0,0-1.311,1.311v2.075H3.363A1.655,1.655,0,0,0,1.71,18.38v5.895a.855.855,0,1,0,1.71,0V18.437h7.3V35.761a18.734,18.734,0,0,0-.384,3.781c0,.148,0,.3.006.444H3.42V28.266a.855.855,0,1,0-1.71,0V40.133a2.565,2.565,0,0,0,.855,4.984H4.238v8.128H2.565a2.565,2.565,0,0,0,0,5.131h9.007a2.565,2.565,0,0,0,0-5.131H9.9V45.117h1.293a18.927,18.927,0,0,0,4.8,7.789,18.746,18.746,0,0,0,24.515,1.7.855.855,0,0,0-1.028-1.367,17.036,17.036,0,0,1-22.287-1.546A16.357,16.357,0,0,1,12.043,39.54a17.2,17.2,0,0,1,9.989-15.6,4.3,4.3,0,0,0,2.514-3.889V6.115h9.283V20.022a4.29,4.29,0,0,0,2.484,3.9,17.149,17.149,0,0,1,5.95,26.687.855.855,0,0,0,1.3,1.107,18.785,18.785,0,0,0,2.3-3.4v4.749a5.31,5.31,0,1,0,10.619,0V24.282a2.747,2.747,0,0,0-.855-5.357Zm-46.77-2.2H5.279V15.052H8.859Zm2.713,38.228a.855.855,0,0,1,0,1.71H2.565a.855.855,0,0,1,0-1.71Zm-5.624-1.71V45.117H8.19v8.128ZM2.565,43.407a.855.855,0,0,1,0-1.71h7.9q.1.864.281,1.71Zm19.5-39a1.347,1.347,0,0,1,0-2.694h14.25a1.347,1.347,0,0,1,0,2.694ZM54.774,53.066a3.6,3.6,0,1,1-7.2,0V43.69a18.75,18.75,0,0,0,0-8.322V24.42h7.2V53.066Zm.855-30.357H46.72a1.037,1.037,0,0,1,0-2.073h8.909a1.037,1.037,0,0,1,0,2.073Z" transform="translate(0 0)"/>
    </g>
  </g>
</svg>
