<svg xmlns="http://www.w3.org/2000/svg" width="1328" height="607" viewBox="0 0 1328 607">
  <g id="Grupo_1234875" data-name="Grupo 1234875" transform="translate(-136 -729)">
    <rect id="Rectángulo_423663" data-name="Rectángulo 423663" width="1328" height="607" transform="translate(136 729)" fill="#0c1a3c"/>
    <g id="Grupo_1232582" data-name="Grupo 1232582" transform="translate(160 761)">
      <g id="Grupo_1232575" data-name="Grupo 1232575" transform="translate(342.43 190.884)" opacity="0.68">
        <path id="Trazado_1225987" data-name="Trazado 1225987" d="M261.866,155.8c-6.053-.356-24.618-2.114-28.1-2.983-4.228-1.057-7.187-8.034-2.959-11.628,3.429-2.916,15.763-15.014,20.3-19.476a2.5,2.5,0,0,0,.106-3.442l-.356-.4a2.5,2.5,0,0,0-3.251-.43c-5.054,3.341-19.184,12.6-22.3,13.814-3.806,1.479-5.92-.635-4.228-7.4,1.325-5.3,4.722-16.56,6.135-21.195a2.5,2.5,0,0,0-1.328-2.988l-.13-.061a2.5,2.5,0,0,0-3.131.834c-2.964,4.289-10.6,15.261-13.806,18.969-4.016,4.651-11.628,5.708-17.758-4.228-2.969-4.81-7.073-19.2-9.038-23.445a2.943,2.943,0,0,0-2.667-1.713h0a2.929,2.929,0,0,0-2.916,3.264c.762,6.558,3.169,24.666,3.416,30.35.422,9.724-8.667,10.146-15.009,8.879-4.627-.924-12.627-3.089-16.619-4.191a2.5,2.5,0,0,0-3.073,1.761l-.09.332a2.491,2.491,0,0,0,1.169,2.831c4.3,2.449,15.554,9.057,18.613,12.8,3.806,4.651,2.114,8.667-3.381,10.358-4.194,1.291-15.275,3.073-20.295,3.846a2.507,2.507,0,0,0,.438,4.983c4.6-.106,15.423-.324,19.859-.159,5.708.212,9.3,4.863,2.536,8.879-4.919,2.922-12.01,7.639-15.514,10a2.741,2.741,0,0,0,2.537,4.821c4.826-1.9,16.316-6.335,19.955-7,4.651-.845,7.4,1.9,5.708,8.879-1.333,5.5-5.819,14.81-7.66,18.5a2.017,2.017,0,0,0,3.543,1.92c2.712-4.643,9.817-16.653,12.361-19.368,3.171-3.381,8.457-.845,9.936,5.5,1.041,4.459,4.029,19.376,5.4,26.719a3.037,3.037,0,0,0,6.005-.853c-.778-7.989-2.64-22.026-2.528-25.232.212-6.13,4.228-8.457,10.571-.635,4.85,5.981,11.3,13.814,14.077,17.171a2.492,2.492,0,0,0,3.2.552l.446-.263a2.507,2.507,0,0,0,.765-3.615c-3.57-4.991-11.952-16.855-12.781-19.344-1.057-3.171,1.27-7.612,7.4-7.187,4.89.337,19.466,1.75,25.163,2.308a2.5,2.5,0,0,0,2.706-2.085l.112-.667a2.493,2.493,0,0,0-1.644-2.778c-5.092-1.756-18.292-6.369-19.994-7.562-2.114-1.479-6.13-4.651,4.016-7.4,7.814-2.117,19.968-4.313,24.589-5.519A2.543,2.543,0,0,0,264.256,158,2.575,2.575,0,0,0,261.866,155.8Z" transform="translate(-133.791 -81.576)" fill="#346e94"/>
        <circle id="Elipse_11561" data-name="Elipse 11561" cx="8.457" cy="8.457" r="8.457" transform="translate(36.98)" fill="#185177" opacity="0.6"/>
        <path id="Trazado_1225988" data-name="Trazado 1225988" d="M182.73,97.879a6.552,6.552,0,1,1-6.552-6.552A6.552,6.552,0,0,1,182.73,97.879Z" transform="translate(-83.177 -79.433)" fill="#185177" opacity="0.6"/>
        <path id="Trazado_1225989" data-name="Trazado 1225989" d="M196.783,106.484a9.434,9.434,0,1,1-9.434-9.434A9.433,9.433,0,0,1,196.783,106.484Z" transform="translate(-69.449 -69.956)" fill="#185177" opacity="0.6"/>
        <path id="Trazado_1225990" data-name="Trazado 1225990" d="M194.474,118.914a5.155,5.155,0,1,1-5.155-5.155A5.155,5.155,0,0,1,194.474,118.914Z" transform="translate(-59.103 -42.286)" fill="#185177" opacity="0.6"/>
        <path id="Trazado_1225991" data-name="Trazado 1225991" d="M194.368,130.045a7.076,7.076,0,1,1-7.076-7.076A7.077,7.077,0,0,1,194.368,130.045Z" transform="translate(-65.637 -27.034)" fill="#185177" opacity="0.6"/>
        <path id="Trazado_1225992" data-name="Trazado 1225992" d="M187.519,142.343a8.125,8.125,0,1,1-8.125-8.125A8.126,8.126,0,0,1,187.519,142.343Z" transform="translate(-80.453 -8.406)" fill="#185177" opacity="0.6"/>
        <circle id="Elipse_11562" data-name="Elipse 11562" cx="6.114" cy="6.114" r="6.114" transform="translate(63.736 137.344)" fill="#185177" opacity="0.6"/>
        <path id="Trazado_1225993" data-name="Trazado 1225993" d="M158.973,139.088a5.068,5.068,0,1,1-5.068-5.068A5.067,5.067,0,0,1,158.973,139.088Z" transform="translate(-117.601 -8.734)" fill="#185177" opacity="0.6"/>
        <path id="Trazado_1225994" data-name="Trazado 1225994" d="M153.151,130.6a6.592,6.592,0,1,1-6.592-6.592A6.591,6.591,0,0,1,153.151,130.6Z" transform="translate(-132.291 -25.315)" fill="#185177" opacity="0.6"/>
        <path id="Trazado_1225995" data-name="Trazado 1225995" d="M147.929,120.78a5.426,5.426,0,1,1-5.426-5.426A5.427,5.427,0,0,1,147.929,120.78Z" transform="translate(-137.077 -39.645)" fill="#185177" opacity="0.6"/>
        <path id="Trazado_1225996" data-name="Trazado 1225996" d="M153.577,109.792a7.4,7.4,0,1,1-7.4-7.4A7.4,7.4,0,0,1,153.577,109.792Z" transform="translate(-134.278 -61.118)" fill="#185177" opacity="0.6"/>
        <circle id="Elipse_11563" data-name="Elipse 11563" cx="30.443" cy="30.443" r="30.443" transform="translate(23.237 76.744) rotate(-45)" fill="#185177" opacity="0.6"/>
      </g>
      <g id="Grupo_1232576" data-name="Grupo 1232576" transform="translate(16.572 11.823)" opacity="0.55">
        <path id="Trazado_1225997" data-name="Trazado 1225997" d="M530.117,258.41c-5.169-3.171-20.709-13.482-23.362-15.888-3.23-2.927-2.547-10.475,2.879-11.649,4.4-.951,20.983-5.8,27.089-7.593a2.5,2.5,0,0,0,1.719-2.985l-.125-.521a2.5,2.5,0,0,0-2.664-1.912c-6.032.56-22.863,2.058-26.175,1.657-4.053-.491-4.919-3.352-.236-8.52,3.668-4.045,11.979-12.372,15.413-15.79a2.5,2.5,0,0,0,.239-3.262l-.085-.117a2.5,2.5,0,0,0-3.155-.741c-4.637,2.385-16.55,8.449-21.126,10.21-5.737,2.2-12.945-.454-13.66-12.109-.348-5.641,2.826-20.265,3.1-24.935a2.942,2.942,0,0,0-1.543-2.77h0a2.928,2.928,0,0,0-4.111,1.5c-2.422,6.143-8.847,23.243-11.312,28.369-4.218,8.773-12.43,4.855-17.423.744-3.641-3-9.676-8.682-12.674-11.538a2.5,2.5,0,0,0-3.541.1l-.236.25a2.494,2.494,0,0,0-.308,3.046c2.632,4.186,9.439,15.325,10.372,20.066,1.161,5.9-2.226,8.64-7.87,7.535-4.305-.842-14.916-4.5-19.708-6.188a2.507,2.507,0,0,0-1.965,4.6c4.106,2.08,13.75,6.993,17.583,9.23,4.932,2.882,5.907,8.677-1.955,9.025-5.716.252-14.2,1.068-18.4,1.493a2.741,2.741,0,0,0-.04,5.447c5.15.6,17.373,2.117,20.895,3.251,4.5,1.45,5.625,5.169.842,10.523-3.772,4.22-12.122,10.311-15.487,12.7a2.017,2.017,0,0,0,2.218,3.365c4.582-2.815,16.515-10.05,20.04-11.243,4.393-1.485,7.854,3.246,6.167,9.535-1.187,4.425-5.591,18.985-7.846,26.106a3.035,3.035,0,0,0,5.695,2.082c3.084-7.413,8.069-20.664,9.678-23.439,3.081-5.3,7.718-5.461,9.617,4.43,1.453,7.562,3.448,17.514,4.305,21.782a2.494,2.494,0,0,0,2.56,2l.518-.021a2.5,2.5,0,0,0,2.38-2.826c-.792-6.085-2.582-20.5-2.138-23.086.566-3.293,4.709-6.112,9.915-2.845,4.154,2.605,16.334,10.73,21.1,13.912a2.5,2.5,0,0,0,3.368-.56l.414-.536a2.5,2.5,0,0,0-.138-3.224c-3.66-3.949-13.121-14.249-14.061-16.1-1.166-2.3-3.211-6.993,7.033-4.629,7.888,1.822,19.639,5.62,24.284,6.738a2.558,2.558,0,0,0,1.925-4.669Z" transform="translate(-408.529 -152.962)" fill="#346e94"/>
        <path id="Trazado_1225998" data-name="Trazado 1225998" d="M454.967,170.508A8.457,8.457,0,1,1,451.5,159.06,8.457,8.457,0,0,1,454.967,170.508Z" transform="translate(-367.743 -158.057)" fill="#185177" opacity="0.6"/>
        <path id="Trazado_1225999" data-name="Trazado 1225999" d="M466.115,180.188a6.552,6.552,0,1,1-2.685-8.868A6.553,6.553,0,0,1,466.115,180.188Z" transform="translate(-343.349 -137.382)" fill="#185177" opacity="0.6"/>
        <path id="Trazado_1226000" data-name="Trazado 1226000" d="M475.5,193.773A9.434,9.434,0,1,1,471.64,181,9.433,9.433,0,0,1,475.5,193.773Z" transform="translate(-336.781 -121.913)" fill="#185177" opacity="0.6"/>
        <path id="Trazado_1226001" data-name="Trazado 1226001" d="M466.026,204.583a5.155,5.155,0,1,1-2.112-6.977A5.154,5.154,0,0,1,466.026,204.583Z" transform="translate(-339.14 -93.579)" fill="#185177" opacity="0.6"/>
        <path id="Trazado_1226002" data-name="Trazado 1226002" d="M461.388,213.925a7.076,7.076,0,1,1-2.9-9.58A7.074,7.074,0,0,1,461.388,213.925Z" transform="translate(-352.807 -82.794)" fill="#185177" opacity="0.6"/>
        <path id="Trazado_1226003" data-name="Trazado 1226003" d="M449.933,221.3a8.125,8.125,0,1,1-3.331-11A8.122,8.122,0,0,1,449.933,221.3Z" transform="translate(-375.046 -73.131)" fill="#185177" opacity="0.6"/>
        <path id="Trazado_1226004" data-name="Trazado 1226004" d="M435.558,217.094a6.115,6.115,0,1,1-2.5-8.279A6.114,6.114,0,0,1,435.558,217.094Z" transform="translate(-392.586 -75.203)" fill="#185177" opacity="0.6"/>
        <path id="Trazado_1226005" data-name="Trazado 1226005" d="M425.174,205.633a5.067,5.067,0,1,1-2.077-6.858A5.067,5.067,0,0,1,425.174,205.633Z" transform="translate(-406.518 -91.623)" fill="#185177" opacity="0.6"/>
        <path id="Trazado_1226006" data-name="Trazado 1226006" d="M424.609,195.066a6.591,6.591,0,1,1-2.7-8.921A6.592,6.592,0,0,1,424.609,195.066Z" transform="translate(-412.205 -112.84)" fill="#185177" opacity="0.6"/>
        <path id="Trazado_1226007" data-name="Trazado 1226007" d="M424.211,184.2a5.426,5.426,0,1,1-2.223-7.344A5.425,5.425,0,0,1,424.211,184.2Z" transform="translate(-409.233 -127.989)" fill="#185177" opacity="0.6"/>
        <path id="Trazado_1226008" data-name="Trazado 1226008" d="M435.1,176.746a7.405,7.405,0,1,1-3.033-10.024A7.4,7.4,0,0,1,435.1,176.746Z" transform="translate(-397.361 -145.164)" fill="#185177" opacity="0.6"/>
        <circle id="Elipse_11564" data-name="Elipse 11564" cx="30.443" cy="30.443" r="30.443" transform="matrix(0.957, -0.29, 0.29, 0.957, 27.953, 58.184)" fill="#185177" opacity="0.6"/>
      </g>
      <g id="Grupo_1232577" data-name="Grupo 1232577" transform="translate(1030.776 104.548)" opacity="0.62">
        <path id="Trazado_1226009" data-name="Trazado 1226009" d="M528.718,181.055c-3.375-2.07-13.518-8.8-15.252-10.374-2.109-1.912-1.662-6.838,1.878-7.6,2.873-.622,13.7-3.785,17.682-4.957a1.628,1.628,0,0,0,1.122-1.948l-.082-.339a1.632,1.632,0,0,0-1.739-1.249c-3.939.365-14.925,1.343-17.089,1.081-2.647-.319-3.211-2.188-.154-5.56,2.395-2.642,7.821-8.075,10.061-10.309a1.631,1.631,0,0,0,.156-2.128l-.055-.074a1.634,1.634,0,0,0-2.061-.485c-3.026,1.556-10.8,5.517-13.792,6.663-3.744,1.439-8.45-.3-8.918-7.9-.226-3.682,1.845-13.229,2.022-16.277a1.922,1.922,0,0,0-1.006-1.809h0a1.909,1.909,0,0,0-2.683.98c-1.583,4.009-5.776,15.173-7.383,18.521-2.753,5.728-8.116,3.17-11.375.485-2.378-1.958-6.317-5.668-8.274-7.532a1.629,1.629,0,0,0-2.311.067l-.154.163a1.624,1.624,0,0,0-.2,1.989c1.72,2.733,6.163,10,6.771,13.1.757,3.85-1.453,5.64-5.138,4.919-2.81-.55-9.737-2.937-12.867-4.04a1.636,1.636,0,0,0-1.283,3c2.68,1.357,8.976,4.563,11.478,6.026,3.221,1.881,3.855,5.664-1.275,5.892-3.732.166-9.266.7-12.009.975a1.79,1.79,0,0,0-.024,3.557c3.363.394,11.341,1.381,13.64,2.121,2.938.946,3.672,3.375.55,6.869-2.462,2.755-7.912,6.73-10.11,8.291a1.316,1.316,0,0,0,1.448,2.2c2.99-1.837,10.782-6.559,13.083-7.338,2.868-.97,5.128,2.118,4.026,6.226-.776,2.887-3.651,12.394-5.121,17.044a1.983,1.983,0,0,0,3.72,1.359c2.013-4.837,5.267-13.491,6.319-15.3,2.01-3.463,5.039-3.564,6.279,2.892.949,4.936,2.251,11.435,2.81,14.221a1.628,1.628,0,0,0,1.672,1.3l.339-.014a1.636,1.636,0,0,0,1.554-1.845c-.516-3.973-1.686-13.383-1.4-15.072.37-2.15,3.074-3.989,6.473-1.857,2.712,1.7,10.664,7,13.772,9.081a1.631,1.631,0,0,0,2.2-.365l.269-.351a1.627,1.627,0,0,0-.089-2.1c-2.39-2.58-8.565-9.3-9.18-10.513-.761-1.5-2.094-4.566,4.592-3.022,5.15,1.189,12.821,3.67,15.852,4.4a1.66,1.66,0,0,0,1.95-1.054A1.69,1.69,0,0,0,528.718,181.055Z" transform="translate(-449.343 -112.219)" fill="#346e94"/>
        <path id="Trazado_1226010" data-name="Trazado 1226010" d="M481.361,123.458a5.521,5.521,0,1,1-2.262-7.472A5.521,5.521,0,0,1,481.361,123.458Z" transform="translate(-424.419 -115.332)" fill="#185177" opacity="0.6"/>
        <path id="Trazado_1226011" data-name="Trazado 1226011" d="M489.655,130.639a4.277,4.277,0,1,1-1.753-5.788A4.277,4.277,0,0,1,489.655,130.639Z" transform="translate(-409.511 -102.697)" fill="#185177" opacity="0.6"/>
        <path id="Trazado_1226012" data-name="Trazado 1226012" d="M496.059,140.154a6.159,6.159,0,1,1-2.524-8.337A6.16,6.16,0,0,1,496.059,140.154Z" transform="translate(-405.499 -93.245)" fill="#185177" opacity="0.6"/>
        <path id="Trazado_1226013" data-name="Trazado 1226013" d="M489.772,148.393a3.364,3.364,0,1,1-1.379-4.554A3.365,3.365,0,0,1,489.772,148.393Z" transform="translate(-406.939 -75.928)" fill="#185177" opacity="0.6"/>
        <path id="Trazado_1226014" data-name="Trazado 1226014" d="M486.175,154.94a4.619,4.619,0,1,1-1.893-6.252A4.62,4.62,0,0,1,486.175,154.94Z" transform="translate(-415.291 -69.337)" fill="#185177" opacity="0.6"/>
        <path id="Trazado_1226015" data-name="Trazado 1226015" d="M477.768,160.161a5.3,5.3,0,1,1-2.174-7.179A5.306,5.306,0,0,1,477.768,160.161Z" transform="translate(-428.883 -63.432)" fill="#185177" opacity="0.6"/>
        <path id="Trazado_1226016" data-name="Trazado 1226016" d="M467.654,157.326a3.993,3.993,0,1,1-1.636-5.4A3.994,3.994,0,0,1,467.654,157.326Z" transform="translate(-439.602 -64.7)" fill="#185177" opacity="0.6"/>
        <path id="Trazado_1226017" data-name="Trazado 1226017" d="M460.293,149.161a3.308,3.308,0,1,1-1.355-4.477A3.307,3.307,0,0,1,460.293,149.161Z" transform="translate(-448.115 -74.734)" fill="#185177" opacity="0.6"/>
        <path id="Trazado_1226018" data-name="Trazado 1226018" d="M459.687,141.377a4.3,4.3,0,1,1-1.763-5.824A4.3,4.3,0,0,1,459.687,141.377Z" transform="translate(-451.59 -87.7)" fill="#185177" opacity="0.6"/>
        <path id="Trazado_1226019" data-name="Trazado 1226019" d="M459.551,133.654a3.542,3.542,0,1,1-1.451-4.794A3.54,3.54,0,0,1,459.551,133.654Z" transform="translate(-449.773 -96.957)" fill="#185177" opacity="0.6"/>
        <path id="Trazado_1226020" data-name="Trazado 1226020" d="M467.157,128.068a4.834,4.834,0,1,1-1.982-6.543A4.835,4.835,0,0,1,467.157,128.068Z" transform="translate(-442.518 -107.452)" fill="#185177" opacity="0.6"/>
        <path id="Trazado_1226021" data-name="Trazado 1226021" d="M498.634,157.65a19.874,19.874,0,1,1-8.142-26.9A19.873,19.873,0,0,1,498.634,157.65Z" transform="translate(-438.07 -97.022)" fill="#185177" opacity="0.6"/>
      </g>
      <g id="Grupo_1232578" data-name="Grupo 1232578" transform="translate(1200.222 11.823)" opacity="0.83">
        <path id="Trazado_1226022" data-name="Trazado 1226022" d="M524.719,70.825c-2.834-1.74-11.357-7.394-12.815-8.714-1.772-1.6-1.4-5.745,1.578-6.39,2.414-.521,11.508-3.179,14.858-4.165a1.369,1.369,0,0,0,.943-1.639l-.069-.284a1.373,1.373,0,0,0-1.461-1.049c-3.309.308-12.542,1.129-14.358.908-2.223-.268-2.7-1.838-.13-4.672,2.013-2.22,6.571-6.786,8.454-8.661a1.368,1.368,0,0,0,.13-1.787l-.048-.064a1.372,1.372,0,0,0-1.732-.406c-2.544,1.307-9.078,4.635-11.588,5.6-3.147,1.208-7.1-.25-7.493-6.643-.191-3.094,1.551-11.115,1.7-13.676a1.613,1.613,0,0,0-.847-1.519h0a1.606,1.606,0,0,0-2.255.823c-1.328,3.368-4.853,12.749-6.2,15.561-2.313,4.813-6.818,2.664-9.556.409-2-1.644-5.307-4.762-6.951-6.327a1.368,1.368,0,0,0-1.942.056l-.13.138a1.363,1.363,0,0,0-.167,1.671c1.445,2.295,5.177,8.406,5.689,11.006.637,3.235-1.222,4.738-4.316,4.133-2.361-.462-8.183-2.467-10.81-3.394a1.374,1.374,0,0,0-1.078,2.521c2.252,1.139,7.543,3.835,9.644,5.062,2.706,1.58,3.24,4.76-1.07,4.951-3.137.138-7.787.584-10.09.818a1.5,1.5,0,0,0-.024,2.988c2.826.332,9.53,1.161,11.461,1.782,2.467.794,3.086,2.837.462,5.771-2.069,2.313-6.648,5.655-8.494,6.967a1.106,1.106,0,0,0,1.217,1.846c2.513-1.543,9.06-5.511,10.991-6.167,2.409-.815,4.308,1.78,3.381,5.23-.651,2.425-3.068,10.412-4.3,14.318a1.665,1.665,0,0,0,3.123,1.142c1.692-4.066,4.425-11.333,5.309-12.858,1.689-2.911,4.234-3,5.275,2.43.8,4.149,1.891,9.607,2.361,11.949a1.369,1.369,0,0,0,1.4,1.1l.284-.013a1.375,1.375,0,0,0,1.307-1.548c-.433-3.339-1.416-11.245-1.174-12.664.311-1.806,2.584-3.352,5.439-1.562,2.276,1.429,8.959,5.886,11.572,7.631a1.371,1.371,0,0,0,1.849-.308l.226-.295a1.371,1.371,0,0,0-.074-1.769c-2.008-2.167-7.2-7.817-7.713-8.831-.64-1.262-1.761-3.835,3.857-2.539,4.327,1,10.773,3.084,13.32,3.694a1.4,1.4,0,0,0,1.062-2.558Z" transform="translate(-458.029 -12.987)" fill="#346e94"/>
        <path id="Trazado_1226023" data-name="Trazado 1226023" d="M483.5,22.612a4.64,4.64,0,1,1-1.9-6.279A4.637,4.637,0,0,1,483.5,22.612Z" transform="translate(-435.653 -15.783)" fill="#185177" opacity="0.6"/>
        <path id="Trazado_1226024" data-name="Trazado 1226024" d="M489.611,27.923a3.594,3.594,0,1,1-1.471-4.866A3.594,3.594,0,0,1,489.611,27.923Z" transform="translate(-422.273 -4.443)" fill="#185177" opacity="0.6"/>
        <path id="Trazado_1226025" data-name="Trazado 1226025" d="M494.761,35.373a5.174,5.174,0,1,1-2.12-7A5.173,5.173,0,0,1,494.761,35.373Z" transform="translate(-418.668 4.044)" fill="#185177" opacity="0.6"/>
        <path id="Trazado_1226026" data-name="Trazado 1226026" d="M489.563,41.3a2.828,2.828,0,1,1-1.158-3.827A2.826,2.826,0,0,1,489.563,41.3Z" transform="translate(-419.964 19.585)" fill="#185177" opacity="0.6"/>
        <path id="Trazado_1226027" data-name="Trazado 1226027" d="M487.02,46.426a3.881,3.881,0,1,1-1.591-5.254A3.881,3.881,0,0,1,487.02,46.426Z" transform="translate(-427.46 25.5)" fill="#185177" opacity="0.6"/>
        <path id="Trazado_1226028" data-name="Trazado 1226028" d="M480.734,50.472a4.455,4.455,0,1,1-1.825-6.029A4.457,4.457,0,0,1,480.734,50.472Z" transform="translate(-439.658 30.803)" fill="#185177" opacity="0.6"/>
        <path id="Trazado_1226029" data-name="Trazado 1226029" d="M472.85,48.164a3.353,3.353,0,1,1-1.373-4.539A3.351,3.351,0,0,1,472.85,48.164Z" transform="translate(-449.28 29.664)" fill="#185177" opacity="0.6"/>
        <path id="Trazado_1226030" data-name="Trazado 1226030" d="M467.154,41.878a2.779,2.779,0,1,1-1.139-3.761A2.782,2.782,0,0,1,467.154,41.878Z" transform="translate(-456.919 20.659)" fill="#185177" opacity="0.6"/>
        <path id="Trazado_1226031" data-name="Trazado 1226031" d="M466.846,36.083a3.616,3.616,0,1,1-1.482-4.9A3.616,3.616,0,0,1,466.846,36.083Z" transform="translate(-460.041 9.019)" fill="#185177" opacity="0.6"/>
        <path id="Trazado_1226032" data-name="Trazado 1226032" d="M466.626,30.124a2.977,2.977,0,1,1-1.219-4.029A2.976,2.976,0,0,1,466.626,30.124Z" transform="translate(-458.41 0.71)" fill="#185177" opacity="0.6"/>
        <path id="Trazado_1226033" data-name="Trazado 1226033" d="M472.6,26.032a4.062,4.062,0,1,1-1.665-5.5A4.063,4.063,0,0,1,472.6,26.032Z" transform="translate(-451.897 -8.708)" fill="#185177" opacity="0.6"/>
        <circle id="Elipse_11565" data-name="Elipse 11565" cx="16.698" cy="16.698" r="16.698" transform="matrix(0.957, -0.29, 0.29, 0.957, 15.325, 31.919)" fill="#185177" opacity="0.6"/>
      </g>
      <g id="Grupo_1232579" data-name="Grupo 1232579" transform="translate(1045.629 410.963)" opacity="0.69">
        <path id="Trazado_1226034" data-name="Trazado 1226034" d="M435.384,221.424c-3.187-3.1-12.648-12.969-14.162-15.118-1.841-2.613-.138-7.9,3.928-7.87,3.3.027,15.941-.778,20.6-1.081a1.827,1.827,0,0,0,1.708-1.859l-.005-.39a1.832,1.832,0,0,0-1.6-1.8c-4.406-.568-16.685-2.2-18.99-3.02-2.821-1-2.98-3.187,1.2-6.133,3.275-2.305,10.558-6.924,13.561-8.821a1.831,1.831,0,0,0,.693-2.295l-.042-.1a1.835,1.835,0,0,0-2.138-1.039c-3.7.961-13.195,3.386-16.751,3.91-4.457.656-9.187-2.4-7.827-10.855.659-4.09,5.275-14.045,6.22-17.341a2.155,2.155,0,0,0-.659-2.228h0a2.145,2.145,0,0,0-3.182.414c-2.72,4.005-10.061,15.206-12.648,18.478-4.425,5.6-9.67,1.477-12.584-2.266-2.125-2.73-5.527-7.763-7.214-10.289a1.831,1.831,0,0,0-2.55-.494l-.21.141a1.828,1.828,0,0,0-.709,2.13c1.211,3.418,4.292,12.478,4.2,16.018-.117,4.4-2.98,5.822-6.842,4.127-2.945-1.294-9.947-5.615-13.1-7.591a1.838,1.838,0,0,0-2.143,2.975c2.6,2.146,8.714,7.208,11.1,9.426,3.065,2.853,2.831,7.155-2.847,6.143-4.13-.736-10.327-1.517-13.4-1.886a2.01,2.01,0,0,0-.9,3.891c3.588,1.259,12.087,4.3,14.425,5.681,2.985,1.758,3.2,4.6-1.086,7.663-3.376,2.412-10.327,5.429-13.118,6.6a1.477,1.477,0,0,0,1.044,2.762c3.729-1.278,13.429-4.536,16.14-4.823,3.381-.359,5.1,3.583,2.879,7.811-1.559,2.975-7.049,12.682-9.8,17.415a2.226,2.226,0,0,0,3.74,2.406c3.4-4.807,9.089-13.487,10.688-15.214,3.054-3.3,6.4-2.667,6.17,4.712-.175,5.641-.348,13.083-.417,16.273a1.831,1.831,0,0,0,1.511,1.841l.374.066a1.838,1.838,0,0,0,2.157-1.639c.412-4.481,1.445-15.078,2.178-16.858.932-2.266,4.35-3.615,7.551-.444,2.552,2.531,9.963,10.3,12.858,13.338a1.83,1.83,0,0,0,2.5.141l.382-.316a1.831,1.831,0,0,0,.42-2.329c-1.984-3.413-7.1-12.3-7.471-13.777-.465-1.833-1.174-5.519,5.774-2.181,5.349,2.571,13.145,7.174,16.289,8.72a1.877,1.877,0,0,0,2.127-3.036Z" transform="translate(-352.521 -139.13)" fill="#346e94"/>
        <path id="Trazado_1226035" data-name="Trazado 1226035" d="M389.505,152.959a6.2,6.2,0,1,1-.64-8.744A6.2,6.2,0,0,1,389.505,152.959Z" transform="translate(-316.292 -142.707)" fill="#185177" opacity="0.6"/>
        <path id="Trazado_1226036" data-name="Trazado 1226036" d="M395.714,161.844a4.8,4.8,0,1,1-.5-6.775A4.8,4.8,0,0,1,395.714,161.844Z" transform="translate(-301.949 -124.171)" fill="#185177" opacity="0.6"/>
        <path id="Trazado_1226037" data-name="Trazado 1226037" d="M400.57,172.812a6.917,6.917,0,1,1-.714-9.755A6.916,6.916,0,0,1,400.57,172.812Z" transform="translate(-300.055 -111.794)" fill="#185177" opacity="0.6"/>
        <path id="Trazado_1226038" data-name="Trazado 1226038" d="M391.578,179.4a3.779,3.779,0,1,1-.39-5.331A3.78,3.78,0,0,1,391.578,179.4Z" transform="translate(-305.817 -92.285)" fill="#185177" opacity="0.6"/>
        <path id="Trazado_1226039" data-name="Trazado 1226039" d="M386.974,185.17a5.188,5.188,0,1,1-.536-7.317A5.189,5.189,0,0,1,386.974,185.17Z" transform="translate(-317.54 -86.593)" fill="#185177" opacity="0.6"/>
        <path id="Trazado_1226040" data-name="Trazado 1226040" d="M377.709,188.516a5.956,5.956,0,1,1-.616-8.4A5.959,5.959,0,0,1,377.709,188.516Z" transform="translate(-335.117 -83.158)" fill="#185177" opacity="0.6"/>
        <path id="Trazado_1226041" data-name="Trazado 1226041" d="M367.882,183.377a4.484,4.484,0,1,1-.462-6.324A4.481,4.481,0,0,1,367.882,183.377Z" transform="translate(-347.108 -87.639)" fill="#185177" opacity="0.6"/>
        <path id="Trazado_1226042" data-name="Trazado 1226042" d="M362.177,173.6a3.715,3.715,0,1,1-.385-5.24A3.717,3.717,0,0,1,362.177,173.6Z" transform="translate(-354.32 -101.714)" fill="#185177" opacity="0.6"/>
        <path id="Trazado_1226043" data-name="Trazado 1226043" d="M363.638,165.818a4.832,4.832,0,1,1-.5-6.815A4.83,4.83,0,0,1,363.638,165.818Z" transform="translate(-355.149 -117.668)" fill="#185177" opacity="0.6"/>
        <path id="Trazado_1226044" data-name="Trazado 1226044" d="M364.968,158.088a3.978,3.978,0,1,1-.412-5.612A3.978,3.978,0,0,1,364.968,158.088Z" transform="translate(-350.46 -128.131)" fill="#185177" opacity="0.6"/>
        <path id="Trazado_1226045" data-name="Trazado 1226045" d="M374.178,154.324a5.429,5.429,0,1,1-.56-7.657A5.427,5.427,0,0,1,374.178,154.324Z" transform="translate(-339.431 -138.335)" fill="#185177" opacity="0.6"/>
        <path id="Trazado_1226046" data-name="Trazado 1226046" d="M403.794,191.572a22.319,22.319,0,1,1-2.305-31.479A22.318,22.318,0,0,1,403.794,191.572Z" transform="translate(-339.526 -122.901)" fill="#185177" opacity="0.6"/>
      </g>
      <g id="Grupo_1232580" data-name="Grupo 1232580" transform="translate(351.616 362.595)" opacity="0.41">
        <path id="Trazado_1226047" data-name="Trazado 1226047" d="M205.219,208.832c-2.834-1.74-11.357-7.394-12.815-8.714-1.772-1.607-1.4-5.745,1.578-6.39,2.414-.523,11.508-3.179,14.858-4.165a1.369,1.369,0,0,0,.943-1.639l-.069-.284a1.373,1.373,0,0,0-1.461-1.049c-3.309.308-12.539,1.129-14.358.908-2.223-.271-2.7-1.838-.13-4.672,2.013-2.22,6.571-6.786,8.454-8.661a1.367,1.367,0,0,0,.13-1.788l-.048-.064a1.372,1.372,0,0,0-1.732-.406c-2.544,1.307-9.078,4.635-11.588,5.6-3.147,1.208-7.1-.25-7.493-6.643-.191-3.094,1.551-11.115,1.7-13.678a1.613,1.613,0,0,0-.847-1.519h0a1.606,1.606,0,0,0-2.255.823c-1.328,3.37-4.853,12.749-6.2,15.561-2.313,4.813-6.818,2.664-9.556.409-2-1.644-5.307-4.762-6.951-6.329a1.368,1.368,0,0,0-1.942.056l-.13.138a1.367,1.367,0,0,0-.17,1.671c1.445,2.295,5.177,8.406,5.689,11.006.637,3.235-1.222,4.738-4.319,4.133-2.361-.462-8.18-2.467-10.81-3.394a1.375,1.375,0,0,0-1.078,2.523c2.252,1.139,7.543,3.835,9.644,5.062,2.706,1.58,3.24,4.76-1.073,4.951-3.134.138-7.787.584-10.09.818a1.5,1.5,0,0,0-.024,2.988c2.826.332,9.53,1.161,11.461,1.782,2.467.794,3.086,2.837.462,5.772-2.069,2.316-6.648,5.655-8.494,6.967a1.106,1.106,0,0,0,1.216,1.846c2.513-1.543,9.06-5.511,10.991-6.167,2.409-.815,4.308,1.78,3.381,5.23-.651,2.428-3.068,10.414-4.3,14.319a1.665,1.665,0,0,0,3.123,1.142c1.692-4.066,4.425-11.333,5.309-12.858,1.689-2.911,4.234-3,5.275,2.43.8,4.146,1.891,9.607,2.361,11.949a1.369,1.369,0,0,0,1.405,1.1l.284-.013a1.375,1.375,0,0,0,1.307-1.548c-.433-3.336-1.416-11.245-1.174-12.664.311-1.806,2.584-3.352,5.44-1.562,2.279,1.429,8.959,5.886,11.572,7.631a1.37,1.37,0,0,0,1.849-.308l.226-.295a1.371,1.371,0,0,0-.074-1.769c-2.008-2.167-7.2-7.817-7.713-8.831-.64-1.262-1.761-3.835,3.856-2.539,4.327,1,10.773,3.084,13.32,3.695a1.4,1.4,0,0,0,1.639-.884A1.371,1.371,0,0,0,205.219,208.832Z" transform="translate(-138.528 -150.991)" fill="#346e94"/>
        <path id="Trazado_1226048" data-name="Trazado 1226048" d="M163.991,160.616a4.638,4.638,0,1,1-1.9-6.279A4.637,4.637,0,0,1,163.991,160.616Z" transform="translate(-116.148 -153.787)" fill="#185177" opacity="0.6"/>
        <path id="Trazado_1226049" data-name="Trazado 1226049" d="M170.106,165.925a3.594,3.594,0,1,1-1.474-4.863A3.594,3.594,0,0,1,170.106,165.925Z" transform="translate(-102.767 -142.445)" fill="#185177" opacity="0.6"/>
        <path id="Trazado_1226050" data-name="Trazado 1226050" d="M175.255,173.377a5.174,5.174,0,1,1-2.119-7A5.173,5.173,0,0,1,175.255,173.377Z" transform="translate(-99.165 -133.96)" fill="#185177" opacity="0.6"/>
        <path id="Trazado_1226051" data-name="Trazado 1226051" d="M170.058,179.307a2.827,2.827,0,1,1-1.158-3.827A2.827,2.827,0,0,1,170.058,179.307Z" transform="translate(-100.459 -118.419)" fill="#185177" opacity="0.6"/>
        <path id="Trazado_1226052" data-name="Trazado 1226052" d="M167.515,184.431a3.881,3.881,0,1,1-1.591-5.254A3.881,3.881,0,0,1,167.515,184.431Z" transform="translate(-107.955 -112.502)" fill="#185177" opacity="0.6"/>
        <path id="Trazado_1226053" data-name="Trazado 1226053" d="M161.23,188.478a4.456,4.456,0,1,1-1.825-6.032A4.454,4.454,0,0,1,161.23,188.478Z" transform="translate(-120.153 -107.203)" fill="#185177" opacity="0.6"/>
        <path id="Trazado_1226054" data-name="Trazado 1226054" d="M153.345,186.168a3.353,3.353,0,1,1-1.373-4.539A3.353,3.353,0,0,1,153.345,186.168Z" transform="translate(-129.774 -108.338)" fill="#185177" opacity="0.6"/>
        <path id="Trazado_1226055" data-name="Trazado 1226055" d="M147.65,179.882a2.779,2.779,0,1,1-1.139-3.761A2.782,2.782,0,0,1,147.65,179.882Z" transform="translate(-137.415 -117.345)" fill="#185177" opacity="0.6"/>
        <path id="Trazado_1226056" data-name="Trazado 1226056" d="M147.341,174.087a3.616,3.616,0,1,1-1.482-4.895A3.616,3.616,0,0,1,147.341,174.087Z" transform="translate(-140.536 -128.985)" fill="#185177" opacity="0.6"/>
        <path id="Trazado_1226057" data-name="Trazado 1226057" d="M147.121,168.128A2.977,2.977,0,1,1,145.9,164.1,2.976,2.976,0,0,1,147.121,168.128Z" transform="translate(-138.905 -137.294)" fill="#185177" opacity="0.6"/>
        <path id="Trazado_1226058" data-name="Trazado 1226058" d="M153.1,164.038a4.062,4.062,0,1,1-1.663-5.5A4.06,4.06,0,0,1,153.1,164.038Z" transform="translate(-132.393 -146.715)" fill="#185177" opacity="0.6"/>
        <path id="Trazado_1226059" data-name="Trazado 1226059" d="M179.286,188.293a16.7,16.7,0,1,1-6.842-22.6A16.7,16.7,0,0,1,179.286,188.293Z" transform="translate(-128.401 -137.35)" fill="#185177" opacity="0.6"/>
      </g>
      <g id="Grupo_1232581" data-name="Grupo 1232581">
        <path id="Trazado_1226060" data-name="Trazado 1226060" d="M485.7,88.783a9.129,9.129,0,1,1,9.129-9.129A9.129,9.129,0,0,1,485.7,88.783Z" transform="translate(767.549 80.931)" fill="#185177" opacity="0.6"/>
        <path id="Trazado_1226061" data-name="Trazado 1226061" d="M439.573,32.583a9.129,9.129,0,1,1,9.129-9.129A9.129,9.129,0,0,1,439.573,32.583Z" transform="translate(691.169 -6.371)" fill="#185177" opacity="0.6"/>
        <circle id="Elipse_11566" data-name="Elipse 11566" cx="9.129" cy="9.129" r="9.129" transform="translate(333.944 331.401)" fill="#185177" opacity="0.6"/>
        <circle id="Elipse_11567" data-name="Elipse 11567" cx="25.846" cy="25.846" r="25.846" transform="translate(0.094 471.557) rotate(-22.5)" fill="#185177" opacity="0.6"/>
        <path id="Trazado_1226062" data-name="Trazado 1226062" d="M489.567,205.411a9.129,9.129,0,1,1,9.129-9.129A9.129,9.129,0,0,1,489.567,205.411Z" transform="translate(773.959 259.86)" fill="#185177" opacity="0.6"/>
        <circle id="Elipse_11568" data-name="Elipse 11568" cx="9.129" cy="9.129" r="9.129" transform="translate(877.532 323.938)" fill="#185177" opacity="0.6"/>
        <path id="Trazado_1226063" data-name="Trazado 1226063" d="M188.738,89.247a9.129,9.129,0,1,1,9.129-9.129A9.129,9.129,0,0,1,188.738,89.247Z" transform="translate(275.786 81.654)" fill="#185177" opacity="0.6"/>
        <circle id="Elipse_11569" data-name="Elipse 11569" cx="9.129" cy="9.129" r="9.129" transform="translate(99.146 188.469)" fill="#185177" opacity="0.6"/>
        <path id="Trazado_1226064" data-name="Trazado 1226064" d="M490.486,107.445a6.018,6.018,0,1,1,6.019-6.018A6.018,6.018,0,0,1,490.486,107.445Z" transform="translate(780.633 119.804)" fill="#185177" opacity="0.6"/>
        <path id="Trazado_1226065" data-name="Trazado 1226065" d="M382.519,27.3a6.018,6.018,0,1,1,6.018-6.019A6.018,6.018,0,0,1,382.519,27.3Z" transform="translate(601.84 -4.82)" fill="#185177" opacity="0.6"/>
        <path id="Trazado_1226066" data-name="Trazado 1226066" d="M123.743,181.6a6.019,6.019,0,1,1,6.019-6.019A6.018,6.018,0,0,1,123.743,181.6Z" transform="translate(173.306 235.458)" fill="#185177" opacity="0.6"/>
        <circle id="Elipse_11570" data-name="Elipse 11570" cx="3.11" cy="3.11" r="3.11" transform="translate(307.273 289.696)" fill="#185177" opacity="0.6"/>
        <circle id="Elipse_11571" data-name="Elipse 11571" cx="3.11" cy="3.11" r="3.11" transform="translate(276.904 188.241)" fill="#185177" opacity="0.6"/>
        <path id="Trazado_1226067" data-name="Trazado 1226067" d="M150.789,82.3a3.11,3.11,0,1,1,3.11-3.11A3.109,3.109,0,0,1,150.789,82.3Z" transform="translate(222.91 89.722)" fill="#185177" opacity="0.6"/>
        <path id="Trazado_1226068" data-name="Trazado 1226068" d="M69.341,227.142a3.11,3.11,0,1,1,3.11-3.11A3.109,3.109,0,0,1,69.341,227.142Z" transform="translate(88.032 315.78)" fill="#185177" opacity="0.6"/>
        <circle id="Elipse_11572" data-name="Elipse 11572" cx="3.11" cy="3.11" r="3.11" transform="translate(3.115 413.693)" fill="#185177" opacity="0.6"/>
        <circle id="Elipse_11573" data-name="Elipse 11573" cx="3.11" cy="3.11" r="3.11" transform="translate(493.852 238.776)" fill="#185177" opacity="0.6"/>
        <path id="Trazado_1226069" data-name="Trazado 1226069" d="M201.26,64.937a3.11,3.11,0,1,1,3.11-3.11A3.109,3.109,0,0,1,201.26,64.937Z" transform="translate(306.49 62.625)" fill="#185177" opacity="0.6"/>
        <circle id="Elipse_11574" data-name="Elipse 11574" cx="3.11" cy="3.11" r="3.11" transform="translate(566.937 15.28)" fill="#185177" opacity="0.6"/>
        <circle id="Elipse_11575" data-name="Elipse 11575" cx="3.11" cy="3.11" r="3.11" transform="translate(896.525 250.942)" fill="#185177" opacity="0.6"/>
        <circle id="Elipse_11576" data-name="Elipse 11576" cx="3.11" cy="3.11" r="3.11" transform="translate(1059.311)" fill="#185177" opacity="0.6"/>
        <path id="Trazado_1226070" data-name="Trazado 1226070" d="M462.081,76.015a3.11,3.11,0,1,1,3.11-3.11A3.109,3.109,0,0,1,462.081,76.015Z" transform="translate(738.41 79.914)" fill="#185177" opacity="0.6"/>
        <path id="Trazado_1226071" data-name="Trazado 1226071" d="M436.78,125.414a3.11,3.11,0,1,1,3.11-3.11A3.109,3.109,0,0,1,436.78,125.414Z" transform="translate(696.512 157.012)" fill="#185177" opacity="0.6"/>
        <circle id="Elipse_11577" data-name="Elipse 11577" cx="3.11" cy="3.11" r="3.11" transform="translate(1269.441 407.276)" fill="#185177" opacity="0.6"/>
        <path id="Trazado_1226072" data-name="Trazado 1226072" d="M490.509,53.559a3.11,3.11,0,1,1,3.11-3.11A3.109,3.109,0,0,1,490.509,53.559Z" transform="translate(785.487 55.401)" fill="#185177" opacity="0.6"/>
        <circle id="Elipse_11578" data-name="Elipse 11578" cx="3.11" cy="3.11" r="3.11" transform="translate(1036.196 423.155)" fill="#185177" opacity="0.6"/>
        <path id="Trazado_1226073" data-name="Trazado 1226073" d="M27.979,115.518A6.018,6.018,0,1,1,34,109.5,6.018,6.018,0,0,1,27.979,115.518Z" transform="translate(14.721 132.396)" fill="#185177" opacity="0.6"/>
        <path id="Trazado_1226074" data-name="Trazado 1226074" d="M103.951,108.262A18.281,18.281,0,1,1,122.233,89.98,18.281,18.281,0,0,1,103.951,108.262Z" transform="translate(120.223 82.554)" fill="#185177" opacity="0.6"/>
        <path id="Trazado_1226075" data-name="Trazado 1226075" d="M355.754,46.975a6.018,6.018,0,1,1,6.018-6.018A6.018,6.018,0,0,1,355.754,46.975Z" transform="translate(557.515 27.762)" fill="#185177" opacity="0.6"/>
        <path id="Trazado_1226076" data-name="Trazado 1226076" d="M128.413,110.685a6.019,6.019,0,1,1,6.018-6.018A6.018,6.018,0,0,1,128.413,110.685Z" transform="translate(181.04 124.858)" fill="#185177" opacity="0.6"/>
        <path id="Trazado_1226077" data-name="Trazado 1226077" d="M24.087,90.026a6.019,6.019,0,1,1,6.018-6.019A6.018,6.018,0,0,1,24.087,90.026Z" transform="translate(8.274 92.636)" fill="#185177" opacity="0.6"/>
        <path id="Trazado_1226078" data-name="Trazado 1226078" d="M476.48,175.606a6.019,6.019,0,1,1,6.019-6.018A6.018,6.018,0,0,1,476.48,175.606Z" transform="translate(757.439 226.115)" fill="#185177" opacity="0.6"/>
        <path id="Trazado_1226079" data-name="Trazado 1226079" d="M414.176,166.532a6.019,6.019,0,1,1,6.018-6.018A6.018,6.018,0,0,1,414.176,166.532Z" transform="translate(654.262 211.963)" fill="#185177" opacity="0.6"/>
        <path id="Trazado_1226080" data-name="Trazado 1226080" d="M201.093,150.106a6.019,6.019,0,1,1,6.019-6.019A6.018,6.018,0,0,1,201.093,150.106Z" transform="translate(301.398 186.343)" fill="#185177" opacity="0.6"/>
        <path id="Trazado_1226081" data-name="Trazado 1226081" d="M95.759,218.089a6.019,6.019,0,1,1,6.018-6.018A6.018,6.018,0,0,1,95.759,218.089Z" transform="translate(126.965 291.155)" fill="#185177" opacity="0.6"/>
        <circle id="Elipse_11579" data-name="Elipse 11579" cx="6.018" cy="6.018" r="6.018" transform="translate(0 323.816)" fill="#185177" opacity="0.6"/>
      </g>
    </g>
  </g>
</svg>
